<?xml version="1.0" encoding="utf-8" standalone="no"?>
<!DOCTYPE svg PUBLIC "-//W3C//DTD SVG 1.1//EN"
  "http://www.w3.org/Graphics/SVG/1.1/DTD/svg11.dtd">
<!-- Created with matplotlib (http://matplotlib.org/) -->
<svg height="432pt" version="1.1" viewBox="0 0 576 432" width="576pt" xmlns="http://www.w3.org/2000/svg" xmlns:xlink="http://www.w3.org/1999/xlink">
 <defs>
  <style type="text/css">
*{stroke-linecap:butt;stroke-linejoin:round;}
  </style>
 </defs>
 <g id="figure_1">
  <g id="patch_1">
   <path d="
M0 432
L576 432
L576 0
L0 0
z
" style="fill:#ffffff;"/>
  </g>
  <g id="axes_1">
   <g id="patch_2">
    <path d="
M72 388.8
L518.4 388.8
L518.4 43.2
L72 43.2
z
" style="fill:#ffffff;"/>
   </g>
   <g id="line2d_1">
    <path clip-path="url(#p7ff5b81e1d)" d="
M72 52.0355
L72.9821 49.6752
L73.116 52.2049
L73.8749 66.8082
L74.4552 73.7391
L74.8123 75.6084
L75.1694 76.7374
L75.348 77.0884
L75.3926 76.9561
L75.973 75.0482
L76.5979 70.5953
L77.1336 67.4112
L77.1782 67.7602
L77.7586 71.407
L78.5174 75.7783
L79.187 86.1184
L80.0352 95.6653
L80.6155 100.259
L81.3744 103.741
L82.044 105.829
L82.4458 106.66
L83.2046 116.747
L83.9189 123.361
L84.4099 126.211
L84.9456 127.507
L85.392 128.055
L85.7491 128.176
L85.9723 128.118
L87.0883 124.443
L87.3115 123.402
L88.3382 115.48
L88.8739 111.01
L89.9006 103.307
L91.1506 95.6548
L92.3558 88.334
L93.0701 82.6955
L93.829 77.3445
L94.5432 82.0099
L94.945 82.9028
L95.7485 82.9668
L96.061 85.8293
L96.2842 88.1945
L97.1323 103.872
L97.9358 114.717
L98.2483 119.233
L98.8733 131.419
L99.5429 140.361
L99.9446 143
L100.391 144.765
L100.882 145.267
L101.284 145.386
L101.641 145.268
L102.043 144.884
L102.534 144.069
L103.114 142.646
L103.828 140.282
L104.721 136.529
L105.926 130.401
L107.578 120.797
L108.56 111.593
L109.498 101.779
L111.685 80.621
L112.533 72.8151
L112.667 71.7735
L112.712 72.0537
L112.846 73.4852
L115.167 116.932
L115.39 119.587
L116.015 131.14
L116.819 140.146
L117.533 145.76
L118.158 149.009
L118.426 149.969
L118.649 155.407
L119.408 173.871
L120.122 185.973
L120.747 193.086
L121.104 195.285
L121.55 196.858
L121.908 197.472
L122.175 197.592
L122.443 197.443
L122.756 196.955
L123.157 195.878
L123.381 194.758
L123.782 191.642
L125.434 176.002
L126.327 165.11
L126.729 159.544
L126.818 159.592
L127.175 159.621
L127.264 159.476
L127.889 157.404
L128.871 151.111
L130.077 141.008
L130.3 138.09
L130.389 138.202
L130.969 138.726
L131.416 138.846
L131.818 138.723
L131.996 138.596
L132.443 143.044
L132.576 144.645
L133.335 157.114
L133.96 164.2
L134.585 168.137
L135.121 170.255
L135.567 171.22
L135.924 171.516
L136.192 171.482
L136.505 171.186
L136.907 170.433
L137.398 169.003
L138.067 166.279
L138.915 161.797
L139.451 158.504
L139.496 158.834
L140.031 161.966
L140.522 163.635
L140.88 164.222
L141.192 164.353
L141.46 164.207
L141.772 163.766
L142.219 162.685
L142.799 160.6
L143.558 156.946
L143.915 154.511
L145.79 138.407
L146.861 126.984
L146.995 127.443
L147.531 129.413
L148.2 138.206
L148.87 143.041
L149.45 145.75
L149.941 147.1
L150.343 147.635
L150.656 147.733
L150.968 147.577
L151.325 147.115
L151.593 146.477
L152.129 143.455
L154.048 130.321
L154.227 129.148
L154.272 129.473
L154.539 130.711
L155.03 132.124
L155.343 132.053
L157.084 126.609
L157.753 124.166
L158.423 129.827
L158.825 132.868
L159.539 144.326
L160.209 151.753
L160.789 156.026
L161.325 158.469
L161.771 159.563
L161.905 159.742
L161.95 159.677
L162.396 158.8
L162.798 157.683
L163.378 162.921
L163.824 164.577
L164.182 164.665
L164.494 164.506
L164.851 164.069
L165.298 163.16
L165.878 161.428
L166.592 158.55
L167.217 155.247
L167.797 150.008
L169.137 136.991
L169.226 137.309
L169.628 138.356
L170.029 138.205
L170.476 137.783
L171.012 136.926
L171.636 135.461
L172.395 133.07
L173.333 129.334
L173.735 127.087
L174.493 121.977
L175.029 125.123
L175.163 125.483
L175.922 136.057
L176.502 141.485
L177.127 144.531
L177.618 145.989
L177.797 146.333
L178.511 155.646
L179.27 162.357
L179.582 174.576
L180.341 199.662
L181.056 216.455
L181.591 228.848
L182.216 244.942
L182.93 260.468
L183.555 269.552
L183.823 271.474
L184.27 272.981
L184.582 273.391
L184.805 273.381
L185.028 273.133
L185.341 272.407
L185.743 270.877
L186.011 269.191
L186.814 262.073
L187.796 249.082
L190.475 205.883
L190.966 200.192
L191.144 200.082
L191.769 197.564
L192.573 193.304
L193.555 186.797
L194.537 178.877
L195.43 170.558
L195.831 170.031
L196.322 168.999
L196.947 167.097
L197.662 164.192
L199.76 149.215
L199.804 149.508
L200.385 152.489
L200.876 153.929
L201.233 154.431
L201.545 154.536
L201.813 154.398
L202.17 153.919
L202.617 152.897
L203.197 150.966
L203.376 149.929
L205.563 135.153
L206.411 126.24
L207.036 120.249
L207.081 120.463
L207.661 123.305
L208.286 131.845
L208.956 137.589
L209.179 138.514
L209.67 138.996
L209.982 139.103
L210.696 137.181
L211.411 132.951
L212.571 125.761
L212.839 123.708
L212.884 123.252
L212.928 123.419
L213.375 124.685
L214 124.912
L214.268 124.917
L214.714 129.704
L215.473 134.155
L216.098 136.664
L216.634 138.013
L217.08 138.606
L217.437 138.756
L217.616 138.729
L218.598 135.61
L219.669 131.419
L220.964 125.374
L222.348 117.952
L223.731 107.866
L224.088 104.782
L225.026 95.5915
L226.053 87.695
L227.169 80.8056
L227.392 79.5832
L227.883 82.9158
L227.972 83.311
L228.642 93.4795
L229.311 100.149
L229.624 101.489
L230.383 103.874
L231.008 105.167
L231.097 105.301
L231.142 105.254
L231.99 104.237
L232.436 102.369
L232.481 102.724
L232.749 105.355
L233.016 113.101
L233.775 134.075
L234.445 150.752
L235.204 168.173
L235.918 179.871
L236.588 187.335
L237.168 191.478
L237.659 193.537
L238.061 194.362
L238.329 194.528
L238.552 194.451
L238.82 194.121
L239.177 193.311
L239.534 192.009
L239.891 189.068
L240.471 183.931
L240.516 184.152
L241.007 185.999
L241.409 186.756
L241.721 186.923
L241.989 186.795
L242.302 186.356
L242.436 185.968
L243.328 181.216
L244.444 173.937
L245.917 162.715
L248.239 143.1
L248.998 135.237
L249.042 135.413
L249.533 136.904
L249.935 137.561
L249.98 137.605
L250.024 137.533
L250.203 137.109
L250.605 134.947
L250.783 133.786
L250.828 134.119
L251.274 136.625
L251.453 136.894
L251.81 137.122
L253.863 164.846
L254.533 168.699
L255.024 171.153
L255.515 177.42
L256.185 183.526
L256.765 186.91
L257.256 188.555
L257.613 189.124
L257.881 189.235
L258.06 189.17
L258.684 195.984
L259.086 198.518
L259.533 199.78
L259.845 200.157
L260.113 200.175
L260.247 200.086
L260.559 198.919
L261.14 203.583
L261.631 205.998
L262.032 207.054
L262.345 207.362
L262.568 207.332
L262.836 207.04
L263.193 206.252
L263.684 204.509
L264.309 201.347
L264.666 198.616
L265.514 190.262
L266.541 177.394
L269.041 145.405
L269.22 145.658
L269.577 145.932
L269.711 145.958
L270.023 145.146
L270.693 150.058
L271.273 152.925
L271.809 154.534
L272.166 154.293
L272.389 154.033
L273.817 148.073
L275.112 141.648
L275.96 136.602
L276.139 135.17
L276.183 135.433
L276.764 138.185
L277.255 139.615
L277.389 139.876
L277.433 139.84
L277.88 139.322
L277.969 139.183
L278.639 146.128
L279.264 150.489
L279.799 152.829
L280.067 153.463
L280.335 153.343
L281.183 165.824
L283.058 202.154
L283.683 209.148
L284.219 212.94
L284.665 214.765
L285.022 215.456
L285.29 215.572
L285.513 215.428
L285.647 215.132
L286.272 212.102
L287.834 198.605
L289.486 182.785
L289.575 183.127
L289.977 184.204
L290.29 184.56
L290.557 184.562
L290.736 184.42
L291.406 181.585
L292.254 176.936
L293.325 169.76
L293.414 170.337
L293.95 172.926
L294.396 174.061
L294.709 174.371
L294.977 174.351
L295.602 172.086
L296.405 168.229
L296.673 166.308
L297.923 154.122
L298.459 156.136
L298.905 157.043
L299.262 157.317
L299.441 157.314
L299.575 156.714
L301.539 145.897
L301.584 146.255
L302.208 150.263
L302.744 152.359
L302.923 152.595
L303.057 152.555
L303.994 149.438
L304.976 145.376
L307.164 130.751
L308.146 123.675
L309.083 114.758
L310.199 105.432
L311.494 96.4805
L311.94 93.0024
L312.877 86.1155
L313.592 90.4962
L314.172 93.5807
L314.931 104.725
L315.779 116.22
L316.404 126.842
L317.118 134.96
L317.743 139.8
L318.279 141.365
L318.681 142
L319.172 141.137
L319.797 137.779
L321.18 129.231
L322.341 121.917
L323.279 115.169
L323.636 116.961
L324.261 119.394
L324.975 129.13
L325.332 131.429
L326.002 134.335
L326.537 136.407
L327.252 145.942
L327.921 152.078
L328.501 155.534
L328.992 157.3
L329.126 157.617
L329.216 157.574
L329.573 157.225
L330.019 156.42
L330.421 155.264
L331.805 147.2
L331.849 146.829
L331.894 147.077
L332.028 148.393
L332.742 159.747
L333.233 164.913
L333.858 168.859
L334.126 170.637
L334.885 185.697
L335.599 200.106
L336.224 208.708
L336.581 211.472
L337.117 215.268
L337.742 224.004
L338.322 229.221
L338.813 231.781
L339.036 232.231
L339.26 232.119
L339.528 231.718
L339.885 230.766
L340.286 229.067
L340.733 225.241
L341.09 221.67
L341.135 221.839
L341.536 222.921
L341.849 223.255
L342.072 223.241
L342.34 222.965
L342.697 222.187
L343.009 221.044
L343.5 217.354
L345.286 199.779
L346.179 187.65
L347.34 171.206
L348.679 155.211
L349.259 154.125
L349.572 153.144
L349.929 150.825
L351.759 136.818
L352.786 128.2
L353.768 118.451
L355.062 106.085
L355.285 103.747
L355.33 103.915
L356 106.006
L356.178 106.429
L356.803 114.89
L357.517 121.048
L358.187 125.04
L358.767 127.275
L359.258 128.385
L359.66 128.82
L359.973 128.894
L360.285 128.756
L360.687 128.296
L360.999 127.629
L361.223 126.197
L365.642 95.5342
L367.16 80.2924
L367.294 80.8813
L368.097 83.8645
L368.32 84.1986
L369.168 84.4736
L369.972 94.1991
L370.731 100.756
L371.4 104.743
L371.981 107.038
L372.516 108.334
L372.963 108.892
L373.141 108.996
L373.856 107.342
L374.57 114.222
L375.24 118.612
L375.82 121.055
L376.311 122.28
L376.713 122.783
L377.07 122.896
L377.338 121.954
L377.873 119.241
L378.543 124.314
L379.168 127.502
L379.704 129.199
L380.15 129.972
L380.507 130.218
L380.953 135.244
L381.444 137.73
L381.98 138.808
L382.427 139.267
L382.784 139.354
L383.141 139.202
L383.543 138.762
L383.855 138.124
L384.525 134.711
L385.373 129.206
L386.042 133.47
L386.623 135.831
L387.158 137.669
L387.828 146.179
L388.23 148.675
L388.632 149.85
L388.765 149.899
L389.39 157.363
L389.524 159.024
L390.283 172.723
L390.73 177.805
L391.355 182.89
L391.89 185.686
L392.203 186.607
L392.471 186.562
L392.783 186.27
L393.185 185.536
L394.256 179.826
L395.461 172.116
L395.997 167.69
L397.872 150.536
L397.917 150.66
L398.631 160.669
L399.256 166.676
L399.792 168.923
L400.238 169.972
L400.55 170.302
L401.22 178.351
L401.8 182.926
L402.291 185.313
L402.693 186.387
L402.782 186.528
L403.363 193.897
L403.898 197.411
L404.389 199.277
L404.434 199.389
L404.97 206.435
L405.238 209.947
L405.907 221.835
L406.532 229.214
L406.666 231.393
L407.336 242.118
L407.916 248.136
L408.407 251.197
L408.586 251.576
L408.63 251.618
L408.675 251.539
L409.032 250.659
L409.523 248.771
L410.148 245.342
L410.907 239.856
L411.889 231.051
L413.273 216.4
L415.371 191.812
L415.505 192.038
L415.817 192.26
L415.862 192.258
L415.996 191.883
L416.576 197.095
L416.799 199.148
L417.826 220.99
L418.228 227.294
L418.853 233.98
L419.388 237.499
L419.612 238.106
L419.88 238.267
L420.103 238.168
L420.371 237.788
L420.728 236.866
L421.219 234.893
L421.799 231.643
L422.156 227.551
L422.513 223.13
L422.96 222.098
L423.495 220.288
L424.165 217.177
L424.656 214.018
L425.727 203.96
L428.138 178.135
L430.593 153.331
L431.084 154.874
L431.441 155.419
L431.754 155.542
L432.022 155.41
L432.379 154.925
L432.557 154.562
L433.182 160.579
L433.718 165.13
L434.298 173.918
L434.923 178.173
L435.191 179.206
L435.593 178.741
L436.084 177.802
L436.664 176.166
L436.798 175.71
L437.423 181.057
L437.691 182.359
L438.003 182.416
L438.316 182.248
L438.673 181.787
L438.941 181.148
L439.923 176.044
L441.932 159.537
L442.021 159.906
L442.512 161.438
L442.78 161.938
L442.824 161.889
L443.271 161.217
L443.807 159.983
L444.476 157.825
L445.28 154.433
L446.306 149.059
L447.556 141.38
L448.003 137.444
L448.047 137.676
L448.315 138.59
L448.36 138.668
L448.404 138.631
L448.494 138.441
L450.324 131.944
L451.261 126.644
L451.663 129.093
L452.288 131.475
L452.556 132.181
L453.27 142.04
L453.94 148.457
L454.52 152.139
L454.743 152.721
L455.011 153.097
L455.547 152.118
L456.172 150.501
L456.931 147.883
L457.154 146.561
L459.207 132.742
L460.011 125.152
L460.145 123.569
L460.234 123.77
L460.814 124.757
L460.993 124.948
L461.038 124.877
L462.02 123.097
L462.377 122.201
L462.734 120.012
L463.716 114.025
L464.43 119.068
L465.055 122.051
L465.457 123.123
L465.859 123.115
L466.216 122.922
L466.93 130.86
L467.6 135.93
L468.18 138.749
L468.671 140.155
L468.716 140.243
L468.805 140.181
L469.207 139.733
L469.698 138.828
L469.921 138.079
L470.948 132.518
L471.885 124.955
L473.269 110.482
L473.403 110.72
L474.206 121.589
L474.921 128.581
L475.59 133.129
L476.171 135.697
L476.662 136.996
L477.063 137.531
L477.287 137.643
L477.733 136.514
L478.135 139.837
L478.76 143.384
L479.206 144.946
L479.563 145.027
L479.92 144.875
L480.144 144.666
L480.635 142.836
L481.304 148.498
L481.884 151.767
L482.331 153.258
L482.465 153.283
L483.09 167.872
L483.804 179.448
L484.518 188.203
L485.099 197.758
L485.679 203.702
L486.215 206.406
L486.616 207.581
L486.929 207.312
L487.286 206.688
L487.777 205.307
L487.956 204.34
L488.357 201.273
L492.42 164.892
L493.357 153.706
L493.491 153.877
L493.848 154.109
L494.16 154.061
L494.518 153.737
L494.964 152.958
L495.5 151.532
L496.08 149.459
L496.125 149.897
L496.526 152.79
L497.062 155.004
L497.508 156.051
L497.866 156.421
L498.089 156.459
L498.223 155.873
L500.455 143.653
L501.303 138.128
L502.642 125.943
L503.088 121.831
L503.178 122.101
L503.401 122.485
L503.937 122.411
L504.428 122.112
L504.517 122.032
L505.231 129.928
L505.901 135.05
L506.481 137.957
L506.749 138.657
L506.972 138.736
L507.91 136.221
L508.668 133.598
L510.722 121.871
L511.793 115.587
L511.838 115.854
L512.463 118.91
L512.775 119.777
L513.222 119.926
L513.624 119.82
L513.847 119.667
L514.427 125.76
L514.784 127.106
L515.364 127.987
L515.856 128.368
L516.257 128.417
L516.48 128.343
L517.507 124.943
L518.043 121.318
L518.355 118.782
L518.355 118.782" style="fill:none;stroke:#0000ff;stroke-linecap:square;"/>
   </g>
   <g id="line2d_2">
    <path clip-path="url(#p7ff5b81e1d)" d="
M72 112.039
L73.4731 99.4653
L73.7856 97.0546
L73.8302 97.3345
L74.1874 98.8842
L74.3659 99.1031
L74.5445 99.0703
L74.8123 98.0304
L74.9909 97.1779
L75.7944 103.663
L76.2854 106.25
L76.5086 106.7
L77.3122 106.928
L77.5354 106.926
L78.071 105.287
L79.0085 101.44
L79.7674 108.119
L80.1691 110.38
L80.4816 111.232
L81.0619 111.525
L81.553 111.544
L82.044 111.327
L82.4458 110.97
L83.0707 117.511
L83.7403 121.594
L84.3206 123.959
L84.8563 125.283
L85.3027 125.827
L85.6598 125.933
L86.017 125.775
L86.4187 125.312
L86.9098 124.383
L87.5347 122.705
L88.3829 119.715
L88.4275 120.156
L89.0971 125.541
L89.6774 128.557
L90.0346 129.544
L90.3917 129.546
L90.7488 129.306
L91.0613 128.912
L91.7755 125.645
L92.3112 121.449
L94.1414 106.444
L94.1861 106.632
L94.4093 107.192
L94.8557 107.762
L95.6592 118.148
L96.061 123.371
L96.8198 138.025
L98.4715 162.865
L99.1411 169.269
L99.7214 172.951
L100.212 174.875
L100.614 175.725
L100.927 175.979
L101.195 175.939
L101.507 175.612
L101.909 174.792
L102.311 173.568
L102.846 169.8
L105.435 136
L106.641 124.721
L108.069 113.53
L109.721 102.359
L110.658 96.62
L111.06 98.9823
L111.64 99.7568
L112.265 107.66
L113.024 111.999
L113.694 114.672
L113.917 115.114
L114.408 115.16
L114.631 115.104
L115.078 113.524
L116.238 107.156
L117.042 99.5834
L117.845 92.2322
L118.515 87.5121
L119.318 92.7536
L119.899 95.2865
L120.524 96.1167
L120.613 96.201
L121.372 105.876
L122.086 112.384
L122.22 113.974
L122.756 122.811
L123.47 131.608
L123.961 137.241
L124.631 149.273
L125.256 156.029
L125.791 158.92
L125.925 159.211
L126.014 159.161
L126.238 158.995
L127.175 155.449
L129.184 144.279
L129.853 140.078
L130.925 130.012
L131.282 126.108
L131.371 125.004
L131.46 125.153
L131.996 134.495
L132.8 162.028
L134.451 206.42
L135.032 214.989
L135.657 220.69
L135.969 222.204
L136.371 223.079
L136.683 223.304
L136.907 223.235
L137.174 222.913
L137.532 222.105
L138.023 220.347
L138.648 217.16
L139.451 211.769
L140.522 202.874
L142.04 188.172
L143.558 171.555
L146.102 138.355
L146.236 137.59
L146.638 137.06
L147.576 132.889
L148.111 128.848
L148.2 129.38
L148.87 132.661
L149.45 134.528
L149.941 135.444
L150.343 135.775
L150.656 135.79
L150.968 135.607
L151.638 142.953
L152.218 147.299
L152.709 148.65
L153.111 149.215
L153.423 149.348
L153.647 149.291
L154.316 156.772
L154.896 161.088
L155.388 162.329
L155.566 162.581
L156.191 170.332
L156.771 174.222
L157.218 175.149
L157.575 175.453
L157.843 175.442
L158.155 175.184
L158.423 174.766
L159.048 180.988
L159.673 186.686
L160.164 193.53
L160.789 199.32
L161.101 200.867
L161.503 201.79
L161.816 202.062
L162.084 202.008
L162.351 201.707
L162.708 200.949
L162.798 200.7
L163.378 205.893
L163.869 208.585
L164.271 209.781
L164.583 210.155
L164.807 210.152
L165.074 209.874
L165.208 209.631
L166.101 221.307
L166.726 230.495
L167.262 235.57
L167.753 238.302
L168.11 239.29
L168.378 239.541
L168.556 239.495
L169.047 237.5
L169.538 234.644
L170.342 226.715
L171.056 216.947
L172.976 192.49
L173.779 181.557
L174.806 166.498
L174.94 166.53
L175.609 164.604
L176.413 161.55
L177.35 157.045
L178.199 152.239
L178.243 152.587
L178.6 156.105
L179.448 172.087
L180.207 196.167
L180.698 211.867
L181.413 231.905
L182.082 244.781
L182.663 252.108
L183.154 255.968
L183.6 257.883
L183.912 258.432
L184.136 258.465
L184.359 258.223
L184.671 257.459
L185.073 255.823
L185.609 252.654
L186.323 246.999
L186.769 242.804
L186.859 243.139
L187.037 243.656
L187.573 250.789
L187.885 252.537
L188.287 253.647
L188.555 253.901
L188.6 253.908
L189.001 252.642
L189.537 250.148
L190.207 245.89
L190.653 241.918
L191.1 236.177
L193.332 203.518
L193.599 203.334
L193.956 202.742
L194.224 202.056
L194.581 206.757
L195.251 219.114
L195.474 224.079
L196.144 238.921
L196.724 247.395
L197.26 251.62
L197.706 253.596
L198.063 254.286
L198.287 254.354
L198.51 254.163
L198.822 253.496
L199.135 252.29
L199.938 246.221
L200.965 236.588
L202.393 220.821
L204.224 198.678
L204.358 198.855
L204.625 198.969
L204.849 198.836
L205.161 198.331
L205.563 197.191
L205.786 196.125
L206.322 192.024
L207.081 183.856
L208.107 171.026
L208.286 171.308
L208.598 170.856
L209.179 168.043
L209.491 165.973
L209.536 166.3
L210.161 170.027
L210.384 170.565
L210.518 170.762
L210.563 170.708
L211.143 169.803
L211.321 169.333
L212.036 165.617
L212.571 161.159
L213.286 153.885
L213.821 156.552
L214.536 166.775
L215.205 173.4
L215.562 175.376
L215.785 176.148
L216.276 182.711
L216.901 188.469
L217.482 191.896
L217.928 193.423
L218.285 194.024
L218.553 194.145
L218.821 194.006
L219.133 193.539
L219.357 192.909
L220.249 187.788
L220.607 184.825
L226.276 134.612
L226.32 134.851
L226.856 137.072
L227.124 137.775
L227.169 137.757
L227.303 137.681
L227.392 137.392
L228.061 143.426
L228.597 146.659
L229.088 147.656
L229.267 147.868
L229.311 147.798
L229.936 146.598
L230.651 144.697
L232.124 135.893
L232.615 132.048
L232.659 132.241
L233.284 134.412
L233.552 135.047
L234.624 150.77
L235.115 157.038
L235.829 162.126
L236.097 163.042
L236.588 164.505
L237.213 171.123
L237.882 175.199
L238.418 177.275
L238.864 178.253
L239.221 178.577
L239.489 178.57
L239.802 178.307
L240.204 177.595
L240.695 176.206
L241.32 173.717
L242.123 169.534
L243.194 162.662
L244.132 155.392
L245.069 145.827
L245.159 146.042
L245.605 146.787
L245.962 147.009
L246.275 146.95
L246.632 146.616
L247.078 145.834
L247.658 144.279
L248.239 142.095
L248.73 138.953
L248.774 139.285
L249.132 141.193
L249.667 142.652
L249.846 142.963
L249.89 142.917
L250.426 142.176
L251.006 140.972
L251.721 138.94
L252.569 135.812
L252.881 134.164
L253.194 131.875
L253.238 132.095
L253.819 135.046
L254.354 142.29
L254.89 147.106
L255.292 148.882
L255.56 149.483
L255.604 149.458
L255.783 149.233
L257.301 144.086
L258.015 139.818
L258.06 140.102
L258.729 143.627
L259.309 145.6
L259.8 146.539
L260.158 146.832
L260.47 146.838
L260.783 146.627
L261.184 146.058
L261.675 144.954
L262.3 142.979
L263.104 139.667
L263.818 135.932
L264.622 128.979
L266.809 107.952
L268.148 93.8697
L268.996 84.1045
L269.041 83.6654
L269.086 83.8502
L269.309 84.3048
L270.023 85.3002
L270.827 95.858
L271.541 102.64
L271.898 105.136
L272.657 117.257
L273.371 125.472
L273.728 129.798
L274.487 143.499
L275.157 151.925
L275.782 157.219
L276.317 160.095
L276.764 161.492
L277.121 162.037
L277.389 162.149
L277.656 162.028
L277.969 161.619
L278.415 160.59
L278.996 158.581
L279.665 155.388
L282.031 136.66
L283.951 117.056
L285.915 91.5647
L286.763 81.8659
L287.611 74.5678
L289.263 63.0526
L290.156 58.1174
L291.093 54.1786
L291.406 52.6482
L292.209 48.7177
L293.325 43.7518
L293.37 44.1585
L293.95 48.4536
L294.932 53.1391
L295.2 53.8823
L296.718 55.9425
L297.521 56.6761
L297.923 56.0198
L298.325 59.7499
L299.352 65.6154
L299.798 67.3614
L300.78 69.1189
L301.494 68.5839
L302.119 68.1374
L302.61 66.4071
L302.7 66.0001
L303.369 71.3436
L303.771 73.0211
L303.949 73.2822
L304.485 73.3406
L305.021 72.6566
L305.423 72.3586
L306.315 82.7225
L307.119 89.5664
L307.476 91.402
L308.19 93.7168
L308.458 94.1433
L309.217 93.8787
L309.887 93.395
L310.199 92.9641
L311.494 88.7609
L311.717 88.0851
L312.476 95.1293
L312.833 98.353
L313.592 109.946
L314.306 117.809
L314.752 122.661
L315.243 130.803
L316.002 136.956
L316.225 138.98
L316.984 151.656
L317.654 159.52
L318.279 164.472
L318.815 167.143
L319.261 168.408
L319.618 168.866
L319.707 168.91
L320.288 175.691
L320.868 179.21
L321.002 179.786
L321.672 189.831
L322.163 194.424
L322.609 196.57
L322.654 196.645
L322.698 196.603
L323.1 196.031
L323.591 194.868
L324.171 192.866
L324.886 189.547
L325.198 187.403
L326.269 178.038
L327.519 163.357
L328.368 153.066
L328.501 152.548
L329.037 150.88
L329.394 148.454
L329.93 144.877
L330.644 149.409
L331.224 151.822
L331.582 152.669
L331.805 152.564
L332.698 149.396
L333.144 146.106
L334.349 137.657
L336.447 124.791
L336.849 122.398
L336.894 122.75
L337.072 124.685
L337.831 137.969
L338.322 143.527
L338.947 146.881
L339.483 148.682
L339.929 149.5
L340.286 149.749
L340.599 149.696
L340.956 149.352
L341.402 148.534
L341.626 147.761
L343.233 139.017
L343.545 136.65
L343.679 135.247
L343.724 135.405
L343.992 136.25
L344.75 147.012
L345.42 155.997
L346.134 168.746
L346.759 176.292
L347.34 179.941
L347.831 181.774
L348.232 182.518
L348.545 182.675
L348.813 182.541
L349.036 182.254
L349.527 179.823
L351.089 165.669
L351.67 159.797
L355.018 118.194
L356.759 100.991
L359.169 78.3883
L359.348 76.6563
L359.392 76.8574
L359.705 78.0738
L359.749 78.0333
L360.285 77.7093
L361.178 77.2963
L361.223 77.1847
L361.848 85.2061
L362.517 96.6965
L363.008 102.1
L363.901 108.034
L364.392 111.146
L365.196 122.196
L365.91 129.302
L366.579 133.926
L367.16 136.54
L367.651 137.866
L368.052 138.417
L368.365 138.546
L368.677 138.436
L369.035 138.045
L369.481 137.198
L370.061 135.584
L370.82 132.756
L371.267 130.463
L373.543 113.943
L374.57 104.318
L375.284 97.4862
L376.757 81.7181
L377.025 79.2051
L377.114 79.4995
L378.007 82.0269
L378.141 82.3334
L378.945 93.5307
L379.614 100.188
L380.328 104.035
L380.686 105.231
L380.73 105.281
L381.132 112.681
L381.936 130.64
L382.516 139.535
L383.23 146.892
L383.498 149.972
L384.168 158.751
L384.748 162.019
L385.328 163.137
L385.775 163.549
L385.864 163.583
L385.908 163.484
L386.221 168.107
L386.98 183.352
L387.292 190.288
L387.962 204.223
L388.632 213.253
L389.078 216.959
L389.569 219.205
L389.971 220.199
L390.283 220.49
L390.506 220.457
L390.774 220.169
L391.131 219.392
L391.578 217.847
L392.158 215.001
L392.917 210.093
L393.319 206.424
L395.328 185.126
L397.024 164.935
L397.515 159.527
L397.56 159.661
L397.961 160.525
L398.274 160.8
L398.542 160.786
L398.854 160.503
L399.256 159.759
L399.747 158.34
L400.416 155.649
L401.131 152.016
L401.175 152.385
L401.577 154.882
L401.711 155.334
L402.336 164.025
L402.916 170.705
L403.452 179.225
L403.854 182.41
L404.211 184.04
L404.434 184.369
L404.836 184.154
L405.148 183.812
L406.22 198.518
L406.889 206.393
L407.47 210.986
L408.005 213.586
L408.273 214.242
L408.541 214.074
L408.853 213.601
L409.121 212.86
L409.612 209.727
L411.978 189.64
L413.407 175.834
L415.371 147.417
L415.505 147.493
L415.773 147.541
L416.487 155.838
L417.112 160.726
L417.648 163.402
L417.96 164.283
L418.272 164.198
L418.63 163.819
L418.897 163.24
L419.522 168.145
L420.058 170.871
L420.103 171.042
L420.772 181.008
L421.397 187.291
L421.933 190.71
L422.156 191.239
L422.469 191.508
L422.736 191.466
L423.049 191.124
L423.451 190.257
L423.942 188.614
L423.986 188.436
L424.433 191.758
L424.656 192.364
L424.968 192.619
L425.236 192.595
L425.549 192.299
L425.638 192.053
L425.906 190.588
L426.888 183.223
L428.093 170.421
L430.325 147.583
L430.593 144.022
L430.727 144.044
L431.129 143.967
L431.531 143.666
L431.977 143.063
L432.825 154.563
L433.182 162.92
L433.941 181.234
L434.611 192.621
L435.236 199.869
L435.771 203.88
L436.262 206.032
L436.62 206.796
L436.664 206.848
L436.709 206.78
L437.066 206.019
L437.334 205.092
L437.512 204.025
L437.557 204.369
L437.736 206.245
L438.271 215.061
L438.896 221.699
L439.387 225.051
L439.521 225.385
L439.61 225.346
L439.923 225.019
L440.682 221.527
L441.53 216.543
L441.976 213.481
L442.021 213.776
L442.512 216.268
L442.914 217.349
L443.226 217.656
L443.449 217.612
L443.717 217.293
L443.985 216.704
L444.565 221.938
L445.012 224.361
L445.324 224.613
L445.548 224.536
L445.815 224.181
L445.994 223.683
L446.351 221.461
L447.913 208.033
L449.253 194.77
L451.574 165.142
L452.154 157.4
L452.199 157.451
L452.333 157.57
L452.377 157.489
L453.002 156.08
L453.36 154.831
L454.565 147.629
L456.172 135.889
L456.841 130.494
L459.832 103.322
L460.77 94.2432
L461.216 89.6088
L462.466 75.6421
L463.091 78.788
L463.895 90.8817
L464.653 99.2479
L465.368 103.354
L465.993 105.826
L466.216 106.476
L466.975 117.179
L467.421 121.254
L468.091 125.223
L468.671 127.423
L468.85 127.892
L469.564 137.733
L469.742 140.954
L470.323 153.667
L471.082 171.513
L471.796 183.315
L472.912 199.635
L473.358 204.899
L473.939 209.628
L474.296 211.328
L474.653 211.797
L474.921 211.835
L475.144 211.675
L475.813 208.832
L476.215 206.306
L477.197 197.754
L479.474 173.111
L479.608 173.442
L480.01 174.063
L480.099 174.129
L480.768 182.19
L481.349 186.759
L481.84 189.129
L482.018 189.364
L482.286 189.35
L482.554 189.111
L482.733 188.833
L483.358 195.027
L483.492 196.635
L484.027 205.717
L484.474 211.229
L485.143 221.893
L485.679 227.595
L486.215 230.387
L486.616 231.507
L486.929 231.85
L487.063 231.865
L487.554 230.219
L488.179 227.23
L488.893 222.734
L490.991 201.675
L492.018 189.764
L495.187 151.005
L496.66 135.255
L497.821 124.317
L498.044 124.908
L498.491 125.515
L498.848 125.687
L498.892 125.69
L499.874 122.955
L500.544 129.073
L501.124 132.71
L501.615 133.672
L502.017 134.039
L502.374 134.072
L502.731 133.85
L503.133 133.32
L503.713 130.628
L504.517 122.785
L504.606 123.163
L505.231 125.34
L505.767 125.396
L506.079 125.309
L506.838 133.987
L507.508 139.274
L507.82 140.644
L508.311 141.729
L508.624 142.106
L509.16 141.067
L510.767 133.609
L511.436 138.721
L512.016 141.606
L512.508 143.074
L512.909 143.692
L513.222 143.848
L513.534 143.746
L513.891 143.343
L514.338 142.457
L514.873 140.907
L515.32 137.658
L516.838 126.328
L517.105 123.941
L517.195 124.361
L517.775 126.527
L518.266 127.649
L518.355 127.788
L518.355 127.788" style="fill:none;stroke:#008000;stroke-linecap:square;"/>
   </g>
   <g id="line2d_3">
    <path clip-path="url(#p7ff5b81e1d)" d="
M72 104.061
L73.5624 90.1687
L73.6517 89.2046
L73.6963 89.3489
L73.9195 89.8011
L74.0088 89.7275
L74.3659 88.9416
L74.6338 87.2605
L74.9909 89.3046
L76.0622 94.3652
L76.3301 95.0712
L76.7765 95.6301
L76.8211 95.5709
L77.7139 94.4061
L78.4728 90.6724
L78.6514 93.4836
L79.5442 107.453
L80.2584 115.63
L80.5262 117.027
L81.4637 119.125
L82.0886 120.038
L82.1779 120.128
L82.9368 129.786
L83.651 136.142
L84.276 139.832
L84.5885 140.884
L84.9902 141.156
L85.3474 141.117
L85.7045 140.83
L86.1509 140.146
L86.6866 138.895
L87.4008 136.592
L88.0258 133.861
L88.3382 131.776
L88.3829 132.098
L89.0078 135.742
L89.3203 136.68
L89.7221 136.975
L90.6149 134.748
L91.5523 131.748
L92.6237 127.503
L93.695 122.419
L93.829 121.441
L93.8736 121.736
L94.2754 123.632
L94.4986 123.982
L94.945 123.864
L95.4806 121.991
L95.5253 122.38
L96.1502 126.908
L96.5074 128.286
L97.1323 137.313
L97.7126 142.594
L98.3822 146.239
L98.8286 147.696
L99.1858 147.852
L100.079 161.635
L100.793 174.783
L101.462 183.335
L102.043 188.249
L102.266 190.215
L102.936 200.793
L103.516 205.771
L104.007 208.377
L104.409 209.548
L104.721 209.924
L104.944 209.932
L105.034 209.877
L105.614 207.556
L106.328 203.683
L107.266 197.219
L108.516 186.835
L109.899 173.616
L111.149 159.393
L111.328 159.661
L111.551 159.601
L112.131 157.573
L112.801 153.595
L112.846 153.839
L113.471 156.588
L113.962 157.908
L114.363 158.475
L114.676 158.617
L114.988 158.514
L115.658 165.882
L115.747 167.27
L116.283 176.694
L116.908 184.574
L117.488 188.276
L117.622 188.897
L118.292 199.153
L118.917 205.539
L119.452 208.931
L119.899 210.493
L120.256 211.016
L120.479 211.047
L120.702 210.868
L121.015 210.293
L121.416 209.051
L121.952 206.628
L122.666 202.277
L123.113 199.034
L123.157 199.309
L123.738 203.035
L124.363 211.385
L124.541 214.277
L125.211 225.59
L125.791 232.069
L126.327 235.733
L126.729 237.222
L127.041 237.723
L127.398 236.856
L127.889 234.936
L128.157 233.248
L129.228 223.964
L130.389 209.155
L131.148 197.675
L132.353 179.459
L133.648 163.137
L134.317 161.342
L134.585 160.145
L137.264 144.121
L139.808 127.191
L141.817 113.6
L141.862 113.921
L142.442 117.325
L142.933 118.135
L143.335 118.415
L143.692 118.402
L144.049 118.164
L144.495 117.579
L144.585 117.427
L145.165 123.196
L145.477 124.636
L146.013 124.841
L146.326 124.819
L147.084 133.606
L147.709 140.479
L148.424 152.609
L149.093 160.531
L149.45 162.943
L149.941 164.001
L150.299 164.345
L150.611 164.371
L150.924 164.155
L151.37 162.465
L151.995 167.621
L152.263 169.843
L152.977 181.252
L153.334 187.261
L153.691 198.073
L155.209 240.618
L155.879 251.327
L156.459 257.332
L156.95 260.37
L157.352 261.639
L157.62 261.94
L157.709 261.95
L158.111 260.582
L158.423 258.894
L158.512 258.206
L158.557 258.474
L158.959 260.202
L159.227 260.281
L159.45 260.108
L159.762 259.522
L160.164 258.217
L160.7 255.604
L160.968 253.961
L161.012 254.284
L161.503 256.907
L161.86 257.823
L162.128 258.018
L162.351 257.886
L162.619 257.399
L162.976 256.242
L163.467 253.808
L164.137 249.171
L164.271 248.087
L164.316 248.333
L164.717 249.928
L165.03 250.457
L165.253 250.49
L165.476 250.259
L165.789 249.528
L166.19 247.959
L166.458 246.136
L168.244 226.28
L169.003 216.153
L170.431 194.624
L172.128 172.479
L172.663 164.606
L173.601 147.934
L174.092 141.415
L174.672 140.463
L174.851 139.877
L175.118 138.239
L176.368 130.544
L176.949 134.394
L177.038 134.695
L177.261 140.183
L178.02 159.073
L178.734 171.828
L179.315 178.946
L179.895 182.798
L180.386 184.782
L180.52 185.139
L181.189 194.205
L181.591 197.394
L181.814 199.21
L182.484 209.555
L182.886 213.151
L183.421 216.268
L183.868 217.677
L184.18 218.088
L184.404 218.116
L184.671 217.879
L184.895 217.36
L185.609 213.481
L185.921 210.937
L187.484 191.939
L188.51 175.544
L189.091 167.991
L189.359 166.851
L190.385 161.471
L191.055 166.303
L191.591 168.781
L192.037 170.002
L192.394 170.477
L192.707 170.557
L192.974 170.396
L193.332 169.878
L193.376 169.79
L193.912 177.021
L194.581 189.281
L195.117 195.656
L195.697 199.584
L196.144 201.339
L196.501 202.045
L196.769 202.206
L196.992 202.119
L197.26 201.767
L197.617 200.916
L198.063 199.304
L199.224 190.704
L200.786 177.272
L204.625 141.427
L204.893 138.991
L204.938 139.205
L205.429 141.015
L205.875 141.883
L206.188 142.105
L206.813 140.412
L207.572 137.684
L207.616 138.121
L208.286 145.215
L208.777 152.888
L209.134 155.658
L209.67 158.606
L209.893 159.056
L210.607 168.573
L210.92 172.964
L211.545 184.652
L212.214 192.845
L212.795 197.565
L213.152 199.181
L213.196 199.273
L213.464 205.063
L214.089 219.014
L214.759 228.819
L215.205 232.787
L215.696 236.364
L216.321 245.13
L216.857 250.001
L217.303 252.446
L217.437 252.598
L217.482 252.518
L217.884 251.499
L218.375 249.551
L218.732 247.365
L219.133 243.308
L220.473 227.877
L220.83 223.256
L220.919 223.34
L221.187 223.402
L221.455 223.194
L221.767 222.63
L221.812 222.523
L222.392 227.9
L222.883 230.642
L223.285 231.809
L223.597 232.121
L223.821 232.052
L224.044 231.76
L224.624 237.392
L224.937 238.925
L225.294 239.619
L225.562 239.717
L225.785 239.542
L226.008 239.149
L226.544 244.227
L227.035 246.976
L227.169 247.333
L227.213 247.245
L227.615 246.154
L227.704 245.84
L228.24 250.275
L228.686 252.461
L229.044 253.331
L229.177 253.472
L229.624 257.633
L230.115 259.949
L230.472 260.756
L230.606 260.883
L230.963 259.972
L231.231 258.375
L231.276 258.712
L231.722 261.263
L231.856 261.505
L232.525 258.729
L232.793 256.944
L232.883 256.261
L232.927 256.534
L233.195 258.567
L233.731 266.475
L234.311 271.667
L234.802 274.264
L234.981 274.616
L235.204 274.567
L235.382 274.372
L235.963 280.172
L236.231 281.521
L236.543 282.906
L237.123 296.492
L237.748 306.352
L238.641 318.472
L239.221 326.297
L239.712 330.17
L240.07 331.611
L240.337 332.012
L240.516 331.981
L240.739 331.63
L241.052 330.599
L241.498 328.144
L242.078 323.471
L242.837 315.323
L243.864 301.609
L245.382 277.93
L246.319 262.844
L246.944 274.525
L247.524 281.559
L248.016 285.076
L248.373 286.31
L248.596 286.173
L248.864 285.658
L249.221 284.424
L249.712 281.813
L250.337 277.181
L250.828 272.686
L250.917 273.025
L251.051 273.21
L251.274 273.115
L251.542 272.669
L251.631 272.444
L252.122 275.803
L252.524 277.293
L252.837 277.748
L253.194 276.774
L253.372 275.769
L254.176 269.782
L255.158 260.591
L255.783 253.868
L255.872 254.087
L256.006 254.329
L256.586 261.587
L256.72 263.442
L257.211 271.944
L258.06 285.511
L258.64 293.419
L259.131 297.6
L259.533 299.527
L259.667 299.899
L260.068 304.694
L260.559 308.397
L260.961 309.956
L261.229 310.337
L261.408 310.322
L261.631 310.021
L261.943 309.107
L262.345 307.171
L262.881 303.424
L263.595 296.721
L264.532 285.672
L265.559 273.399
L265.827 272.899
L266.184 271.659
L266.675 269.016
L267.3 264.339
L268.148 253.759
L268.416 251.163
L268.684 250.806
L269.041 249.865
L269.487 248.011
L269.755 246.574
L269.8 246.929
L270.291 249.88
L270.693 251.092
L270.871 251.319
L271.452 258.219
L271.943 261.761
L272.344 263.309
L272.657 263.773
L272.88 263.746
L273.103 263.444
L273.416 262.596
L273.862 260.616
L274.308 257.633
L275.424 246.089
L276.139 237.79
L276.228 237.941
L276.496 238.137
L276.719 238.023
L276.987 237.58
L277.255 236.829
L278.014 231.711
L278.058 231.371
L278.103 231.644
L278.549 233.683
L278.906 234.473
L279.174 234.625
L279.397 234.486
L279.531 234.184
L279.888 232.514
L279.933 232.898
L280.469 236.425
L280.871 237.872
L281.094 237.752
L281.406 237.253
L281.808 236.086
L282.344 233.707
L283.013 229.599
L283.906 222.555
L284.844 213.413
L285.96 199.783
L286.049 199.93
L286.361 200.174
L286.584 200.109
L286.852 199.787
L287.209 198.978
L287.7 197.237
L288.325 194.127
L289.174 188.638
L289.843 182.132
L289.888 182.315
L290.111 182.871
L290.379 182.918
L290.468 182.887
L291.182 180.382
L291.406 179.023
L292.968 168.064
L293.236 165.854
L293.325 165.837
L294.263 162.948
L296.495 150.322
L298.28 136.223
L299.128 129.452
L299.753 132.657
L299.976 133.143
L300.378 133.363
L300.735 133.31
L301.45 141.378
L302.075 146.156
L302.655 148.974
L303.146 150.314
L303.324 150.591
L303.369 150.534
L303.816 149.761
L304.262 148.653
L304.932 154.772
L305.512 159.391
L306.048 166.994
L306.36 171.489
L306.851 180.224
L307.521 187.987
L308.101 192.501
L308.637 195.073
L309.038 196.112
L309.128 196.249
L309.708 203.385
L310.244 206.943
L310.69 208.707
L311.047 209.417
L311.315 209.578
L311.538 209.488
L311.806 209.13
L312.074 208.519
L312.61 213.438
L313.056 215.043
L313.413 215.629
L313.681 215.699
L313.949 215.477
L314.261 214.877
L314.708 213.447
L314.886 212.38
L315.288 208.927
L317.029 191.561
L318.279 174.92
L318.413 173.289
L318.502 173.442
L318.859 173.792
L319.127 173.797
L319.35 173.643
L319.573 172.505
L321.939 157.361
L322.877 150.282
L323.77 140.95
L325.644 122.175
L326.225 124.129
L326.716 125.092
L327.118 125.456
L327.475 125.489
L327.743 125.348
L328.412 132.783
L329.037 139.116
L329.751 149.382
L330.332 154.929
L330.912 157.771
L331.403 159.178
L331.671 159.599
L332.43 172.521
L333.144 183.349
L333.724 189.203
L334.26 191.84
L334.528 192.679
L335.197 201.866
L335.778 207.11
L336.135 208.824
L336.492 209.498
L336.76 209.657
L336.983 209.578
L337.206 209.318
L337.787 215.208
L338.322 218.566
L338.456 218.805
L338.501 218.757
L338.858 218.158
L339.304 216.908
L339.885 214.517
L340.019 213.853
L340.554 217.635
L341.001 219.466
L341.268 219.427
L341.536 219.126
L341.893 218.344
L342.384 216.626
L343.009 213.494
L343.813 208.188
L344.706 200.779
L344.75 200.286
L344.84 200.526
L345.152 201.093
L345.777 208.901
L346 212.186
L346.67 224.448
L347.072 228.732
L347.563 231.358
L347.875 232.126
L348.143 231.99
L348.456 231.516
L348.857 230.439
L349.125 229.448
L349.661 233.695
L350.063 235.634
L350.33 235.772
L350.554 235.657
L350.866 235.166
L351.179 234.317
L352.027 228.744
L353.053 220.391
L353.812 212.699
L355.509 192.852
L355.553 192.954
L355.91 193.463
L356.178 193.506
L356.446 193.284
L356.803 192.612
L357.25 191.229
L357.651 189.425
L358.098 185.429
L358.633 179.242
L359.794 164.916
L360.999 149.413
L361.356 149.417
L361.714 149.214
L362.16 148.672
L362.696 147.612
L363.321 145.85
L364.124 142.852
L365.017 138.721
L365.062 139.113
L365.687 143.53
L366.222 145.888
L366.669 146.993
L366.803 147.188
L366.847 147.129
L367.294 146.346
L367.874 144.834
L368.186 143.812
L368.544 148.398
L369.258 161.651
L369.793 168.148
L370.24 171.336
L370.731 172.999
L371.133 173.716
L371.311 173.862
L371.847 172.56
L372.516 170.27
L372.829 168.643
L375.463 150.187
L375.775 147.885
L375.82 148.172
L376.043 150.083
L376.579 158.114
L377.159 164.044
L377.739 167.053
L378.23 168.548
L378.454 168.938
L378.811 175.73
L379.525 191.369
L380.195 201.462
L381.846 219.994
L382.337 222.473
L382.739 223.579
L383.052 223.918
L383.275 223.902
L383.409 223.795
L383.989 229.89
L384.391 232.42
L384.569 232.672
L384.837 232.49
L385.15 231.963
L385.551 230.823
L385.908 229.292
L386.4 225.104
L387.56 212.761
L389.837 186.781
L390.64 176.772
L393.676 139.898
L395.417 122.261
L395.461 122.404
L395.997 123.706
L396.444 124.246
L396.577 124.32
L397.426 122.261
L398.363 119.353
L398.452 119.043
L399.122 124.898
L399.747 128.532
L399.925 129.286
L400.506 137.591
L401.131 145.379
L401.845 158.234
L402.47 165.92
L402.559 167.235
L403.184 178.103
L403.854 185.588
L404.434 189.828
L404.925 192.006
L405.327 192.943
L405.416 193.057
L406.041 200.832
L406.621 205.462
L407.112 207.726
L407.336 208.096
L407.559 207.934
L408.184 214.439
L408.452 215.849
L408.898 217.202
L409.032 217.425
L409.434 222.047
L410.103 229.504
L410.416 237.213
L411.085 253.326
L411.71 263.57
L412.246 269.244
L412.514 270.619
L412.871 271.575
L413.139 271.791
L413.273 271.749
L413.719 269.952
L413.987 268.211
L414.969 259.402
L415.951 248.725
L416.889 237.098
L417.29 235.962
L417.826 233.695
L417.871 234.088
L418.183 235.816
L418.63 237.207
L418.942 237.59
L419.165 237.589
L419.433 237.306
L419.79 236.484
L419.835 236.348
L420.371 241.005
L420.728 242.736
L421.04 243.083
L421.085 243.095
L421.665 249.778
L422.156 253.314
L422.558 254.948
L422.87 255.522
L423.094 255.591
L423.138 255.573
L423.719 261.784
L424.21 264.826
L424.567 265.935
L424.835 266.224
L424.968 266.208
L425.504 271.999
L425.951 274.881
L426.308 276.078
L426.531 276.378
L427.067 282.676
L427.334 284.246
L427.602 284.57
L427.825 284.534
L428.049 284.236
L428.316 283.555
L428.852 288.051
L429.254 289.899
L429.477 289.894
L429.7 289.621
L430.013 288.817
L430.236 287.743
L430.95 282.217
L431.888 273.033
L432.691 263.275
L434.343 238.058
L434.923 230.356
L435.325 228.041
L435.414 227.346
L435.459 227.613
L436.039 231.513
L436.352 237.283
L437.021 251.256
L437.646 260.098
L437.869 263.618
L438.494 275.529
L439.03 282.114
L439.521 284.968
L439.878 285.971
L440.146 286.188
L440.325 286.097
L440.592 285.63
L440.95 284.44
L441.441 281.86
L442.066 277.233
L442.869 269.52
L443.985 256.448
L445.101 240.951
L447.065 208.229
L448.404 186.027
L448.672 183.236
L448.896 182.777
L449.208 181.035
L449.654 177.87
L449.699 178.17
L450.279 181.22
L450.726 182.579
L451.083 183.11
L451.351 183.211
L451.44 183.191
L451.842 181.892
L452.288 185.471
L452.333 185.706
L453.047 197.151
L453.672 203.909
L453.984 207.196
L454.743 222.341
L455.413 235.788
L455.993 243.623
L456.395 246.187
L456.797 247.181
L457.065 247.406
L457.288 247.345
L457.556 246.991
L457.913 246.073
L458.404 244.059
L458.85 241.56
L458.895 241.896
L459.386 244.663
L459.564 245.057
L459.788 245.052
L460.323 250.765
L460.636 252.148
L460.859 252.512
L461.082 257.469
L461.752 272.287
L462.377 281.539
L462.734 284.585
L463.18 287.867
L463.761 295.717
L464.252 299.824
L464.653 301.679
L464.743 301.705
L465.278 307.745
L465.725 310.759
L466.082 312.002
L466.35 312.321
L466.885 318.377
L467.332 321.265
L467.466 321.466
L467.957 319.035
L468.448 315.489
L469.519 303.638
L470.858 286.124
L471.528 275.215
L472.51 260.452
L472.912 259.05
L473.448 256.226
L474.117 251.405
L475.01 243.23
L475.992 232.591
L476.126 232.868
L476.394 233.126
L476.483 233.129
L476.929 231.585
L477.108 230.465
L478.045 223.055
L478.269 220.62
L478.313 220.75
L478.67 221.466
L478.938 221.64
L479.563 228.795
L480.01 231.78
L480.099 232.077
L480.724 240.902
L481.081 243.697
L481.527 244.956
L481.84 245.286
L482.063 245.261
L482.331 244.959
L482.688 244.127
L483.134 242.452
L483.715 239.343
L485.009 227.11
L486.17 214.255
L487.42 196.285
L488.67 177.521
L489.607 165.311
L489.652 165.378
L490.009 165.677
L490.277 165.642
L490.589 165.345
L490.991 164.592
L491.527 163.014
L492.196 160.265
L493.089 155.545
L493.937 149.921
L495.991 132.565
L496.169 131.134
L496.214 131.396
L496.794 134.057
L497.285 135.345
L497.687 135.832
L497.866 135.901
L498.58 133.918
L499.249 131.451
L500.053 125.705
L500.499 122.232
L500.544 122.515
L501.169 125.762
L501.258 126.122
L501.571 133.166
L503.044 209.76
L504.16 249.812
L504.785 267.876
L505.41 280.04
L505.99 287.42
L506.347 289.922
L506.704 291.037
L506.928 291.307
L507.463 297.572
L507.82 299.919
L508.177 300.771
L508.401 300.884
L508.579 300.757
L508.847 300.228
L509.026 299.663
L509.517 303.613
L509.918 305.321
L510.231 305.81
L510.32 305.825
L510.677 304.565
L510.99 302.751
L511.793 295.294
L512.82 283.577
L514.248 264.444
L516.927 224.825
L517.284 220.735
L517.596 220.121
L517.998 218.784
L518.355 217.139
L518.355 217.139" style="fill:none;stroke:#ff0000;stroke-linecap:square;"/>
   </g>
   <g id="patch_3">
    <path d="
M72 43.2
L518.4 43.2" style="fill:none;stroke:#000000;stroke-linecap:square;stroke-linejoin:miter;"/>
   </g>
   <g id="patch_4">
    <path d="
M518.4 388.8
L518.4 43.2" style="fill:none;stroke:#000000;stroke-linecap:square;stroke-linejoin:miter;"/>
   </g>
   <g id="patch_5">
    <path d="
M72 388.8
L518.4 388.8" style="fill:none;stroke:#000000;stroke-linecap:square;stroke-linejoin:miter;"/>
   </g>
   <g id="patch_6">
    <path d="
M72 388.8
L72 43.2" style="fill:none;stroke:#000000;stroke-linecap:square;stroke-linejoin:miter;"/>
   </g>
   <g id="matplotlib.axis_1">
    <g id="xtick_1">
     <g id="line2d_4">
      <defs>
       <path d="
M0 0
L0 -4" id="m93b0483c22" style="stroke:#000000;stroke-width:0.5;"/>
      </defs>
      <g>
       <use style="stroke:#000000;stroke-width:0.5;" x="72.0" xlink:href="#m93b0483c22" y="388.8"/>
      </g>
     </g>
     <g id="line2d_5">
      <defs>
       <path d="
M0 0
L0 4" id="m741efc42ff" style="stroke:#000000;stroke-width:0.5;"/>
      </defs>
      <g>
       <use style="stroke:#000000;stroke-width:0.5;" x="72.0" xlink:href="#m741efc42ff" y="43.2"/>
      </g>
     </g>
     <g id="text_1">
      <!-- 0 -->
      <defs>
       <path d="
M31.7812 66.4062
Q24.1719 66.4062 20.3281 58.9062
Q16.5 51.4219 16.5 36.375
Q16.5 21.3906 20.3281 13.8906
Q24.1719 6.39062 31.7812 6.39062
Q39.4531 6.39062 43.2812 13.8906
Q47.125 21.3906 47.125 36.375
Q47.125 51.4219 43.2812 58.9062
Q39.4531 66.4062 31.7812 66.4062
M31.7812 74.2188
Q44.0469 74.2188 50.5156 64.5156
Q56.9844 54.8281 56.9844 36.375
Q56.9844 17.9688 50.5156 8.26562
Q44.0469 -1.42188 31.7812 -1.42188
Q19.5312 -1.42188 13.0625 8.26562
Q6.59375 17.9688 6.59375 36.375
Q6.59375 54.8281 13.0625 64.5156
Q19.5312 74.2188 31.7812 74.2188" id="BitstreamVeraSans-Roman-30"/>
      </defs>
      <g transform="translate(68.9765625 401.918125)scale(0.12 -0.12)">
       <use xlink:href="#BitstreamVeraSans-Roman-30"/>
      </g>
     </g>
    </g>
    <g id="xtick_2">
     <g id="line2d_6">
      <g>
       <use style="stroke:#000000;stroke-width:0.5;" x="161.28" xlink:href="#m93b0483c22" y="388.8"/>
      </g>
     </g>
     <g id="line2d_7">
      <g>
       <use style="stroke:#000000;stroke-width:0.5;" x="161.28" xlink:href="#m741efc42ff" y="43.2"/>
      </g>
     </g>
     <g id="text_2">
      <!-- 200 -->
      <defs>
       <path d="
M19.1875 8.29688
L53.6094 8.29688
L53.6094 0
L7.32812 0
L7.32812 8.29688
Q12.9375 14.1094 22.625 23.8906
Q32.3281 33.6875 34.8125 36.5312
Q39.5469 41.8438 41.4219 45.5312
Q43.3125 49.2188 43.3125 52.7812
Q43.3125 58.5938 39.2344 62.25
Q35.1562 65.9219 28.6094 65.9219
Q23.9688 65.9219 18.8125 64.3125
Q13.6719 62.7031 7.8125 59.4219
L7.8125 69.3906
Q13.7656 71.7812 18.9375 73
Q24.125 74.2188 28.4219 74.2188
Q39.75 74.2188 46.4844 68.5469
Q53.2188 62.8906 53.2188 53.4219
Q53.2188 48.9219 51.5312 44.8906
Q49.8594 40.875 45.4062 35.4062
Q44.1875 33.9844 37.6406 27.2188
Q31.1094 20.4531 19.1875 8.29688" id="BitstreamVeraSans-Roman-32"/>
      </defs>
      <g transform="translate(150.665625 401.918125)scale(0.12 -0.12)">
       <use xlink:href="#BitstreamVeraSans-Roman-32"/>
       <use x="63.623046875" xlink:href="#BitstreamVeraSans-Roman-30"/>
       <use x="127.24609375" xlink:href="#BitstreamVeraSans-Roman-30"/>
      </g>
     </g>
    </g>
    <g id="xtick_3">
     <g id="line2d_8">
      <g>
       <use style="stroke:#000000;stroke-width:0.5;" x="250.56" xlink:href="#m93b0483c22" y="388.8"/>
      </g>
     </g>
     <g id="line2d_9">
      <g>
       <use style="stroke:#000000;stroke-width:0.5;" x="250.56" xlink:href="#m741efc42ff" y="43.2"/>
      </g>
     </g>
     <g id="text_3">
      <!-- 400 -->
      <defs>
       <path d="
M37.7969 64.3125
L12.8906 25.3906
L37.7969 25.3906
z

M35.2031 72.9062
L47.6094 72.9062
L47.6094 25.3906
L58.0156 25.3906
L58.0156 17.1875
L47.6094 17.1875
L47.6094 0
L37.7969 0
L37.7969 17.1875
L4.89062 17.1875
L4.89062 26.7031
z
" id="BitstreamVeraSans-Roman-34"/>
      </defs>
      <g transform="translate(239.799375 401.918125)scale(0.12 -0.12)">
       <use xlink:href="#BitstreamVeraSans-Roman-34"/>
       <use x="63.623046875" xlink:href="#BitstreamVeraSans-Roman-30"/>
       <use x="127.24609375" xlink:href="#BitstreamVeraSans-Roman-30"/>
      </g>
     </g>
    </g>
    <g id="xtick_4">
     <g id="line2d_10">
      <g>
       <use style="stroke:#000000;stroke-width:0.5;" x="339.84" xlink:href="#m93b0483c22" y="388.8"/>
      </g>
     </g>
     <g id="line2d_11">
      <g>
       <use style="stroke:#000000;stroke-width:0.5;" x="339.84" xlink:href="#m741efc42ff" y="43.2"/>
      </g>
     </g>
     <g id="text_4">
      <!-- 600 -->
      <defs>
       <path d="
M33.0156 40.375
Q26.375 40.375 22.4844 35.8281
Q18.6094 31.2969 18.6094 23.3906
Q18.6094 15.5312 22.4844 10.9531
Q26.375 6.39062 33.0156 6.39062
Q39.6562 6.39062 43.5312 10.9531
Q47.4062 15.5312 47.4062 23.3906
Q47.4062 31.2969 43.5312 35.8281
Q39.6562 40.375 33.0156 40.375
M52.5938 71.2969
L52.5938 62.3125
Q48.875 64.0625 45.0938 64.9844
Q41.3125 65.9219 37.5938 65.9219
Q27.8281 65.9219 22.6719 59.3281
Q17.5312 52.7344 16.7969 39.4062
Q19.6719 43.6562 24.0156 45.9219
Q28.375 48.1875 33.5938 48.1875
Q44.5781 48.1875 50.9531 41.5156
Q57.3281 34.8594 57.3281 23.3906
Q57.3281 12.1562 50.6875 5.35938
Q44.0469 -1.42188 33.0156 -1.42188
Q20.3594 -1.42188 13.6719 8.26562
Q6.98438 17.9688 6.98438 36.375
Q6.98438 53.6562 15.1875 63.9375
Q23.3906 74.2188 37.2031 74.2188
Q40.9219 74.2188 44.7031 73.4844
Q48.4844 72.75 52.5938 71.2969" id="BitstreamVeraSans-Roman-36"/>
      </defs>
      <g transform="translate(329.205 401.918125)scale(0.12 -0.12)">
       <use xlink:href="#BitstreamVeraSans-Roman-36"/>
       <use x="63.623046875" xlink:href="#BitstreamVeraSans-Roman-30"/>
       <use x="127.24609375" xlink:href="#BitstreamVeraSans-Roman-30"/>
      </g>
     </g>
    </g>
    <g id="xtick_5">
     <g id="line2d_12">
      <g>
       <use style="stroke:#000000;stroke-width:0.5;" x="429.12" xlink:href="#m93b0483c22" y="388.8"/>
      </g>
     </g>
     <g id="line2d_13">
      <g>
       <use style="stroke:#000000;stroke-width:0.5;" x="429.12" xlink:href="#m741efc42ff" y="43.2"/>
      </g>
     </g>
     <g id="text_5">
      <!-- 800 -->
      <defs>
       <path d="
M31.7812 34.625
Q24.75 34.625 20.7188 30.8594
Q16.7031 27.0938 16.7031 20.5156
Q16.7031 13.9219 20.7188 10.1562
Q24.75 6.39062 31.7812 6.39062
Q38.8125 6.39062 42.8594 10.1719
Q46.9219 13.9688 46.9219 20.5156
Q46.9219 27.0938 42.8906 30.8594
Q38.875 34.625 31.7812 34.625
M21.9219 38.8125
Q15.5781 40.375 12.0312 44.7188
Q8.5 49.0781 8.5 55.3281
Q8.5 64.0625 14.7188 69.1406
Q20.9531 74.2188 31.7812 74.2188
Q42.6719 74.2188 48.875 69.1406
Q55.0781 64.0625 55.0781 55.3281
Q55.0781 49.0781 51.5312 44.7188
Q48 40.375 41.7031 38.8125
Q48.8281 37.1562 52.7969 32.3125
Q56.7812 27.4844 56.7812 20.5156
Q56.7812 9.90625 50.3125 4.23438
Q43.8438 -1.42188 31.7812 -1.42188
Q19.7344 -1.42188 13.25 4.23438
Q6.78125 9.90625 6.78125 20.5156
Q6.78125 27.4844 10.7812 32.3125
Q14.7969 37.1562 21.9219 38.8125
M18.3125 54.3906
Q18.3125 48.7344 21.8438 45.5625
Q25.3906 42.3906 31.7812 42.3906
Q38.1406 42.3906 41.7188 45.5625
Q45.3125 48.7344 45.3125 54.3906
Q45.3125 60.0625 41.7188 63.2344
Q38.1406 66.4062 31.7812 66.4062
Q25.3906 66.4062 21.8438 63.2344
Q18.3125 60.0625 18.3125 54.3906" id="BitstreamVeraSans-Roman-38"/>
      </defs>
      <g transform="translate(418.4728125 401.918125)scale(0.12 -0.12)">
       <use xlink:href="#BitstreamVeraSans-Roman-38"/>
       <use x="63.623046875" xlink:href="#BitstreamVeraSans-Roman-30"/>
       <use x="127.24609375" xlink:href="#BitstreamVeraSans-Roman-30"/>
      </g>
     </g>
    </g>
    <g id="xtick_6">
     <g id="line2d_14">
      <g>
       <use style="stroke:#000000;stroke-width:0.5;" x="518.4" xlink:href="#m93b0483c22" y="388.8"/>
      </g>
     </g>
     <g id="line2d_15">
      <g>
       <use style="stroke:#000000;stroke-width:0.5;" x="518.4" xlink:href="#m741efc42ff" y="43.2"/>
      </g>
     </g>
     <g id="text_6">
      <!-- 1000 -->
      <defs>
       <path d="
M12.4062 8.29688
L28.5156 8.29688
L28.5156 63.9219
L10.9844 60.4062
L10.9844 69.3906
L28.4219 72.9062
L38.2812 72.9062
L38.2812 8.29688
L54.3906 8.29688
L54.3906 0
L12.4062 0
z
" id="BitstreamVeraSans-Roman-31"/>
      </defs>
      <g transform="translate(504.1875 401.918125)scale(0.12 -0.12)">
       <use xlink:href="#BitstreamVeraSans-Roman-31"/>
       <use x="63.623046875" xlink:href="#BitstreamVeraSans-Roman-30"/>
       <use x="127.24609375" xlink:href="#BitstreamVeraSans-Roman-30"/>
       <use x="190.869140625" xlink:href="#BitstreamVeraSans-Roman-30"/>
      </g>
     </g>
    </g>
    <g id="text_7">
     <!-- time (ms) -->
     <defs>
      <path id="BitstreamVeraSans-Roman-20"/>
      <path d="
M8.01562 75.875
L15.8281 75.875
Q23.1406 64.3594 26.7812 53.3125
Q30.4219 42.2812 30.4219 31.3906
Q30.4219 20.4531 26.7812 9.375
Q23.1406 -1.70312 15.8281 -13.1875
L8.01562 -13.1875
Q14.5 -2 17.7031 9.0625
Q20.9062 20.125 20.9062 31.3906
Q20.9062 42.6719 17.7031 53.6562
Q14.5 64.6562 8.01562 75.875" id="BitstreamVeraSans-Roman-29"/>
      <path d="
M52 44.1875
Q55.375 50.25 60.0625 53.125
Q64.75 56 71.0938 56
Q79.6406 56 84.2812 50.0156
Q88.9219 44.0469 88.9219 33.0156
L88.9219 0
L79.8906 0
L79.8906 32.7188
Q79.8906 40.5781 77.0938 44.375
Q74.3125 48.1875 68.6094 48.1875
Q61.625 48.1875 57.5625 43.5469
Q53.5156 38.9219 53.5156 30.9062
L53.5156 0
L44.4844 0
L44.4844 32.7188
Q44.4844 40.625 41.7031 44.4062
Q38.9219 48.1875 33.1094 48.1875
Q26.2188 48.1875 22.1562 43.5312
Q18.1094 38.875 18.1094 30.9062
L18.1094 0
L9.07812 0
L9.07812 54.6875
L18.1094 54.6875
L18.1094 46.1875
Q21.1875 51.2188 25.4844 53.6094
Q29.7812 56 35.6875 56
Q41.6562 56 45.8281 52.9688
Q50 49.9531 52 44.1875" id="BitstreamVeraSans-Roman-6d"/>
      <path d="
M9.42188 54.6875
L18.4062 54.6875
L18.4062 0
L9.42188 0
z

M9.42188 75.9844
L18.4062 75.9844
L18.4062 64.5938
L9.42188 64.5938
z
" id="BitstreamVeraSans-Roman-69"/>
      <path d="
M31 75.875
Q24.4688 64.6562 21.2812 53.6562
Q18.1094 42.6719 18.1094 31.3906
Q18.1094 20.125 21.3125 9.0625
Q24.5156 -2 31 -13.1875
L23.1875 -13.1875
Q15.875 -1.70312 12.2344 9.375
Q8.59375 20.4531 8.59375 31.3906
Q8.59375 42.2812 12.2031 53.3125
Q15.8281 64.3594 23.1875 75.875
z
" id="BitstreamVeraSans-Roman-28"/>
      <path d="
M56.2031 29.5938
L56.2031 25.2031
L14.8906 25.2031
Q15.4844 15.9219 20.4844 11.0625
Q25.4844 6.20312 34.4219 6.20312
Q39.5938 6.20312 44.4531 7.46875
Q49.3125 8.73438 54.1094 11.2812
L54.1094 2.78125
Q49.2656 0.734375 44.1875 -0.34375
Q39.1094 -1.42188 33.8906 -1.42188
Q20.7969 -1.42188 13.1562 6.1875
Q5.51562 13.8125 5.51562 26.8125
Q5.51562 40.2344 12.7656 48.1094
Q20.0156 56 32.3281 56
Q43.3594 56 49.7812 48.8906
Q56.2031 41.7969 56.2031 29.5938
M47.2188 32.2344
Q47.125 39.5938 43.0938 43.9844
Q39.0625 48.3906 32.4219 48.3906
Q24.9062 48.3906 20.3906 44.1406
Q15.875 39.8906 15.1875 32.1719
z
" id="BitstreamVeraSans-Roman-65"/>
      <path d="
M18.3125 70.2188
L18.3125 54.6875
L36.8125 54.6875
L36.8125 47.7031
L18.3125 47.7031
L18.3125 18.0156
Q18.3125 11.3281 20.1406 9.42188
Q21.9688 7.51562 27.5938 7.51562
L36.8125 7.51562
L36.8125 0
L27.5938 0
Q17.1875 0 13.2344 3.875
Q9.28125 7.76562 9.28125 18.0156
L9.28125 47.7031
L2.6875 47.7031
L2.6875 54.6875
L9.28125 54.6875
L9.28125 70.2188
z
" id="BitstreamVeraSans-Roman-74"/>
      <path d="
M44.2812 53.0781
L44.2812 44.5781
Q40.4844 46.5312 36.375 47.5
Q32.2812 48.4844 27.875 48.4844
Q21.1875 48.4844 17.8438 46.4375
Q14.5 44.3906 14.5 40.2812
Q14.5 37.1562 16.8906 35.375
Q19.2812 33.5938 26.5156 31.9844
L29.5938 31.2969
Q39.1562 29.25 43.1875 25.5156
Q47.2188 21.7812 47.2188 15.0938
Q47.2188 7.46875 41.1875 3.01562
Q35.1562 -1.42188 24.6094 -1.42188
Q20.2188 -1.42188 15.4531 -0.5625
Q10.6875 0.296875 5.42188 2
L5.42188 11.2812
Q10.4062 8.6875 15.2344 7.39062
Q20.0625 6.10938 24.8125 6.10938
Q31.1562 6.10938 34.5625 8.28125
Q37.9844 10.4531 37.9844 14.4062
Q37.9844 18.0625 35.5156 20.0156
Q33.0625 21.9688 24.7031 23.7812
L21.5781 24.5156
Q13.2344 26.2656 9.51562 29.9062
Q5.8125 33.5469 5.8125 39.8906
Q5.8125 47.6094 11.2812 51.7969
Q16.75 56 26.8125 56
Q31.7812 56 36.1719 55.2656
Q40.5781 54.5469 44.2812 53.0781" id="BitstreamVeraSans-Roman-73"/>
     </defs>
     <g transform="translate(266.6015625 418.531875)scale(0.12 -0.12)">
      <use xlink:href="#BitstreamVeraSans-Roman-74"/>
      <use x="39.208984375" xlink:href="#BitstreamVeraSans-Roman-69"/>
      <use x="66.9921875" xlink:href="#BitstreamVeraSans-Roman-6d"/>
      <use x="164.404296875" xlink:href="#BitstreamVeraSans-Roman-65"/>
      <use x="225.927734375" xlink:href="#BitstreamVeraSans-Roman-20"/>
      <use x="257.71484375" xlink:href="#BitstreamVeraSans-Roman-28"/>
      <use x="296.728515625" xlink:href="#BitstreamVeraSans-Roman-6d"/>
      <use x="394.140625" xlink:href="#BitstreamVeraSans-Roman-73"/>
      <use x="446.240234375" xlink:href="#BitstreamVeraSans-Roman-29"/>
     </g>
    </g>
   </g>
   <g id="matplotlib.axis_2">
    <g id="ytick_1">
     <g id="line2d_16">
      <defs>
       <path d="
M0 0
L4 0" id="m728421d6d4" style="stroke:#000000;stroke-width:0.5;"/>
      </defs>
      <g>
       <use style="stroke:#000000;stroke-width:0.5;" x="72.0" xlink:href="#m728421d6d4" y="388.8"/>
      </g>
     </g>
     <g id="line2d_17">
      <defs>
       <path d="
M0 0
L-4 0" id="mcb0005524f" style="stroke:#000000;stroke-width:0.5;"/>
      </defs>
      <g>
       <use style="stroke:#000000;stroke-width:0.5;" x="518.4" xlink:href="#mcb0005524f" y="388.8"/>
      </g>
     </g>
     <g id="text_8">
      <!-- 75 -->
      <defs>
       <path d="
M10.5938 35.5
L73.1875 35.5
L73.1875 27.2031
L10.5938 27.2031
z
" id="BitstreamVeraSans-Roman-2212"/>
       <path d="
M8.20312 72.9062
L55.0781 72.9062
L55.0781 68.7031
L28.6094 0
L18.3125 0
L43.2188 64.5938
L8.20312 64.5938
z
" id="BitstreamVeraSans-Roman-37"/>
       <path d="
M10.7969 72.9062
L49.5156 72.9062
L49.5156 64.5938
L19.8281 64.5938
L19.8281 46.7344
Q21.9688 47.4688 24.1094 47.8281
Q26.2656 48.1875 28.4219 48.1875
Q40.625 48.1875 47.75 41.5
Q54.8906 34.8125 54.8906 23.3906
Q54.8906 11.625 47.5625 5.09375
Q40.2344 -1.42188 26.9062 -1.42188
Q22.3125 -1.42188 17.5469 -0.640625
Q12.7969 0.140625 7.71875 1.70312
L7.71875 11.625
Q12.1094 9.23438 16.7969 8.0625
Q21.4844 6.89062 26.7031 6.89062
Q35.1562 6.89062 40.0781 11.3281
Q45.0156 15.7656 45.0156 23.3906
Q45.0156 31 40.0781 35.4375
Q35.1562 39.8906 26.7031 39.8906
Q22.75 39.8906 18.8125 39.0156
Q14.8906 38.1406 10.7969 36.2812
z
" id="BitstreamVeraSans-Roman-35"/>
      </defs>
      <g transform="translate(44.99375 392.11125)scale(0.12 -0.12)">
       <use xlink:href="#BitstreamVeraSans-Roman-2212"/>
       <use x="83.7890625" xlink:href="#BitstreamVeraSans-Roman-37"/>
       <use x="147.412109375" xlink:href="#BitstreamVeraSans-Roman-35"/>
      </g>
     </g>
    </g>
    <g id="ytick_2">
     <g id="line2d_18">
      <g>
       <use style="stroke:#000000;stroke-width:0.5;" x="72.0" xlink:href="#m728421d6d4" y="319.68"/>
      </g>
     </g>
     <g id="line2d_19">
      <g>
       <use style="stroke:#000000;stroke-width:0.5;" x="518.4" xlink:href="#mcb0005524f" y="319.68"/>
      </g>
     </g>
     <g id="text_9">
      <!-- 70 -->
      <g transform="translate(44.7425 322.99125)scale(0.12 -0.12)">
       <use xlink:href="#BitstreamVeraSans-Roman-2212"/>
       <use x="83.7890625" xlink:href="#BitstreamVeraSans-Roman-37"/>
       <use x="147.412109375" xlink:href="#BitstreamVeraSans-Roman-30"/>
      </g>
     </g>
    </g>
    <g id="ytick_3">
     <g id="line2d_20">
      <g>
       <use style="stroke:#000000;stroke-width:0.5;" x="72.0" xlink:href="#m728421d6d4" y="250.56"/>
      </g>
     </g>
     <g id="line2d_21">
      <g>
       <use style="stroke:#000000;stroke-width:0.5;" x="518.4" xlink:href="#mcb0005524f" y="250.56"/>
      </g>
     </g>
     <g id="text_10">
      <!-- 65 -->
      <g transform="translate(44.99375 253.87125)scale(0.12 -0.12)">
       <use xlink:href="#BitstreamVeraSans-Roman-2212"/>
       <use x="83.7890625" xlink:href="#BitstreamVeraSans-Roman-36"/>
       <use x="147.412109375" xlink:href="#BitstreamVeraSans-Roman-35"/>
      </g>
     </g>
    </g>
    <g id="ytick_4">
     <g id="line2d_22">
      <g>
       <use style="stroke:#000000;stroke-width:0.5;" x="72.0" xlink:href="#m728421d6d4" y="181.44"/>
      </g>
     </g>
     <g id="line2d_23">
      <g>
       <use style="stroke:#000000;stroke-width:0.5;" x="518.4" xlink:href="#mcb0005524f" y="181.44"/>
      </g>
     </g>
     <g id="text_11">
      <!-- 60 -->
      <g transform="translate(44.7425 184.75125)scale(0.12 -0.12)">
       <use xlink:href="#BitstreamVeraSans-Roman-2212"/>
       <use x="83.7890625" xlink:href="#BitstreamVeraSans-Roman-36"/>
       <use x="147.412109375" xlink:href="#BitstreamVeraSans-Roman-30"/>
      </g>
     </g>
    </g>
    <g id="ytick_5">
     <g id="line2d_24">
      <g>
       <use style="stroke:#000000;stroke-width:0.5;" x="72.0" xlink:href="#m728421d6d4" y="112.32"/>
      </g>
     </g>
     <g id="line2d_25">
      <g>
       <use style="stroke:#000000;stroke-width:0.5;" x="518.4" xlink:href="#mcb0005524f" y="112.32"/>
      </g>
     </g>
     <g id="text_12">
      <!-- 55 -->
      <g transform="translate(44.99375 115.63125)scale(0.12 -0.12)">
       <use xlink:href="#BitstreamVeraSans-Roman-2212"/>
       <use x="83.7890625" xlink:href="#BitstreamVeraSans-Roman-35"/>
       <use x="147.412109375" xlink:href="#BitstreamVeraSans-Roman-35"/>
      </g>
     </g>
    </g>
    <g id="ytick_6">
     <g id="line2d_26">
      <g>
       <use style="stroke:#000000;stroke-width:0.5;" x="72.0" xlink:href="#m728421d6d4" y="43.2"/>
      </g>
     </g>
     <g id="line2d_27">
      <g>
       <use style="stroke:#000000;stroke-width:0.5;" x="518.4" xlink:href="#mcb0005524f" y="43.2"/>
      </g>
     </g>
     <g id="text_13">
      <!-- 50 -->
      <g transform="translate(44.7425 46.51125)scale(0.12 -0.12)">
       <use xlink:href="#BitstreamVeraSans-Roman-2212"/>
       <use x="83.7890625" xlink:href="#BitstreamVeraSans-Roman-35"/>
       <use x="147.412109375" xlink:href="#BitstreamVeraSans-Roman-30"/>
      </g>
     </g>
    </g>
    <g id="text_14">
     <!-- v (mV) -->
     <defs>
      <path d="
M2.98438 54.6875
L12.5 54.6875
L29.5938 8.79688
L46.6875 54.6875
L56.2031 54.6875
L35.6875 0
L23.4844 0
z
" id="BitstreamVeraSans-Roman-76"/>
      <path d="
M28.6094 0
L0.78125 72.9062
L11.0781 72.9062
L34.1875 11.5312
L57.3281 72.9062
L67.5781 72.9062
L39.7969 0
z
" id="BitstreamVeraSans-Roman-56"/>
     </defs>
     <g transform="translate(37.246875 235.573125)rotate(-90.0)scale(0.12 -0.12)">
      <use xlink:href="#BitstreamVeraSans-Roman-76"/>
      <use x="59.1796875" xlink:href="#BitstreamVeraSans-Roman-20"/>
      <use x="90.966796875" xlink:href="#BitstreamVeraSans-Roman-28"/>
      <use x="129.98046875" xlink:href="#BitstreamVeraSans-Roman-6d"/>
      <use x="227.392578125" xlink:href="#BitstreamVeraSans-Roman-56"/>
      <use x="295.80078125" xlink:href="#BitstreamVeraSans-Roman-29"/>
     </g>
    </g>
   </g>
  </g>
 </g>
 <defs>
  <clipPath id="p7ff5b81e1d">
   <rect height="345.6" width="446.4" x="72.0" y="43.2"/>
  </clipPath>
 </defs>
</svg>
