<?xml version="1.0" encoding="utf-8" standalone="no"?>
<!DOCTYPE svg PUBLIC "-//W3C//DTD SVG 1.1//EN"
  "http://www.w3.org/Graphics/SVG/1.1/DTD/svg11.dtd">
<!-- Created with matplotlib (http://matplotlib.org/) -->
<svg height="432pt" version="1.1" viewBox="0 0 576 432" width="576pt" xmlns="http://www.w3.org/2000/svg" xmlns:xlink="http://www.w3.org/1999/xlink">
 <defs>
  <style type="text/css">
*{stroke-linecap:butt;stroke-linejoin:round;}
  </style>
 </defs>
 <g id="figure_1">
  <g id="patch_1">
   <path d="
M0 432
L576 432
L576 0
L0 0
z
" style="fill:#ffffff;"/>
  </g>
  <g id="axes_1">
   <g id="patch_2">
    <path d="
M72 388.8
L518.4 388.8
L518.4 43.2
L72 43.2
z
" style="fill:#ffffff;"/>
   </g>
   <g id="line2d_1">
    <path clip-path="url(#p7ff5b81e1d)" d="
M72 64.8876
L72.3571 62.9552
L73.2946 57.1258
L73.8302 53.6334
L74.6338 48.4762
L75.3926 44.0099
L75.4373 44.4746
L75.7944 47.0903
L76.7765 53.0265
L77.3568 54.3232
L77.4461 54.2482
L77.6246 54.1324
L78.5174 67.4228
L78.9192 71.2766
L79.4995 75.3992
L79.6781 75.7776
L80.437 76.9435
L80.5262 76.8111
L81.0619 76.2352
L81.7762 75.8174
L83.5618 74.9207
L83.8742 74.6711
L84.6778 86.0726
L85.4366 93.7568
L86.0616 98.2146
L86.5526 99.3696
L87.8026 97.6778
L88.6954 96.0744
L89.0971 95.0781
L90.2131 89.7492
L91.1506 85.8561
L91.9094 94.5453
L91.9541 94.8303
L92.7576 111.255
L93.3826 120.08
L94.0968 126.33
L94.4539 129.424
L94.945 138.354
L95.6592 148.135
L95.8824 151.305
L96.4181 163.166
L97.043 171.497
L97.7126 176.386
L98.2037 178.631
L98.3376 178.316
L98.9179 185.457
L99.5875 190.263
L100.168 192.92
L100.614 194.071
L100.971 194.472
L101.239 194.488
L101.507 194.275
L101.864 193.657
L101.998 193.194
L102.311 190.831
L103.516 177.781
L104.766 164.234
L105.837 150.962
L106.016 151.347
L106.507 152.086
L106.908 152.335
L107.266 152.288
L107.623 151.996
L108.069 151.299
L108.605 150.009
L109.274 147.772
L110.123 144.091
L110.703 140.854
L112.444 127.249
L112.846 123.522
L114.185 109.152
L115.078 98.9961
L115.122 98.5516
L115.167 98.8841
L115.703 102.246
L115.97 102.131
L116.328 100.58
L117.042 97.0682
L117.354 95.3168
L118.113 91.1041
L118.336 89.5525
L118.917 85.8252
L119.765 94.4527
L120.524 100.075
L121.193 103.553
L121.372 103.862
L121.55 103.998
L122.845 101.112
L124.095 98.2149
L125.166 92.791
L125.791 102.115
L126.505 118.269
L127.264 129.134
L127.8 136.282
L128.514 152.203
L129.228 161.659
L129.496 165.129
L130.166 185.529
L130.925 207.944
L131.594 221.727
L132.219 230.395
L132.755 235.12
L133.201 237.431
L133.559 238.352
L133.826 238.559
L134.05 238.443
L134.317 237.984
L134.407 237.759
L134.987 244.671
L135.478 248.249
L135.657 248.691
L135.924 248.829
L136.148 248.674
L136.416 248.186
L136.594 247.689
L136.996 252.109
L137.442 253.608
L137.755 254.056
L137.978 254.092
L138.201 253.904
L138.514 253.287
L139.317 247.985
L139.54 245.737
L141.103 222.795
L142.308 203.793
L143.826 183.451
L144.808 169.906
L147.308 129.334
L148.379 116.711
L152.173 76.3854
L152.218 76.7512
L152.754 80.2849
L153.602 82.978
L153.647 83.0946
L154.405 96.0425
L155.209 104.31
L155.923 109.532
L156.504 112.339
L156.995 112.719
L157.441 112.785
L157.843 112.619
L158.289 112.195
L158.825 111.371
L159.494 109.905
L159.628 109.287
L160.119 105.95
L161.012 99.4714
L161.771 106.462
L162.441 110.746
L162.887 112.608
L163.333 112.797
L163.646 112.773
L163.735 112.47
L164.182 119.926
L164.807 131.777
L165.61 142.522
L166.324 149.336
L166.949 153.397
L167.262 154.421
L167.664 154.678
L167.797 154.689
L168.065 153.819
L168.78 162.358
L169.181 164.36
L169.494 164.991
L169.538 164.926
L169.672 164.588
L169.896 163.32
L169.94 163.766
L170.119 166.258
L170.922 184.653
L171.503 193.916
L172.172 200.709
L172.752 204.621
L172.797 204.852
L173.377 215.382
L174.002 220.992
L174.538 224.071
L174.761 224.645
L175.029 224.604
L175.342 224.278
L175.699 223.551
L176.145 222.136
L177.44 212.408
L178.868 199.858
L180.743 177.806
L183.154 152.064
L184.314 140.558
L184.359 140.899
L184.939 144.425
L185.386 146.868
L186.1 158.835
L186.725 165.962
L187.305 170.265
L187.662 170.954
L187.752 170.782
L188.957 161.755
L190.341 151.56
L190.653 147.346
L191.367 158.819
L192.171 178.212
L192.707 186.931
L193.376 194.516
L194.001 199.245
L194.537 201.689
L194.939 202.65
L195.251 202.928
L195.519 202.866
L195.787 202.545
L196.055 201.984
L196.456 199.072
L197.037 192.859
L198.153 180.648
L198.197 180.826
L198.331 181.319
L199.045 193.979
L199.447 198.377
L199.983 202.29
L200.161 202.781
L200.206 202.749
L200.608 202.297
L201.054 201.444
L201.59 199.913
L202.26 197.238
L203.063 192.992
L204.045 186.497
L205.34 176.29
L207.929 145.136
L209.045 131.292
L209.714 124.202
L209.759 124.527
L210.027 125.641
L210.607 127.148
L211.054 127.777
L211.411 127.971
L211.723 127.931
L212.437 138.207
L213.107 144.839
L213.464 146.828
L213.955 148.08
L214.089 148.294
L214.134 148.216
L214.268 147.83
L214.625 145.547
L215.785 135.853
L216.901 127.453
L218.464 117.525
L219 113.686
L220.116 104.981
L220.562 101.913
L221.276 108.393
L221.856 113.457
L222.615 125.85
L223.24 135.528
L223.999 152.746
L224.624 162.629
L225.204 167.723
L225.428 168.201
L225.696 168.308
L226.142 166.811
L227.079 159.109
L228.061 151.125
L229.267 141.376
L230.16 134.048
L232.034 111.794
L232.704 104.496
L233.195 98.3368
L234.579 79.8853
L235.516 70.8271
L236.454 76.6688
L237.257 80.3596
L237.972 82.6446
L238.596 83.9327
L239.132 84.5579
L242.882 75.5333
L243.864 70.66
L244.668 67.3683
L245.471 88.9563
L246.23 103.956
L246.944 114.157
L247.524 119.851
L248.149 122.767
L248.373 123.236
L248.73 123.161
L249.265 120.895
L252.747 99.7051
L254.578 91.0519
L255.649 85.7731
L255.828 83.7069
L257.256 67.0444
L258.06 60.6888
L259.309 52.271
L259.667 56.9105
L259.89 64.3095
L260.693 91.389
L261.541 110.887
L262.3 123.696
L262.702 127.923
L263.193 131.428
L263.506 132.4
L264.041 132.612
L264.22 132.62
L265.113 129.916
L265.648 134.697
L266.496 137.047
L267.077 138.091
L267.3 138.349
L268.684 135.106
L269.621 132.27
L270.514 128.954
L271.139 123.746
L272.21 114.855
L272.612 111.938
L272.925 114.169
L273.594 117.673
L273.996 119.035
L274.398 119.017
L275.157 130.176
L275.871 137.575
L276.228 139.757
L276.674 141.219
L276.808 141.142
L277.79 137.6
L278.237 142.425
L278.951 147.568
L279.576 151.293
L280.156 161.116
L280.558 165.117
L280.826 166.553
L281.362 166.864
L281.763 166.857
L282.165 166.609
L282.433 166.301
L282.79 164.694
L283.192 168.508
L283.861 172.919
L284.397 175.192
L284.844 176.295
L285.201 176.696
L285.424 176.744
L286.227 173.73
L286.584 171.859
L291.361 134.436
L292.7 121.868
L293.548 113.592
L294.486 102.422
L295.512 92.8563
L297.387 77.3795
L297.432 77.8137
L298.191 84.08
L298.503 86.864
L299.084 97.7262
L299.843 108.049
L300.378 112.945
L300.869 116.306
L301.405 125.623
L302.164 135.212
L302.833 141.107
L303.458 144.738
L303.994 146.607
L304.351 147.292
L304.842 146.245
L306.672 136.178
L307.03 139.251
L307.655 142.912
L308.012 144.089
L308.413 144.141
L308.458 144.13
L308.637 143.246
L310.244 132.442
L310.467 130.063
L310.512 130.27
L310.869 131.816
L311.092 138.705
L311.895 164.05
L312.654 181.445
L313.368 192.912
L313.904 198.581
L314.172 200.833
L314.797 212.211
L315.422 218.893
L315.958 222.566
L316.404 224.349
L316.761 225.026
L317.029 225.136
L317.252 224.988
L317.52 224.54
L318.324 219.629
L318.815 215.648
L319.931 201.275
L320.422 203.252
L320.823 204.067
L321.136 204.246
L321.404 204.106
L321.627 203.797
L322.475 199.1
L323.323 193.397
L323.368 193.844
L324.082 201.499
L324.752 213.823
L325.377 221.477
L325.6 224.204
L326.269 238.216
L326.671 243.315
L327.207 247.704
L327.653 249.798
L327.787 250.177
L327.832 250.141
L328.1 249.752
L328.457 248.797
L328.948 246.739
L329.528 243.327
L330.019 237.469
L332.028 203.708
L333.948 167.007
L333.992 167.032
L334.349 167.099
L334.662 166.959
L336.09 160.97
L336.313 159.513
L338.679 140.489
L340.152 128.305
L340.644 123.766
L342.34 102.787
L344.438 82.385
L346.357 67.546
L346.402 68.0396
L347.206 75.6099
L348.009 82.4901
L348.813 97.8425
L349.348 104.852
L349.482 106.903
L350.286 137.291
L351.045 158.191
L351.536 167.212
L352.071 174.027
L352.562 177.511
L352.786 177.925
L353.187 177.698
L353.634 177.141
L354.125 176.138
L354.571 174.734
L354.705 173.895
L355.375 180.104
L355.955 183.594
L356.446 185.331
L356.848 186.012
L357.116 186.128
L357.384 185.997
L357.607 185.711
L358.008 190.465
L358.589 195.108
L359.08 197.549
L359.482 198.652
L359.794 199.01
L360.017 199.02
L360.598 196.638
L360.955 193.841
L360.999 194.261
L361.401 197.11
L361.892 198.633
L362.294 199.218
L362.562 199.298
L362.83 199.144
L362.964 198.983
L363.455 205.289
L364.035 209.557
L364.347 210.802
L364.526 210.936
L365.151 208.939
L365.687 206.562
L366.356 200.604
L366.624 196.767
L367.829 179.031
L368.052 178.978
L370.329 170.708
L370.642 168.888
L371.088 165.558
L371.133 166.002
L371.758 171.119
L372.338 174.18
L372.784 175.55
L373.052 176
L373.632 184.884
L374.257 188.674
L374.525 189.503
L374.838 189.565
L375.15 189.394
L375.463 188.991
L376.132 196.068
L376.847 202.812
L377.293 209.167
L377.918 215.46
L378.186 218.302
L378.364 224.127
L379.079 245.653
L379.748 258.465
L380.373 266.507
L380.909 270.793
L381.355 272.759
L381.668 273.36
L381.712 273.398
L382.293 282.053
L382.828 287.054
L383.275 289.338
L383.453 289.824
L383.498 289.772
L383.766 289.245
L384.123 288.004
L384.614 285.39
L385.239 280.753
L386.042 273.039
L386.712 264.896
L387.828 245.709
L387.873 245.744
L388.096 245.774
L388.319 245.578
L388.632 244.948
L389.033 243.578
L389.569 240.88
L389.881 238.369
L390.819 228.921
L390.908 229.509
L391.355 231.692
L391.578 231.682
L391.846 231.415
L392.203 230.653
L392.649 229.101
L393.229 226.199
L393.631 223.677
L393.676 224.146
L394.033 226.802
L394.479 228.386
L394.836 228.924
L394.881 228.948
L395.015 228.564
L395.64 235.942
L396.176 239.941
L396.622 241.84
L396.979 242.526
L397.202 242.613
L397.426 242.456
L397.693 241.969
L398.095 240.678
L398.631 238.036
L399.613 228.637
L399.702 229.259
L400.149 231.59
L400.416 231.629
L400.684 231.383
L400.997 230.758
L401.399 229.461
L401.8 225.876
L402.961 211.286
L403.452 213.406
L403.854 214.315
L404.166 214.549
L404.613 220.382
L404.88 221.607
L405.327 222.826
L405.684 223.282
L405.952 223.332
L406.22 223.141
L406.666 228.855
L407.202 231.659
L407.38 232.297
L408.05 243.872
L408.675 251.052
L409.211 254.8
L409.612 256.336
L409.925 256.855
L410.014 256.903
L410.237 256.18
L410.818 262.692
L411.085 264.229
L411.353 264.278
L411.621 264.042
L411.934 263.42
L412.514 270.507
L412.737 273.24
L413.228 287.715
L413.808 304.288
L414.344 314.309
L414.88 320.031
L415.326 322.843
L415.549 322.99
L415.728 322.896
L415.996 322.421
L416.353 321.2
L416.755 319.089
L416.799 319.582
L417.424 332.626
L417.603 336.979
L418.272 354.509
L418.719 361.731
L419.21 366.449
L419.433 367.129
L419.478 367.08
L419.746 366.543
L420.103 365.202
L420.46 363.054
L421.308 353.859
L421.978 344.426
L422.826 328.759
L424.12 301.694
L425.861 263.044
L428.495 206.949
L430.727 165.134
L431.798 147.797
L433.718 121.309
L434.254 123.477
L434.7 123.532
L435.057 123.386
L436.753 116.607
L436.977 115.163
L437.066 116.905
L437.78 133.848
L438.182 140.934
L438.985 161.401
L439.7 174.507
L440.414 187.032
L440.95 196.945
L441.217 199.489
L441.485 200.687
L442.021 209.868
L442.512 216.529
L443.182 228.005
L443.896 235.459
L444.476 239.49
L444.967 241.557
L445.369 242.394
L445.637 242.552
L445.86 242.453
L446.128 242.072
L446.44 241.286
L446.797 244.931
L447.333 248.531
L447.78 250.162
L448.092 250.637
L448.315 250.668
L448.538 250.46
L448.851 249.791
L449.253 248.343
L449.699 246.044
L450.949 233.735
L451.395 227.896
L453.315 202.661
L453.761 204.197
L454.118 204.72
L454.386 204.743
L454.654 204.475
L455.011 203.707
L455.145 203.035
L456.172 195.956
L457.377 181.936
L457.69 178.493
L458.27 174.864
L458.895 180.755
L459.252 182.189
L459.788 182.868
L459.966 182.983
L460.814 180.577
L461.305 186.02
L461.93 188.768
L462.154 189.325
L462.198 189.312
L462.6 189.059
L463.046 188.481
L463.18 192.054
L463.939 212.501
L464.43 221.033
L465.055 228.817
L465.636 233.48
L466.127 235.739
L466.484 236.523
L466.752 236.681
L466.975 236.553
L467.243 236.109
L467.466 235.375
L467.823 232.633
L469.608 211.019
L471.617 186.405
L472.778 171.616
L473.269 173.663
L473.537 174.336
L474.206 185.237
L474.831 192.077
L475.099 193.502
L475.367 194.17
L475.501 194.135
L476.171 203.665
L476.796 209.561
L477.331 212.63
L477.733 213.882
L478.001 213.49
L478.626 221.555
L479.206 226.372
L479.697 228.715
L479.876 229.215
L480.411 237.839
L480.992 245.33
L481.661 258.399
L482.197 265.263
L482.688 268.071
L483.045 269.114
L483.313 269.395
L483.358 269.403
L483.625 268.309
L483.983 265.658
L484.027 266.082
L484.563 270.04
L485.009 271.854
L485.322 272.401
L485.545 272.455
L485.768 272.247
L486.081 271.546
L486.215 270.835
L486.84 265.969
L488.67 244.476
L489.518 229.667
L490.768 207.16
L491.125 201.003
L491.616 199.058
L492.286 206.393
L492.643 207.867
L492.911 208.082
L493.402 206.651
L493.937 215.576
L494.339 229.324
L494.964 249.553
L495.678 265.379
L496.75 286.262
L497.241 294.924
L497.642 299.14
L498.133 301.898
L498.491 302.849
L498.758 303.029
L498.982 302.855
L499.249 302.282
L499.428 301.419
L500.142 295.825
L501.035 286.886
L502.196 272.782
L503.49 254.348
L506.972 192.726
L507.374 185.304
L507.954 182.416
L507.999 182.072
L507.999 182.072
L507.999 182.072
L508.445 185.519
L509.026 187.672
L509.07 187.794
L509.16 187.745
L509.338 187.613
L509.695 186.186
L510.32 193.281
L510.588 194.409
L510.9 195.186
L511.392 202.68
L512.016 209.562
L512.463 212.753
L513.088 223.808
L513.534 230.737
L514.07 240.827
L514.516 246.409
L515.097 251.092
L515.364 252.066
L515.722 252.552
L515.989 252.599
L516.257 252.383
L516.57 251.808
L516.972 250.583
L517.507 248.161
L518.177 244.003
L518.355 242.705
L518.355 242.705" style="fill:none;stroke:#0000ff;stroke-linecap:square;"/>
   </g>
   <g id="patch_3">
    <path d="
M72 43.2
L518.4 43.2" style="fill:none;stroke:#000000;stroke-linecap:square;stroke-linejoin:miter;"/>
   </g>
   <g id="patch_4">
    <path d="
M518.4 388.8
L518.4 43.2" style="fill:none;stroke:#000000;stroke-linecap:square;stroke-linejoin:miter;"/>
   </g>
   <g id="patch_5">
    <path d="
M72 388.8
L518.4 388.8" style="fill:none;stroke:#000000;stroke-linecap:square;stroke-linejoin:miter;"/>
   </g>
   <g id="patch_6">
    <path d="
M72 388.8
L72 43.2" style="fill:none;stroke:#000000;stroke-linecap:square;stroke-linejoin:miter;"/>
   </g>
   <g id="matplotlib.axis_1">
    <g id="xtick_1">
     <g id="line2d_2">
      <defs>
       <path d="
M0 0
L0 -4" id="m93b0483c22" style="stroke:#000000;stroke-width:0.5;"/>
      </defs>
      <g>
       <use style="stroke:#000000;stroke-width:0.5;" x="72.0" xlink:href="#m93b0483c22" y="388.8"/>
      </g>
     </g>
     <g id="line2d_3">
      <defs>
       <path d="
M0 0
L0 4" id="m741efc42ff" style="stroke:#000000;stroke-width:0.5;"/>
      </defs>
      <g>
       <use style="stroke:#000000;stroke-width:0.5;" x="72.0" xlink:href="#m741efc42ff" y="43.2"/>
      </g>
     </g>
     <g id="text_1">
      <!-- 0 -->
      <defs>
       <path d="
M31.7812 66.4062
Q24.1719 66.4062 20.3281 58.9062
Q16.5 51.4219 16.5 36.375
Q16.5 21.3906 20.3281 13.8906
Q24.1719 6.39062 31.7812 6.39062
Q39.4531 6.39062 43.2812 13.8906
Q47.125 21.3906 47.125 36.375
Q47.125 51.4219 43.2812 58.9062
Q39.4531 66.4062 31.7812 66.4062
M31.7812 74.2188
Q44.0469 74.2188 50.5156 64.5156
Q56.9844 54.8281 56.9844 36.375
Q56.9844 17.9688 50.5156 8.26562
Q44.0469 -1.42188 31.7812 -1.42188
Q19.5312 -1.42188 13.0625 8.26562
Q6.59375 17.9688 6.59375 36.375
Q6.59375 54.8281 13.0625 64.5156
Q19.5312 74.2188 31.7812 74.2188" id="BitstreamVeraSans-Roman-30"/>
      </defs>
      <g transform="translate(68.9765625 401.918125)scale(0.12 -0.12)">
       <use xlink:href="#BitstreamVeraSans-Roman-30"/>
      </g>
     </g>
    </g>
    <g id="xtick_2">
     <g id="line2d_4">
      <g>
       <use style="stroke:#000000;stroke-width:0.5;" x="161.28" xlink:href="#m93b0483c22" y="388.8"/>
      </g>
     </g>
     <g id="line2d_5">
      <g>
       <use style="stroke:#000000;stroke-width:0.5;" x="161.28" xlink:href="#m741efc42ff" y="43.2"/>
      </g>
     </g>
     <g id="text_2">
      <!-- 200 -->
      <defs>
       <path d="
M19.1875 8.29688
L53.6094 8.29688
L53.6094 0
L7.32812 0
L7.32812 8.29688
Q12.9375 14.1094 22.625 23.8906
Q32.3281 33.6875 34.8125 36.5312
Q39.5469 41.8438 41.4219 45.5312
Q43.3125 49.2188 43.3125 52.7812
Q43.3125 58.5938 39.2344 62.25
Q35.1562 65.9219 28.6094 65.9219
Q23.9688 65.9219 18.8125 64.3125
Q13.6719 62.7031 7.8125 59.4219
L7.8125 69.3906
Q13.7656 71.7812 18.9375 73
Q24.125 74.2188 28.4219 74.2188
Q39.75 74.2188 46.4844 68.5469
Q53.2188 62.8906 53.2188 53.4219
Q53.2188 48.9219 51.5312 44.8906
Q49.8594 40.875 45.4062 35.4062
Q44.1875 33.9844 37.6406 27.2188
Q31.1094 20.4531 19.1875 8.29688" id="BitstreamVeraSans-Roman-32"/>
      </defs>
      <g transform="translate(150.665625 401.918125)scale(0.12 -0.12)">
       <use xlink:href="#BitstreamVeraSans-Roman-32"/>
       <use x="63.623046875" xlink:href="#BitstreamVeraSans-Roman-30"/>
       <use x="127.24609375" xlink:href="#BitstreamVeraSans-Roman-30"/>
      </g>
     </g>
    </g>
    <g id="xtick_3">
     <g id="line2d_6">
      <g>
       <use style="stroke:#000000;stroke-width:0.5;" x="250.56" xlink:href="#m93b0483c22" y="388.8"/>
      </g>
     </g>
     <g id="line2d_7">
      <g>
       <use style="stroke:#000000;stroke-width:0.5;" x="250.56" xlink:href="#m741efc42ff" y="43.2"/>
      </g>
     </g>
     <g id="text_3">
      <!-- 400 -->
      <defs>
       <path d="
M37.7969 64.3125
L12.8906 25.3906
L37.7969 25.3906
z

M35.2031 72.9062
L47.6094 72.9062
L47.6094 25.3906
L58.0156 25.3906
L58.0156 17.1875
L47.6094 17.1875
L47.6094 0
L37.7969 0
L37.7969 17.1875
L4.89062 17.1875
L4.89062 26.7031
z
" id="BitstreamVeraSans-Roman-34"/>
      </defs>
      <g transform="translate(239.799375 401.918125)scale(0.12 -0.12)">
       <use xlink:href="#BitstreamVeraSans-Roman-34"/>
       <use x="63.623046875" xlink:href="#BitstreamVeraSans-Roman-30"/>
       <use x="127.24609375" xlink:href="#BitstreamVeraSans-Roman-30"/>
      </g>
     </g>
    </g>
    <g id="xtick_4">
     <g id="line2d_8">
      <g>
       <use style="stroke:#000000;stroke-width:0.5;" x="339.84" xlink:href="#m93b0483c22" y="388.8"/>
      </g>
     </g>
     <g id="line2d_9">
      <g>
       <use style="stroke:#000000;stroke-width:0.5;" x="339.84" xlink:href="#m741efc42ff" y="43.2"/>
      </g>
     </g>
     <g id="text_4">
      <!-- 600 -->
      <defs>
       <path d="
M33.0156 40.375
Q26.375 40.375 22.4844 35.8281
Q18.6094 31.2969 18.6094 23.3906
Q18.6094 15.5312 22.4844 10.9531
Q26.375 6.39062 33.0156 6.39062
Q39.6562 6.39062 43.5312 10.9531
Q47.4062 15.5312 47.4062 23.3906
Q47.4062 31.2969 43.5312 35.8281
Q39.6562 40.375 33.0156 40.375
M52.5938 71.2969
L52.5938 62.3125
Q48.875 64.0625 45.0938 64.9844
Q41.3125 65.9219 37.5938 65.9219
Q27.8281 65.9219 22.6719 59.3281
Q17.5312 52.7344 16.7969 39.4062
Q19.6719 43.6562 24.0156 45.9219
Q28.375 48.1875 33.5938 48.1875
Q44.5781 48.1875 50.9531 41.5156
Q57.3281 34.8594 57.3281 23.3906
Q57.3281 12.1562 50.6875 5.35938
Q44.0469 -1.42188 33.0156 -1.42188
Q20.3594 -1.42188 13.6719 8.26562
Q6.98438 17.9688 6.98438 36.375
Q6.98438 53.6562 15.1875 63.9375
Q23.3906 74.2188 37.2031 74.2188
Q40.9219 74.2188 44.7031 73.4844
Q48.4844 72.75 52.5938 71.2969" id="BitstreamVeraSans-Roman-36"/>
      </defs>
      <g transform="translate(329.205 401.918125)scale(0.12 -0.12)">
       <use xlink:href="#BitstreamVeraSans-Roman-36"/>
       <use x="63.623046875" xlink:href="#BitstreamVeraSans-Roman-30"/>
       <use x="127.24609375" xlink:href="#BitstreamVeraSans-Roman-30"/>
      </g>
     </g>
    </g>
    <g id="xtick_5">
     <g id="line2d_10">
      <g>
       <use style="stroke:#000000;stroke-width:0.5;" x="429.12" xlink:href="#m93b0483c22" y="388.8"/>
      </g>
     </g>
     <g id="line2d_11">
      <g>
       <use style="stroke:#000000;stroke-width:0.5;" x="429.12" xlink:href="#m741efc42ff" y="43.2"/>
      </g>
     </g>
     <g id="text_5">
      <!-- 800 -->
      <defs>
       <path d="
M31.7812 34.625
Q24.75 34.625 20.7188 30.8594
Q16.7031 27.0938 16.7031 20.5156
Q16.7031 13.9219 20.7188 10.1562
Q24.75 6.39062 31.7812 6.39062
Q38.8125 6.39062 42.8594 10.1719
Q46.9219 13.9688 46.9219 20.5156
Q46.9219 27.0938 42.8906 30.8594
Q38.875 34.625 31.7812 34.625
M21.9219 38.8125
Q15.5781 40.375 12.0312 44.7188
Q8.5 49.0781 8.5 55.3281
Q8.5 64.0625 14.7188 69.1406
Q20.9531 74.2188 31.7812 74.2188
Q42.6719 74.2188 48.875 69.1406
Q55.0781 64.0625 55.0781 55.3281
Q55.0781 49.0781 51.5312 44.7188
Q48 40.375 41.7031 38.8125
Q48.8281 37.1562 52.7969 32.3125
Q56.7812 27.4844 56.7812 20.5156
Q56.7812 9.90625 50.3125 4.23438
Q43.8438 -1.42188 31.7812 -1.42188
Q19.7344 -1.42188 13.25 4.23438
Q6.78125 9.90625 6.78125 20.5156
Q6.78125 27.4844 10.7812 32.3125
Q14.7969 37.1562 21.9219 38.8125
M18.3125 54.3906
Q18.3125 48.7344 21.8438 45.5625
Q25.3906 42.3906 31.7812 42.3906
Q38.1406 42.3906 41.7188 45.5625
Q45.3125 48.7344 45.3125 54.3906
Q45.3125 60.0625 41.7188 63.2344
Q38.1406 66.4062 31.7812 66.4062
Q25.3906 66.4062 21.8438 63.2344
Q18.3125 60.0625 18.3125 54.3906" id="BitstreamVeraSans-Roman-38"/>
      </defs>
      <g transform="translate(418.4728125 401.918125)scale(0.12 -0.12)">
       <use xlink:href="#BitstreamVeraSans-Roman-38"/>
       <use x="63.623046875" xlink:href="#BitstreamVeraSans-Roman-30"/>
       <use x="127.24609375" xlink:href="#BitstreamVeraSans-Roman-30"/>
      </g>
     </g>
    </g>
    <g id="xtick_6">
     <g id="line2d_12">
      <g>
       <use style="stroke:#000000;stroke-width:0.5;" x="518.4" xlink:href="#m93b0483c22" y="388.8"/>
      </g>
     </g>
     <g id="line2d_13">
      <g>
       <use style="stroke:#000000;stroke-width:0.5;" x="518.4" xlink:href="#m741efc42ff" y="43.2"/>
      </g>
     </g>
     <g id="text_6">
      <!-- 1000 -->
      <defs>
       <path d="
M12.4062 8.29688
L28.5156 8.29688
L28.5156 63.9219
L10.9844 60.4062
L10.9844 69.3906
L28.4219 72.9062
L38.2812 72.9062
L38.2812 8.29688
L54.3906 8.29688
L54.3906 0
L12.4062 0
z
" id="BitstreamVeraSans-Roman-31"/>
      </defs>
      <g transform="translate(504.1875 401.918125)scale(0.12 -0.12)">
       <use xlink:href="#BitstreamVeraSans-Roman-31"/>
       <use x="63.623046875" xlink:href="#BitstreamVeraSans-Roman-30"/>
       <use x="127.24609375" xlink:href="#BitstreamVeraSans-Roman-30"/>
       <use x="190.869140625" xlink:href="#BitstreamVeraSans-Roman-30"/>
      </g>
     </g>
    </g>
    <g id="text_7">
     <!-- time (ms) -->
     <defs>
      <path id="BitstreamVeraSans-Roman-20"/>
      <path d="
M8.01562 75.875
L15.8281 75.875
Q23.1406 64.3594 26.7812 53.3125
Q30.4219 42.2812 30.4219 31.3906
Q30.4219 20.4531 26.7812 9.375
Q23.1406 -1.70312 15.8281 -13.1875
L8.01562 -13.1875
Q14.5 -2 17.7031 9.0625
Q20.9062 20.125 20.9062 31.3906
Q20.9062 42.6719 17.7031 53.6562
Q14.5 64.6562 8.01562 75.875" id="BitstreamVeraSans-Roman-29"/>
      <path d="
M52 44.1875
Q55.375 50.25 60.0625 53.125
Q64.75 56 71.0938 56
Q79.6406 56 84.2812 50.0156
Q88.9219 44.0469 88.9219 33.0156
L88.9219 0
L79.8906 0
L79.8906 32.7188
Q79.8906 40.5781 77.0938 44.375
Q74.3125 48.1875 68.6094 48.1875
Q61.625 48.1875 57.5625 43.5469
Q53.5156 38.9219 53.5156 30.9062
L53.5156 0
L44.4844 0
L44.4844 32.7188
Q44.4844 40.625 41.7031 44.4062
Q38.9219 48.1875 33.1094 48.1875
Q26.2188 48.1875 22.1562 43.5312
Q18.1094 38.875 18.1094 30.9062
L18.1094 0
L9.07812 0
L9.07812 54.6875
L18.1094 54.6875
L18.1094 46.1875
Q21.1875 51.2188 25.4844 53.6094
Q29.7812 56 35.6875 56
Q41.6562 56 45.8281 52.9688
Q50 49.9531 52 44.1875" id="BitstreamVeraSans-Roman-6d"/>
      <path d="
M9.42188 54.6875
L18.4062 54.6875
L18.4062 0
L9.42188 0
z

M9.42188 75.9844
L18.4062 75.9844
L18.4062 64.5938
L9.42188 64.5938
z
" id="BitstreamVeraSans-Roman-69"/>
      <path d="
M31 75.875
Q24.4688 64.6562 21.2812 53.6562
Q18.1094 42.6719 18.1094 31.3906
Q18.1094 20.125 21.3125 9.0625
Q24.5156 -2 31 -13.1875
L23.1875 -13.1875
Q15.875 -1.70312 12.2344 9.375
Q8.59375 20.4531 8.59375 31.3906
Q8.59375 42.2812 12.2031 53.3125
Q15.8281 64.3594 23.1875 75.875
z
" id="BitstreamVeraSans-Roman-28"/>
      <path d="
M56.2031 29.5938
L56.2031 25.2031
L14.8906 25.2031
Q15.4844 15.9219 20.4844 11.0625
Q25.4844 6.20312 34.4219 6.20312
Q39.5938 6.20312 44.4531 7.46875
Q49.3125 8.73438 54.1094 11.2812
L54.1094 2.78125
Q49.2656 0.734375 44.1875 -0.34375
Q39.1094 -1.42188 33.8906 -1.42188
Q20.7969 -1.42188 13.1562 6.1875
Q5.51562 13.8125 5.51562 26.8125
Q5.51562 40.2344 12.7656 48.1094
Q20.0156 56 32.3281 56
Q43.3594 56 49.7812 48.8906
Q56.2031 41.7969 56.2031 29.5938
M47.2188 32.2344
Q47.125 39.5938 43.0938 43.9844
Q39.0625 48.3906 32.4219 48.3906
Q24.9062 48.3906 20.3906 44.1406
Q15.875 39.8906 15.1875 32.1719
z
" id="BitstreamVeraSans-Roman-65"/>
      <path d="
M18.3125 70.2188
L18.3125 54.6875
L36.8125 54.6875
L36.8125 47.7031
L18.3125 47.7031
L18.3125 18.0156
Q18.3125 11.3281 20.1406 9.42188
Q21.9688 7.51562 27.5938 7.51562
L36.8125 7.51562
L36.8125 0
L27.5938 0
Q17.1875 0 13.2344 3.875
Q9.28125 7.76562 9.28125 18.0156
L9.28125 47.7031
L2.6875 47.7031
L2.6875 54.6875
L9.28125 54.6875
L9.28125 70.2188
z
" id="BitstreamVeraSans-Roman-74"/>
      <path d="
M44.2812 53.0781
L44.2812 44.5781
Q40.4844 46.5312 36.375 47.5
Q32.2812 48.4844 27.875 48.4844
Q21.1875 48.4844 17.8438 46.4375
Q14.5 44.3906 14.5 40.2812
Q14.5 37.1562 16.8906 35.375
Q19.2812 33.5938 26.5156 31.9844
L29.5938 31.2969
Q39.1562 29.25 43.1875 25.5156
Q47.2188 21.7812 47.2188 15.0938
Q47.2188 7.46875 41.1875 3.01562
Q35.1562 -1.42188 24.6094 -1.42188
Q20.2188 -1.42188 15.4531 -0.5625
Q10.6875 0.296875 5.42188 2
L5.42188 11.2812
Q10.4062 8.6875 15.2344 7.39062
Q20.0625 6.10938 24.8125 6.10938
Q31.1562 6.10938 34.5625 8.28125
Q37.9844 10.4531 37.9844 14.4062
Q37.9844 18.0625 35.5156 20.0156
Q33.0625 21.9688 24.7031 23.7812
L21.5781 24.5156
Q13.2344 26.2656 9.51562 29.9062
Q5.8125 33.5469 5.8125 39.8906
Q5.8125 47.6094 11.2812 51.7969
Q16.75 56 26.8125 56
Q31.7812 56 36.1719 55.2656
Q40.5781 54.5469 44.2812 53.0781" id="BitstreamVeraSans-Roman-73"/>
     </defs>
     <g transform="translate(266.6015625 418.531875)scale(0.12 -0.12)">
      <use xlink:href="#BitstreamVeraSans-Roman-74"/>
      <use x="39.208984375" xlink:href="#BitstreamVeraSans-Roman-69"/>
      <use x="66.9921875" xlink:href="#BitstreamVeraSans-Roman-6d"/>
      <use x="164.404296875" xlink:href="#BitstreamVeraSans-Roman-65"/>
      <use x="225.927734375" xlink:href="#BitstreamVeraSans-Roman-20"/>
      <use x="257.71484375" xlink:href="#BitstreamVeraSans-Roman-28"/>
      <use x="296.728515625" xlink:href="#BitstreamVeraSans-Roman-6d"/>
      <use x="394.140625" xlink:href="#BitstreamVeraSans-Roman-73"/>
      <use x="446.240234375" xlink:href="#BitstreamVeraSans-Roman-29"/>
     </g>
    </g>
   </g>
   <g id="matplotlib.axis_2">
    <g id="ytick_1">
     <g id="line2d_14">
      <defs>
       <path d="
M0 0
L4 0" id="m728421d6d4" style="stroke:#000000;stroke-width:0.5;"/>
      </defs>
      <g>
       <use style="stroke:#000000;stroke-width:0.5;" x="72.0" xlink:href="#m728421d6d4" y="388.8"/>
      </g>
     </g>
     <g id="line2d_15">
      <defs>
       <path d="
M0 0
L-4 0" id="mcb0005524f" style="stroke:#000000;stroke-width:0.5;"/>
      </defs>
      <g>
       <use style="stroke:#000000;stroke-width:0.5;" x="518.4" xlink:href="#mcb0005524f" y="388.8"/>
      </g>
     </g>
     <g id="text_8">
      <!-- −70 -->
      <defs>
       <path d="
M10.5938 35.5
L73.1875 35.5
L73.1875 27.2031
L10.5938 27.2031
z
" id="BitstreamVeraSans-Roman-2212"/>
       <path d="
M8.20312 72.9062
L55.0781 72.9062
L55.0781 68.7031
L28.6094 0
L18.3125 0
L43.2188 64.5938
L8.20312 64.5938
z
" id="BitstreamVeraSans-Roman-37"/>
      </defs>
      <g transform="translate(44.7425 392.11125)scale(0.12 -0.12)">
       <use xlink:href="#BitstreamVeraSans-Roman-2212"/>
       <use x="83.7890625" xlink:href="#BitstreamVeraSans-Roman-37"/>
       <use x="147.412109375" xlink:href="#BitstreamVeraSans-Roman-30"/>
      </g>
     </g>
    </g>
    <g id="ytick_2">
     <g id="line2d_16">
      <g>
       <use style="stroke:#000000;stroke-width:0.5;" x="72.0" xlink:href="#m728421d6d4" y="302.4"/>
      </g>
     </g>
     <g id="line2d_17">
      <g>
       <use style="stroke:#000000;stroke-width:0.5;" x="518.4" xlink:href="#mcb0005524f" y="302.4"/>
      </g>
     </g>
     <g id="text_9">
      <!-- −65 -->
      <defs>
       <path d="
M10.7969 72.9062
L49.5156 72.9062
L49.5156 64.5938
L19.8281 64.5938
L19.8281 46.7344
Q21.9688 47.4688 24.1094 47.8281
Q26.2656 48.1875 28.4219 48.1875
Q40.625 48.1875 47.75 41.5
Q54.8906 34.8125 54.8906 23.3906
Q54.8906 11.625 47.5625 5.09375
Q40.2344 -1.42188 26.9062 -1.42188
Q22.3125 -1.42188 17.5469 -0.640625
Q12.7969 0.140625 7.71875 1.70312
L7.71875 11.625
Q12.1094 9.23438 16.7969 8.0625
Q21.4844 6.89062 26.7031 6.89062
Q35.1562 6.89062 40.0781 11.3281
Q45.0156 15.7656 45.0156 23.3906
Q45.0156 31 40.0781 35.4375
Q35.1562 39.8906 26.7031 39.8906
Q22.75 39.8906 18.8125 39.0156
Q14.8906 38.1406 10.7969 36.2812
z
" id="BitstreamVeraSans-Roman-35"/>
      </defs>
      <g transform="translate(44.99375 305.71125)scale(0.12 -0.12)">
       <use xlink:href="#BitstreamVeraSans-Roman-2212"/>
       <use x="83.7890625" xlink:href="#BitstreamVeraSans-Roman-36"/>
       <use x="147.412109375" xlink:href="#BitstreamVeraSans-Roman-35"/>
      </g>
     </g>
    </g>
    <g id="ytick_3">
     <g id="line2d_18">
      <g>
       <use style="stroke:#000000;stroke-width:0.5;" x="72.0" xlink:href="#m728421d6d4" y="216.0"/>
      </g>
     </g>
     <g id="line2d_19">
      <g>
       <use style="stroke:#000000;stroke-width:0.5;" x="518.4" xlink:href="#mcb0005524f" y="216.0"/>
      </g>
     </g>
     <g id="text_10">
      <!-- −60 -->
      <g transform="translate(44.7425 219.31125)scale(0.12 -0.12)">
       <use xlink:href="#BitstreamVeraSans-Roman-2212"/>
       <use x="83.7890625" xlink:href="#BitstreamVeraSans-Roman-36"/>
       <use x="147.412109375" xlink:href="#BitstreamVeraSans-Roman-30"/>
      </g>
     </g>
    </g>
    <g id="ytick_4">
     <g id="line2d_20">
      <g>
       <use style="stroke:#000000;stroke-width:0.5;" x="72.0" xlink:href="#m728421d6d4" y="129.6"/>
      </g>
     </g>
     <g id="line2d_21">
      <g>
       <use style="stroke:#000000;stroke-width:0.5;" x="518.4" xlink:href="#mcb0005524f" y="129.6"/>
      </g>
     </g>
     <g id="text_11">
      <!-- −55 -->
      <g transform="translate(44.99375 132.91125)scale(0.12 -0.12)">
       <use xlink:href="#BitstreamVeraSans-Roman-2212"/>
       <use x="83.7890625" xlink:href="#BitstreamVeraSans-Roman-35"/>
       <use x="147.412109375" xlink:href="#BitstreamVeraSans-Roman-35"/>
      </g>
     </g>
    </g>
    <g id="ytick_5">
     <g id="line2d_22">
      <g>
       <use style="stroke:#000000;stroke-width:0.5;" x="72.0" xlink:href="#m728421d6d4" y="43.2"/>
      </g>
     </g>
     <g id="line2d_23">
      <g>
       <use style="stroke:#000000;stroke-width:0.5;" x="518.4" xlink:href="#mcb0005524f" y="43.2"/>
      </g>
     </g>
     <g id="text_12">
      <!-- −50 -->
      <g transform="translate(44.7425 46.51125)scale(0.12 -0.12)">
       <use xlink:href="#BitstreamVeraSans-Roman-2212"/>
       <use x="83.7890625" xlink:href="#BitstreamVeraSans-Roman-35"/>
       <use x="147.412109375" xlink:href="#BitstreamVeraSans-Roman-30"/>
      </g>
     </g>
    </g>
    <g id="text_13">
     <!-- v (mV) -->
     <defs>
      <path d="
M2.98438 54.6875
L12.5 54.6875
L29.5938 8.79688
L46.6875 54.6875
L56.2031 54.6875
L35.6875 0
L23.4844 0
z
" id="BitstreamVeraSans-Roman-76"/>
      <path d="
M28.6094 0
L0.78125 72.9062
L11.0781 72.9062
L34.1875 11.5312
L57.3281 72.9062
L67.5781 72.9062
L39.7969 0
z
" id="BitstreamVeraSans-Roman-56"/>
     </defs>
     <g transform="translate(37.246875 235.573125)rotate(-90.0)scale(0.12 -0.12)">
      <use xlink:href="#BitstreamVeraSans-Roman-76"/>
      <use x="59.1796875" xlink:href="#BitstreamVeraSans-Roman-20"/>
      <use x="90.966796875" xlink:href="#BitstreamVeraSans-Roman-28"/>
      <use x="129.98046875" xlink:href="#BitstreamVeraSans-Roman-6d"/>
      <use x="227.392578125" xlink:href="#BitstreamVeraSans-Roman-56"/>
      <use x="295.80078125" xlink:href="#BitstreamVeraSans-Roman-29"/>
     </g>
    </g>
   </g>
  </g>
 </g>
 <defs>
  <clipPath id="p7ff5b81e1d">
   <rect height="345.6" width="446.4" x="72.0" y="43.2"/>
  </clipPath>
 </defs>
</svg>
