<?xml version="1.0" encoding="utf-8" standalone="no"?>
<!DOCTYPE svg PUBLIC "-//W3C//DTD SVG 1.1//EN"
  "http://www.w3.org/Graphics/SVG/1.1/DTD/svg11.dtd">
<!-- Created with matplotlib (http://matplotlib.org/) -->
<svg height="432pt" version="1.1" viewBox="0 0 576 432" width="576pt" xmlns="http://www.w3.org/2000/svg" xmlns:xlink="http://www.w3.org/1999/xlink">
 <defs>
  <style type="text/css">
*{stroke-linecap:butt;stroke-linejoin:round;}
  </style>
 </defs>
 <g id="figure_1">
  <g id="patch_1">
   <path d="
M0 432
L576 432
L576 0
L0 0
z
" style="fill:#ffffff;"/>
  </g>
  <g id="axes_1">
   <g id="patch_2">
    <path d="
M72 388.8
L518.4 388.8
L518.4 43.2
L72 43.2
z
" style="fill:#ffffff;"/>
   </g>
   <g id="line2d_1">
    <path clip-path="url(#p7ff5b81e1d)" d="
M72 135.029
L72.6696 127.146
L72.7142 127.413
L73.2499 129.947
L73.607 131.012
L73.6517 130.976
L74.232 128.252
L74.5891 125.086
L74.6784 124.28
L74.723 124.656
L74.9462 125.767
L75.973 127.342
L77.089 124.97
L77.3122 123.427
L78.1603 118.089
L78.5621 115.966
L79.321 123.994
L79.5442 126.638
L80.1245 138.46
L80.6602 145.879
L80.8834 148.94
L81.5083 168.218
L82.2672 191.995
L83.0261 214.582
L83.7403 234.75
L84.3653 246.763
L84.8117 251.498
L85.2134 252.44
L85.3027 252.552
L85.9723 262.767
L86.4187 266.958
L86.7758 269.334
L87.4008 280.057
L87.9811 286.525
L88.4722 289.728
L88.8293 290.911
L89.0971 291.227
L89.2757 291.187
L89.4989 290.873
L89.8114 289.974
L90.2578 287.853
L90.7042 284.596
L90.972 281.703
L91.0166 281.979
L91.463 283.933
L91.7755 284.49
L91.9987 284.514
L92.2219 284.251
L92.5344 283.433
L92.9362 281.684
L93.5165 275.871
L95.7038 246.911
L96.6413 232.515
L96.9538 227.452
L97.043 227.558
L97.177 227.648
L97.668 225.972
L98.293 222.971
L98.7394 220.016
L100.391 203.464
L102.132 182.212
L102.757 173.741
L105.614 136.45
L109.81 92.6471
L110.524 97.9672
L111.194 101.354
L111.774 103.22
L112.265 104.132
L112.667 104.48
L112.712 104.498
L112.98 103.751
L113.471 109.432
L113.604 111.384
L114.408 129.115
L115.033 138.607
L115.747 145.303
L116.372 149.203
L116.863 151.144
L117.22 150.989
L117.622 150.538
L118.113 149.609
L118.426 148.674
L120.077 138.479
L121.416 127.69
L123.157 115.434
L123.648 121.595
L124.72 150.82
L125.479 170.055
L126.148 181.913
L126.684 188.134
L127.22 191.274
L127.666 192.771
L128.023 193.317
L128.112 193.371
L128.648 191.61
L129.273 188.831
L129.63 185.017
L131.193 169.352
L131.237 168.929
L131.282 169.278
L131.862 172.893
L132.264 174.462
L132.576 174.311
L132.755 174.121
L133.782 169.112
L135.433 155.327
L135.478 155.651
L136.103 159.326
L136.371 160.433
L137.085 173.177
L137.755 181.405
L138.246 185.353
L138.692 186.625
L139.049 187.094
L139.317 187.151
L139.406 187.117
L139.585 186.034
L140.79 177.11
L141.862 165.653
L143.156 152.5
L143.781 145.59
L144.763 132.919
L146.147 116.225
L146.236 116.831
L146.906 120.523
L147.486 122.598
L147.843 123.407
L148.558 135.117
L149.227 142.839
L149.316 144.432
L151.102 188.013
L151.772 198.021
L152.397 204.232
L152.664 205.428
L153.066 206.41
L153.379 206.71
L153.647 206.668
L153.914 206.368
L154.272 205.596
L154.763 203.908
L155.388 200.849
L156.102 196.323
L156.146 196.781
L156.727 201.451
L157.218 203.734
L157.575 204.563
L157.843 204.775
L158.066 204.708
L158.334 204.357
L158.691 203.473
L159.182 201.57
L159.807 198.187
L160.61 192.595
L161.414 183.43
L161.503 183.762
L161.95 184.95
L162.307 185.369
L162.575 185.396
L162.842 185.193
L163.2 184.592
L163.646 183.355
L164.226 181.039
L164.985 177.006
L165.967 170.488
L166.592 165.25
L167.396 155.608
L168.646 141.421
L169.226 144.728
L169.717 146.464
L170.119 147.247
L170.208 146.939
L170.61 144.406
L171.592 135.954
L172.351 128.245
L172.663 124.068
L173.511 113.212
L173.958 108.599
L174.002 108.942
L174.538 112.191
L174.806 112.704
L175.252 112.614
L176.056 124.571
L176.815 132.68
L177.484 137.587
L178.065 140.354
L178.556 141.752
L178.957 142.327
L179.27 142.455
L179.493 142.39
L180.431 138.607
L181.948 128.071
L183.332 118.326
L184.537 108.611
L184.984 104.518
L185.966 94.0991
L187.394 77.2858
L188.243 69.9527
L188.376 68.9722
L188.421 69.4264
L188.51 71.0853
L189.359 90.7929
L190.028 101.865
L190.787 109.767
L191.457 114.694
L191.948 117.105
L192.037 117.214
L192.082 117.126
L192.26 116.637
L193.064 125.284
L193.465 127.987
L194.18 130.867
L194.314 131.278
L195.072 144.492
L195.787 153.272
L196.412 158.474
L196.947 161.355
L197.438 162.888
L197.796 163.416
L198.108 163.516
L198.376 163.357
L198.733 162.824
L198.912 162.431
L199.403 168.431
L199.938 170.661
L200.161 171.287
L200.876 183.226
L201.501 190.382
L202.081 194.689
L202.393 195.921
L202.706 196.063
L202.974 195.927
L203.286 195.485
L203.554 194.741
L204.67 187.759
L205.965 178.187
L206.277 175.68
L206.322 176.089
L206.902 180.291
L207.081 180.795
L207.259 181.045
L207.304 180.953
L207.795 179.716
L210.116 164.978
L211.411 155.434
L213.33 134.376
L214.268 123.144
L214.937 126.793
L215.16 127.274
L215.607 127.446
L215.964 127.373
L216.232 133.19
L216.991 154.031
L217.705 168.126
L218.375 177.302
L218.955 182.609
L219.401 184.994
L219.758 185.378
L220.026 185.379
L220.294 185.151
L220.651 184.517
L221.098 183.24
L221.276 182.32
L221.321 182.787
L221.946 188.049
L222.392 191.242
L222.928 200.362
L223.464 206.096
L223.955 208.605
L223.999 208.652
L224.044 208.555
L224.669 206.901
L225.338 204.452
L225.785 202.137
L226.097 199.131
L226.187 199.709
L226.767 202.637
L227.213 203.955
L227.57 204.462
L227.838 204.54
L228.106 204.376
L228.419 203.893
L228.776 202.985
L229.936 195.133
L231.32 184.134
L233.24 166.883
L233.731 161.263
L234.757 147.688
L236.052 129.863
L237.034 116.775
L237.57 110.829
L237.614 111.136
L238.284 114.912
L238.864 117.034
L238.998 117.386
L239.757 130.161
L240.427 138.048
L241.052 143.033
L241.543 144.244
L241.944 144.721
L242.257 144.798
L242.391 144.758
L243.507 140.341
L244.712 134.623
L246.096 127.035
L246.587 121.682
L247.569 112.136
L248.239 117.017
L248.64 118.868
L249.132 119.458
L249.533 119.645
L249.801 119.627
L250.069 118.446
L250.381 116.538
L250.515 118.816
L251.319 138.286
L252.078 151.54
L252.747 159.736
L253.283 164.143
L253.774 165.642
L254.176 166.269
L254.488 166.412
L254.756 166.311
L255.024 166.019
L255.694 162.783
L255.783 164.628
L256.452 180.701
L257.122 191.226
L257.747 196.321
L258.06 198.863
L258.551 207.327
L258.818 212.493
L259.533 228.478
L260.113 237.435
L260.693 242.275
L261.184 244.725
L261.586 245.721
L261.854 245.926
L261.988 245.9
L262.568 243.324
L263.282 238.979
L263.55 236.393
L264.666 224.641
L264.711 224.929
L265.38 238.246
L266.005 246.529
L266.363 249.185
L266.764 250.58
L267.077 251.04
L267.3 251.06
L267.523 250.841
L267.836 250.158
L268.237 248.692
L268.773 245.831
L269.487 240.667
L270.38 232.528
L274.532 176.823
L276.63 139.112
L277.433 126.564
L277.656 127.255
L278.415 140.385
L279.13 149.078
L279.755 154.218
L280.29 157.061
L280.513 157.596
L280.826 157.538
L281.183 157.202
L281.629 156.406
L282.165 154.949
L282.522 153.565
L284.799 137.268
L286.138 125.48
L286.584 121.917
L286.629 122.202
L287.031 124.063
L287.611 125
L288.058 125.35
L288.192 125.392
L288.95 136.734
L289.62 143.717
L290.066 146.748
L290.557 148.017
L290.959 148.548
L291.227 148.665
L291.941 159.179
L292.566 165.449
L292.923 168.748
L293.638 182.704
L294.263 189.414
L294.843 193.426
L295.379 196.269
L296.048 207.253
L296.628 213.583
L297.164 217.208
L297.477 218.332
L297.7 218.247
L297.968 217.898
L298.325 217.041
L298.816 215.203
L299.441 211.906
L299.976 207.957
L301.316 193.351
L301.673 188.778
L301.717 188.988
L302.208 190.707
L302.566 191.314
L302.833 191.446
L302.967 191.414
L303.682 188.413
L304.53 183.821
L305.601 176.685
L306.405 167.22
L308.146 145.415
L308.235 145.928
L308.458 146.543
L308.592 146.776
L308.637 146.707
L308.949 146.197
L309.619 155.173
L309.887 156.657
L310.556 157.5
L311.003 157.764
L311.047 157.774
L311.181 157.384
L311.94 166.782
L312.342 169.851
L312.922 170.926
L313.368 171.316
L313.681 171.349
L314.395 181.713
L315.02 186.262
L315.556 188.724
L316.002 189.858
L316.225 190.136
L316.716 188.787
L317.386 196.675
L317.966 201.109
L318.457 203.351
L318.859 204.28
L318.904 204.337
L318.948 204.247
L319.395 203.064
L319.975 200.807
L320.689 197.046
L321.582 191.091
L321.895 188.205
L322.296 182.867
L322.341 183.065
L322.832 184.719
L322.966 185.012
L323.011 184.956
L323.457 184.198
L323.859 183.196
L325.153 175.191
L325.198 175.674
L325.823 181.165
L326.359 184.156
L326.805 185.591
L327.162 186.122
L327.43 186.195
L327.698 186.011
L327.966 185.591
L328.189 183.883
L328.234 184.287
L328.412 186.568
L329.126 201.841
L330.198 222.604
L331.269 247.692
L331.939 262.13
L332.073 265.911
L332.742 284.472
L333.367 296.183
L333.903 302.602
L334.349 305.775
L334.662 306.967
L335.108 304.899
L335.376 302.879
L335.644 300.142
L335.733 300.511
L336.135 301.588
L336.403 301.799
L336.626 301.683
L336.894 301.21
L337.296 298.332
L337.697 293.449
L338.456 282.374
L340.286 252.964
L341.626 229.378
L342.518 213.173
L343.143 202.853
L343.5 202.332
L343.813 201.476
L345.063 193.68
L346.09 186.253
L346.134 186.682
L346.715 191.116
L347.206 193.37
L347.607 194.322
L347.92 194.569
L348.143 194.505
L348.411 194.183
L348.768 193.374
L349.259 191.635
L349.527 190.143
L350.33 182.965
L352.473 158.018
L353.589 143.484
L354.839 130.114
L355.598 123.001
L356.044 125.897
L356.446 127.081
L356.491 127.048
L357.071 126.472
L357.696 125.496
L358.41 123.905
L359.214 121.534
L360.196 117.906
L360.33 117.357
L360.732 121.408
L361.401 124.182
L361.981 125.704
L362.428 126.351
L362.83 126.572
L363.187 126.5
L363.321 126.413
L363.812 124.077
L364.66 117.554
L365.285 112.664
L366.044 119.168
L366.267 120.24
L366.981 120.267
L367.517 120.061
L367.963 119.693
L368.722 130.259
L369.392 136.792
L370.017 140.884
L370.552 143.07
L370.999 144.086
L371.088 144.209
L371.133 144.123
L371.758 142.639
L371.802 142.513
L372.427 150.024
L373.052 153.855
L373.588 155.909
L374.034 156.846
L374.391 157.138
L374.659 157.114
L374.972 156.842
L375.016 156.783
L375.418 161.568
L375.82 164.591
L376.4 167.019
L376.847 168.076
L377.516 178.898
L378.141 184.22
L378.588 187.525
L379.079 195.746
L379.748 203.744
L380.328 208.208
L380.82 210.435
L381.221 211.327
L381.489 211.504
L381.712 211.417
L381.98 211.051
L382.337 210.157
L382.828 208.253
L383.185 206.161
L385.194 181.493
L386.221 167.662
L387.292 151.924
L387.694 146.419
L387.783 146.473
L387.962 146.288
L388.408 151.827
L389.167 158.927
L389.792 162.918
L390.06 163.746
L390.462 164.053
L390.774 164.056
L391.131 163.811
L391.533 163.229
L392.024 162.099
L392.649 160.052
L393.408 156.765
L393.81 154.316
L396.31 132.889
L397.693 120.633
L398.274 116.015
L398.318 116.442
L398.988 121.685
L399.568 124.664
L400.059 126.22
L400.506 126.97
L400.863 127.171
L401.175 127.088
L401.532 126.726
L401.979 125.921
L402.559 124.375
L403.05 122.56
L404.077 114.962
L406.175 88.5012
L406.934 78.2578
L408.318 62.4258
L408.362 62.7024
L409.434 68.6548
L409.791 70.2947
L410.505 83.5104
L411.085 90.0992
L411.934 96.4751
L412.648 100.328
L413.273 102.647
L413.853 104.003
L414.344 104.611
L414.567 104.739
L414.791 104.122
L415.549 113.622
L415.683 115.754
L416.487 132.195
L417.201 142.699
L417.871 149.577
L418.317 152.516
L418.808 153.669
L419.031 153.96
L419.746 163.2
L420.371 168.776
L420.951 172.13
L421.442 173.771
L421.799 174.354
L422.112 174.483
L422.379 174.336
L422.424 174.29
L423.094 183.339
L423.674 188.482
L424.165 191.179
L424.299 191.408
L424.567 191.398
L424.835 191.153
L425.192 190.488
L425.683 189.001
L426.308 186.272
L426.754 183.431
L427.468 176.241
L428.406 164.251
L428.495 163.135
L428.54 163.355
L428.986 163.913
L429.343 164.059
L429.388 164.058
L430.102 174.531
L430.727 180.825
L431.307 184.605
L431.843 187.342
L432.289 194.099
L432.914 200.668
L433.45 204.27
L433.763 206.382
L434.343 216.322
L434.923 221.91
L435.459 225.07
L435.861 226.336
L436.173 226.736
L436.396 226.736
L436.664 226.445
L437.021 225.603
L437.2 224.73
L437.468 222.227
L438.45 211.522
L439.253 200.079
L440.369 182.667
L441.039 171.694
L442.601 145.745
L443.628 132.467
L444.387 124.231
L445.012 127.983
L445.548 130.057
L446.039 131.149
L446.44 131.534
L446.753 131.55
L447.065 131.342
L447.467 130.776
L448.003 129.562
L448.137 129.186
L448.806 137.355
L448.985 139.823
L449.52 151.009
L450.235 161.785
L450.86 168.213
L451.44 172.069
L451.752 173.142
L452.065 173.18
L452.377 172.944
L453.404 168.05
L454.565 161.367
L455.279 156.719
L455.324 157.189
L455.904 162.189
L456.35 163.528
L456.797 162.956
L456.886 162.664
L457.868 157.434
L459.163 147.085
L459.207 147.425
L459.877 151.607
L460.457 153.914
L460.725 154.6
L460.77 154.554
L461.038 154.219
L462.109 148.839
L463.404 138.45
L464.609 128.966
L466.305 117.497
L468.805 102.19
L469.475 98.3074
L470.189 105.31
L470.814 109.484
L471.305 111.553
L471.707 111.659
L472.108 111.519
L472.555 111.096
L473.09 110.249
L473.269 109.891
L473.983 119.165
L474.653 125.18
L475.233 128.644
L475.769 130.627
L476.215 131.516
L476.438 131.731
L477.063 129.974
L478.447 120.764
L479.072 112.634
L479.831 116.368
L479.92 116.725
L480.724 131.388
L481.438 140.693
L482.108 146.71
L482.688 150.117
L483 151.071
L483.313 151.063
L483.581 150.891
L485.009 144.65
L486.348 137.757
L487.375 131.838
L487.42 132.343
L488.089 138.516
L488.67 141.993
L489.161 143.785
L489.563 144.575
L489.875 144.816
L490.143 144.789
L490.188 144.765
L491.17 140.656
L492.375 134.548
L492.598 132.779
L494.116 120.945
L495.901 107.178
L497.464 92.8487
L497.553 93.4718
L497.776 94.0735
L498.357 95.1609
L498.401 95.0972
L499.16 94.2202
L499.473 93.9136
L500.276 105.318
L501.035 113.064
L501.705 117.802
L502.285 120.543
L502.821 122.098
L503.267 122.772
L503.446 122.898
L504.16 133.725
L504.829 140.72
L505.365 144.344
L505.812 145.215
L505.856 145.271
L505.901 145.183
L506.169 144.611
L506.883 153.752
L507.508 159.255
L507.82 160.707
L508.267 161.635
L508.624 161.96
L508.936 161.96
L509.249 161.711
L509.472 161.39
L510.186 157.525
L510.856 151.205
L512.016 140.45
L513.579 128.143
L514.427 121.105
L515.454 111.321
L515.498 111.608
L516.213 113.542
L516.793 114.545
L517.284 114.982
L517.686 115.064
L518.088 114.906
L518.355 114.675
L518.355 114.675" style="fill:none;stroke:#0000ff;stroke-linecap:square;stroke-width:2;"/>
   </g>
   <g id="line2d_2">
    <path clip-path="url(#p7ff5b81e1d)" d="
M72 197.36
L74.1427 158.352
L74.9909 142.338
L75.5712 132.793
L77.1336 123.435
L77.58 119.109
L77.6246 119.236
L78.071 120.206
L78.6514 120.167
L78.9638 120.192
L79.4995 127.592
L80.1691 134.212
L80.928 138.211
L81.553 140.408
L81.9547 141.305
L82.669 140.119
L83.3832 138.476
L83.5171 137.839
L85.1688 128.814
L85.883 136.005
L86.508 140.199
L86.9098 141.729
L87.2669 141.849
L87.624 141.71
L88.0258 141.262
L88.1597 140.91
L88.6507 138.024
L89.9453 128.995
L92.1773 113.849
L93.2933 105.142
L94.0075 109.664
L94.5432 111.913
L94.6325 111.967
L94.945 110.92
L95.7931 106.971
L96.6413 114.489
L96.9091 115.737
L97.4894 117.615
L98.159 117.529
L99.1411 114.61
L100.436 110.81
L101.552 104.963
L103.337 96.944
L105.926 85.3748
L106.998 78.6358
L108.739 68.3976
L109.274 62.3995
L110.703 43.4978
L110.837 216
L112.935 216
L113.56 199.236
L114.765 185.939
L115.39 178.868
L115.435 179.153
L115.881 181.355
L116.149 181.58
L116.863 179.447
L117.265 176.877
L117.935 183.089
L118.515 186.633
L118.917 188.044
L119.14 187.969
L119.72 185.396
L123.515 157.52
L124.586 144.429
L126.193 125.577
L126.639 119.923
L126.684 120.026
L127.354 121.271
L127.755 121.724
L127.934 121.318
L128.559 129.179
L129.318 134.922
L129.63 136.175
L130.211 137.255
L130.657 137.676
L131.014 137.756
L131.371 137.612
L131.773 137.191
L132.264 136.326
L132.889 134.715
L133.068 133.887
L133.782 128.767
L134.451 122.066
L136.683 100.599
L137.799 92.8948
L137.889 92.3398
L138.29 97.8674
L139.094 113.928
L139.54 119.684
L139.987 123.53
L140.612 126.939
L140.656 127.013
L140.701 126.947
L140.924 126.491
L141.147 125.543
L141.996 135.336
L142.665 140.808
L143.29 142.866
L143.826 143.933
L144.228 144.318
L144.585 144.371
L144.942 144.166
L145.254 143.785
L145.433 142.551
L145.968 137.676
L147.218 125.524
L147.263 125.879
L147.933 130.383
L148.424 130.063
L149.361 126.947
L150.522 123.217
L151.682 116.879
L153.022 109.604
L154.182 101.713
L154.896 108.351
L155.7 124.115
L156.414 134.138
L157.084 140.677
L157.664 144.455
L158.111 146.198
L158.423 146.171
L158.78 145.894
L158.959 145.661
L159.941 140.62
L161.325 130.728
L162.708 120.749
L164.226 106.375
L164.762 100.458
L164.807 100.777
L165.565 105.316
L166.056 107.27
L166.592 107.45
L166.905 107.431
L167.44 105.319
L167.753 102.887
L168.556 95.6456
L170.565 68.0258
L171.279 61.4676
L171.994 56.7897
L172.842 51.5622
L173.556 44.1171
L173.645 43.3687
L173.779 216
L175.877 216
L179.136 176.264
L179.225 176.67
L179.448 177.254
L179.761 177.246
L179.806 177.225
L180.788 173.214
L181.814 168.026
L183.02 160.682
L184.582 149.642
L185.207 141.924
L187.127 118.907
L187.171 119.223
L187.618 121.574
L187.707 121.787
L187.752 121.749
L188.421 118.963
L189.18 111.026
L189.582 106.7
L190.251 96.9545
L190.787 98.091
L191.144 98.238
L191.591 98.6233
L191.635 98.5307
L192.082 97.4032
L192.707 95.2749
L193.421 93.6506
L194.448 91.9445
L194.581 91.5989
L195.474 88.0222
L196.858 82.8664
L197.662 76.8219
L198.733 69.2321
L199.581 64.3048
L200.831 57.5643
L203.063 45.5368
L203.376 44.383
L204.447 51.7764
L205.027 53.3876
L205.474 53.6114
L205.652 53.7542
L206.545 68.0804
L207.081 74.0993
L207.482 76.6512
L208.42 80.848
L208.822 82.273
L209.625 96.6413
L210.295 105.128
L210.786 108.467
L211.5 110.767
L211.991 111.813
L213.241 109.811
L214.044 108.128
L214.803 103.466
L215.205 99.6712
L216.009 91.0507
L216.857 84.2775
L217.794 78.5739
L218.062 76.6506
L221.499 49.0863
L221.901 43.429
L222.035 216
L224.178 216
L225.294 202.682
L226.142 184.51
L227.794 149.039
L228.642 133.642
L230.16 111.437
L231.097 101.585
L232.124 93.0725
L233.284 85.304
L234.266 78.7376
L235.248 71.9461
L235.472 70.6187
L236.231 78.206
L236.677 81.086
L236.989 82.2548
L237.659 93.8323
L238.463 103.098
L239.177 108.968
L239.846 112.727
L240.248 114.135
L240.471 114.147
L240.828 112.752
L241.632 107.348
L242.391 98.4754
L243.194 91.5995
L244.043 84.5916
L244.891 78.7977
L245.382 75.3152
L245.471 74.6287
L245.516 75.0657
L246.051 79.1859
L246.944 83.3934
L247.346 84.6089
L247.569 84.6987
L247.792 83.8535
L248.551 79.2424
L249.221 74.0883
L249.935 70.2331
L250.694 67.3289
L251.274 65.0988
L251.542 63.0571
L252.256 58.4331
L253.015 54.9245
L253.819 52.2461
L254.712 50.0534
L254.979 49.5034
L255.649 58.2983
L256.095 61.4687
L257.033 65.7643
L257.836 69.2662
L258.64 83.1666
L259.086 88.2858
L259.845 94.5349
L260.559 98.6551
L261.006 100.194
L261.05 100.215
L261.408 99.0214
L262.256 95.0409
L262.657 93.0711
L263.416 86.7358
L264.086 82.4931
L264.889 90.7164
L265.514 97.0254
L266.05 107.144
L266.184 110.837
L266.988 133.394
L267.702 147.868
L268.416 154.594
L269.041 158.617
L269.577 160.818
L270.023 161.859
L270.291 162.168
L270.96 160.267
L271.541 158.012
L274.889 133.634
L277.478 108.608
L278.148 97.8127
L279.353 76.5322
L280.335 64.6491
L281.094 56.9336
L281.853 50.9303
L282.165 52.64
L283.549 59.7869
L284.576 83.6216
L285.424 103.672
L285.96 112.151
L286.674 120.657
L287.031 122.421
L287.7 124.136
L288.95 122.61
L289.531 121.619
L290.87 115.419
L292.879 106.196
L294.754 91.6601
L295.646 83.6653
L296.45 76.5812
L297.432 67.2528
L298.191 59.8428
L298.771 54.8801
L298.816 55.2381
L299.798 62.2092
L300.066 63.2655
L300.468 64.3799
L300.557 64.3445
L301.003 64.1481
L301.36 62.8061
L301.851 59.7386
L302.476 56.4572
L302.833 55.0914
L303.771 66.6329
L304.619 74.4655
L305.065 77.1487
L305.556 78.681
L306.137 78.5964
L306.851 76.8509
L307.744 75.2812
L308.771 73.6079
L308.994 72.0996
L309.753 67.5224
L310.601 63.7639
L311.494 59.9906
L312.431 54.1952
L312.744 50.2548
L313.324 43.3612
L313.458 216
L315.6 216
L317.118 191.908
L319.35 154.418
L320.422 139.072
L321.314 126.385
L322.252 113.16
L323.234 102.328
L323.502 98.8421
L324.171 89.8495
L324.752 92.532
L324.796 92.5866
L324.841 92.5024
L325.511 91.5058
L326.716 90.2275
L326.805 90.1319
L327.609 101.397
L328.323 108.593
L328.992 113.296
L329.573 116.008
L329.93 117.129
L329.975 117.104
L330.466 116.677
L331.001 115.898
L331.671 114.493
L331.894 113.787
L333.189 105.952
L334.081 97.5273
L334.126 97.1609
L334.126 97.1609
L334.126 97.1609
L334.751 101.983
L335.153 103.354
L335.867 101.716
L336.447 100.692
L337.028 108.14
L337.831 114.987
L338.144 117.053
L338.233 117.039
L338.769 116.956
L339.661 114.385
L340.777 111.318
L341.849 106.027
L343.992 95.9257
L345.108 89.3443
L345.331 87.638
L347.161 72.2009
L348.5 60.9638
L349.304 55.4061
L349.705 52.5448
L349.75 52.9694
L350.688 60.7657
L350.955 61.95
L351.67 64.4566
L352.339 76.0081
L352.786 80.6446
L353.187 83.4439
L353.902 86.7671
L354.259 87.2383
L354.303 87.159
L354.884 86.3668
L355.687 85.6842
L355.955 85.3534
L356.491 83.0072
L357.25 79.2032
L358.098 76.0595
L359.169 72.9684
L359.794 71.1121
L360.687 66.8845
L361.223 64.287
L362.026 59.812
L362.919 56.086
L363.187 54.7465
L363.365 53.6668
L364.213 62.2819
L364.794 65.9531
L365.374 75.0007
L365.999 81.9005
L366.356 83.6803
L367.07 97.0883
L368.008 112.746
L368.856 128.623
L369.615 139.121
L370.329 146.147
L370.954 150.298
L371.4 152.118
L371.668 152.17
L371.936 151.299
L372.606 159.268
L373.275 163.188
L373.811 165.162
L374.257 166.077
L374.615 166.368
L374.882 166.346
L375.195 166.078
L375.686 163.423
L376.489 156.44
L377.695 143.681
L379.079 126.679
L380.73 107.293
L380.775 107.64
L381.311 110.867
L381.98 112.518
L382.516 113.314
L382.962 113.623
L383.364 113.637
L383.766 113.413
L384.257 112.839
L384.837 111.773
L385.551 109.96
L385.73 109.158
L386.489 104.013
L386.98 100.208
L387.739 106.703
L388.408 110.659
L388.989 112.919
L389.48 114.09
L389.926 114.636
L390.283 114.754
L390.64 114.619
L390.819 114.465
L391.622 110.717
L391.935 108.57
L392.158 111.859
L392.649 121.163
L393.497 131.692
L394.256 136.497
L394.926 139.411
L395.461 140.87
L395.908 141.528
L396.265 141.713
L396.577 141.64
L396.935 141.308
L397.381 140.549
L397.783 139.569
L398.363 135.509
L398.988 129.28
L401.443 97.9714
L404.345 70.9823
L405.104 62.7889
L405.907 56.5023
L406.711 51.9152
L407.023 49.9369
L407.38 47.021
L407.425 47.3951
L408.273 53.5925
L408.809 55.3687
L408.943 55.477
L408.987 55.379
L409.478 54.6123
L409.925 54.2961
L410.416 54.2188
L411.085 54.3652
L411.264 54.4284
L411.532 53.4775
L412.201 48.8286
L413.184 43.441
L414.21 54.3257
L415.103 61.5766
L415.46 63.5212
L415.996 63.7067
L416.13 63.7814
L416.71 62.6119
L417.335 61.8522
L418.094 61.2958
L419.076 60.6274
L419.835 58.2945
L420.147 57.245
L422.603 44.36
L423.317 51.5809
L423.719 53.589
L424.12 53.9155
L424.745 54.7794
L425.102 55.3704
L425.593 62.7995
L426.531 71.8497
L427.647 77.4894
L428.495 80.6844
L428.897 81.8295
L428.941 81.8038
L430.772 80.6527
L431.486 79.9012
L432.245 90.4798
L432.602 93.4755
L433.316 97.9514
L433.986 100.801
L434.566 102.347
L435.057 103.068
L435.459 103.303
L435.816 103.272
L436.218 102.994
L436.709 102.344
L436.798 102.055
L437.825 96.6542
L439.253 76.267
L440.369 58.8403
L441.262 48.2574
L441.307 48.454
L442.244 52.3723
L442.289 52.3118
L442.646 52.0241
L443.003 52.0193
L443.092 52.0525
L443.405 51.2159
L444.565 64.4586
L445.324 71.1404
L445.681 72.5439
L446.574 74.4019
L446.664 74.3113
L447.199 73.9584
L447.913 73.7778
L449.342 73.4595
L449.61 73.3346
L450.503 70.5042
L450.636 70.1378
L451.395 79.8782
L452.199 85.3669
L452.645 87.2954
L453.36 88.3522
L453.761 88.7413
L454.833 86.4954
L454.967 86.0969
L455.859 82.2131
L456.038 81.1401
L456.841 75.3611
L457.511 64.9072
L457.645 65.2691
L458.582 68.2434
L459.341 70.4241
L459.654 70.3549
L460.145 68.7443
L460.77 66.4257
L461.172 64.9811
L461.305 64.3173
L462.154 76.2481
L463.002 95.9472
L463.805 109.684
L464.564 118.952
L465.234 124.617
L465.457 125.516
L465.769 125.466
L467.243 120.829
L468.626 116.208
L469.832 108.813
L471.662 97.8917
L472.778 90.4115
L474.072 83.2521
L475.59 76.1033
L476.751 70.7109
L477.599 63.4229
L478.179 59.5341
L478.626 63.3198
L479.519 68.7863
L480.188 71.8382
L481.215 72.5049
L481.884 72.6871
L482.509 72.6227
L483.134 72.3219
L483.804 71.746
L484.608 70.7398
L485.59 69.1158
L486.84 66.5766
L488.67 62.2931
L489.518 59.9338
L489.875 57.4303
L490.321 53.2344
L490.946 43.9705
L491.08 216
L493.178 216
L496.392 177.674
L497.598 161.471
L497.732 159.836
L497.776 160.07
L498.312 162.224
L498.758 163.183
L499.071 163.446
L499.116 163.459
L499.428 162.205
L500.365 155.576
L502.151 138.721
L504.383 112.81
L504.963 104.882
L506.704 80.1895
L507.329 71.68
L508.356 55.4185
L509.07 47.4763
L509.472 43.3072
L509.606 216
L511.704 216
L513.222 176.399
L514.65 143.68
L515.543 128.393
L515.588 128.345
L516.347 138.962
L517.061 145.988
L517.686 150.089
L517.954 150.924
L518.355 151.213
L518.355 151.213" style="fill:none;stroke:#008000;stroke-linecap:square;stroke-width:2;"/>
   </g>
   <g id="line2d_3">
    <path clip-path="url(#p7ff5b81e1d)" d="
M72 64.8876
L72.3571 62.9552
L73.2946 57.1258
L73.8302 53.6334
L74.6338 48.4762
L75.3926 44.0099
L75.4373 44.4746
L75.7944 47.0903
L76.7765 53.0265
L77.3568 54.3232
L77.4461 54.2482
L77.6246 54.1324
L78.5174 67.4228
L78.9192 71.2766
L79.4995 75.3992
L79.6781 75.7776
L80.437 76.9435
L80.5262 76.8111
L81.0619 76.2352
L81.7762 75.8174
L83.5618 74.9207
L83.8742 74.6711
L84.6778 86.0726
L85.4366 93.7568
L86.0616 98.2146
L86.5526 99.3696
L87.8026 97.6778
L88.6954 96.0744
L89.0971 95.0781
L90.2131 89.7492
L91.1506 85.8561
L91.9094 94.5453
L91.9541 94.8303
L92.7576 111.255
L93.3826 120.08
L94.0968 126.33
L94.4539 129.424
L94.945 138.354
L95.6592 148.135
L95.8824 151.305
L96.4181 163.166
L97.043 171.497
L97.7126 176.386
L98.2037 178.631
L98.3376 178.316
L98.9179 185.457
L99.5875 190.263
L100.168 192.92
L100.614 194.071
L100.971 194.472
L101.239 194.488
L101.507 194.275
L101.864 193.657
L101.998 193.194
L102.311 190.831
L103.516 177.781
L104.766 164.234
L105.837 150.962
L106.016 151.347
L106.507 152.086
L106.908 152.335
L107.266 152.288
L107.623 151.996
L108.069 151.299
L108.605 150.009
L109.274 147.772
L110.123 144.091
L110.703 140.854
L112.444 127.249
L112.846 123.522
L114.185 109.152
L115.078 98.9961
L115.122 98.5516
L115.167 98.8841
L115.703 102.246
L115.97 102.131
L116.328 100.58
L117.042 97.0682
L117.354 95.3168
L118.113 91.1041
L118.336 89.5525
L118.917 85.8252
L119.765 94.4527
L120.524 100.075
L121.193 103.553
L121.372 103.862
L121.55 103.998
L122.845 101.112
L124.095 98.2149
L125.166 92.791
L125.791 102.115
L126.505 118.269
L127.264 129.134
L127.8 136.282
L128.514 152.203
L129.228 161.659
L129.496 165.129
L130.166 185.529
L130.925 207.944
L131.594 221.727
L132.219 230.395
L132.755 235.12
L133.201 237.431
L133.559 238.352
L133.826 238.559
L134.05 238.443
L134.317 237.984
L134.407 237.759
L134.987 244.671
L135.478 248.249
L135.657 248.691
L135.924 248.829
L136.148 248.674
L136.416 248.186
L136.594 247.689
L136.996 252.109
L137.442 253.608
L137.755 254.056
L137.978 254.092
L138.201 253.904
L138.514 253.287
L139.317 247.985
L139.54 245.737
L141.103 222.795
L142.308 203.793
L143.826 183.451
L144.808 169.906
L147.308 129.334
L148.379 116.711
L152.173 76.3854
L152.218 76.7512
L152.754 80.2849
L153.602 82.978
L153.647 83.0946
L154.405 96.0425
L155.209 104.31
L155.923 109.532
L156.504 112.339
L156.995 112.719
L157.441 112.785
L157.843 112.619
L158.289 112.195
L158.825 111.371
L159.494 109.905
L159.628 109.287
L160.119 105.95
L161.012 99.4714
L161.771 106.462
L162.441 110.746
L162.887 112.608
L163.333 112.797
L163.646 112.773
L163.735 112.47
L164.182 119.926
L164.807 131.777
L165.61 142.522
L166.324 149.336
L166.949 153.397
L167.262 154.421
L167.664 154.678
L167.797 154.689
L168.065 153.819
L168.78 162.358
L169.181 164.36
L169.494 164.991
L169.538 164.926
L169.672 164.588
L169.896 163.32
L169.94 163.766
L170.119 166.258
L170.922 184.653
L171.503 193.916
L172.172 200.709
L172.752 204.621
L172.797 204.852
L173.377 215.382
L174.002 220.992
L174.538 224.071
L174.761 224.645
L175.029 224.604
L175.342 224.278
L175.699 223.551
L176.145 222.136
L177.44 212.408
L178.868 199.858
L180.743 177.806
L183.154 152.064
L184.314 140.558
L184.359 140.899
L184.939 144.425
L185.386 146.868
L186.1 158.835
L186.725 165.962
L187.305 170.265
L187.662 170.954
L187.752 170.782
L188.957 161.755
L190.341 151.56
L190.653 147.346
L191.367 158.819
L192.171 178.212
L192.707 186.931
L193.376 194.516
L194.001 199.245
L194.537 201.689
L194.939 202.65
L195.251 202.928
L195.519 202.866
L195.787 202.545
L196.055 201.984
L196.456 199.072
L197.037 192.859
L198.153 180.648
L198.197 180.826
L198.331 181.319
L199.045 193.979
L199.447 198.377
L199.983 202.29
L200.161 202.781
L200.206 202.749
L200.608 202.297
L201.054 201.444
L201.59 199.913
L202.26 197.238
L203.063 192.992
L204.045 186.497
L205.34 176.29
L207.929 145.136
L209.045 131.292
L209.714 124.202
L209.759 124.527
L210.027 125.641
L210.607 127.148
L211.054 127.777
L211.411 127.971
L211.723 127.931
L212.437 138.207
L213.107 144.839
L213.464 146.828
L213.955 148.08
L214.089 148.294
L214.134 148.216
L214.268 147.83
L214.625 145.547
L215.785 135.853
L216.901 127.453
L218.464 117.525
L219 113.686
L220.116 104.981
L220.562 101.913
L221.276 108.393
L221.856 113.457
L222.615 125.85
L223.24 135.528
L223.999 152.746
L224.624 162.629
L225.204 167.723
L225.428 168.201
L225.696 168.308
L226.142 166.811
L227.079 159.109
L228.061 151.125
L229.267 141.376
L230.16 134.048
L232.034 111.794
L232.704 104.496
L233.195 98.3368
L234.579 79.8853
L235.516 70.8271
L236.454 76.6688
L237.257 80.3596
L237.972 82.6446
L238.596 83.9327
L239.132 84.5579
L242.882 75.5333
L243.864 70.66
L244.668 67.3683
L245.471 88.9563
L246.23 103.956
L246.944 114.157
L247.524 119.851
L248.149 122.767
L248.373 123.236
L248.73 123.161
L249.265 120.895
L252.747 99.7051
L254.578 91.0519
L255.649 85.7731
L255.828 83.7069
L257.256 67.0444
L258.06 60.6888
L259.309 52.271
L259.667 56.9105
L259.89 64.3095
L260.693 91.389
L261.541 110.887
L262.3 123.696
L262.702 127.923
L263.193 131.428
L263.506 132.4
L264.041 132.612
L264.22 132.62
L265.113 129.916
L265.648 134.697
L266.496 137.047
L267.077 138.091
L267.3 138.349
L268.684 135.106
L269.621 132.27
L270.514 128.954
L271.139 123.746
L272.21 114.855
L272.612 111.938
L272.925 114.169
L273.594 117.673
L273.996 119.035
L274.398 119.017
L275.157 130.176
L275.871 137.575
L276.228 139.757
L276.674 141.219
L276.808 141.142
L277.79 137.6
L278.237 142.425
L278.951 147.568
L279.576 151.293
L280.156 161.116
L280.558 165.117
L280.826 166.553
L281.362 166.864
L281.763 166.857
L282.165 166.609
L282.433 166.301
L282.79 164.694
L283.192 168.508
L283.861 172.919
L284.397 175.192
L284.844 176.295
L285.201 176.696
L285.424 176.744
L286.227 173.73
L286.584 171.859
L291.361 134.436
L292.7 121.868
L293.548 113.592
L294.486 102.422
L295.512 92.8563
L297.387 77.3795
L297.432 77.8137
L298.191 84.08
L298.503 86.864
L299.084 97.7262
L299.843 108.049
L300.378 112.945
L300.869 116.306
L301.405 125.623
L302.164 135.212
L302.833 141.107
L303.458 144.738
L303.994 146.607
L304.351 147.292
L304.842 146.245
L306.672 136.178
L307.03 139.251
L307.655 142.912
L308.012 144.089
L308.413 144.141
L308.458 144.13
L308.637 143.246
L310.244 132.442
L310.467 130.063
L310.512 130.27
L310.869 131.816
L311.092 138.705
L311.895 164.05
L312.654 181.445
L313.368 192.912
L313.904 198.581
L314.172 200.833
L314.797 212.211
L315.422 218.893
L315.958 222.566
L316.404 224.349
L316.761 225.026
L317.029 225.136
L317.252 224.988
L317.52 224.54
L318.324 219.629
L318.815 215.648
L319.931 201.275
L320.422 203.252
L320.823 204.067
L321.136 204.246
L321.404 204.106
L321.627 203.797
L322.475 199.1
L323.323 193.397
L323.368 193.844
L324.082 201.499
L324.752 213.823
L325.377 221.477
L325.6 224.204
L326.269 238.216
L326.671 243.315
L327.207 247.704
L327.653 249.798
L327.787 250.177
L327.832 250.141
L328.1 249.752
L328.457 248.797
L328.948 246.739
L329.528 243.327
L330.019 237.469
L332.028 203.708
L333.948 167.007
L333.992 167.032
L334.349 167.099
L334.662 166.959
L336.09 160.97
L336.313 159.513
L338.679 140.489
L340.152 128.305
L340.644 123.766
L342.34 102.787
L344.438 82.385
L346.357 67.546
L346.402 68.0396
L347.206 75.6099
L348.009 82.4901
L348.813 97.8425
L349.348 104.852
L349.482 106.903
L350.286 137.291
L351.045 158.191
L351.536 167.212
L352.071 174.027
L352.562 177.511
L352.786 177.925
L353.187 177.698
L353.634 177.141
L354.125 176.138
L354.571 174.734
L354.705 173.895
L355.375 180.104
L355.955 183.594
L356.446 185.331
L356.848 186.012
L357.116 186.128
L357.384 185.997
L357.607 185.711
L358.008 190.465
L358.589 195.108
L359.08 197.549
L359.482 198.652
L359.794 199.01
L360.017 199.02
L360.598 196.638
L360.955 193.841
L360.999 194.261
L361.401 197.11
L361.892 198.633
L362.294 199.218
L362.562 199.298
L362.83 199.144
L362.964 198.983
L363.455 205.289
L364.035 209.557
L364.347 210.802
L364.526 210.936
L365.151 208.939
L365.687 206.562
L366.356 200.604
L366.624 196.767
L367.829 179.031
L368.052 178.978
L370.329 170.708
L370.642 168.888
L371.088 165.558
L371.133 166.002
L371.758 171.119
L372.338 174.18
L372.784 175.55
L373.052 176
L373.632 184.884
L374.257 188.674
L374.525 189.503
L374.838 189.565
L375.15 189.394
L375.463 188.991
L376.132 196.068
L376.847 202.812
L377.293 209.167
L377.918 215.46
L378.186 218.302
L378.364 224.127
L379.079 245.653
L379.748 258.465
L380.373 266.507
L380.909 270.793
L381.355 272.759
L381.668 273.36
L381.712 273.398
L382.293 282.053
L382.828 287.054
L383.275 289.338
L383.453 289.824
L383.498 289.772
L383.766 289.245
L384.123 288.004
L384.614 285.39
L385.239 280.753
L386.042 273.039
L386.712 264.896
L387.828 245.709
L387.873 245.744
L388.096 245.774
L388.319 245.578
L388.632 244.948
L389.033 243.578
L389.569 240.88
L389.881 238.369
L390.819 228.921
L390.908 229.509
L391.355 231.692
L391.578 231.682
L391.846 231.415
L392.203 230.653
L392.649 229.101
L393.229 226.199
L393.631 223.677
L393.676 224.146
L394.033 226.802
L394.479 228.386
L394.836 228.924
L394.881 228.948
L395.015 228.564
L395.64 235.942
L396.176 239.941
L396.622 241.84
L396.979 242.526
L397.202 242.613
L397.426 242.456
L397.693 241.969
L398.095 240.678
L398.631 238.036
L399.613 228.637
L399.702 229.259
L400.149 231.59
L400.416 231.629
L400.684 231.383
L400.997 230.758
L401.399 229.461
L401.8 225.876
L402.961 211.286
L403.452 213.406
L403.854 214.315
L404.166 214.549
L404.613 220.382
L404.88 221.607
L405.327 222.826
L405.684 223.282
L405.952 223.332
L406.22 223.141
L406.666 228.855
L407.202 231.659
L407.38 232.297
L408.05 243.872
L408.675 251.052
L409.211 254.8
L409.612 256.336
L409.925 256.855
L410.014 256.903
L410.237 256.18
L410.818 262.692
L411.085 264.229
L411.353 264.278
L411.621 264.042
L411.934 263.42
L412.514 270.507
L412.737 273.24
L413.228 287.715
L413.808 304.288
L414.344 314.309
L414.88 320.031
L415.326 322.843
L415.549 322.99
L415.728 322.896
L415.996 322.421
L416.353 321.2
L416.755 319.089
L416.799 319.582
L417.424 332.626
L417.603 336.979
L418.272 354.509
L418.719 361.731
L419.21 366.449
L419.433 367.129
L419.478 367.08
L419.746 366.543
L420.103 365.202
L420.46 363.054
L421.308 353.859
L421.978 344.426
L422.826 328.759
L424.12 301.694
L425.861 263.044
L428.495 206.949
L430.727 165.134
L431.798 147.797
L433.718 121.309
L434.254 123.477
L434.7 123.532
L435.057 123.386
L436.753 116.607
L436.977 115.163
L437.066 116.905
L437.78 133.848
L438.182 140.934
L438.985 161.401
L439.7 174.507
L440.414 187.032
L440.95 196.945
L441.217 199.489
L441.485 200.687
L442.021 209.868
L442.512 216.529
L443.182 228.005
L443.896 235.459
L444.476 239.49
L444.967 241.557
L445.369 242.394
L445.637 242.552
L445.86 242.453
L446.128 242.072
L446.44 241.286
L446.797 244.931
L447.333 248.531
L447.78 250.162
L448.092 250.637
L448.315 250.668
L448.538 250.46
L448.851 249.791
L449.253 248.343
L449.699 246.044
L450.949 233.735
L451.395 227.896
L453.315 202.661
L453.761 204.197
L454.118 204.72
L454.386 204.743
L454.654 204.475
L455.011 203.707
L455.145 203.035
L456.172 195.956
L457.377 181.936
L457.69 178.493
L458.27 174.864
L458.895 180.755
L459.252 182.189
L459.788 182.868
L459.966 182.983
L460.814 180.577
L461.305 186.02
L461.93 188.768
L462.154 189.325
L462.198 189.312
L462.6 189.059
L463.046 188.481
L463.18 192.054
L463.939 212.501
L464.43 221.033
L465.055 228.817
L465.636 233.48
L466.127 235.739
L466.484 236.523
L466.752 236.681
L466.975 236.553
L467.243 236.109
L467.466 235.375
L467.823 232.633
L469.608 211.019
L471.617 186.405
L472.778 171.616
L473.269 173.663
L473.537 174.336
L474.206 185.237
L474.831 192.077
L475.099 193.502
L475.367 194.17
L475.501 194.135
L476.171 203.665
L476.796 209.561
L477.331 212.63
L477.733 213.882
L478.001 213.49
L478.626 221.555
L479.206 226.372
L479.697 228.715
L479.876 229.215
L480.411 237.839
L480.992 245.33
L481.661 258.399
L482.197 265.263
L482.688 268.071
L483.045 269.114
L483.313 269.395
L483.358 269.403
L483.625 268.309
L483.983 265.658
L484.027 266.082
L484.563 270.04
L485.009 271.854
L485.322 272.401
L485.545 272.455
L485.768 272.247
L486.081 271.546
L486.215 270.835
L486.84 265.969
L488.67 244.476
L489.518 229.667
L490.768 207.16
L491.125 201.003
L491.616 199.058
L492.286 206.393
L492.643 207.867
L492.911 208.082
L493.402 206.651
L493.937 215.576
L494.339 229.324
L494.964 249.553
L495.678 265.379
L496.75 286.262
L497.241 294.924
L497.642 299.14
L498.133 301.898
L498.491 302.849
L498.758 303.029
L498.982 302.855
L499.249 302.282
L499.428 301.419
L500.142 295.825
L501.035 286.886
L502.196 272.782
L503.49 254.348
L506.972 192.726
L507.374 185.304
L507.954 182.416
L507.999 182.072
L507.999 182.072
L507.999 182.072
L508.445 185.519
L509.026 187.672
L509.07 187.794
L509.16 187.745
L509.338 187.613
L509.695 186.186
L510.32 193.281
L510.588 194.409
L510.9 195.186
L511.392 202.68
L512.016 209.562
L512.463 212.753
L513.088 223.808
L513.534 230.737
L514.07 240.827
L514.516 246.409
L515.097 251.092
L515.364 252.066
L515.722 252.552
L515.989 252.599
L516.257 252.383
L516.57 251.808
L516.972 250.583
L517.507 248.161
L518.177 244.003
L518.355 242.705
L518.355 242.705" style="fill:none;stroke:#ff0000;stroke-linecap:square;stroke-width:2;"/>
   </g>
   <g id="patch_3">
    <path d="
M72 43.2
L518.4 43.2" style="fill:none;stroke:#000000;stroke-linecap:square;stroke-linejoin:miter;"/>
   </g>
   <g id="patch_4">
    <path d="
M518.4 388.8
L518.4 43.2" style="fill:none;stroke:#000000;stroke-linecap:square;stroke-linejoin:miter;"/>
   </g>
   <g id="patch_5">
    <path d="
M72 388.8
L518.4 388.8" style="fill:none;stroke:#000000;stroke-linecap:square;stroke-linejoin:miter;"/>
   </g>
   <g id="patch_6">
    <path d="
M72 388.8
L72 43.2" style="fill:none;stroke:#000000;stroke-linecap:square;stroke-linejoin:miter;"/>
   </g>
   <g id="matplotlib.axis_1">
    <g id="xtick_1">
     <g id="line2d_4">
      <defs>
       <path d="
M0 0
L0 -4" id="m93b0483c22" style="stroke:#000000;stroke-width:0.5;"/>
      </defs>
      <g>
       <use style="stroke:#000000;stroke-width:0.5;" x="72.0" xlink:href="#m93b0483c22" y="388.8"/>
      </g>
     </g>
     <g id="line2d_5">
      <defs>
       <path d="
M0 0
L0 4" id="m741efc42ff" style="stroke:#000000;stroke-width:0.5;"/>
      </defs>
      <g>
       <use style="stroke:#000000;stroke-width:0.5;" x="72.0" xlink:href="#m741efc42ff" y="43.2"/>
      </g>
     </g>
     <g id="text_1">
      <!-- 0 -->
      <defs>
       <path d="
M31.7812 66.4062
Q24.1719 66.4062 20.3281 58.9062
Q16.5 51.4219 16.5 36.375
Q16.5 21.3906 20.3281 13.8906
Q24.1719 6.39062 31.7812 6.39062
Q39.4531 6.39062 43.2812 13.8906
Q47.125 21.3906 47.125 36.375
Q47.125 51.4219 43.2812 58.9062
Q39.4531 66.4062 31.7812 66.4062
M31.7812 74.2188
Q44.0469 74.2188 50.5156 64.5156
Q56.9844 54.8281 56.9844 36.375
Q56.9844 17.9688 50.5156 8.26562
Q44.0469 -1.42188 31.7812 -1.42188
Q19.5312 -1.42188 13.0625 8.26562
Q6.59375 17.9688 6.59375 36.375
Q6.59375 54.8281 13.0625 64.5156
Q19.5312 74.2188 31.7812 74.2188" id="BitstreamVeraSans-Roman-30"/>
      </defs>
      <g transform="translate(68.9765625 401.918125)scale(0.12 -0.12)">
       <use xlink:href="#BitstreamVeraSans-Roman-30"/>
      </g>
     </g>
    </g>
    <g id="xtick_2">
     <g id="line2d_6">
      <g>
       <use style="stroke:#000000;stroke-width:0.5;" x="161.28" xlink:href="#m93b0483c22" y="388.8"/>
      </g>
     </g>
     <g id="line2d_7">
      <g>
       <use style="stroke:#000000;stroke-width:0.5;" x="161.28" xlink:href="#m741efc42ff" y="43.2"/>
      </g>
     </g>
     <g id="text_2">
      <!-- 200 -->
      <defs>
       <path d="
M19.1875 8.29688
L53.6094 8.29688
L53.6094 0
L7.32812 0
L7.32812 8.29688
Q12.9375 14.1094 22.625 23.8906
Q32.3281 33.6875 34.8125 36.5312
Q39.5469 41.8438 41.4219 45.5312
Q43.3125 49.2188 43.3125 52.7812
Q43.3125 58.5938 39.2344 62.25
Q35.1562 65.9219 28.6094 65.9219
Q23.9688 65.9219 18.8125 64.3125
Q13.6719 62.7031 7.8125 59.4219
L7.8125 69.3906
Q13.7656 71.7812 18.9375 73
Q24.125 74.2188 28.4219 74.2188
Q39.75 74.2188 46.4844 68.5469
Q53.2188 62.8906 53.2188 53.4219
Q53.2188 48.9219 51.5312 44.8906
Q49.8594 40.875 45.4062 35.4062
Q44.1875 33.9844 37.6406 27.2188
Q31.1094 20.4531 19.1875 8.29688" id="BitstreamVeraSans-Roman-32"/>
      </defs>
      <g transform="translate(150.665625 401.918125)scale(0.12 -0.12)">
       <use xlink:href="#BitstreamVeraSans-Roman-32"/>
       <use x="63.623046875" xlink:href="#BitstreamVeraSans-Roman-30"/>
       <use x="127.24609375" xlink:href="#BitstreamVeraSans-Roman-30"/>
      </g>
     </g>
    </g>
    <g id="xtick_3">
     <g id="line2d_8">
      <g>
       <use style="stroke:#000000;stroke-width:0.5;" x="250.56" xlink:href="#m93b0483c22" y="388.8"/>
      </g>
     </g>
     <g id="line2d_9">
      <g>
       <use style="stroke:#000000;stroke-width:0.5;" x="250.56" xlink:href="#m741efc42ff" y="43.2"/>
      </g>
     </g>
     <g id="text_3">
      <!-- 400 -->
      <defs>
       <path d="
M37.7969 64.3125
L12.8906 25.3906
L37.7969 25.3906
z

M35.2031 72.9062
L47.6094 72.9062
L47.6094 25.3906
L58.0156 25.3906
L58.0156 17.1875
L47.6094 17.1875
L47.6094 0
L37.7969 0
L37.7969 17.1875
L4.89062 17.1875
L4.89062 26.7031
z
" id="BitstreamVeraSans-Roman-34"/>
      </defs>
      <g transform="translate(239.799375 401.918125)scale(0.12 -0.12)">
       <use xlink:href="#BitstreamVeraSans-Roman-34"/>
       <use x="63.623046875" xlink:href="#BitstreamVeraSans-Roman-30"/>
       <use x="127.24609375" xlink:href="#BitstreamVeraSans-Roman-30"/>
      </g>
     </g>
    </g>
    <g id="xtick_4">
     <g id="line2d_10">
      <g>
       <use style="stroke:#000000;stroke-width:0.5;" x="339.84" xlink:href="#m93b0483c22" y="388.8"/>
      </g>
     </g>
     <g id="line2d_11">
      <g>
       <use style="stroke:#000000;stroke-width:0.5;" x="339.84" xlink:href="#m741efc42ff" y="43.2"/>
      </g>
     </g>
     <g id="text_4">
      <!-- 600 -->
      <defs>
       <path d="
M33.0156 40.375
Q26.375 40.375 22.4844 35.8281
Q18.6094 31.2969 18.6094 23.3906
Q18.6094 15.5312 22.4844 10.9531
Q26.375 6.39062 33.0156 6.39062
Q39.6562 6.39062 43.5312 10.9531
Q47.4062 15.5312 47.4062 23.3906
Q47.4062 31.2969 43.5312 35.8281
Q39.6562 40.375 33.0156 40.375
M52.5938 71.2969
L52.5938 62.3125
Q48.875 64.0625 45.0938 64.9844
Q41.3125 65.9219 37.5938 65.9219
Q27.8281 65.9219 22.6719 59.3281
Q17.5312 52.7344 16.7969 39.4062
Q19.6719 43.6562 24.0156 45.9219
Q28.375 48.1875 33.5938 48.1875
Q44.5781 48.1875 50.9531 41.5156
Q57.3281 34.8594 57.3281 23.3906
Q57.3281 12.1562 50.6875 5.35938
Q44.0469 -1.42188 33.0156 -1.42188
Q20.3594 -1.42188 13.6719 8.26562
Q6.98438 17.9688 6.98438 36.375
Q6.98438 53.6562 15.1875 63.9375
Q23.3906 74.2188 37.2031 74.2188
Q40.9219 74.2188 44.7031 73.4844
Q48.4844 72.75 52.5938 71.2969" id="BitstreamVeraSans-Roman-36"/>
      </defs>
      <g transform="translate(329.205 401.918125)scale(0.12 -0.12)">
       <use xlink:href="#BitstreamVeraSans-Roman-36"/>
       <use x="63.623046875" xlink:href="#BitstreamVeraSans-Roman-30"/>
       <use x="127.24609375" xlink:href="#BitstreamVeraSans-Roman-30"/>
      </g>
     </g>
    </g>
    <g id="xtick_5">
     <g id="line2d_12">
      <g>
       <use style="stroke:#000000;stroke-width:0.5;" x="429.12" xlink:href="#m93b0483c22" y="388.8"/>
      </g>
     </g>
     <g id="line2d_13">
      <g>
       <use style="stroke:#000000;stroke-width:0.5;" x="429.12" xlink:href="#m741efc42ff" y="43.2"/>
      </g>
     </g>
     <g id="text_5">
      <!-- 800 -->
      <defs>
       <path d="
M31.7812 34.625
Q24.75 34.625 20.7188 30.8594
Q16.7031 27.0938 16.7031 20.5156
Q16.7031 13.9219 20.7188 10.1562
Q24.75 6.39062 31.7812 6.39062
Q38.8125 6.39062 42.8594 10.1719
Q46.9219 13.9688 46.9219 20.5156
Q46.9219 27.0938 42.8906 30.8594
Q38.875 34.625 31.7812 34.625
M21.9219 38.8125
Q15.5781 40.375 12.0312 44.7188
Q8.5 49.0781 8.5 55.3281
Q8.5 64.0625 14.7188 69.1406
Q20.9531 74.2188 31.7812 74.2188
Q42.6719 74.2188 48.875 69.1406
Q55.0781 64.0625 55.0781 55.3281
Q55.0781 49.0781 51.5312 44.7188
Q48 40.375 41.7031 38.8125
Q48.8281 37.1562 52.7969 32.3125
Q56.7812 27.4844 56.7812 20.5156
Q56.7812 9.90625 50.3125 4.23438
Q43.8438 -1.42188 31.7812 -1.42188
Q19.7344 -1.42188 13.25 4.23438
Q6.78125 9.90625 6.78125 20.5156
Q6.78125 27.4844 10.7812 32.3125
Q14.7969 37.1562 21.9219 38.8125
M18.3125 54.3906
Q18.3125 48.7344 21.8438 45.5625
Q25.3906 42.3906 31.7812 42.3906
Q38.1406 42.3906 41.7188 45.5625
Q45.3125 48.7344 45.3125 54.3906
Q45.3125 60.0625 41.7188 63.2344
Q38.1406 66.4062 31.7812 66.4062
Q25.3906 66.4062 21.8438 63.2344
Q18.3125 60.0625 18.3125 54.3906" id="BitstreamVeraSans-Roman-38"/>
      </defs>
      <g transform="translate(418.4728125 401.918125)scale(0.12 -0.12)">
       <use xlink:href="#BitstreamVeraSans-Roman-38"/>
       <use x="63.623046875" xlink:href="#BitstreamVeraSans-Roman-30"/>
       <use x="127.24609375" xlink:href="#BitstreamVeraSans-Roman-30"/>
      </g>
     </g>
    </g>
    <g id="xtick_6">
     <g id="line2d_14">
      <g>
       <use style="stroke:#000000;stroke-width:0.5;" x="518.4" xlink:href="#m93b0483c22" y="388.8"/>
      </g>
     </g>
     <g id="line2d_15">
      <g>
       <use style="stroke:#000000;stroke-width:0.5;" x="518.4" xlink:href="#m741efc42ff" y="43.2"/>
      </g>
     </g>
     <g id="text_6">
      <!-- 1000 -->
      <defs>
       <path d="
M12.4062 8.29688
L28.5156 8.29688
L28.5156 63.9219
L10.9844 60.4062
L10.9844 69.3906
L28.4219 72.9062
L38.2812 72.9062
L38.2812 8.29688
L54.3906 8.29688
L54.3906 0
L12.4062 0
z
" id="BitstreamVeraSans-Roman-31"/>
      </defs>
      <g transform="translate(504.1875 401.918125)scale(0.12 -0.12)">
       <use xlink:href="#BitstreamVeraSans-Roman-31"/>
       <use x="63.623046875" xlink:href="#BitstreamVeraSans-Roman-30"/>
       <use x="127.24609375" xlink:href="#BitstreamVeraSans-Roman-30"/>
       <use x="190.869140625" xlink:href="#BitstreamVeraSans-Roman-30"/>
      </g>
     </g>
    </g>
    <g id="text_7">
     <!-- time (ms) -->
     <defs>
      <path id="BitstreamVeraSans-Roman-20"/>
      <path d="
M8.01562 75.875
L15.8281 75.875
Q23.1406 64.3594 26.7812 53.3125
Q30.4219 42.2812 30.4219 31.3906
Q30.4219 20.4531 26.7812 9.375
Q23.1406 -1.70312 15.8281 -13.1875
L8.01562 -13.1875
Q14.5 -2 17.7031 9.0625
Q20.9062 20.125 20.9062 31.3906
Q20.9062 42.6719 17.7031 53.6562
Q14.5 64.6562 8.01562 75.875" id="BitstreamVeraSans-Roman-29"/>
      <path d="
M52 44.1875
Q55.375 50.25 60.0625 53.125
Q64.75 56 71.0938 56
Q79.6406 56 84.2812 50.0156
Q88.9219 44.0469 88.9219 33.0156
L88.9219 0
L79.8906 0
L79.8906 32.7188
Q79.8906 40.5781 77.0938 44.375
Q74.3125 48.1875 68.6094 48.1875
Q61.625 48.1875 57.5625 43.5469
Q53.5156 38.9219 53.5156 30.9062
L53.5156 0
L44.4844 0
L44.4844 32.7188
Q44.4844 40.625 41.7031 44.4062
Q38.9219 48.1875 33.1094 48.1875
Q26.2188 48.1875 22.1562 43.5312
Q18.1094 38.875 18.1094 30.9062
L18.1094 0
L9.07812 0
L9.07812 54.6875
L18.1094 54.6875
L18.1094 46.1875
Q21.1875 51.2188 25.4844 53.6094
Q29.7812 56 35.6875 56
Q41.6562 56 45.8281 52.9688
Q50 49.9531 52 44.1875" id="BitstreamVeraSans-Roman-6d"/>
      <path d="
M9.42188 54.6875
L18.4062 54.6875
L18.4062 0
L9.42188 0
z

M9.42188 75.9844
L18.4062 75.9844
L18.4062 64.5938
L9.42188 64.5938
z
" id="BitstreamVeraSans-Roman-69"/>
      <path d="
M31 75.875
Q24.4688 64.6562 21.2812 53.6562
Q18.1094 42.6719 18.1094 31.3906
Q18.1094 20.125 21.3125 9.0625
Q24.5156 -2 31 -13.1875
L23.1875 -13.1875
Q15.875 -1.70312 12.2344 9.375
Q8.59375 20.4531 8.59375 31.3906
Q8.59375 42.2812 12.2031 53.3125
Q15.8281 64.3594 23.1875 75.875
z
" id="BitstreamVeraSans-Roman-28"/>
      <path d="
M56.2031 29.5938
L56.2031 25.2031
L14.8906 25.2031
Q15.4844 15.9219 20.4844 11.0625
Q25.4844 6.20312 34.4219 6.20312
Q39.5938 6.20312 44.4531 7.46875
Q49.3125 8.73438 54.1094 11.2812
L54.1094 2.78125
Q49.2656 0.734375 44.1875 -0.34375
Q39.1094 -1.42188 33.8906 -1.42188
Q20.7969 -1.42188 13.1562 6.1875
Q5.51562 13.8125 5.51562 26.8125
Q5.51562 40.2344 12.7656 48.1094
Q20.0156 56 32.3281 56
Q43.3594 56 49.7812 48.8906
Q56.2031 41.7969 56.2031 29.5938
M47.2188 32.2344
Q47.125 39.5938 43.0938 43.9844
Q39.0625 48.3906 32.4219 48.3906
Q24.9062 48.3906 20.3906 44.1406
Q15.875 39.8906 15.1875 32.1719
z
" id="BitstreamVeraSans-Roman-65"/>
      <path d="
M18.3125 70.2188
L18.3125 54.6875
L36.8125 54.6875
L36.8125 47.7031
L18.3125 47.7031
L18.3125 18.0156
Q18.3125 11.3281 20.1406 9.42188
Q21.9688 7.51562 27.5938 7.51562
L36.8125 7.51562
L36.8125 0
L27.5938 0
Q17.1875 0 13.2344 3.875
Q9.28125 7.76562 9.28125 18.0156
L9.28125 47.7031
L2.6875 47.7031
L2.6875 54.6875
L9.28125 54.6875
L9.28125 70.2188
z
" id="BitstreamVeraSans-Roman-74"/>
      <path d="
M44.2812 53.0781
L44.2812 44.5781
Q40.4844 46.5312 36.375 47.5
Q32.2812 48.4844 27.875 48.4844
Q21.1875 48.4844 17.8438 46.4375
Q14.5 44.3906 14.5 40.2812
Q14.5 37.1562 16.8906 35.375
Q19.2812 33.5938 26.5156 31.9844
L29.5938 31.2969
Q39.1562 29.25 43.1875 25.5156
Q47.2188 21.7812 47.2188 15.0938
Q47.2188 7.46875 41.1875 3.01562
Q35.1562 -1.42188 24.6094 -1.42188
Q20.2188 -1.42188 15.4531 -0.5625
Q10.6875 0.296875 5.42188 2
L5.42188 11.2812
Q10.4062 8.6875 15.2344 7.39062
Q20.0625 6.10938 24.8125 6.10938
Q31.1562 6.10938 34.5625 8.28125
Q37.9844 10.4531 37.9844 14.4062
Q37.9844 18.0625 35.5156 20.0156
Q33.0625 21.9688 24.7031 23.7812
L21.5781 24.5156
Q13.2344 26.2656 9.51562 29.9062
Q5.8125 33.5469 5.8125 39.8906
Q5.8125 47.6094 11.2812 51.7969
Q16.75 56 26.8125 56
Q31.7812 56 36.1719 55.2656
Q40.5781 54.5469 44.2812 53.0781" id="BitstreamVeraSans-Roman-73"/>
     </defs>
     <g transform="translate(266.6015625 418.531875)scale(0.12 -0.12)">
      <use xlink:href="#BitstreamVeraSans-Roman-74"/>
      <use x="39.208984375" xlink:href="#BitstreamVeraSans-Roman-69"/>
      <use x="66.9921875" xlink:href="#BitstreamVeraSans-Roman-6d"/>
      <use x="164.404296875" xlink:href="#BitstreamVeraSans-Roman-65"/>
      <use x="225.927734375" xlink:href="#BitstreamVeraSans-Roman-20"/>
      <use x="257.71484375" xlink:href="#BitstreamVeraSans-Roman-28"/>
      <use x="296.728515625" xlink:href="#BitstreamVeraSans-Roman-6d"/>
      <use x="394.140625" xlink:href="#BitstreamVeraSans-Roman-73"/>
      <use x="446.240234375" xlink:href="#BitstreamVeraSans-Roman-29"/>
     </g>
    </g>
   </g>
   <g id="matplotlib.axis_2">
    <g id="ytick_1">
     <g id="line2d_16">
      <defs>
       <path d="
M0 0
L4 0" id="m728421d6d4" style="stroke:#000000;stroke-width:0.5;"/>
      </defs>
      <g>
       <use style="stroke:#000000;stroke-width:0.5;" x="72.0" xlink:href="#m728421d6d4" y="388.8"/>
      </g>
     </g>
     <g id="line2d_17">
      <defs>
       <path d="
M0 0
L-4 0" id="mcb0005524f" style="stroke:#000000;stroke-width:0.5;"/>
      </defs>
      <g>
       <use style="stroke:#000000;stroke-width:0.5;" x="518.4" xlink:href="#mcb0005524f" y="388.8"/>
      </g>
     </g>
     <g id="text_8">
      <!-- 70 -->
      <defs>
       <path d="
M10.5938 35.5
L73.1875 35.5
L73.1875 27.2031
L10.5938 27.2031
z
" id="BitstreamVeraSans-Roman-2212"/>
       <path d="
M8.20312 72.9062
L55.0781 72.9062
L55.0781 68.7031
L28.6094 0
L18.3125 0
L43.2188 64.5938
L8.20312 64.5938
z
" id="BitstreamVeraSans-Roman-37"/>
      </defs>
      <g transform="translate(44.7425 392.11125)scale(0.12 -0.12)">
       <use xlink:href="#BitstreamVeraSans-Roman-2212"/>
       <use x="83.7890625" xlink:href="#BitstreamVeraSans-Roman-37"/>
       <use x="147.412109375" xlink:href="#BitstreamVeraSans-Roman-30"/>
      </g>
     </g>
    </g>
    <g id="ytick_2">
     <g id="line2d_18">
      <g>
       <use style="stroke:#000000;stroke-width:0.5;" x="72.0" xlink:href="#m728421d6d4" y="302.4"/>
      </g>
     </g>
     <g id="line2d_19">
      <g>
       <use style="stroke:#000000;stroke-width:0.5;" x="518.4" xlink:href="#mcb0005524f" y="302.4"/>
      </g>
     </g>
     <g id="text_9">
      <!-- 65 -->
      <defs>
       <path d="
M10.7969 72.9062
L49.5156 72.9062
L49.5156 64.5938
L19.8281 64.5938
L19.8281 46.7344
Q21.9688 47.4688 24.1094 47.8281
Q26.2656 48.1875 28.4219 48.1875
Q40.625 48.1875 47.75 41.5
Q54.8906 34.8125 54.8906 23.3906
Q54.8906 11.625 47.5625 5.09375
Q40.2344 -1.42188 26.9062 -1.42188
Q22.3125 -1.42188 17.5469 -0.640625
Q12.7969 0.140625 7.71875 1.70312
L7.71875 11.625
Q12.1094 9.23438 16.7969 8.0625
Q21.4844 6.89062 26.7031 6.89062
Q35.1562 6.89062 40.0781 11.3281
Q45.0156 15.7656 45.0156 23.3906
Q45.0156 31 40.0781 35.4375
Q35.1562 39.8906 26.7031 39.8906
Q22.75 39.8906 18.8125 39.0156
Q14.8906 38.1406 10.7969 36.2812
z
" id="BitstreamVeraSans-Roman-35"/>
      </defs>
      <g transform="translate(44.99375 305.71125)scale(0.12 -0.12)">
       <use xlink:href="#BitstreamVeraSans-Roman-2212"/>
       <use x="83.7890625" xlink:href="#BitstreamVeraSans-Roman-36"/>
       <use x="147.412109375" xlink:href="#BitstreamVeraSans-Roman-35"/>
      </g>
     </g>
    </g>
    <g id="ytick_3">
     <g id="line2d_20">
      <g>
       <use style="stroke:#000000;stroke-width:0.5;" x="72.0" xlink:href="#m728421d6d4" y="216.0"/>
      </g>
     </g>
     <g id="line2d_21">
      <g>
       <use style="stroke:#000000;stroke-width:0.5;" x="518.4" xlink:href="#mcb0005524f" y="216.0"/>
      </g>
     </g>
     <g id="text_10">
      <!-- 60 -->
      <g transform="translate(44.7425 219.31125)scale(0.12 -0.12)">
       <use xlink:href="#BitstreamVeraSans-Roman-2212"/>
       <use x="83.7890625" xlink:href="#BitstreamVeraSans-Roman-36"/>
       <use x="147.412109375" xlink:href="#BitstreamVeraSans-Roman-30"/>
      </g>
     </g>
    </g>
    <g id="ytick_4">
     <g id="line2d_22">
      <g>
       <use style="stroke:#000000;stroke-width:0.5;" x="72.0" xlink:href="#m728421d6d4" y="129.6"/>
      </g>
     </g>
     <g id="line2d_23">
      <g>
       <use style="stroke:#000000;stroke-width:0.5;" x="518.4" xlink:href="#mcb0005524f" y="129.6"/>
      </g>
     </g>
     <g id="text_11">
      <!-- 55 -->
      <g transform="translate(44.99375 132.91125)scale(0.12 -0.12)">
       <use xlink:href="#BitstreamVeraSans-Roman-2212"/>
       <use x="83.7890625" xlink:href="#BitstreamVeraSans-Roman-35"/>
       <use x="147.412109375" xlink:href="#BitstreamVeraSans-Roman-35"/>
      </g>
     </g>
    </g>
    <g id="ytick_5">
     <g id="line2d_24">
      <g>
       <use style="stroke:#000000;stroke-width:0.5;" x="72.0" xlink:href="#m728421d6d4" y="43.2"/>
      </g>
     </g>
     <g id="line2d_25">
      <g>
       <use style="stroke:#000000;stroke-width:0.5;" x="518.4" xlink:href="#mcb0005524f" y="43.2"/>
      </g>
     </g>
     <g id="text_12">
      <!-- 50 -->
      <g transform="translate(44.7425 46.51125)scale(0.12 -0.12)">
       <use xlink:href="#BitstreamVeraSans-Roman-2212"/>
       <use x="83.7890625" xlink:href="#BitstreamVeraSans-Roman-35"/>
       <use x="147.412109375" xlink:href="#BitstreamVeraSans-Roman-30"/>
      </g>
     </g>
    </g>
    <g id="text_13">
     <!-- membrane potential (mV) -->
     <defs>
      <path d="
M54.8906 33.0156
L54.8906 0
L45.9062 0
L45.9062 32.7188
Q45.9062 40.4844 42.875 44.3281
Q39.8438 48.1875 33.7969 48.1875
Q26.5156 48.1875 22.3125 43.5469
Q18.1094 38.9219 18.1094 30.9062
L18.1094 0
L9.07812 0
L9.07812 54.6875
L18.1094 54.6875
L18.1094 46.1875
Q21.3438 51.125 25.7031 53.5625
Q30.0781 56 35.7969 56
Q45.2188 56 50.0469 50.1719
Q54.8906 44.3438 54.8906 33.0156" id="BitstreamVeraSans-Roman-6e"/>
      <path d="
M41.1094 46.2969
Q39.5938 47.1719 37.8125 47.5781
Q36.0312 48 33.8906 48
Q26.2656 48 22.1875 43.0469
Q18.1094 38.0938 18.1094 28.8125
L18.1094 0
L9.07812 0
L9.07812 54.6875
L18.1094 54.6875
L18.1094 46.1875
Q20.9531 51.1719 25.4844 53.5781
Q30.0312 56 36.5312 56
Q37.4531 56 38.5781 55.875
Q39.7031 55.7656 41.0625 55.5156
z
" id="BitstreamVeraSans-Roman-72"/>
      <path d="
M30.6094 48.3906
Q23.3906 48.3906 19.1875 42.75
Q14.9844 37.1094 14.9844 27.2969
Q14.9844 17.4844 19.1562 11.8438
Q23.3438 6.20312 30.6094 6.20312
Q37.7969 6.20312 41.9844 11.8594
Q46.1875 17.5312 46.1875 27.2969
Q46.1875 37.0156 41.9844 42.7031
Q37.7969 48.3906 30.6094 48.3906
M30.6094 56
Q42.3281 56 49.0156 48.375
Q55.7188 40.7656 55.7188 27.2969
Q55.7188 13.875 49.0156 6.21875
Q42.3281 -1.42188 30.6094 -1.42188
Q18.8438 -1.42188 12.1719 6.21875
Q5.51562 13.875 5.51562 27.2969
Q5.51562 40.7656 12.1719 48.375
Q18.8438 56 30.6094 56" id="BitstreamVeraSans-Roman-6f"/>
      <path d="
M9.42188 75.9844
L18.4062 75.9844
L18.4062 0
L9.42188 0
z
" id="BitstreamVeraSans-Roman-6c"/>
      <path d="
M28.6094 0
L0.78125 72.9062
L11.0781 72.9062
L34.1875 11.5312
L57.3281 72.9062
L67.5781 72.9062
L39.7969 0
z
" id="BitstreamVeraSans-Roman-56"/>
      <path d="
M34.2812 27.4844
Q23.3906 27.4844 19.1875 25
Q14.9844 22.5156 14.9844 16.5
Q14.9844 11.7188 18.1406 8.90625
Q21.2969 6.10938 26.7031 6.10938
Q34.1875 6.10938 38.7031 11.4062
Q43.2188 16.7031 43.2188 25.4844
L43.2188 27.4844
z

M52.2031 31.2031
L52.2031 0
L43.2188 0
L43.2188 8.29688
Q40.1406 3.32812 35.5469 0.953125
Q30.9531 -1.42188 24.3125 -1.42188
Q15.9219 -1.42188 10.9531 3.29688
Q6 8.01562 6 15.9219
Q6 25.1406 12.1719 29.8281
Q18.3594 34.5156 30.6094 34.5156
L43.2188 34.5156
L43.2188 35.4062
Q43.2188 41.6094 39.1406 45
Q35.0625 48.3906 27.6875 48.3906
Q23 48.3906 18.5469 47.2656
Q14.1094 46.1406 10.0156 43.8906
L10.0156 52.2031
Q14.9375 54.1094 19.5781 55.0469
Q24.2188 56 28.6094 56
Q40.4844 56 46.3438 49.8438
Q52.2031 43.7031 52.2031 31.2031" id="BitstreamVeraSans-Roman-61"/>
      <path d="
M18.1094 8.20312
L18.1094 -20.7969
L9.07812 -20.7969
L9.07812 54.6875
L18.1094 54.6875
L18.1094 46.3906
Q20.9531 51.2656 25.2656 53.625
Q29.5938 56 35.5938 56
Q45.5625 56 51.7812 48.0938
Q58.0156 40.1875 58.0156 27.2969
Q58.0156 14.4062 51.7812 6.48438
Q45.5625 -1.42188 35.5938 -1.42188
Q29.5938 -1.42188 25.2656 0.953125
Q20.9531 3.32812 18.1094 8.20312
M48.6875 27.2969
Q48.6875 37.2031 44.6094 42.8438
Q40.5312 48.4844 33.4062 48.4844
Q26.2656 48.4844 22.1875 42.8438
Q18.1094 37.2031 18.1094 27.2969
Q18.1094 17.3906 22.1875 11.75
Q26.2656 6.10938 33.4062 6.10938
Q40.5312 6.10938 44.6094 11.75
Q48.6875 17.3906 48.6875 27.2969" id="BitstreamVeraSans-Roman-70"/>
      <path d="
M48.6875 27.2969
Q48.6875 37.2031 44.6094 42.8438
Q40.5312 48.4844 33.4062 48.4844
Q26.2656 48.4844 22.1875 42.8438
Q18.1094 37.2031 18.1094 27.2969
Q18.1094 17.3906 22.1875 11.75
Q26.2656 6.10938 33.4062 6.10938
Q40.5312 6.10938 44.6094 11.75
Q48.6875 17.3906 48.6875 27.2969
M18.1094 46.3906
Q20.9531 51.2656 25.2656 53.625
Q29.5938 56 35.5938 56
Q45.5625 56 51.7812 48.0938
Q58.0156 40.1875 58.0156 27.2969
Q58.0156 14.4062 51.7812 6.48438
Q45.5625 -1.42188 35.5938 -1.42188
Q29.5938 -1.42188 25.2656 0.953125
Q20.9531 3.32812 18.1094 8.20312
L18.1094 0
L9.07812 0
L9.07812 75.9844
L18.1094 75.9844
z
" id="BitstreamVeraSans-Roman-62"/>
     </defs>
     <g transform="translate(37.246875 293.4459375)rotate(-90.0)scale(0.12 -0.12)">
      <use xlink:href="#BitstreamVeraSans-Roman-6d"/>
      <use x="97.412109375" xlink:href="#BitstreamVeraSans-Roman-65"/>
      <use x="158.935546875" xlink:href="#BitstreamVeraSans-Roman-6d"/>
      <use x="256.34765625" xlink:href="#BitstreamVeraSans-Roman-62"/>
      <use x="319.82421875" xlink:href="#BitstreamVeraSans-Roman-72"/>
      <use x="360.9375" xlink:href="#BitstreamVeraSans-Roman-61"/>
      <use x="422.216796875" xlink:href="#BitstreamVeraSans-Roman-6e"/>
      <use x="485.595703125" xlink:href="#BitstreamVeraSans-Roman-65"/>
      <use x="547.119140625" xlink:href="#BitstreamVeraSans-Roman-20"/>
      <use x="578.90625" xlink:href="#BitstreamVeraSans-Roman-70"/>
      <use x="642.3828125" xlink:href="#BitstreamVeraSans-Roman-6f"/>
      <use x="703.564453125" xlink:href="#BitstreamVeraSans-Roman-74"/>
      <use x="742.7734375" xlink:href="#BitstreamVeraSans-Roman-65"/>
      <use x="804.296875" xlink:href="#BitstreamVeraSans-Roman-6e"/>
      <use x="867.67578125" xlink:href="#BitstreamVeraSans-Roman-74"/>
      <use x="906.884765625" xlink:href="#BitstreamVeraSans-Roman-69"/>
      <use x="934.66796875" xlink:href="#BitstreamVeraSans-Roman-61"/>
      <use x="995.947265625" xlink:href="#BitstreamVeraSans-Roman-6c"/>
      <use x="1023.73046875" xlink:href="#BitstreamVeraSans-Roman-20"/>
      <use x="1055.51757812" xlink:href="#BitstreamVeraSans-Roman-28"/>
      <use x="1094.53125" xlink:href="#BitstreamVeraSans-Roman-6d"/>
      <use x="1191.94335938" xlink:href="#BitstreamVeraSans-Roman-56"/>
      <use x="1260.3515625" xlink:href="#BitstreamVeraSans-Roman-29"/>
     </g>
    </g>
   </g>
   <g id="legend_1">
    <g id="line2d_26">
     <path d="
M89.28 325.532
L109.44 325.532" style="fill:none;stroke:#0000ff;stroke-linecap:square;stroke-width:2;"/>
    </g>
    <g id="line2d_27"/>
    <g id="text_14">
     <!-- neuron 0 -->
     <defs>
      <path d="
M8.5 21.5781
L8.5 54.6875
L17.4844 54.6875
L17.4844 21.9219
Q17.4844 14.1562 20.5 10.2656
Q23.5312 6.39062 29.5938 6.39062
Q36.8594 6.39062 41.0781 11.0312
Q45.3125 15.6719 45.3125 23.6875
L45.3125 54.6875
L54.2969 54.6875
L54.2969 0
L45.3125 0
L45.3125 8.40625
Q42.0469 3.42188 37.7188 1
Q33.4062 -1.42188 27.6875 -1.42188
Q18.2656 -1.42188 13.375 4.4375
Q8.5 10.2969 8.5 21.5781" id="BitstreamVeraSans-Roman-75"/>
     </defs>
     <g transform="translate(125.28 330.57225)scale(0.144 -0.144)">
      <use xlink:href="#BitstreamVeraSans-Roman-6e"/>
      <use x="63.37890625" xlink:href="#BitstreamVeraSans-Roman-65"/>
      <use x="124.90234375" xlink:href="#BitstreamVeraSans-Roman-75"/>
      <use x="188.28125" xlink:href="#BitstreamVeraSans-Roman-72"/>
      <use x="227.14453125" xlink:href="#BitstreamVeraSans-Roman-6f"/>
      <use x="288.326171875" xlink:href="#BitstreamVeraSans-Roman-6e"/>
      <use x="351.705078125" xlink:href="#BitstreamVeraSans-Roman-20"/>
      <use x="383.4921875" xlink:href="#BitstreamVeraSans-Roman-30"/>
     </g>
    </g>
    <g id="line2d_28">
     <path d="
M89.28 346.669
L109.44 346.669" style="fill:none;stroke:#008000;stroke-linecap:square;stroke-width:2;"/>
    </g>
    <g id="line2d_29"/>
    <g id="text_15">
     <!-- neuron 100 -->
     <g transform="translate(125.28 351.70875)scale(0.144 -0.144)">
      <use xlink:href="#BitstreamVeraSans-Roman-6e"/>
      <use x="63.37890625" xlink:href="#BitstreamVeraSans-Roman-65"/>
      <use x="124.90234375" xlink:href="#BitstreamVeraSans-Roman-75"/>
      <use x="188.28125" xlink:href="#BitstreamVeraSans-Roman-72"/>
      <use x="227.14453125" xlink:href="#BitstreamVeraSans-Roman-6f"/>
      <use x="288.326171875" xlink:href="#BitstreamVeraSans-Roman-6e"/>
      <use x="351.705078125" xlink:href="#BitstreamVeraSans-Roman-20"/>
      <use x="383.4921875" xlink:href="#BitstreamVeraSans-Roman-31"/>
      <use x="447.115234375" xlink:href="#BitstreamVeraSans-Roman-30"/>
      <use x="510.73828125" xlink:href="#BitstreamVeraSans-Roman-30"/>
     </g>
    </g>
    <g id="line2d_30">
     <path d="
M89.28 367.805
L109.44 367.805" style="fill:none;stroke:#ff0000;stroke-linecap:square;stroke-width:2;"/>
    </g>
    <g id="line2d_31"/>
    <g id="text_16">
     <!-- neuron 1000 -->
     <g transform="translate(125.28 372.84525)scale(0.144 -0.144)">
      <use xlink:href="#BitstreamVeraSans-Roman-6e"/>
      <use x="63.37890625" xlink:href="#BitstreamVeraSans-Roman-65"/>
      <use x="124.90234375" xlink:href="#BitstreamVeraSans-Roman-75"/>
      <use x="188.28125" xlink:href="#BitstreamVeraSans-Roman-72"/>
      <use x="227.14453125" xlink:href="#BitstreamVeraSans-Roman-6f"/>
      <use x="288.326171875" xlink:href="#BitstreamVeraSans-Roman-6e"/>
      <use x="351.705078125" xlink:href="#BitstreamVeraSans-Roman-20"/>
      <use x="383.4921875" xlink:href="#BitstreamVeraSans-Roman-31"/>
      <use x="447.115234375" xlink:href="#BitstreamVeraSans-Roman-30"/>
      <use x="510.73828125" xlink:href="#BitstreamVeraSans-Roman-30"/>
      <use x="574.361328125" xlink:href="#BitstreamVeraSans-Roman-30"/>
     </g>
    </g>
   </g>
  </g>
 </g>
 <defs>
  <clipPath id="p7ff5b81e1d">
   <rect height="345.6" width="446.4" x="72.0" y="43.2"/>
  </clipPath>
 </defs>
</svg>
