<?xml version="1.0" encoding="utf-8" standalone="no"?>
<!DOCTYPE svg PUBLIC "-//W3C//DTD SVG 1.1//EN"
  "http://www.w3.org/Graphics/SVG/1.1/DTD/svg11.dtd">
<!-- Created with matplotlib (http://matplotlib.org/) -->
<svg height="432pt" version="1.1" viewBox="0 0 576 432" width="576pt" xmlns="http://www.w3.org/2000/svg" xmlns:xlink="http://www.w3.org/1999/xlink">
 <defs>
  <style type="text/css">
*{stroke-linecap:butt;stroke-linejoin:round;}
  </style>
 </defs>
 <g id="figure_1">
  <g id="patch_1">
   <path d="
M0 432
L576 432
L576 0
L0 0
z
" style="fill:#ffffff;"/>
  </g>
  <g id="axes_1">
   <g id="patch_2">
    <path d="
M72 388.8
L518.4 388.8
L518.4 43.2
L72 43.2
z
" style="fill:#ffffff;"/>
   </g>
   <g id="line2d_1">
    <path clip-path="url(#p7ff5b81e1d)" d="
M72 277.421
L72.3571 248.336
L74.0981 91.7893
L74.6338 66.1259
L74.7677 61.8487
L74.857 56.716
L75.0355 65.2705
L75.0802 64.415
L75.2141 69.5477
L75.348 69.5477
L75.4819 63.5596
L75.5266 65.2705
L75.7051 72.9695
L75.7944 67.8368
L75.839 68.6923
L75.973 70.4032
L76.0622 78.9576
L76.1069 77.2467
L76.1515 78.1022
L76.3301 90.9339
L76.3747 90.0784
L76.4194 90.0784
L76.6426 95.2111
L76.6872 94.3556
L76.9104 107.187
L76.955 104.621
L77.0443 102.91
L77.1782 108.043
L77.5354 142.261
L77.6246 144.827
L77.6693 143.116
L77.7139 143.971
L77.8478 152.526
L78.0264 166.213
L78.071 166.213
L78.4282 185.888
L79.3656 236.36
L79.4102 235.504
L80.1245 273.144
L80.2138 272.288
L80.5262 296.241
L80.5709 294.53
L80.6602 300.518
L80.7048 299.663
L80.7941 298.807
L81.1958 315.916
L81.2851 319.338
L81.3744 321.904
L81.419 320.193
L81.5976 328.748
L81.6422 325.326
L81.6869 327.892
L81.7315 328.748
L81.7762 327.892
L81.8654 327.892
L81.9994 329.603
L82.044 329.603
L82.1333 331.314
L82.2672 336.447
L82.4011 335.591
L82.4458 335.591
L82.4904 333.88
L82.7136 345.001
L82.7582 344.146
L82.8029 345.001
L82.9368 342.435
L83.1154 345.857
L83.2046 345.857
L83.4278 350.989
L83.4725 350.989
L83.5618 351.845
L83.6957 348.423
L84.276 357.833
L84.3653 357.833
L84.5438 359.544
L84.6331 357.833
L84.767 362.966
L84.8117 362.11
L84.8563 362.11
L85.0349 358.688
L85.0795 358.688
L85.1688 356.977
L85.2134 357.833
L85.3474 358.688
L85.392 358.688
L85.4813 356.122
L85.5706 358.688
L85.7938 351.845
L85.883 350.989
L86.017 352.7
L86.0616 350.989
L86.1062 351.845
L86.1509 354.411
L86.2402 353.556
L86.508 346.712
L86.6419 345.857
L86.6866 345.857
L86.8651 350.134
L87.0437 343.29
L87.1776 344.146
L87.3115 341.579
L87.4008 345.001
L87.4901 341.579
L87.5347 343.29
L87.8026 336.447
L88.0704 328.748
L88.115 328.748
L88.1597 325.326
L88.2043 326.181
L88.2936 327.037
L88.3829 324.47
L88.6061 315.061
L88.6507 315.916
L88.6954 315.061
L88.74 314.205
L89.0971 294.53
L89.365 287.686
L89.4096 286.831
L89.4542 287.686
L89.4989 287.686
L89.5435 286.831
L89.5882 287.686
L89.6328 287.686
L89.7221 289.397
L89.856 286.831
L90.0346 286.831
L90.1238 289.397
L90.3917 282.554
L90.481 282.554
L90.5256 281.698
L90.5702 283.409
L90.6149 281.698
L90.7934 275.71
L90.8381 275.71
L91.0166 272.288
L91.0613 272.288
L91.3738 259.457
L91.4184 260.312
L91.463 257.746
L91.5077 260.312
L91.5523 260.312
L91.7755 248.336
L92.1773 231.227
L92.3558 228.661
L92.4005 229.516
L92.4451 228.661
L92.4898 228.661
L92.5344 229.516
L92.6683 221.817
L92.713 220.962
L92.8915 211.552
L93.0254 213.263
L93.1594 208.985
L93.2486 207.274
L93.3379 208.985
L93.3826 207.274
L93.4272 208.985
L93.5165 208.13
L93.6058 212.407
L93.6504 211.552
L93.695 208.13
L93.7843 208.985
L93.829 208.985
L93.8736 211.552
L93.9182 210.696
L94.2307 198.72
L94.2754 199.575
L94.32 200.431
L94.4093 195.298
L94.4539 197.009
L94.5432 197.865
L94.6325 196.154
L94.811 200.431
L95.0342 194.443
L95.1682 188.455
L95.3467 190.166
L95.3914 189.31
L95.436 191.021
L95.6146 183.322
L95.6592 183.322
L95.7485 179.9
L95.7931 180.756
L95.927 178.189
L96.0163 180.756
L96.061 178.189
L96.1949 183.322
L96.2395 181.611
L96.2842 183.322
L96.3288 185.033
L96.3734 183.322
L96.4181 183.322
L96.9091 193.587
L96.9538 191.876
L97.043 190.166
L97.2216 197.009
L97.2662 197.009
L97.4894 203.853
L97.5341 201.286
L97.5787 203.853
L97.6234 202.997
L97.8466 209.841
L97.9358 209.841
L97.9805 212.407
L98.0251 209.841
L98.1144 209.841
L98.3376 215.829
L98.3822 214.118
L98.4269 215.829
L98.4715 215.829
L98.5162 214.973
L98.6947 223.528
L98.9179 230.371
L98.9626 229.516
L99.0072 230.371
L99.0518 230.371
L99.0965 232.082
L99.1411 230.371
L99.1858 230.371
L99.3197 228.661
L99.8107 250.902
L99.8554 250.902
L100.212 266.3
L100.257 265.445
L100.302 266.3
L100.525 271.433
L100.57 272.288
L100.704 268.867
L100.927 282.554
L100.971 281.698
L101.373 294.53
L101.418 294.53
L101.552 297.952
L101.596 301.373
L101.686 300.518
L101.82 304.795
L101.864 302.229
L101.909 302.229
L101.953 301.373
L102.266 310.783
L102.311 310.783
L102.4 312.494
L102.489 310.783
L102.623 315.916
L102.802 312.494
L103.025 318.482
L103.114 318.482
L103.248 320.193
L103.337 321.904
L103.382 320.193
L103.427 321.049
L103.471 321.049
L103.516 320.193
L103.65 321.904
L103.694 321.049
L103.739 321.904
L103.962 328.748
L104.007 327.892
L104.141 332.17
L104.23 329.603
L104.319 330.459
L104.543 337.302
L104.676 337.302
L104.944 347.568
L105.034 347.568
L105.212 356.977
L105.435 349.278
L105.614 346.712
L105.703 347.568
L105.882 344.146
L105.926 345.001
L105.971 345.857
L106.016 345.001
L106.239 342.435
L106.284 342.435
L106.328 341.579
L106.462 346.712
L106.507 345.857
L106.596 349.278
L106.641 348.423
L106.685 348.423
L106.908 339.869
L107.042 344.146
L107.176 342.435
L107.221 342.435
L107.846 318.482
L107.935 321.049
L108.069 315.916
L108.114 316.771
L108.158 319.338
L108.203 318.482
L108.649 303.94
L108.694 304.795
L108.739 303.94
L108.917 294.53
L109.096 286.831
L109.14 286.831
L109.185 288.542
L109.23 286.831
L109.498 271.433
L109.542 271.433
L109.855 257.746
L109.899 258.601
L110.033 256.035
L110.123 257.746
L110.167 256.89
L110.346 251.758
L110.39 251.758
L110.614 244.059
L111.015 236.36
L111.149 228.661
L111.194 229.516
L111.239 230.371
L111.283 229.516
L111.328 229.516
L111.506 220.962
L111.64 214.118
L111.685 216.684
L111.819 214.973
L112.042 222.672
L112.087 223.528
L112.221 215.829
L112.31 219.251
L112.444 208.985
L112.533 214.118
L112.578 212.407
L112.622 212.407
L112.756 208.985
L112.846 209.841
L112.89 211.552
L113.113 201.286
L113.426 191.021
L113.471 192.732
L113.515 191.021
L113.56 191.021
L113.738 178.189
L113.783 179.045
L114.006 182.467
L114.14 178.189
L114.229 180.756
L114.408 175.623
L114.542 179.045
L114.944 170.49
L114.988 172.201
L115.033 173.912
L115.078 173.057
L115.167 168.779
L115.212 171.346
L115.256 174.768
L115.301 172.201
L115.39 173.057
L115.435 170.49
L115.479 172.201
L115.524 172.201
L115.569 173.057
L115.613 171.346
L115.703 176.478
L115.747 175.623
L116.149 194.443
L116.194 193.587
L116.328 195.298
L116.417 194.443
L116.506 197.009
L116.595 194.443
L116.729 201.286
L116.819 199.575
L116.952 206.419
L116.997 203.853
L117.086 206.419
L117.176 205.564
L117.22 211.552
L117.31 210.696
L117.399 212.407
L117.577 221.817
L117.667 225.239
L118.024 240.637
L118.068 241.492
L118.336 256.89
L118.515 261.168
L118.917 284.265
L118.961 282.554
L119.006 282.554
L119.051 281.698
L119.72 307.362
L119.765 305.651
L119.988 305.651
L120.077 304.795
L120.122 306.506
L120.167 305.651
L120.211 303.94
L120.256 304.795
L120.3 304.795
L120.345 303.084
L120.39 303.94
L120.792 310.783
L120.97 305.651
L121.015 304.795
L121.193 313.35
L121.238 312.494
L121.283 313.35
L121.372 315.916
L121.506 319.338
L121.595 315.916
L121.64 318.482
L121.729 317.627
L121.818 317.627
L121.863 318.482
L121.908 317.627
L121.997 315.916
L122.131 317.627
L122.22 314.205
L122.265 311.639
L122.309 313.35
L122.354 313.35
L122.532 320.193
L122.577 317.627
L122.622 319.338
L122.711 323.615
L122.756 320.193
L122.8 321.049
L122.845 321.904
L122.934 317.627
L122.979 319.338
L123.113 319.338
L123.381 311.639
L123.425 311.639
L123.559 313.35
L123.604 311.639
L123.648 314.205
L123.693 313.35
L123.827 310.783
L123.872 310.783
L123.916 309.928
L124.095 303.94
L124.184 301.373
L124.273 297.096
L124.318 298.807
L124.363 301.373
L124.407 300.518
L124.541 297.096
L124.631 297.952
L124.988 282.554
L125.032 282.554
L125.256 276.566
L125.345 279.132
L125.389 278.276
L125.434 277.421
L125.523 279.987
L125.568 279.132
L125.613 279.987
L125.836 270.577
L125.88 271.433
L126.014 266.3
L126.059 267.156
L126.104 266.3
L126.282 256.89
L126.372 256.89
L126.461 254.324
L126.505 255.179
L126.55 255.179
L126.684 254.324
L126.773 259.457
L126.818 256.89
L127.041 248.336
L127.086 250.047
L127.13 248.336
L127.22 246.625
L127.264 247.48
L127.309 246.625
L127.443 244.059
L127.621 232.938
L127.666 234.649
L127.711 232.938
L127.845 231.227
L127.889 232.938
L127.934 231.227
L128.157 225.239
L128.246 226.95
L128.291 226.95
L128.559 220.962
L128.604 222.672
L128.648 223.528
L128.782 221.817
L128.871 221.817
L128.916 218.395
L129.005 219.251
L129.05 220.106
L129.184 216.684
L129.318 218.395
L129.407 215.829
L129.452 216.684
L129.496 216.684
L129.541 219.251
L129.63 218.395
L129.675 217.54
L129.898 207.274
L129.943 209.841
L130.032 208.985
L130.121 205.564
L130.3 210.696
L130.523 205.564
L130.568 205.564
L130.702 209.841
L130.836 208.13
L130.88 207.274
L130.925 210.696
L130.969 208.985
L131.014 208.985
L131.059 208.13
L131.193 211.552
L131.237 210.696
L131.282 211.552
L131.327 211.552
L131.371 214.973
L131.46 214.118
L131.639 218.395
L131.684 216.684
L131.728 218.395
L131.818 218.395
L131.907 217.54
L132.085 221.817
L132.175 219.251
L132.309 225.239
L132.353 223.528
L132.398 223.528
L132.621 229.516
L132.889 222.672
L132.934 224.383
L133.023 229.516
L133.112 228.661
L133.157 228.661
L133.514 244.059
L133.559 244.059
L133.916 265.445
L133.96 264.589
L134.094 267.156
L134.139 266.3
L134.407 280.843
L134.451 278.276
L134.541 279.132
L134.675 281.698
L134.808 285.975
L135.032 292.819
L135.255 297.952
L135.478 306.506
L135.523 305.651
L135.567 306.506
L135.612 306.506
L135.746 303.94
L135.835 306.506
L135.88 305.651
L135.969 303.94
L136.014 304.795
L136.058 303.94
L136.103 303.94
L136.192 306.506
L136.237 303.94
L136.326 304.795
L136.862 315.061
L136.951 309.928
L136.996 310.783
L137.085 312.494
L137.13 310.783
L137.174 312.494
L137.353 317.627
L137.398 320.193
L137.442 318.482
L137.487 318.482
L137.532 319.338
L137.71 327.037
L137.755 327.037
L137.799 328.748
L137.844 327.037
L137.978 323.615
L138.023 323.615
L138.067 324.47
L138.112 323.615
L138.246 319.338
L138.38 320.193
L138.558 316.771
L138.648 318.482
L138.826 309.072
L138.871 311.639
L138.915 314.205
L138.96 312.494
L139.005 310.783
L139.139 315.061
L139.317 309.928
L139.362 309.072
L139.406 309.928
L139.451 309.928
L139.496 306.506
L139.585 307.362
L139.853 300.518
L139.942 300.518
L140.076 302.229
L140.121 300.518
L140.165 301.373
L140.21 301.373
L140.255 302.229
L140.388 297.952
L140.433 300.518
L140.478 299.663
L140.656 294.53
L140.746 298.807
L140.835 297.952
L140.88 297.952
L140.924 297.096
L141.103 289.397
L141.147 289.397
L141.281 291.964
L141.326 290.253
L141.371 291.108
L141.504 297.096
L141.638 295.385
L141.862 291.108
L142.04 296.241
L142.353 284.265
L142.397 285.12
L142.442 285.12
L142.531 286.831
L142.754 279.132
L142.799 279.132
L142.844 279.987
L143.022 274.855
L143.112 275.71
L143.156 273.144
L143.201 273.999
L143.245 279.132
L143.29 277.421
L143.424 270.577
L143.469 273.144
L143.647 274.855
L143.692 274.855
L143.781 273.999
L143.826 274.855
L143.87 273.999
L144.049 269.722
L144.138 271.433
L144.183 270.577
L144.228 270.577
L144.272 273.144
L144.317 271.433
L144.361 271.433
L144.495 263.734
L144.54 264.589
L144.585 263.734
L144.763 268.011
L144.852 270.577
L144.897 269.722
L144.942 268.867
L145.031 273.144
L145.12 269.722
L145.165 270.577
L145.299 266.3
L145.656 276.566
L145.745 273.144
L145.924 266.3
L146.013 263.734
L146.058 265.445
L146.37 273.144
L146.415 271.433
L146.46 270.577
L146.549 265.445
L146.593 266.3
L146.638 268.011
L146.683 266.3
L146.772 266.3
L146.906 271.433
L146.951 271.433
L147.218 264.589
L147.308 268.011
L147.352 266.3
L147.486 268.011
L147.576 268.867
L147.62 264.589
L147.665 266.3
L147.754 267.156
L147.799 265.445
L147.843 267.156
L147.977 269.722
L148.156 266.3
L148.2 265.445
L148.379 269.722
L148.424 266.3
L148.468 268.867
L148.602 271.433
L148.647 271.433
L148.692 272.288
L148.825 268.011
L149.004 272.288
L149.049 271.433
L149.272 261.168
L149.361 261.168
L149.45 263.734
L149.495 262.023
L149.54 260.312
L149.584 262.878
L149.629 262.023
L149.674 259.457
L149.718 261.168
L149.763 261.168
L149.852 262.878
L149.897 262.023
L149.941 262.023
L149.986 264.589
L150.031 263.734
L150.165 260.312
L150.254 263.734
L150.299 262.023
L150.343 262.023
L150.566 265.445
L150.745 260.312
L150.924 256.89
L151.013 260.312
L151.057 259.457
L151.147 259.457
L151.415 263.734
L151.459 262.023
L151.504 263.734
L151.682 269.722
L151.906 259.457
L151.995 260.312
L152.084 260.312
L152.173 264.589
L152.218 263.734
L152.263 264.589
L152.397 271.433
L152.486 268.011
L152.531 269.722
L152.575 268.867
L152.62 268.867
L152.843 265.445
L152.977 259.457
L153.156 257.746
L153.289 261.168
L153.334 262.023
L153.379 259.457
L153.468 260.312
L153.557 259.457
L153.736 270.577
L153.87 267.156
L153.959 263.734
L154.004 264.589
L154.048 264.589
L154.138 263.734
L154.272 269.722
L154.405 263.734
L154.45 265.445
L154.495 264.589
L154.673 273.999
L154.763 269.722
L154.807 272.288
L154.896 271.433
L155.03 274.855
L155.12 273.999
L155.164 273.999
L155.209 273.144
L155.388 277.421
L155.566 282.554
L155.611 281.698
L155.655 282.554
L155.789 283.409
L155.879 280.843
L155.923 281.698
L156.012 281.698
L156.057 280.843
L156.459 298.807
L156.593 299.663
L156.682 297.096
L156.727 298.807
L156.861 295.385
L156.905 295.385
L156.95 297.952
L156.995 296.241
L157.039 296.241
L157.084 295.385
L157.128 296.241
L157.218 299.663
L157.262 297.952
L157.307 296.241
L157.352 297.952
L157.53 307.362
L157.575 307.362
L157.753 303.084
L157.798 304.795
L158.066 313.35
L158.244 308.217
L158.423 317.627
L158.468 316.771
L158.557 315.916
L158.646 317.627
L158.691 316.771
L158.78 314.205
L158.959 320.193
L159.182 315.061
L159.36 323.615
L159.45 321.049
L159.494 321.904
L159.539 321.904
L159.718 326.181
L159.852 326.181
L159.896 323.615
L159.941 325.326
L160.03 325.326
L160.075 324.47
L160.119 326.181
L160.298 321.904
L160.343 321.904
L160.7 327.037
L160.744 327.037
L161.101 316.771
L161.146 316.771
L161.191 317.627
L161.325 314.205
L161.414 315.061
L161.459 314.205
L161.503 315.061
L161.548 315.061
L161.637 315.916
L161.726 312.494
L161.771 313.35
L161.816 315.916
L161.86 314.205
L161.905 310.783
L161.95 312.494
L162.039 312.494
L162.262 319.338
L162.485 307.362
L162.619 303.94
L162.753 305.651
L162.976 296.241
L163.021 296.241
L163.155 297.952
L163.289 297.952
L163.512 292.819
L163.735 285.12
L163.78 285.12
L163.914 287.686
L163.958 286.831
L164.092 285.12
L164.137 286.831
L164.182 285.975
L164.36 280.843
L164.494 281.698
L164.628 278.276
L164.807 284.265
L164.851 285.12
L164.985 281.698
L165.119 283.409
L165.253 281.698
L165.521 291.964
L165.565 290.253
L165.61 291.964
L165.655 291.108
L165.699 291.964
L165.833 294.53
L165.923 289.397
L165.967 291.108
L166.012 291.108
L166.056 288.542
L166.101 289.397
L166.19 291.964
L166.28 296.241
L166.369 291.964
L166.414 294.53
L166.458 293.674
L166.548 295.385
L166.637 294.53
L166.681 295.385
L166.771 292.819
L167.128 303.084
L167.396 298.807
L167.485 303.94
L167.53 303.084
L167.574 299.663
L167.664 300.518
L167.708 300.518
L167.797 303.084
L167.842 300.518
L167.887 303.084
L168.021 307.362
L168.199 312.494
L168.378 308.217
L168.512 310.783
L168.556 309.928
L168.601 309.928
L168.735 308.217
L168.824 309.072
L169.003 303.084
L169.092 305.651
L169.137 304.795
L169.181 304.795
L169.226 305.651
L169.271 304.795
L169.36 303.084
L169.494 305.651
L169.583 303.94
L169.762 297.952
L169.806 297.952
L170.074 288.542
L170.253 285.12
L170.297 285.975
L170.342 285.975
L170.431 291.108
L170.52 290.253
L170.565 290.253
L170.744 285.12
L170.878 288.542
L171.012 285.12
L171.056 286.831
L171.101 285.975
L171.279 280.843
L171.369 282.554
L171.592 272.288
L171.681 273.999
L171.726 272.288
L171.77 273.144
L171.815 273.999
L171.86 273.144
L171.904 273.144
L172.083 280.843
L172.128 279.987
L172.306 275.71
L172.351 276.566
L172.529 268.011
L172.663 267.156
L172.708 267.156
L172.797 268.867
L172.886 265.445
L172.931 266.3
L173.199 257.746
L173.288 259.457
L173.333 257.746
L173.377 260.312
L173.467 259.457
L173.556 261.168
L173.735 257.746
L173.779 259.457
L173.913 252.613
L173.958 254.324
L174.047 254.324
L174.181 250.902
L174.27 254.324
L174.315 253.469
L174.404 253.469
L174.538 256.035
L174.672 262.878
L174.717 261.168
L174.761 262.023
L174.806 263.734
L174.851 262.023
L175.029 256.89
L175.163 261.168
L175.431 254.324
L175.609 243.203
L175.654 246.625
L175.699 248.336
L175.743 246.625
L175.788 246.625
L175.833 245.77
L175.877 246.625
L176.011 250.047
L176.19 245.77
L176.368 250.047
L176.413 250.047
L176.592 246.625
L176.636 247.48
L176.725 249.191
L176.77 248.336
L176.859 243.203
L176.904 245.77
L176.949 244.914
L177.127 237.215
L177.172 238.926
L177.216 238.07
L177.306 238.07
L177.35 240.637
L177.395 239.781
L177.44 236.36
L177.484 238.07
L177.574 238.926
L177.663 237.215
L177.931 246.625
L177.975 247.48
L178.02 246.625
L178.065 246.625
L178.109 243.203
L178.154 244.059
L178.199 244.914
L178.288 242.348
L178.422 250.047
L178.556 249.191
L178.957 256.89
L179.136 252.613
L179.181 252.613
L179.225 251.758
L179.404 256.89
L179.493 255.179
L179.627 256.89
L179.672 256.035
L179.716 256.89
L180.029 272.288
L180.118 279.987
L180.163 276.566
L180.252 276.566
L180.386 280.843
L180.475 281.698
L180.52 279.987
L180.609 285.12
L180.654 283.409
L180.832 287.686
L180.877 286.831
L180.922 288.542
L180.966 285.975
L181.011 286.831
L181.1 288.542
L181.234 281.698
L181.457 291.108
L181.77 299.663
L181.814 299.663
L181.859 297.952
L181.993 303.94
L182.038 303.084
L182.082 303.084
L182.172 306.506
L182.395 299.663
L182.439 299.663
L182.573 295.385
L182.663 300.518
L182.707 299.663
L182.752 299.663
L183.02 290.253
L183.064 290.253
L183.198 293.674
L183.466 289.397
L183.555 293.674
L183.6 292.819
L183.823 288.542
L183.912 281.698
L184.002 282.554
L184.18 279.132
L184.225 279.132
L184.582 262.878
L184.671 265.445
L184.761 265.445
L184.939 254.324
L184.984 256.035
L185.028 259.457
L185.073 257.746
L185.296 251.758
L185.43 245.77
L185.475 248.336
L185.52 249.191
L185.609 245.77
L185.653 246.625
L185.743 251.758
L185.921 239.781
L186.011 241.492
L186.055 239.781
L186.1 240.637
L186.144 241.492
L186.189 240.637
L186.457 231.227
L186.636 226.95
L186.68 226.95
L186.769 226.094
L186.814 227.805
L186.859 226.95
L187.082 215.829
L187.216 211.552
L187.305 213.263
L187.35 210.696
L187.394 212.407
L187.573 216.684
L187.841 205.564
L187.93 208.13
L188.064 200.431
L188.153 202.142
L188.243 203.853
L188.287 202.997
L188.332 199.575
L188.376 202.142
L188.421 202.142
L188.466 201.286
L188.555 203.853
L188.689 200.431
L188.734 201.286
L188.912 195.298
L189.091 202.997
L189.269 195.298
L189.314 194.443
L189.448 202.142
L189.671 188.455
L189.716 190.166
L189.805 184.177
L189.85 185.033
L189.894 185.888
L190.028 180.756
L190.251 185.033
L190.43 194.443
L190.475 191.876
L190.519 192.732
L190.608 196.154
L190.787 190.166
L190.876 194.443
L190.921 193.587
L190.966 191.876
L191.01 193.587
L191.055 196.154
L191.144 195.298
L191.189 195.298
L191.233 196.154
L191.278 195.298
L191.367 195.298
L191.68 207.274
L191.814 209.841
L191.858 214.118
L191.903 213.263
L191.948 209.841
L191.992 210.696
L192.037 211.552
L192.082 209.841
L192.126 211.552
L192.171 213.263
L192.26 209.841
L192.349 216.684
L192.439 214.973
L192.573 218.395
L192.617 215.829
L192.662 217.54
L192.84 220.962
L192.885 220.962
L193.019 225.239
L193.064 225.239
L193.332 233.793
L193.465 232.938
L193.867 247.48
L193.912 246.625
L193.956 247.48
L194.18 262.023
L194.224 260.312
L194.314 268.011
L194.358 267.156
L194.448 273.144
L194.537 271.433
L194.581 271.433
L194.626 272.288
L194.671 270.577
L194.715 272.288
L194.76 272.288
L195.028 279.132
L195.072 279.132
L195.206 284.265
L195.251 282.554
L195.34 289.397
L195.385 288.542
L195.474 291.964
L195.519 290.253
L195.564 290.253
L195.653 294.53
L195.697 293.674
L195.787 296.241
L195.831 294.53
L195.876 296.241
L195.921 297.096
L195.965 293.674
L196.099 299.663
L196.233 297.952
L196.322 299.663
L196.456 293.674
L196.501 295.385
L196.546 295.385
L196.947 303.084
L197.126 309.928
L197.304 308.217
L197.349 308.217
L197.394 305.651
L197.438 306.506
L197.617 309.928
L197.662 309.072
L197.929 318.482
L198.019 320.193
L198.063 319.338
L198.108 319.338
L198.465 324.47
L198.554 324.47
L198.644 322.76
L198.688 323.615
L198.822 326.181
L199.09 329.603
L199.135 329.603
L199.179 331.314
L199.224 329.603
L199.313 328.748
L199.447 330.459
L199.626 325.326
L199.67 327.037
L199.804 329.603
L199.938 326.181
L200.028 327.892
L200.072 327.037
L200.251 323.615
L200.563 332.17
L200.652 332.17
L200.786 333.025
L200.831 333.025
L200.965 342.435
L201.054 339.869
L201.277 345.001
L201.322 344.146
L201.545 341.579
L201.59 341.579
L201.724 346.712
L201.768 345.857
L201.902 353.556
L201.992 352.7
L202.126 350.134
L202.26 350.989
L202.438 346.712
L202.483 346.712
L202.572 348.423
L202.795 342.435
L202.84 342.435
L202.929 344.146
L202.974 343.29
L203.018 344.146
L203.152 346.712
L203.242 344.146
L203.286 345.001
L203.331 345.001
L203.376 345.857
L203.465 343.29
L203.509 345.001
L203.554 344.146
L203.643 344.146
L203.688 343.29
L203.777 345.857
L204.134 330.459
L204.313 326.181
L204.358 327.037
L204.447 330.459
L204.492 329.603
L204.625 327.037
L204.67 327.892
L204.804 322.76
L204.849 323.615
L205.34 308.217
L205.384 308.217
L205.474 303.94
L205.518 305.651
L205.652 302.229
L205.92 289.397
L206.099 285.12
L206.232 279.132
L206.277 280.843
L206.322 279.132
L206.411 275.71
L206.545 276.566
L206.59 276.566
L206.768 267.156
L206.813 270.577
L206.857 267.156
L206.947 268.867
L207.081 267.156
L207.17 269.722
L207.215 268.011
L207.259 269.722
L207.304 270.577
L207.75 250.902
L208.197 242.348
L208.286 234.649
L208.331 236.36
L208.42 236.36
L208.509 238.926
L208.554 236.36
L208.598 241.492
L208.643 238.07
L208.732 236.36
L208.777 237.215
L208.866 238.926
L209.089 223.528
L209.179 225.239
L209.268 228.661
L209.313 227.805
L209.357 225.239
L209.402 226.094
L209.536 230.371
L209.58 229.516
L209.625 230.371
L209.67 230.371
L209.848 226.094
L209.893 223.528
L209.893 223.528
L209.893 223.528
L209.982 227.805
L210.027 226.094
L210.116 220.962
L210.205 222.672
L210.384 228.661
L210.83 214.118
L210.92 214.118
L211.054 209.841
L211.098 205.564
L211.143 208.985
L211.232 208.985
L211.277 209.841
L211.455 202.142
L211.679 191.876
L211.723 195.298
L211.768 193.587
L211.812 192.732
L211.946 196.154
L212.08 192.732
L212.304 200.431
L212.348 201.286
L212.437 199.575
L212.571 202.997
L212.616 201.286
L212.705 197.865
L212.75 198.72
L212.928 204.708
L212.973 204.708
L213.107 200.431
L213.196 206.419
L213.241 204.708
L213.286 204.708
L213.375 198.72
L213.42 199.575
L213.598 208.985
L213.732 208.13
L213.911 212.407
L214.044 211.552
L214.402 226.95
L214.982 238.926
L215.339 253.469
L215.384 252.613
L215.562 259.457
L215.607 260.312
L215.652 258.601
L215.696 259.457
L215.83 264.589
L215.875 263.734
L215.964 269.722
L216.098 278.276
L216.143 275.71
L216.232 278.276
L216.276 277.421
L216.366 275.71
L216.723 288.542
L216.768 287.686
L216.946 291.964
L216.991 291.108
L217.08 288.542
L217.259 297.096
L217.303 297.096
L217.526 304.795
L217.571 304.795
L217.705 309.072
L218.017 324.47
L218.062 322.76
L218.241 327.892
L218.33 326.181
L218.508 329.603
L218.553 330.459
L218.642 328.748
L218.732 330.459
L218.955 327.037
L219.401 333.88
L219.446 333.88
L219.491 333.025
L219.535 333.88
L219.624 337.302
L219.669 335.591
L219.714 333.025
L219.758 337.302
L219.848 336.447
L219.892 338.158
L219.937 337.302
L219.982 337.302
L220.026 335.591
L220.16 347.568
L220.249 345.857
L220.294 346.712
L220.339 345.001
L220.383 346.712
L220.428 347.568
L220.607 343.29
L220.785 350.134
L220.919 353.556
L220.964 353.556
L221.053 352.7
L221.098 353.556
L221.142 352.7
L221.232 350.134
L221.276 351.845
L221.321 350.134
L221.41 352.7
L221.455 350.989
L221.544 350.989
L221.678 354.411
L221.99 345.001
L222.169 348.423
L222.214 345.857
L222.258 346.712
L222.348 349.278
L222.392 348.423
L222.481 345.001
L222.526 342.435
L222.571 344.146
L222.615 344.146
L222.66 343.29
L222.705 344.146
L222.749 344.146
L222.839 346.712
L223.017 341.579
L223.106 343.29
L223.151 342.435
L223.285 339.869
L223.33 339.869
L223.374 339.013
L223.464 341.579
L223.642 334.736
L223.955 327.037
L224.133 321.049
L224.356 324.47
L224.49 317.627
L224.535 318.482
L224.669 314.205
L224.713 315.916
L224.758 315.061
L224.803 315.061
L224.847 315.916
L225.026 308.217
L225.071 309.072
L225.517 290.253
L225.606 291.964
L225.651 291.964
L225.696 291.108
L225.74 291.964
L225.785 292.819
L226.008 285.975
L226.053 286.831
L226.097 285.975
L226.187 283.409
L226.231 285.12
L226.276 283.409
L226.365 286.831
L226.41 285.12
L228.24 216.684
L228.285 217.54
L228.463 205.564
L228.508 204.708
L228.552 205.564
L228.597 205.564
L228.642 206.419
L229.311 157.659
L229.356 159.37
L229.579 151.67
L229.624 152.526
L229.758 148.249
L229.892 143.116
L229.936 144.827
L230.026 148.249
L230.16 141.405
L230.204 140.55
L230.293 128.573
L230.338 131.14
L230.74 117.453
L230.784 118.308
L230.874 114.886
L230.918 115.742
L231.008 115.742
L231.097 114.031
L231.142 114.886
L231.186 115.742
L231.32 114.031
L231.677 127.718
L231.722 126.863
L231.767 126.863
L231.811 128.573
L231.945 125.152
L232.034 125.152
L232.079 126.863
L232.124 125.152
L232.168 124.296
L232.213 129.429
L232.258 126.007
L232.302 125.152
L232.57 137.983
L232.615 137.128
L232.659 136.272
L232.704 137.128
L232.972 149.96
L233.016 154.237
L233.061 152.526
L233.106 150.815
L233.15 151.67
L233.284 158.514
L233.418 173.057
L233.463 171.346
L233.597 177.334
L233.641 176.478
L234.132 199.575
L234.177 200.431
L234.311 197.009
L234.356 198.72
L234.4 197.009
L234.445 197.865
L234.49 194.443
L234.534 197.865
L234.802 214.118
L234.847 213.263
L235.115 230.371
L235.248 234.649
L235.293 232.082
L235.338 232.938
L235.606 239.781
L236.007 253.469
L236.052 252.613
L236.141 255.179
L236.186 254.324
L236.588 266.3
L236.677 269.722
L236.989 278.276
L237.034 279.132
L237.123 277.421
L237.168 279.132
L237.213 275.71
L237.257 276.566
L237.48 279.987
L237.525 277.421
L237.57 279.987
L237.748 283.409
L237.838 279.987
L238.061 289.397
L238.15 291.108
L238.195 289.397
L238.239 291.108
L238.284 291.108
L238.463 295.385
L238.552 297.952
L238.909 319.338
L238.954 319.338
L239.088 323.615
L239.132 321.904
L239.221 324.47
L239.266 323.615
L239.355 326.181
L239.4 325.326
L239.445 324.47
L239.623 330.459
L239.668 332.17
L239.712 330.459
L239.757 330.459
L239.936 337.302
L240.248 342.435
L240.382 339.869
L240.427 341.579
L240.471 340.724
L240.516 340.724
L240.65 343.29
L240.739 343.29
L240.873 344.146
L240.918 343.29
L241.007 350.134
L241.052 348.423
L241.096 348.423
L241.186 350.134
L241.275 346.712
L241.32 348.423
L241.409 350.989
L241.453 350.134
L241.498 350.134
L241.543 349.278
L241.811 358.688
L241.855 357.833
L241.944 356.122
L241.989 356.977
L242.123 358.688
L242.168 357.833
L242.212 358.688
L242.257 358.688
L242.391 364.676
L242.569 356.977
L242.703 360.399
L242.793 359.544
L242.927 358.688
L243.016 359.544
L243.239 352.7
L243.373 354.411
L243.552 346.712
L243.596 345.857
L243.641 346.712
L243.685 346.712
L243.73 345.857
L243.864 348.423
L244.176 334.736
L244.266 335.591
L244.355 333.88
L244.4 334.736
L244.534 332.17
L244.623 332.17
L244.801 327.037
L244.891 323.615
L245.159 316.771
L245.248 315.916
L245.292 316.771
L245.516 309.928
L245.784 317.627
L246.051 307.362
L246.096 308.217
L246.141 309.072
L246.185 308.217
L246.319 306.506
L246.408 309.928
L246.453 309.072
L246.498 308.217
L246.542 309.072
L246.632 310.783
L246.676 309.928
L246.855 305.651
L246.989 302.229
L247.078 305.651
L247.123 303.94
L247.167 303.94
L247.614 289.397
L247.658 289.397
L247.882 279.987
L247.971 280.843
L248.016 280.843
L248.105 279.987
L248.283 272.288
L248.373 269.722
L248.417 271.433
L248.462 270.577
L248.507 268.867
L248.596 274.855
L248.64 272.288
L248.685 272.288
L248.73 273.144
L248.908 267.156
L249.042 262.878
L249.132 260.312
L249.176 262.023
L249.221 260.312
L249.265 261.168
L249.355 259.457
L249.489 263.734
L249.533 261.168
L249.533 261.168
L249.533 261.168
L249.667 265.445
L249.756 262.023
L249.89 253.469
L249.98 256.89
L250.024 256.035
L250.203 244.914
L250.292 240.637
L250.337 241.492
L250.56 245.77
L251.364 218.395
L251.408 217.54
L251.453 218.395
L251.497 218.395
L251.542 217.54
L251.631 221.817
L251.676 219.251
L251.721 219.251
L251.81 216.684
L251.855 217.54
L251.988 219.251
L252.078 222.672
L252.212 221.817
L252.256 220.962
L252.301 221.817
L252.48 228.661
L252.613 226.95
L252.747 232.938
L252.881 229.516
L253.015 231.227
L253.06 232.082
L253.104 228.661
L253.149 229.516
L253.283 231.227
L253.328 232.082
L253.506 227.805
L253.596 230.371
L253.64 229.516
L253.685 226.95
L253.729 228.661
L253.908 232.938
L253.953 231.227
L253.997 230.371
L254.042 231.227
L254.131 232.082
L254.22 229.516
L254.265 230.371
L254.399 237.215
L254.444 236.36
L254.488 232.938
L254.533 233.793
L254.667 237.215
L254.845 240.637
L254.935 239.781
L255.069 244.059
L255.203 239.781
L255.247 238.07
L255.292 239.781
L255.336 239.781
L255.381 238.926
L255.56 245.77
L255.649 247.48
L255.783 253.469
L255.872 253.469
L256.095 262.023
L256.14 259.457
L256.185 262.023
L256.452 272.288
L256.542 274.855
L256.631 278.276
L256.676 276.566
L257.033 287.686
L257.077 287.686
L257.122 286.831
L257.167 287.686
L257.211 289.397
L257.256 285.975
L257.301 289.397
L257.658 296.241
L257.747 294.53
L257.926 299.663
L258.193 309.072
L258.238 310.783
L258.283 309.072
L258.327 308.217
L258.461 311.639
L258.506 311.639
L258.64 315.061
L258.684 315.061
L259.176 331.314
L259.22 329.603
L259.265 331.314
L259.488 327.892
L259.667 332.17
L259.89 343.29
L259.934 342.435
L260.158 348.423
L260.47 344.146
L260.515 344.146
L260.559 342.435
L260.604 343.29
L260.649 345.001
L260.693 344.146
L260.827 340.724
L260.872 342.435
L260.916 339.869
L261.006 340.724
L261.05 340.724
L261.095 339.869
L261.229 342.435
L261.274 342.435
L261.363 340.724
L261.408 341.579
L261.452 338.158
L261.497 339.869
L261.541 339.869
L261.631 345.001
L261.675 343.29
L261.72 342.435
L261.809 345.001
L261.854 344.146
L261.943 341.579
L261.988 342.435
L262.032 343.29
L262.166 340.724
L262.256 345.001
L262.3 342.435
L262.345 340.724
L262.39 342.435
L262.524 342.435
L262.747 339.013
L262.836 341.579
L262.881 340.724
L262.97 340.724
L263.059 341.579
L263.148 338.158
L263.193 339.869
L263.238 340.724
L263.372 338.158
L263.863 327.892
L263.907 328.748
L263.952 330.459
L263.997 328.748
L264.264 318.482
L264.309 321.904
L264.398 321.049
L264.443 321.049
L264.488 320.193
L264.532 322.76
L264.532 322.76
L264.532 322.76
L264.577 319.338
L264.622 321.049
L264.666 321.904
L264.711 320.193
L264.756 321.049
L264.8 321.049
L264.845 318.482
L264.889 320.193
L264.934 321.904
L264.979 321.049
L265.113 316.771
L265.157 317.627
L265.202 319.338
L265.247 317.627
L265.38 308.217
L265.425 311.639
L265.47 308.217
L265.514 307.362
L265.648 301.373
L265.693 301.373
L265.916 293.674
L265.961 294.53
L266.005 294.53
L266.139 285.12
L266.184 285.975
L266.273 285.975
L266.363 284.265
L266.452 287.686
L266.496 283.409
L266.586 284.265
L266.764 276.566
L266.809 279.987
L266.854 279.132
L267.077 273.999
L267.211 278.276
L267.255 277.421
L267.3 277.421
L267.97 266.3
L268.059 270.577
L268.104 268.867
L268.193 265.445
L268.237 267.156
L268.416 268.867
L268.461 264.589
L268.55 265.445
L268.595 263.734
L268.639 265.445
L268.773 267.156
L269.041 255.179
L269.13 256.035
L269.264 254.324
L269.353 257.746
L269.532 250.047
L269.711 247.48
L269.8 253.469
L269.978 260.312
L270.023 261.168
L270.068 264.589
L270.112 263.734
L270.202 260.312
L270.246 262.878
L270.425 267.156
L270.514 262.023
L270.693 269.722
L270.827 267.156
L270.871 268.011
L270.916 268.011
L270.96 267.156
L271.005 271.433
L271.094 269.722
L271.139 268.867
L271.228 273.144
L271.273 270.577
L271.407 273.144
L271.452 272.288
L271.496 271.433
L271.585 274.855
L271.63 273.999
L271.809 263.734
L271.943 265.445
L272.076 261.168
L272.166 262.023
L272.21 261.168
L272.255 262.023
L272.344 262.023
L272.434 263.734
L272.568 259.457
L272.746 264.589
L272.88 265.445
L272.925 265.445
L273.103 273.999
L273.148 273.144
L273.326 278.276
L273.371 273.999
L273.416 275.71
L273.594 283.409
L273.639 282.554
L273.684 283.409
L273.817 286.831
L273.862 285.975
L274.041 295.385
L274.085 295.385
L274.13 297.952
L274.175 297.096
L274.576 288.542
L274.71 295.385
L274.844 291.964
L274.889 290.253
L274.933 291.108
L275.023 296.241
L275.067 293.674
L275.201 290.253
L275.469 293.674
L275.558 291.108
L275.782 297.952
L275.916 293.674
L275.96 296.241
L276.005 297.096
L276.139 289.397
L276.362 295.385
L276.451 292.819
L276.585 295.385
L276.764 298.807
L276.808 293.674
L276.898 295.385
L276.942 294.53
L277.121 299.663
L277.165 299.663
L277.299 297.096
L277.389 297.952
L277.701 290.253
L277.835 285.975
L277.88 288.542
L277.924 287.686
L278.058 284.265
L278.415 273.144
L278.46 273.144
L278.505 270.577
L278.549 272.288
L278.594 273.999
L278.639 273.144
L278.728 269.722
L278.772 270.577
L278.906 273.144
L279.04 269.722
L279.13 270.577
L279.174 270.577
L279.308 268.011
L279.353 268.011
L279.397 270.577
L279.442 265.445
L279.531 267.156
L279.621 269.722
L279.665 268.867
L279.71 268.867
L279.888 265.445
L279.933 268.011
L280.022 267.156
L280.067 268.011
L280.201 264.589
L280.246 263.734
L280.29 265.445
L280.335 263.734
L280.38 262.878
L280.558 271.433
L280.692 274.855
L280.871 272.288
L281.094 279.987
L281.228 280.843
L281.272 279.987
L281.317 285.12
L281.362 283.409
L281.406 280.843
L281.451 282.554
L281.496 283.409
L281.54 280.843
L281.585 281.698
L281.719 284.265
L281.763 283.409
L281.808 283.409
L281.853 285.975
L281.897 285.12
L281.987 284.265
L282.165 290.253
L282.21 290.253
L282.388 294.53
L282.745 305.651
L282.79 305.651
L282.969 309.072
L283.013 309.928
L283.103 306.506
L283.147 308.217
L283.192 308.217
L283.236 309.072
L283.281 308.217
L283.37 306.506
L283.504 303.084
L283.638 308.217
L283.683 308.217
L283.861 311.639
L283.906 310.783
L283.951 315.916
L284.04 314.205
L284.085 314.205
L284.308 320.193
L284.352 320.193
L284.397 322.76
L284.486 321.904
L284.62 325.326
L284.665 324.47
L284.799 322.76
L284.977 325.326
L285.111 323.615
L285.201 326.181
L285.245 325.326
L285.29 324.47
L285.335 325.326
L285.424 328.748
L285.468 327.037
L285.513 327.037
L285.602 324.47
L285.647 321.049
L285.692 321.904
L285.736 322.76
L285.87 319.338
L285.915 322.76
L285.96 321.904
L286.004 319.338
L286.093 320.193
L286.138 320.193
L286.183 317.627
L286.227 318.482
L286.495 325.326
L286.54 322.76
L286.584 323.615
L286.763 327.892
L286.942 321.904
L286.986 322.76
L287.031 321.904
L287.343 311.639
L287.388 315.061
L287.388 315.061
L287.388 315.061
L287.567 308.217
L287.79 314.205
L287.879 311.639
L288.013 315.061
L288.192 310.783
L288.236 311.639
L288.281 313.35
L288.415 309.072
L288.459 308.217
L288.504 309.928
L288.549 307.362
L288.593 308.217
L288.638 309.072
L288.772 306.506
L288.906 308.217
L289.04 303.94
L289.218 308.217
L289.352 309.928
L289.531 305.651
L289.62 305.651
L289.709 303.94
L289.843 309.072
L290.022 303.94
L290.245 309.072
L290.379 310.783
L290.825 300.518
L291.004 294.53
L291.048 295.385
L291.227 288.542
L291.406 290.253
L291.495 290.253
L291.54 286.831
L291.584 288.542
L291.629 288.542
L291.763 291.964
L291.807 291.108
L291.852 292.819
L291.897 290.253
L291.897 290.253
L291.897 290.253
L291.941 293.674
L291.986 291.964
L292.031 291.964
L292.075 295.385
L292.12 292.819
L292.209 284.265
L292.298 285.12
L292.7 292.819
L292.789 290.253
L292.834 295.385
L292.923 294.53
L292.968 292.819
L293.013 293.674
L293.057 294.53
L293.102 293.674
L293.147 292.819
L293.28 295.385
L293.414 286.831
L293.459 287.686
L293.638 289.397
L293.772 285.12
L293.816 283.409
L293.861 284.265
L293.95 284.265
L294.039 285.12
L294.173 282.554
L294.218 283.409
L294.486 276.566
L294.53 279.132
L294.62 270.577
L294.664 272.288
L294.709 272.288
L294.798 268.867
L294.843 269.722
L294.888 270.577
L294.977 267.156
L295.155 270.577
L295.245 268.011
L295.289 269.722
L295.423 275.71
L295.468 274.855
L295.557 273.144
L295.602 273.999
L295.646 273.144
L295.691 272.288
L295.736 273.144
L295.78 273.999
L295.914 277.421
L296.048 280.843
L296.093 278.276
L296.137 279.987
L296.271 281.698
L296.45 277.421
L296.495 279.132
L296.539 277.421
L296.584 275.71
L296.628 277.421
L296.762 283.409
L296.807 282.554
L296.852 282.554
L296.896 283.409
L297.209 273.144
L297.253 273.999
L297.298 273.144
L297.343 273.144
L297.432 274.855
L297.611 273.144
L297.655 273.144
L297.744 269.722
L297.789 271.433
L297.968 275.71
L298.012 273.999
L298.057 274.855
L298.102 275.71
L298.146 273.999
L298.191 275.71
L298.325 279.132
L298.414 276.566
L298.459 277.421
L298.593 276.566
L298.682 279.987
L298.727 279.132
L298.771 277.421
L298.905 281.698
L299.039 279.132
L299.218 285.975
L299.352 284.265
L299.441 283.409
L299.53 286.831
L299.575 285.975
L299.619 286.831
L299.664 285.975
L299.709 285.975
L299.798 288.542
L299.843 286.831
L299.887 287.686
L299.932 287.686
L300.066 291.108
L300.155 287.686
L300.2 288.542
L300.244 291.108
L300.289 288.542
L300.334 287.686
L300.378 290.253
L300.557 283.409
L300.646 281.698
L300.691 282.554
L300.825 285.975
L300.869 282.554
L300.959 283.409
L301.048 283.409
L301.092 284.265
L301.137 283.409
L301.226 281.698
L301.45 272.288
L301.494 274.855
L301.539 273.144
L301.584 271.433
L301.628 273.144
L301.673 273.999
L301.807 278.276
L302.03 271.433
L302.075 272.288
L302.387 263.734
L302.476 263.734
L302.833 252.613
L302.923 256.035
L302.967 255.179
L303.012 255.179
L303.101 256.89
L303.235 252.613
L303.28 254.324
L303.324 252.613
L303.503 257.746
L303.592 256.035
L303.726 251.758
L303.816 256.035
L303.86 254.324
L303.905 251.758
L303.905 251.758
L303.905 251.758
L303.949 255.179
L303.994 253.469
L304.128 250.047
L304.173 250.902
L304.351 254.324
L304.396 252.613
L304.44 253.469
L304.485 253.469
L304.574 250.902
L304.798 257.746
L304.842 257.746
L304.887 256.035
L305.021 261.168
L305.065 260.312
L305.11 263.734
L305.155 262.023
L305.199 260.312
L305.244 261.168
L305.512 265.445
L305.601 264.589
L305.646 265.445
L305.69 263.734
L305.735 265.445
L305.914 273.144
L305.958 272.288
L306.003 273.144
L306.048 272.288
L306.315 262.023
L306.36 262.878
L306.672 274.855
L306.806 278.276
L306.896 277.421
L306.985 273.999
L307.253 284.265
L307.297 284.265
L307.387 285.12
L307.431 284.265
L307.699 291.108
L307.833 294.53
L307.878 292.819
L308.101 290.253
L308.146 291.964
L308.324 286.831
L308.369 287.686
L308.413 291.108
L308.503 290.253
L308.547 291.108
L308.637 294.53
L308.681 293.674
L308.771 294.53
L308.949 289.397
L309.217 292.819
L309.262 292.819
L309.529 289.397
L309.708 293.674
L309.753 293.674
L309.887 291.964
L310.288 300.518
L310.333 303.084
L310.422 302.229
L310.824 317.627
L311.003 313.35
L311.092 310.783
L311.27 315.061
L311.315 315.061
L311.449 321.904
L311.628 316.771
L311.672 315.916
L311.717 316.771
L311.895 318.482
L311.94 318.482
L312.252 309.072
L312.297 309.072
L312.342 305.651
L312.386 307.362
L312.654 312.494
L312.788 317.627
L312.922 319.338
L313.011 320.193
L313.056 318.482
L313.101 319.338
L313.145 321.049
L313.19 320.193
L313.368 315.916
L313.458 318.482
L313.502 316.771
L313.547 318.482
L313.726 316.771
L313.77 316.771
L313.949 313.35
L314.083 316.771
L314.217 315.061
L314.395 320.193
L314.44 317.627
L314.752 310.783
L314.842 308.217
L314.886 309.072
L315.065 303.084
L315.109 306.506
L315.154 303.94
L315.199 303.94
L315.333 297.952
L315.377 300.518
L315.422 299.663
L315.467 298.807
L315.511 299.663
L315.556 299.663
L315.6 300.518
L315.69 296.241
L315.734 297.096
L315.913 289.397
L316.092 297.952
L316.27 293.674
L316.315 293.674
L316.449 296.241
L316.493 296.241
L316.627 301.373
L316.761 297.096
L316.806 297.952
L316.895 298.807
L316.94 297.952
L316.984 298.807
L317.029 299.663
L317.208 293.674
L317.341 297.096
L317.386 297.096
L317.52 296.241
L317.565 296.241
L317.743 293.674
L318.1 298.807
L318.19 297.096
L318.413 303.084
L318.457 304.795
L318.502 303.084
L318.681 305.651
L318.77 303.084
L318.859 303.94
L319.261 313.35
L319.484 320.193
L319.573 321.904
L319.707 318.482
L319.752 319.338
L319.886 320.193
L319.931 320.193
L320.198 324.47
L320.243 323.615
L320.288 324.47
L320.511 328.748
L320.556 327.892
L320.779 325.326
L320.823 327.037
L320.868 325.326
L320.913 326.181
L321.047 323.615
L321.091 323.615
L321.136 321.049
L321.18 323.615
L321.225 323.615
L321.27 326.181
L321.359 325.326
L321.404 325.326
L321.448 326.181
L321.493 325.326
L321.538 325.326
L321.805 329.603
L321.85 328.748
L321.895 329.603
L322.073 329.603
L322.118 327.892
L322.163 328.748
L322.341 333.025
L322.43 332.17
L322.564 329.603
L322.609 329.603
L322.966 321.904
L323.011 322.76
L323.055 323.615
L323.189 320.193
L323.323 321.904
L323.457 316.771
L323.546 316.771
L323.68 318.482
L324.037 305.651
L324.216 309.072
L324.261 307.362
L324.305 308.217
L324.35 308.217
L324.573 300.518
L324.93 291.964
L325.064 284.265
L325.109 285.12
L325.243 288.542
L325.287 288.542
L325.511 277.421
L325.689 279.987
L325.823 276.566
L325.957 273.144
L326.002 274.855
L326.225 258.601
L326.269 259.457
L326.314 257.746
L326.359 258.601
L326.403 258.601
L326.493 255.179
L327.118 234.649
L327.162 235.504
L327.385 228.661
L327.475 232.082
L327.519 230.371
L327.698 223.528
L327.743 222.672
L327.787 224.383
L327.832 221.817
L327.876 223.528
L327.966 223.528
L328.189 216.684
L328.234 218.395
L328.278 217.54
L328.323 215.829
L328.501 221.817
L328.546 221.817
L328.725 219.251
L328.948 223.528
L328.992 222.672
L329.037 222.672
L329.216 224.383
L329.26 224.383
L329.439 220.962
L329.528 226.094
L329.573 224.383
L329.751 218.395
L329.841 221.817
L329.975 227.805
L330.153 223.528
L330.287 220.106
L330.466 222.672
L330.51 221.817
L330.733 233.793
L330.778 231.227
L330.823 232.938
L330.867 231.227
L330.912 228.661
L330.957 229.516
L331.224 235.504
L331.358 240.637
L331.403 238.926
L331.448 240.637
L331.582 243.203
L331.716 242.348
L331.76 244.914
L331.76 244.914
L331.76 244.914
L331.849 240.637
L331.939 243.203
L331.983 241.492
L332.028 242.348
L332.162 249.191
L332.251 247.48
L332.296 245.77
L332.34 247.48
L332.43 247.48
L332.564 243.203
L332.608 244.059
L332.698 243.203
L332.832 246.625
L332.965 243.203
L333.01 243.203
L333.099 245.77
L333.144 244.059
L333.189 244.059
L333.323 250.902
L333.367 249.191
L333.412 250.047
L333.59 252.613
L333.635 249.191
L333.724 250.047
L333.948 260.312
L333.992 256.035
L334.037 258.601
L334.215 266.3
L334.26 267.156
L334.349 264.589
L334.394 266.3
L334.528 262.023
L334.572 262.023
L334.706 270.577
L334.751 269.722
L334.885 276.566
L334.93 274.855
L334.974 274.855
L335.064 273.999
L335.287 280.843
L335.465 285.12
L335.599 288.542
L335.644 287.686
L335.688 288.542
L335.733 288.542
L335.867 291.108
L336.046 297.096
L336.09 297.096
L336.269 299.663
L336.403 303.94
L336.447 303.94
L336.581 307.362
L336.671 305.651
L336.894 311.639
L337.206 324.47
L337.251 322.76
L337.296 321.904
L337.34 322.76
L337.608 322.76
L337.653 326.181
L337.697 325.326
L337.742 324.47
L337.787 325.326
L337.831 325.326
L338.01 329.603
L338.233 338.158
L338.278 336.447
L338.367 333.025
L338.412 334.736
L338.545 340.724
L338.59 339.869
L338.724 335.591
L338.769 338.158
L338.813 337.302
L338.903 335.591
L339.081 343.29
L339.394 336.447
L339.483 337.302
L339.572 340.724
L339.617 339.013
L339.751 336.447
L339.929 330.459
L340.063 327.892
L340.197 329.603
L340.242 329.603
L340.42 323.615
L340.554 324.47
L340.599 323.615
L340.644 325.326
L340.688 323.615
L340.733 324.47
L340.777 323.615
L340.822 321.904
L340.867 324.47
L340.911 321.904
L340.956 321.049
L341.135 325.326
L341.224 323.615
L341.402 317.627
L341.626 310.783
L341.67 311.639
L341.804 309.072
L341.938 311.639
L342.161 302.229
L342.206 302.229
L342.474 289.397
L342.697 279.132
L342.742 279.987
L342.786 282.554
L342.831 280.843
L342.876 280.843
L343.099 277.421
L343.188 280.843
L343.233 279.132
L343.277 276.566
L343.322 277.421
L343.367 278.276
L343.59 267.156
L343.768 262.023
L343.858 260.312
L343.947 262.023
L344.036 255.179
L344.17 248.336
L344.304 251.758
L344.349 250.902
L344.616 246.625
L344.75 248.336
L344.795 248.336
L344.84 246.625
L344.884 247.48
L344.929 247.48
L345.018 244.914
L345.063 245.77
L345.197 247.48
L345.331 242.348
L345.375 243.203
L345.465 244.914
L345.643 231.227
L345.688 232.938
L345.956 222.672
L346 226.094
L346.045 222.672
L346.268 211.552
L346.447 208.985
L346.491 209.841
L346.536 207.274
L346.625 208.13
L346.67 208.985
L346.715 207.274
L346.759 209.841
L346.759 209.841
L346.759 209.841
L346.893 198.72
L346.938 202.997
L347.161 206.419
L347.741 197.009
L347.786 198.72
L347.875 196.154
L348.009 199.575
L348.322 208.985
L348.366 208.985
L348.456 202.142
L348.5 202.997
L348.545 203.853
L348.679 210.696
L348.768 209.841
L348.947 202.142
L348.991 201.286
L349.036 202.142
L349.125 202.142
L349.304 198.72
L349.438 201.286
L349.482 201.286
L349.661 195.298
L349.75 197.009
L349.795 196.154
L349.839 199.575
L349.929 198.72
L349.973 197.865
L350.33 208.985
L350.375 206.419
L350.42 208.985
L350.464 213.263
L350.554 212.407
L350.598 214.118
L350.688 211.552
L350.821 217.54
L350.955 212.407
L351.625 235.504
L351.67 235.504
L351.714 236.36
L351.804 232.938
L351.848 233.793
L351.893 234.649
L352.027 242.348
L352.116 234.649
L352.161 237.215
L352.205 235.504
L352.518 247.48
L352.562 248.336
L352.652 246.625
L352.696 248.336
L352.741 247.48
L352.786 246.625
L352.964 253.469
L353.009 252.613
L353.187 258.601
L353.277 257.746
L353.5 269.722
L353.589 269.722
L353.723 273.999
L353.812 276.566
L353.902 270.577
L353.991 272.288
L354.125 280.843
L354.169 279.987
L354.303 284.265
L354.393 280.843
L354.437 281.698
L354.482 282.554
L354.616 286.831
L354.705 286.831
L354.75 285.12
L354.794 286.831
L354.839 289.397
L354.884 288.542
L355.018 286.831
L355.285 303.94
L355.33 302.229
L355.419 309.072
L355.464 307.362
L355.687 298.807
L355.776 299.663
L355.866 298.807
L355.91 299.663
L356 297.096
L356.089 299.663
L356.134 298.807
L356.357 303.084
L356.535 296.241
L356.669 302.229
L356.714 302.229
L356.848 297.952
L357.071 288.542
L357.116 290.253
L357.16 290.253
L357.205 288.542
L357.25 289.397
L357.294 291.964
L357.384 291.108
L357.428 291.964
L357.473 290.253
L357.517 292.819
L357.562 291.108
L357.607 290.253
L357.651 291.108
L357.696 291.108
L357.741 292.819
L357.785 291.964
L357.964 287.686
L358.008 287.686
L358.053 285.975
L358.098 288.542
L358.142 287.686
L358.276 282.554
L358.41 286.831
L358.767 275.71
L358.812 275.71
L358.857 278.276
L358.901 275.71
L359.08 268.011
L359.124 268.867
L359.169 269.722
L359.303 267.156
L359.348 267.156
L359.571 262.023
L359.883 256.035
L359.928 256.89
L359.973 256.89
L360.107 259.457
L360.24 255.179
L360.285 256.035
L360.33 256.035
L360.419 250.902
L360.464 253.469
L360.508 252.613
L360.687 245.77
L360.821 243.203
L360.91 250.047
L360.955 248.336
L360.999 244.914
L361.044 246.625
L361.089 246.625
L361.223 250.047
L361.267 248.336
L361.446 253.469
L361.49 253.469
L361.624 259.457
L361.669 260.312
L361.848 256.89
L362.249 247.48
L362.294 248.336
L362.428 251.758
L362.472 251.758
L362.517 252.613
L362.562 251.758
L362.651 251.758
L362.874 246.625
L362.919 246.625
L363.142 249.191
L363.187 249.191
L363.41 256.035
L363.499 256.035
L363.812 267.156
L363.856 265.445
L364.035 272.288
L364.08 272.288
L364.169 271.433
L364.66 282.554
L365.285 303.084
L365.374 303.94
L365.419 301.373
L365.463 303.94
L365.508 308.217
L365.597 306.506
L365.731 303.084
L365.865 307.362
L365.91 306.506
L366.044 303.084
L366.133 304.795
L366.178 303.084
L366.445 313.35
L366.803 319.338
L366.847 316.771
L366.892 318.482
L366.936 318.482
L367.115 312.494
L367.16 313.35
L367.294 321.049
L367.338 320.193
L367.517 326.181
L367.561 327.037
L367.606 326.181
L367.829 321.049
L367.874 320.193
L367.919 321.049
L368.097 325.326
L368.32 317.627
L368.41 321.049
L368.454 319.338
L368.499 319.338
L368.544 318.482
L368.588 320.193
L368.633 318.482
L368.767 318.482
L368.901 314.205
L368.945 315.061
L368.99 314.205
L369.213 307.362
L369.302 309.928
L369.347 309.072
L369.392 309.072
L369.436 306.506
L369.481 309.072
L369.526 309.072
L369.66 309.928
L369.838 308.217
L369.927 308.217
L370.106 302.229
L370.151 303.084
L370.329 306.506
L370.418 304.795
L370.552 307.362
L370.642 305.651
L370.686 307.362
L370.731 305.651
L370.954 299.663
L370.999 299.663
L371.088 296.241
L371.133 297.096
L371.222 297.952
L371.267 294.53
L371.311 295.385
L371.534 303.084
L371.936 291.108
L372.159 287.686
L372.338 291.108
L372.427 288.542
L372.472 289.397
L372.516 289.397
L372.606 287.686
L372.65 289.397
L372.695 288.542
L372.74 287.686
L372.829 289.397
L372.918 286.831
L372.963 290.253
L373.052 289.397
L373.097 287.686
L373.231 291.108
L373.275 291.108
L373.365 292.819
L373.499 286.831
L373.632 290.253
L373.677 291.108
L373.722 290.253
L373.856 285.975
L373.99 277.421
L374.124 272.288
L374.168 273.144
L374.213 273.999
L374.436 267.156
L374.615 271.433
L374.838 265.445
L374.882 265.445
L374.927 266.3
L375.106 259.457
L375.15 260.312
L375.195 259.457
L375.82 246.625
L375.998 241.492
L376.043 240.637
L376.132 246.625
L376.222 244.914
L376.311 245.77
L376.356 244.914
L376.489 241.492
L376.579 239.781
L376.668 245.77
L376.713 244.059
L376.757 244.914
L376.891 242.348
L376.936 243.203
L377.025 240.637
L377.07 242.348
L377.248 234.649
L377.293 235.504
L377.338 234.649
L377.427 237.215
L377.472 234.649
L377.516 235.504
L377.829 243.203
L377.918 242.348
L377.963 240.637
L378.052 244.059
L378.141 240.637
L378.186 241.492
L378.498 251.758
L378.543 250.902
L378.588 252.613
L378.632 251.758
L378.766 246.625
L378.945 256.89
L378.989 256.035
L379.123 255.179
L379.168 256.035
L379.212 252.613
L379.257 254.324
L379.346 258.601
L379.391 256.89
L379.436 251.758
L379.48 254.324
L379.525 255.179
L379.748 248.336
L380.061 259.457
L380.105 255.179
L380.15 257.746
L380.418 265.445
L380.462 265.445
L380.552 267.156
L380.641 261.168
L380.686 263.734
L380.998 276.566
L381.043 277.421
L381.444 265.445
L381.489 266.3
L381.534 265.445
L381.578 264.589
L381.668 268.867
L381.712 267.156
L381.757 269.722
L381.802 267.156
L381.846 268.011
L382.069 262.878
L382.159 261.168
L382.337 250.047
L382.382 251.758
L382.471 251.758
L382.56 250.902
L382.605 254.324
L382.65 251.758
L382.873 246.625
L382.918 247.48
L383.052 250.902
L383.096 250.047
L383.141 250.902
L383.275 252.613
L383.498 237.215
L383.543 238.926
L383.676 235.504
L383.766 238.07
L383.81 237.215
L383.855 234.649
L383.9 237.215
L384.078 244.914
L384.168 248.336
L384.301 253.469
L384.346 253.469
L384.525 246.625
L384.569 244.914
L384.614 248.336
L384.659 247.48
L384.926 242.348
L384.971 243.203
L385.016 243.203
L385.105 241.492
L385.15 244.914
L385.194 244.059
L385.328 240.637
L385.373 238.926
L385.417 241.492
L385.462 240.637
L385.551 237.215
L385.596 238.926
L385.641 242.348
L385.685 239.781
L385.73 239.781
L385.908 244.059
L386.087 248.336
L386.221 246.625
L386.266 246.625
L386.4 248.336
L386.489 246.625
L386.533 248.336
L386.578 246.625
L386.623 244.914
L386.667 246.625
L386.846 253.469
L386.935 252.613
L386.98 255.179
L387.024 254.324
L387.069 253.469
L387.114 254.324
L387.292 261.168
L387.337 261.168
L387.426 263.734
L387.516 262.023
L387.739 269.722
L387.783 268.011
L387.828 268.867
L388.007 276.566
L388.051 273.999
L388.096 272.288
L388.274 278.276
L388.408 276.566
L388.498 279.132
L388.721 272.288
L388.81 275.71
L388.855 274.855
L389.078 285.975
L389.123 284.265
L389.256 285.975
L389.301 285.975
L389.346 285.12
L389.39 285.975
L389.435 286.831
L389.524 285.12
L389.614 289.397
L389.658 288.542
L389.881 293.674
L389.971 290.253
L390.015 291.964
L390.194 297.096
L390.372 302.229
L390.506 303.94
L390.685 302.229
L390.864 309.928
L390.997 312.494
L391.042 311.639
L391.087 311.639
L391.176 312.494
L391.221 311.639
L391.265 313.35
L391.399 310.783
L391.846 318.482
L392.113 315.061
L392.381 321.049
L392.515 317.627
L392.604 321.904
L392.649 320.193
L392.783 316.771
L392.962 320.193
L393.006 318.482
L393.14 323.615
L393.274 320.193
L393.363 315.061
L393.408 315.916
L393.497 311.639
L393.631 314.205
L393.72 313.35
L393.854 316.771
L393.899 316.771
L394.033 314.205
L394.122 313.35
L394.212 315.061
L394.256 311.639
L394.301 312.494
L394.524 317.627
L394.569 318.482
L394.613 317.627
L394.792 309.928
L394.836 309.928
L395.015 303.084
L395.194 307.362
L395.238 305.651
L395.283 305.651
L395.417 307.362
L395.461 306.506
L395.506 307.362
L395.551 308.217
L395.595 307.362
L395.774 303.94
L395.908 309.072
L395.952 309.072
L396.131 303.084
L396.176 300.518
L396.22 301.373
L396.265 303.084
L396.444 295.385
L396.577 296.241
L396.756 289.397
L396.801 290.253
L396.979 283.409
L397.024 283.409
L397.202 287.686
L397.292 287.686
L397.426 285.12
L397.47 285.12
L397.693 277.421
L397.738 278.276
L397.827 285.12
L397.872 284.265
L397.917 280.843
L397.961 283.409
L398.006 283.409
L398.051 281.698
L398.095 283.409
L398.184 283.409
L398.229 284.265
L398.408 279.987
L398.497 279.987
L398.542 279.132
L398.586 279.987
L398.631 280.843
L398.943 268.011
L399.033 265.445
L399.122 261.168
L399.167 263.734
L399.3 268.011
L399.345 268.011
L399.479 269.722
L399.524 270.577
L399.792 263.734
L399.836 262.878
L399.925 257.746
L399.97 260.312
L400.104 259.457
L400.193 259.457
L400.372 253.469
L400.416 253.469
L400.461 254.324
L400.506 253.469
L400.55 253.469
L400.595 250.902
L400.64 251.758
L400.729 253.469
L400.774 251.758
L400.908 257.746
L401.086 254.324
L401.22 260.312
L401.265 259.457
L401.309 259.457
L401.532 270.577
L401.577 269.722
L401.622 271.433
L401.756 265.445
L401.8 265.445
L401.845 266.3
L401.89 265.445
L401.934 265.445
L401.979 263.734
L402.024 265.445
L402.157 268.011
L402.291 265.445
L402.47 269.722
L402.515 268.011
L402.559 269.722
L402.604 269.722
L402.872 275.71
L403.05 283.409
L403.095 283.409
L403.229 280.843
L403.452 289.397
L403.497 286.831
L403.541 287.686
L403.675 293.674
L403.72 292.819
L403.854 288.542
L404.077 293.674
L404.122 294.53
L404.256 297.952
L404.345 297.096
L404.434 303.94
L404.479 300.518
L404.657 304.795
L404.747 307.362
L404.836 311.639
L404.88 310.783
L404.97 308.217
L405.104 312.494
L405.327 305.651
L405.372 307.362
L405.505 304.795
L405.55 304.795
L405.595 306.506
L405.639 305.651
L405.684 305.651
L405.818 304.795
L405.907 306.506
L406.086 300.518
L406.398 309.928
L406.443 309.072
L406.488 309.928
L406.532 310.783
L406.621 307.362
L406.666 309.072
L406.8 311.639
L406.845 311.639
L406.889 310.783
L406.934 312.494
L406.979 310.783
L407.112 310.783
L407.246 312.494
L407.514 306.506
L407.604 303.94
L407.737 309.928
L407.782 309.072
L407.871 308.217
L408.139 314.205
L408.184 312.494
L408.228 311.639
L408.273 312.494
L408.318 313.35
L408.362 316.771
L408.407 315.061
L408.496 312.494
L408.541 313.35
L408.586 315.061
L408.63 314.205
L408.72 314.205
L408.764 313.35
L408.809 315.916
L408.853 315.061
L408.943 311.639
L408.987 314.205
L408.987 314.205
L408.987 314.205
L409.121 309.928
L409.166 309.928
L409.344 307.362
L409.523 312.494
L409.702 310.783
L409.925 315.916
L409.969 315.916
L410.014 317.627
L410.059 315.916
L410.103 316.771
L410.148 315.916
L410.193 315.916
L410.773 327.037
L411.041 315.061
L411.175 316.771
L411.219 315.061
L411.264 315.916
L411.309 316.771
L411.398 312.494
L411.443 313.35
L411.487 314.205
L411.532 313.35
L411.71 306.506
L411.889 302.229
L411.934 302.229
L411.978 301.373
L412.157 306.506
L412.201 306.506
L412.38 300.518
L412.469 300.518
L412.916 286.831
L413.005 286.831
L413.273 273.999
L413.764 262.878
L413.808 263.734
L414.032 250.047
L414.121 248.336
L414.166 249.191
L414.21 251.758
L414.21 251.758
L414.21 251.758
L414.255 248.336
L414.344 249.191
L414.835 238.07
L415.058 226.95
L415.237 216.684
L415.371 214.118
L415.505 220.106
L415.773 209.841
L415.817 209.841
L415.862 208.13
L415.907 208.985
L415.951 208.985
L415.996 205.564
L416.04 207.274
L416.13 210.696
L416.174 208.985
L416.264 209.841
L416.308 208.985
L416.353 212.407
L416.398 211.552
L416.71 202.142
L416.755 204.708
L416.799 202.997
L416.844 202.997
L416.933 204.708
L416.978 202.142
L417.023 203.853
L417.067 203.853
L417.335 210.696
L417.469 213.263
L417.558 215.829
L417.781 226.094
L417.871 223.528
L418.139 237.215
L418.228 234.649
L418.674 254.324
L418.719 252.613
L418.853 255.179
L418.897 255.179
L419.567 281.698
L419.701 290.253
L419.835 283.409
L420.147 296.241
L420.326 300.518
L420.504 308.217
L420.594 312.494
L420.683 311.639
L420.728 312.494
L420.772 310.783
L421.174 327.892
L421.219 327.037
L421.397 330.459
L421.442 328.748
L421.487 332.17
L421.531 329.603
L421.576 329.603
L421.799 335.591
L421.844 337.302
L421.978 331.314
L422.067 333.025
L422.112 332.17
L422.245 329.603
L422.335 332.17
L422.379 331.314
L422.513 328.748
L422.647 328.748
L422.826 332.17
L422.87 333.025
L423.004 330.459
L423.183 327.037
L423.272 329.603
L423.317 328.748
L423.629 324.47
L423.719 329.603
L423.763 327.892
L423.986 324.47
L424.031 325.326
L424.076 324.47
L424.12 324.47
L424.165 323.615
L424.433 333.88
L424.477 333.88
L424.522 333.025
L424.656 336.447
L424.745 333.88
L424.79 334.736
L424.924 334.736
L425.102 331.314
L425.281 336.447
L425.326 334.736
L425.37 336.447
L425.415 336.447
L425.593 333.025
L425.727 334.736
L425.861 333.025
L425.906 333.025
L426.084 336.447
L426.129 336.447
L426.174 333.88
L426.218 335.591
L426.308 335.591
L426.352 333.88
L426.486 344.146
L426.531 343.29
L426.576 343.29
L426.62 341.579
L426.665 342.435
L426.709 342.435
L426.888 346.712
L426.977 348.423
L427.111 346.712
L427.156 346.712
L427.602 354.411
L427.647 353.556
L427.692 356.122
L427.736 355.267
L427.87 352.7
L427.915 353.556
L428.093 357.833
L428.183 356.977
L428.45 350.134
L428.495 350.134
L428.629 346.712
L428.763 347.568
L428.897 342.435
L428.941 343.29
L429.12 345.857
L429.432 339.013
L429.477 340.724
L429.522 341.579
L429.7 334.736
L429.79 333.88
L429.834 335.591
L429.879 334.736
L430.013 333.88
L430.057 335.591
L430.102 334.736
L430.281 328.748
L430.325 328.748
L430.415 327.037
L430.548 328.748
L430.727 324.47
L431.084 303.084
L431.129 304.795
L431.173 303.084
L431.486 283.409
L431.664 278.276
L431.932 264.589
L431.977 264.589
L432.066 261.168
L432.156 255.179
L432.334 245.77
L432.379 248.336
L432.423 245.77
L432.78 229.516
L432.825 231.227
L433.272 209.841
L433.316 209.841
L433.361 210.696
L433.405 209.841
L433.673 200.431
L433.718 202.997
L433.763 202.142
L434.03 198.72
L434.12 201.286
L434.254 195.298
L434.477 184.177
L434.655 175.623
L434.7 177.334
L435.057 161.08
L435.102 161.936
L435.146 161.08
L435.28 157.659
L435.414 153.381
L435.548 155.092
L435.727 157.659
L435.771 156.803
L436.084 170.49
L436.128 169.635
L436.441 185.888
L436.486 185.888
L436.62 184.177
L436.977 200.431
L437.021 198.72
L437.066 199.575
L437.111 204.708
L437.2 203.853
L437.602 226.094
L437.646 225.239
L437.691 224.383
L437.959 233.793
L438.048 230.371
L438.227 235.504
L438.271 235.504
L438.628 243.203
L439.03 266.3
L439.075 266.3
L439.164 271.433
L439.253 270.577
L439.298 270.577
L439.343 271.433
L439.566 282.554
L439.655 282.554
L440.057 299.663
L440.101 301.373
L440.146 300.518
L440.191 300.518
L440.28 304.795
L440.369 303.94
L440.414 303.94
L440.592 305.651
L440.816 303.084
L441.307 318.482
L441.351 318.482
L441.441 316.771
L441.485 317.627
L441.53 321.049
L441.575 320.193
L441.708 317.627
L441.798 319.338
L441.887 317.627
L442.021 321.049
L442.155 324.47
L442.289 321.904
L442.467 325.326
L442.512 326.181
L442.601 324.47
L442.869 328.748
L442.914 327.892
L442.958 328.748
L443.003 328.748
L443.137 324.47
L443.271 325.326
L443.316 325.326
L443.449 322.76
L443.673 317.627
L443.717 318.482
L443.851 327.037
L443.896 326.181
L443.94 323.615
L443.94 323.615
L443.94 323.615
L443.985 327.037
L444.03 326.181
L444.253 323.615
L444.298 325.326
L444.342 323.615
L444.387 323.615
L444.476 316.771
L444.521 319.338
L444.565 319.338
L444.699 322.76
L444.878 317.627
L445.012 319.338
L445.101 317.627
L445.235 320.193
L445.503 312.494
L445.548 312.494
L445.592 311.639
L445.637 312.494
L445.681 312.494
L445.86 307.362
L445.905 307.362
L446.128 299.663
L446.172 300.518
L446.217 302.229
L446.306 297.096
L446.396 297.952
L446.485 297.952
L446.574 293.674
L446.619 295.385
L446.664 296.241
L446.797 300.518
L446.842 299.663
L447.021 293.674
L447.065 298.807
L447.155 297.952
L447.199 297.952
L447.288 293.674
L447.378 294.53
L447.422 297.952
L447.512 297.096
L447.556 297.096
L447.601 295.385
L447.646 297.952
L447.69 295.385
L447.735 295.385
L447.913 291.108
L447.958 291.108
L448.003 289.397
L448.137 292.819
L448.181 293.674
L448.404 286.831
L448.449 287.686
L448.494 286.831
L448.583 285.975
L448.628 286.831
L448.672 285.975
L448.717 285.975
L448.985 297.096
L449.119 295.385
L449.163 296.241
L449.208 294.53
L449.253 297.096
L449.297 292.819
L449.387 294.53
L449.565 291.108
L449.654 293.674
L449.699 292.819
L449.878 285.975
L450.012 288.542
L450.056 285.975
L450.101 286.831
L450.145 287.686
L450.279 285.975
L450.324 285.12
L450.369 285.975
L450.681 294.53
L450.77 291.108
L450.815 294.53
L450.86 292.819
L451.038 285.975
L451.128 286.831
L451.351 281.698
L451.395 283.409
L451.529 285.975
L451.663 283.409
L451.708 282.554
L451.797 285.975
L451.976 280.843
L452.11 283.409
L452.154 282.554
L452.333 287.686
L452.377 288.542
L452.422 287.686
L452.645 285.12
L452.913 289.397
L453.092 285.12
L453.226 286.831
L453.27 286.831
L453.315 285.975
L453.36 282.554
L453.404 283.409
L453.538 284.265
L453.672 282.554
L453.761 283.409
L453.94 291.964
L454.208 283.409
L454.297 285.12
L454.386 291.108
L454.431 290.253
L454.476 290.253
L454.52 289.397
L454.565 291.108
L454.609 289.397
L454.654 289.397
L454.833 293.674
L454.877 292.819
L455.011 284.265
L455.056 285.12
L455.502 299.663
L455.547 298.807
L455.636 291.964
L455.681 292.819
L455.725 294.53
L455.77 292.819
L455.904 296.241
L455.949 294.53
L455.993 294.53
L456.038 291.108
L456.127 291.964
L456.172 291.964
L456.261 287.686
L456.306 288.542
L456.395 289.397
L456.529 285.12
L456.752 275.71
L456.797 278.276
L456.841 275.71
L456.886 274.855
L456.931 275.71
L456.975 275.71
L457.065 273.144
L457.109 273.999
L457.199 273.999
L457.332 274.855
L457.377 274.855
L457.422 273.999
L457.466 274.855
L457.6 276.566
L457.779 267.156
L457.824 268.011
L457.868 267.156
L457.957 264.589
L458.181 272.288
L458.359 268.011
L458.448 267.156
L458.582 271.433
L458.716 268.011
L458.806 268.867
L458.895 264.589
L458.94 265.445
L458.984 268.867
L459.029 268.011
L459.207 262.878
L459.252 261.168
L459.297 262.878
L459.341 262.878
L459.431 265.445
L459.475 262.023
L459.564 262.878
L459.698 263.734
L459.743 263.734
L459.788 262.023
L459.832 262.878
L459.877 262.878
L460.011 258.601
L460.056 259.457
L460.145 266.3
L460.189 263.734
L460.413 252.613
L460.502 251.758
L460.547 253.469
L460.591 251.758
L460.636 252.613
L460.68 250.047
L460.725 252.613
L460.77 252.613
L460.814 250.902
L460.859 251.758
L461.082 256.89
L461.172 256.89
L461.216 258.601
L461.261 256.89
L461.305 255.179
L461.35 256.89
L461.395 257.746
L461.484 256.035
L461.529 257.746
L461.573 256.035
L461.618 256.035
L461.93 250.047
L462.064 254.324
L462.109 251.758
L462.154 253.469
L462.288 256.89
L462.332 255.179
L462.377 257.746
L462.421 256.89
L462.823 248.336
L462.868 249.191
L463.002 250.902
L463.136 252.613
L463.18 250.902
L463.225 252.613
L463.314 251.758
L463.404 256.035
L463.493 250.047
L463.537 250.902
L464.028 258.601
L464.073 258.601
L464.207 256.035
L464.252 256.89
L464.341 256.89
L464.52 260.312
L464.698 252.613
L464.832 256.035
L465.189 267.156
L465.234 267.156
L465.278 269.722
L465.323 268.867
L465.368 268.011
L465.457 262.023
L465.502 263.734
L465.948 273.999
L466.171 279.132
L466.216 278.276
L466.394 283.409
L466.528 279.132
L466.662 273.144
L466.707 273.144
L466.975 281.698
L467.109 278.276
L467.287 282.554
L467.555 275.71
L467.6 275.71
L467.689 278.276
L467.823 273.999
L468.001 276.566
L468.18 273.144
L468.269 274.855
L468.403 272.288
L468.671 275.71
L468.716 275.71
L468.984 271.433
L469.117 274.855
L469.296 282.554
L469.341 281.698
L469.43 285.12
L469.475 284.265
L469.653 279.987
L469.921 286.831
L469.966 289.397
L470.01 288.542
L470.144 285.975
L470.233 289.397
L470.278 288.542
L470.323 289.397
L470.501 279.987
L470.546 279.132
L470.591 279.987
L470.635 279.987
L470.858 271.433
L470.903 272.288
L471.171 281.698
L471.216 280.843
L471.305 280.843
L471.349 279.987
L471.394 282.554
L471.439 281.698
L471.483 279.987
L471.617 282.554
L471.751 285.12
L471.796 283.409
L471.84 284.265
L472.019 285.975
L472.064 285.975
L472.242 290.253
L472.287 288.542
L472.332 291.108
L472.376 289.397
L472.465 286.831
L472.51 288.542
L472.644 294.53
L472.778 291.964
L472.912 294.53
L472.956 294.53
L473.135 298.807
L473.18 298.807
L473.269 293.674
L473.358 295.385
L473.403 294.53
L473.448 295.385
L473.492 295.385
L473.671 291.108
L473.715 291.108
L473.76 288.542
L473.805 289.397
L473.849 290.253
L474.028 285.12
L474.072 286.831
L474.117 285.975
L474.653 268.867
L474.697 268.867
L474.831 266.3
L474.921 271.433
L474.965 270.577
L475.01 270.577
L475.055 271.433
L475.099 270.577
L475.144 270.577
L475.188 272.288
L475.233 271.433
L475.278 271.433
L475.322 273.999
L475.367 272.288
L475.501 269.722
L475.59 270.577
L475.813 266.3
L475.858 268.011
L476.037 263.734
L476.126 264.589
L476.26 262.878
L476.394 266.3
L476.438 268.867
L476.483 266.3
L476.572 263.734
L476.662 260.312
L476.885 267.156
L476.929 266.3
L477.019 269.722
L477.42 255.179
L477.465 256.89
L477.51 255.179
L477.688 249.191
L477.778 256.035
L477.822 254.324
L477.867 251.758
L477.912 253.469
L478.045 256.89
L478.09 260.312
L478.135 257.746
L478.179 257.746
L478.224 256.035
L478.313 259.457
L478.358 257.746
L478.403 257.746
L478.447 256.89
L478.536 261.168
L478.581 258.601
L478.626 259.457
L479.251 270.577
L479.429 268.011
L479.474 263.734
L479.519 265.445
L479.563 266.3
L479.697 263.734
L479.92 268.867
L479.965 267.156
L480.01 268.867
L480.724 253.469
L480.902 250.047
L480.947 249.191
L480.992 252.613
L481.036 250.047
L481.081 250.902
L481.126 250.047
L481.617 227.805
L481.661 225.239
L481.661 225.239
L481.661 225.239
L481.795 231.227
L481.84 230.371
L481.884 232.082
L481.929 230.371
L482.108 228.661
L482.152 228.661
L482.197 229.516
L482.286 225.239
L482.331 226.95
L482.376 228.661
L482.42 227.805
L482.599 222.672
L482.688 224.383
L482.777 228.661
L482.822 226.094
L482.867 226.95
L483 231.227
L483.045 227.805
L483.09 230.371
L483.313 226.094
L483.358 226.95
L483.492 229.516
L483.581 225.239
L483.625 226.094
L483.67 226.95
L483.849 223.528
L484.116 234.649
L484.206 233.793
L484.25 232.082
L484.295 233.793
L484.384 235.504
L484.429 234.649
L484.474 235.504
L484.741 242.348
L484.786 240.637
L484.831 238.07
L484.831 238.07
L484.831 238.07
L485.054 248.336
L485.099 250.047
L485.143 249.191
L485.188 249.191
L485.545 257.746
L486.17 288.542
L486.215 288.542
L486.438 294.53
L486.482 293.674
L486.661 297.952
L486.706 297.952
L486.795 302.229
L486.84 301.373
L486.884 301.373
L487.018 303.94
L487.063 303.94
L487.286 309.072
L487.331 309.072
L487.375 310.783
L487.42 309.928
L487.464 309.072
L487.509 309.928
L487.688 318.482
L487.822 322.76
L487.866 321.904
L487.911 321.904
L487.956 322.76
L488.223 336.447
L488.268 336.447
L488.313 337.302
L488.447 341.579
L488.491 341.579
L488.625 345.001
L488.804 350.989
L489.295 362.11
L489.429 366.387
L489.518 367.243
L489.563 366.387
L489.696 370.665
L489.741 369.809
L489.964 374.086
L490.098 370.665
L490.366 374.086
L490.5 370.665
L490.679 374.942
L490.812 378.364
L490.902 375.797
L490.946 376.653
L490.991 376.653
L491.08 374.942
L491.125 377.508
L491.17 374.942
L491.259 374.086
L491.393 377.508
L491.437 376.653
L491.482 379.219
L491.527 376.653
L491.571 376.653
L491.795 371.52
L491.839 373.231
L491.884 370.665
L491.973 371.52
L492.152 368.098
L492.196 368.954
L492.241 368.954
L492.33 368.098
L492.464 368.954
L492.643 367.243
L492.687 367.243
L492.866 363.821
L492.911 363.821
L493.134 356.977
L493.223 356.977
L493.357 353.556
L493.446 356.977
L493.491 356.122
L493.625 350.989
L493.669 351.845
L493.714 351.845
L493.759 350.134
L493.803 350.989
L493.848 350.989
L493.982 349.278
L494.071 351.845
L494.116 350.989
L494.16 351.845
L494.205 350.989
L494.294 349.278
L494.473 339.013
L494.518 341.579
L494.607 340.724
L494.652 341.579
L494.696 340.724
L494.875 338.158
L495.009 339.869
L495.232 333.88
L495.276 333.88
L495.366 335.591
L495.678 327.037
L495.723 327.892
L495.946 317.627
L495.991 316.771
L496.08 320.193
L496.125 319.338
L496.169 319.338
L496.437 309.928
L496.482 309.928
L496.839 298.807
L496.884 298.807
L497.017 294.53
L497.732 268.867
L497.776 270.577
L498 260.312
L498.044 261.168
L498.089 261.168
L498.401 254.324
L498.714 240.637
L498.937 244.914
L499.205 229.516
L499.249 229.516
L499.785 204.708
L499.874 203.853
L499.919 204.708
L499.964 209.841
L500.053 208.13
L500.232 203.853
L500.41 213.263
L500.455 212.407
L500.499 212.407
L500.633 211.552
L500.723 211.552
L500.812 214.118
L500.856 212.407
L500.901 211.552
L501.214 220.962
L501.258 220.106
L501.303 220.962
L501.348 221.817
L501.392 220.962
L501.481 219.251
L501.705 226.95
L501.749 226.094
L501.794 226.95
L501.883 234.649
L501.928 233.793
L501.972 234.649
L502.017 233.793
L502.062 232.082
L502.106 234.649
L502.151 232.938
L502.196 231.227
L502.24 232.082
L502.33 232.082
L502.374 231.227
L502.419 232.082
L502.508 234.649
L502.597 232.938
L502.731 236.36
L502.776 235.504
L502.821 232.082
L502.821 232.082
L502.821 232.082
L502.91 238.07
L502.955 235.504
L502.999 235.504
L503.178 245.77
L503.312 242.348
L503.49 249.191
L503.535 249.191
L503.892 265.445
L504.071 273.144
L504.204 277.421
L504.249 275.71
L504.294 277.421
L504.338 277.421
L504.383 276.566
L504.428 278.276
L504.472 277.421
L504.517 277.421
L504.562 278.276
L504.651 275.71
L504.696 276.566
L504.785 279.132
L504.829 278.276
L505.008 272.288
L505.053 273.144
L505.097 273.144
L505.231 277.421
L505.454 282.554
L505.544 282.554
L505.678 284.265
L505.722 285.12
L505.767 284.265
L505.812 283.409
L506.079 290.253
L506.169 290.253
L506.347 287.686
L506.526 291.108
L506.704 302.229
L506.794 301.373
L506.972 305.651
L507.017 304.795
L507.106 306.506
L507.151 305.651
L507.195 306.506
L507.508 313.35
L507.642 309.928
L507.731 309.928
L507.82 312.494
L507.865 311.639
L507.91 311.639
L507.999 314.205
L508.088 313.35
L508.133 312.494
L508.222 316.771
L508.267 315.061
L508.49 320.193
L508.624 315.061
L508.802 321.904
L508.892 321.904
L508.936 320.193
L508.981 321.049
L509.204 329.603
L509.249 328.748
L509.383 327.892
L509.427 327.892
L509.561 332.17
L509.606 332.17
L509.74 334.736
L509.829 330.459
L509.874 333.025
L510.008 335.591
L510.052 334.736
L510.231 332.17
L510.365 334.736
L510.454 332.17
L510.499 333.025
L510.677 338.158
L510.722 337.302
L510.856 344.146
L510.99 338.158
L511.034 339.869
L511.079 338.158
L511.213 331.314
L511.302 333.025
L511.347 333.025
L511.392 333.88
L511.436 333.025
L511.481 333.025
L511.615 335.591
L511.838 331.314
L512.016 334.736
L512.15 333.025
L512.24 336.447
L512.284 334.736
L512.329 333.88
L512.374 334.736
L512.418 335.591
L512.463 334.736
L512.686 334.736
L512.82 333.88
L512.865 333.88
L512.909 335.591
L512.999 333.025
L513.177 339.869
L513.222 339.013
L513.311 333.88
L513.356 334.736
L513.445 337.302
L513.624 329.603
L513.713 333.025
L513.757 331.314
L513.802 331.314
L513.847 330.459
L513.891 331.314
L513.936 331.314
L513.981 330.459
L514.025 332.17
L514.07 331.314
L514.115 331.314
L514.248 327.037
L514.293 329.603
L514.338 328.748
L514.472 324.47
L514.65 321.049
L514.695 321.049
L514.74 322.76
L514.873 312.494
L514.918 313.35
L515.186 303.94
L515.231 305.651
L515.364 299.663
L515.498 303.084
L515.588 298.807
L515.677 299.663
L515.722 302.229
L515.9 291.964
L515.945 291.964
L516.079 285.975
L516.123 286.831
L516.48 297.096
L516.525 297.952
L516.704 304.795
L516.748 304.795
L517.105 315.061
L517.73 327.892
L518.132 345.857
L518.355 351.845
L518.355 351.845" style="fill:none;stroke:#808080;stroke-linecap:square;stroke-width:3;"/>
   </g>
   <g id="patch_3">
    <path d="
M72 43.2
L518.4 43.2" style="fill:none;stroke:#000000;stroke-linecap:square;stroke-linejoin:miter;"/>
   </g>
   <g id="patch_4">
    <path d="
M518.4 388.8
L518.4 43.2" style="fill:none;stroke:#000000;stroke-linecap:square;stroke-linejoin:miter;"/>
   </g>
   <g id="patch_5">
    <path d="
M72 388.8
L518.4 388.8" style="fill:none;stroke:#000000;stroke-linecap:square;stroke-linejoin:miter;"/>
   </g>
   <g id="patch_6">
    <path d="
M72 388.8
L72 43.2" style="fill:none;stroke:#000000;stroke-linecap:square;stroke-linejoin:miter;"/>
   </g>
   <g id="matplotlib.axis_1">
    <g id="xtick_1">
     <g id="line2d_2">
      <defs>
       <path d="
M0 0
L0 -4" id="m93b0483c22" style="stroke:#000000;stroke-width:0.5;"/>
      </defs>
      <g>
       <use style="stroke:#000000;stroke-width:0.5;" x="72.0" xlink:href="#m93b0483c22" y="388.8"/>
      </g>
     </g>
     <g id="line2d_3">
      <defs>
       <path d="
M0 0
L0 4" id="m741efc42ff" style="stroke:#000000;stroke-width:0.5;"/>
      </defs>
      <g>
       <use style="stroke:#000000;stroke-width:0.5;" x="72.0" xlink:href="#m741efc42ff" y="43.2"/>
      </g>
     </g>
     <g id="text_1">
      <!-- 0 -->
      <defs>
       <path d="
M31.7812 66.4062
Q24.1719 66.4062 20.3281 58.9062
Q16.5 51.4219 16.5 36.375
Q16.5 21.3906 20.3281 13.8906
Q24.1719 6.39062 31.7812 6.39062
Q39.4531 6.39062 43.2812 13.8906
Q47.125 21.3906 47.125 36.375
Q47.125 51.4219 43.2812 58.9062
Q39.4531 66.4062 31.7812 66.4062
M31.7812 74.2188
Q44.0469 74.2188 50.5156 64.5156
Q56.9844 54.8281 56.9844 36.375
Q56.9844 17.9688 50.5156 8.26562
Q44.0469 -1.42188 31.7812 -1.42188
Q19.5312 -1.42188 13.0625 8.26562
Q6.59375 17.9688 6.59375 36.375
Q6.59375 54.8281 13.0625 64.5156
Q19.5312 74.2188 31.7812 74.2188" id="BitstreamVeraSans-Roman-30"/>
      </defs>
      <g transform="translate(68.9765625 401.918125)scale(0.12 -0.12)">
       <use xlink:href="#BitstreamVeraSans-Roman-30"/>
      </g>
     </g>
    </g>
    <g id="xtick_2">
     <g id="line2d_4">
      <g>
       <use style="stroke:#000000;stroke-width:0.5;" x="161.28" xlink:href="#m93b0483c22" y="388.8"/>
      </g>
     </g>
     <g id="line2d_5">
      <g>
       <use style="stroke:#000000;stroke-width:0.5;" x="161.28" xlink:href="#m741efc42ff" y="43.2"/>
      </g>
     </g>
     <g id="text_2">
      <!-- 200 -->
      <defs>
       <path d="
M19.1875 8.29688
L53.6094 8.29688
L53.6094 0
L7.32812 0
L7.32812 8.29688
Q12.9375 14.1094 22.625 23.8906
Q32.3281 33.6875 34.8125 36.5312
Q39.5469 41.8438 41.4219 45.5312
Q43.3125 49.2188 43.3125 52.7812
Q43.3125 58.5938 39.2344 62.25
Q35.1562 65.9219 28.6094 65.9219
Q23.9688 65.9219 18.8125 64.3125
Q13.6719 62.7031 7.8125 59.4219
L7.8125 69.3906
Q13.7656 71.7812 18.9375 73
Q24.125 74.2188 28.4219 74.2188
Q39.75 74.2188 46.4844 68.5469
Q53.2188 62.8906 53.2188 53.4219
Q53.2188 48.9219 51.5312 44.8906
Q49.8594 40.875 45.4062 35.4062
Q44.1875 33.9844 37.6406 27.2188
Q31.1094 20.4531 19.1875 8.29688" id="BitstreamVeraSans-Roman-32"/>
      </defs>
      <g transform="translate(150.665625 401.918125)scale(0.12 -0.12)">
       <use xlink:href="#BitstreamVeraSans-Roman-32"/>
       <use x="63.623046875" xlink:href="#BitstreamVeraSans-Roman-30"/>
       <use x="127.24609375" xlink:href="#BitstreamVeraSans-Roman-30"/>
      </g>
     </g>
    </g>
    <g id="xtick_3">
     <g id="line2d_6">
      <g>
       <use style="stroke:#000000;stroke-width:0.5;" x="250.56" xlink:href="#m93b0483c22" y="388.8"/>
      </g>
     </g>
     <g id="line2d_7">
      <g>
       <use style="stroke:#000000;stroke-width:0.5;" x="250.56" xlink:href="#m741efc42ff" y="43.2"/>
      </g>
     </g>
     <g id="text_3">
      <!-- 400 -->
      <defs>
       <path d="
M37.7969 64.3125
L12.8906 25.3906
L37.7969 25.3906
z

M35.2031 72.9062
L47.6094 72.9062
L47.6094 25.3906
L58.0156 25.3906
L58.0156 17.1875
L47.6094 17.1875
L47.6094 0
L37.7969 0
L37.7969 17.1875
L4.89062 17.1875
L4.89062 26.7031
z
" id="BitstreamVeraSans-Roman-34"/>
      </defs>
      <g transform="translate(239.799375 401.918125)scale(0.12 -0.12)">
       <use xlink:href="#BitstreamVeraSans-Roman-34"/>
       <use x="63.623046875" xlink:href="#BitstreamVeraSans-Roman-30"/>
       <use x="127.24609375" xlink:href="#BitstreamVeraSans-Roman-30"/>
      </g>
     </g>
    </g>
    <g id="xtick_4">
     <g id="line2d_8">
      <g>
       <use style="stroke:#000000;stroke-width:0.5;" x="339.84" xlink:href="#m93b0483c22" y="388.8"/>
      </g>
     </g>
     <g id="line2d_9">
      <g>
       <use style="stroke:#000000;stroke-width:0.5;" x="339.84" xlink:href="#m741efc42ff" y="43.2"/>
      </g>
     </g>
     <g id="text_4">
      <!-- 600 -->
      <defs>
       <path d="
M33.0156 40.375
Q26.375 40.375 22.4844 35.8281
Q18.6094 31.2969 18.6094 23.3906
Q18.6094 15.5312 22.4844 10.9531
Q26.375 6.39062 33.0156 6.39062
Q39.6562 6.39062 43.5312 10.9531
Q47.4062 15.5312 47.4062 23.3906
Q47.4062 31.2969 43.5312 35.8281
Q39.6562 40.375 33.0156 40.375
M52.5938 71.2969
L52.5938 62.3125
Q48.875 64.0625 45.0938 64.9844
Q41.3125 65.9219 37.5938 65.9219
Q27.8281 65.9219 22.6719 59.3281
Q17.5312 52.7344 16.7969 39.4062
Q19.6719 43.6562 24.0156 45.9219
Q28.375 48.1875 33.5938 48.1875
Q44.5781 48.1875 50.9531 41.5156
Q57.3281 34.8594 57.3281 23.3906
Q57.3281 12.1562 50.6875 5.35938
Q44.0469 -1.42188 33.0156 -1.42188
Q20.3594 -1.42188 13.6719 8.26562
Q6.98438 17.9688 6.98438 36.375
Q6.98438 53.6562 15.1875 63.9375
Q23.3906 74.2188 37.2031 74.2188
Q40.9219 74.2188 44.7031 73.4844
Q48.4844 72.75 52.5938 71.2969" id="BitstreamVeraSans-Roman-36"/>
      </defs>
      <g transform="translate(329.205 401.918125)scale(0.12 -0.12)">
       <use xlink:href="#BitstreamVeraSans-Roman-36"/>
       <use x="63.623046875" xlink:href="#BitstreamVeraSans-Roman-30"/>
       <use x="127.24609375" xlink:href="#BitstreamVeraSans-Roman-30"/>
      </g>
     </g>
    </g>
    <g id="xtick_5">
     <g id="line2d_10">
      <g>
       <use style="stroke:#000000;stroke-width:0.5;" x="429.12" xlink:href="#m93b0483c22" y="388.8"/>
      </g>
     </g>
     <g id="line2d_11">
      <g>
       <use style="stroke:#000000;stroke-width:0.5;" x="429.12" xlink:href="#m741efc42ff" y="43.2"/>
      </g>
     </g>
     <g id="text_5">
      <!-- 800 -->
      <defs>
       <path d="
M31.7812 34.625
Q24.75 34.625 20.7188 30.8594
Q16.7031 27.0938 16.7031 20.5156
Q16.7031 13.9219 20.7188 10.1562
Q24.75 6.39062 31.7812 6.39062
Q38.8125 6.39062 42.8594 10.1719
Q46.9219 13.9688 46.9219 20.5156
Q46.9219 27.0938 42.8906 30.8594
Q38.875 34.625 31.7812 34.625
M21.9219 38.8125
Q15.5781 40.375 12.0312 44.7188
Q8.5 49.0781 8.5 55.3281
Q8.5 64.0625 14.7188 69.1406
Q20.9531 74.2188 31.7812 74.2188
Q42.6719 74.2188 48.875 69.1406
Q55.0781 64.0625 55.0781 55.3281
Q55.0781 49.0781 51.5312 44.7188
Q48 40.375 41.7031 38.8125
Q48.8281 37.1562 52.7969 32.3125
Q56.7812 27.4844 56.7812 20.5156
Q56.7812 9.90625 50.3125 4.23438
Q43.8438 -1.42188 31.7812 -1.42188
Q19.7344 -1.42188 13.25 4.23438
Q6.78125 9.90625 6.78125 20.5156
Q6.78125 27.4844 10.7812 32.3125
Q14.7969 37.1562 21.9219 38.8125
M18.3125 54.3906
Q18.3125 48.7344 21.8438 45.5625
Q25.3906 42.3906 31.7812 42.3906
Q38.1406 42.3906 41.7188 45.5625
Q45.3125 48.7344 45.3125 54.3906
Q45.3125 60.0625 41.7188 63.2344
Q38.1406 66.4062 31.7812 66.4062
Q25.3906 66.4062 21.8438 63.2344
Q18.3125 60.0625 18.3125 54.3906" id="BitstreamVeraSans-Roman-38"/>
      </defs>
      <g transform="translate(418.4728125 401.918125)scale(0.12 -0.12)">
       <use xlink:href="#BitstreamVeraSans-Roman-38"/>
       <use x="63.623046875" xlink:href="#BitstreamVeraSans-Roman-30"/>
       <use x="127.24609375" xlink:href="#BitstreamVeraSans-Roman-30"/>
      </g>
     </g>
    </g>
    <g id="xtick_6">
     <g id="line2d_12">
      <g>
       <use style="stroke:#000000;stroke-width:0.5;" x="518.4" xlink:href="#m93b0483c22" y="388.8"/>
      </g>
     </g>
     <g id="line2d_13">
      <g>
       <use style="stroke:#000000;stroke-width:0.5;" x="518.4" xlink:href="#m741efc42ff" y="43.2"/>
      </g>
     </g>
     <g id="text_6">
      <!-- 1000 -->
      <defs>
       <path d="
M12.4062 8.29688
L28.5156 8.29688
L28.5156 63.9219
L10.9844 60.4062
L10.9844 69.3906
L28.4219 72.9062
L38.2812 72.9062
L38.2812 8.29688
L54.3906 8.29688
L54.3906 0
L12.4062 0
z
" id="BitstreamVeraSans-Roman-31"/>
      </defs>
      <g transform="translate(504.1875 401.918125)scale(0.12 -0.12)">
       <use xlink:href="#BitstreamVeraSans-Roman-31"/>
       <use x="63.623046875" xlink:href="#BitstreamVeraSans-Roman-30"/>
       <use x="127.24609375" xlink:href="#BitstreamVeraSans-Roman-30"/>
       <use x="190.869140625" xlink:href="#BitstreamVeraSans-Roman-30"/>
      </g>
     </g>
    </g>
    <g id="text_7">
     <!-- time (ms) -->
     <defs>
      <path id="BitstreamVeraSans-Roman-20"/>
      <path d="
M8.01562 75.875
L15.8281 75.875
Q23.1406 64.3594 26.7812 53.3125
Q30.4219 42.2812 30.4219 31.3906
Q30.4219 20.4531 26.7812 9.375
Q23.1406 -1.70312 15.8281 -13.1875
L8.01562 -13.1875
Q14.5 -2 17.7031 9.0625
Q20.9062 20.125 20.9062 31.3906
Q20.9062 42.6719 17.7031 53.6562
Q14.5 64.6562 8.01562 75.875" id="BitstreamVeraSans-Roman-29"/>
      <path d="
M52 44.1875
Q55.375 50.25 60.0625 53.125
Q64.75 56 71.0938 56
Q79.6406 56 84.2812 50.0156
Q88.9219 44.0469 88.9219 33.0156
L88.9219 0
L79.8906 0
L79.8906 32.7188
Q79.8906 40.5781 77.0938 44.375
Q74.3125 48.1875 68.6094 48.1875
Q61.625 48.1875 57.5625 43.5469
Q53.5156 38.9219 53.5156 30.9062
L53.5156 0
L44.4844 0
L44.4844 32.7188
Q44.4844 40.625 41.7031 44.4062
Q38.9219 48.1875 33.1094 48.1875
Q26.2188 48.1875 22.1562 43.5312
Q18.1094 38.875 18.1094 30.9062
L18.1094 0
L9.07812 0
L9.07812 54.6875
L18.1094 54.6875
L18.1094 46.1875
Q21.1875 51.2188 25.4844 53.6094
Q29.7812 56 35.6875 56
Q41.6562 56 45.8281 52.9688
Q50 49.9531 52 44.1875" id="BitstreamVeraSans-Roman-6d"/>
      <path d="
M9.42188 54.6875
L18.4062 54.6875
L18.4062 0
L9.42188 0
z

M9.42188 75.9844
L18.4062 75.9844
L18.4062 64.5938
L9.42188 64.5938
z
" id="BitstreamVeraSans-Roman-69"/>
      <path d="
M31 75.875
Q24.4688 64.6562 21.2812 53.6562
Q18.1094 42.6719 18.1094 31.3906
Q18.1094 20.125 21.3125 9.0625
Q24.5156 -2 31 -13.1875
L23.1875 -13.1875
Q15.875 -1.70312 12.2344 9.375
Q8.59375 20.4531 8.59375 31.3906
Q8.59375 42.2812 12.2031 53.3125
Q15.8281 64.3594 23.1875 75.875
z
" id="BitstreamVeraSans-Roman-28"/>
      <path d="
M56.2031 29.5938
L56.2031 25.2031
L14.8906 25.2031
Q15.4844 15.9219 20.4844 11.0625
Q25.4844 6.20312 34.4219 6.20312
Q39.5938 6.20312 44.4531 7.46875
Q49.3125 8.73438 54.1094 11.2812
L54.1094 2.78125
Q49.2656 0.734375 44.1875 -0.34375
Q39.1094 -1.42188 33.8906 -1.42188
Q20.7969 -1.42188 13.1562 6.1875
Q5.51562 13.8125 5.51562 26.8125
Q5.51562 40.2344 12.7656 48.1094
Q20.0156 56 32.3281 56
Q43.3594 56 49.7812 48.8906
Q56.2031 41.7969 56.2031 29.5938
M47.2188 32.2344
Q47.125 39.5938 43.0938 43.9844
Q39.0625 48.3906 32.4219 48.3906
Q24.9062 48.3906 20.3906 44.1406
Q15.875 39.8906 15.1875 32.1719
z
" id="BitstreamVeraSans-Roman-65"/>
      <path d="
M18.3125 70.2188
L18.3125 54.6875
L36.8125 54.6875
L36.8125 47.7031
L18.3125 47.7031
L18.3125 18.0156
Q18.3125 11.3281 20.1406 9.42188
Q21.9688 7.51562 27.5938 7.51562
L36.8125 7.51562
L36.8125 0
L27.5938 0
Q17.1875 0 13.2344 3.875
Q9.28125 7.76562 9.28125 18.0156
L9.28125 47.7031
L2.6875 47.7031
L2.6875 54.6875
L9.28125 54.6875
L9.28125 70.2188
z
" id="BitstreamVeraSans-Roman-74"/>
      <path d="
M44.2812 53.0781
L44.2812 44.5781
Q40.4844 46.5312 36.375 47.5
Q32.2812 48.4844 27.875 48.4844
Q21.1875 48.4844 17.8438 46.4375
Q14.5 44.3906 14.5 40.2812
Q14.5 37.1562 16.8906 35.375
Q19.2812 33.5938 26.5156 31.9844
L29.5938 31.2969
Q39.1562 29.25 43.1875 25.5156
Q47.2188 21.7812 47.2188 15.0938
Q47.2188 7.46875 41.1875 3.01562
Q35.1562 -1.42188 24.6094 -1.42188
Q20.2188 -1.42188 15.4531 -0.5625
Q10.6875 0.296875 5.42188 2
L5.42188 11.2812
Q10.4062 8.6875 15.2344 7.39062
Q20.0625 6.10938 24.8125 6.10938
Q31.1562 6.10938 34.5625 8.28125
Q37.9844 10.4531 37.9844 14.4062
Q37.9844 18.0625 35.5156 20.0156
Q33.0625 21.9688 24.7031 23.7812
L21.5781 24.5156
Q13.2344 26.2656 9.51562 29.9062
Q5.8125 33.5469 5.8125 39.8906
Q5.8125 47.6094 11.2812 51.7969
Q16.75 56 26.8125 56
Q31.7812 56 36.1719 55.2656
Q40.5781 54.5469 44.2812 53.0781" id="BitstreamVeraSans-Roman-73"/>
     </defs>
     <g transform="translate(266.6015625 418.531875)scale(0.12 -0.12)">
      <use xlink:href="#BitstreamVeraSans-Roman-74"/>
      <use x="39.208984375" xlink:href="#BitstreamVeraSans-Roman-69"/>
      <use x="66.9921875" xlink:href="#BitstreamVeraSans-Roman-6d"/>
      <use x="164.404296875" xlink:href="#BitstreamVeraSans-Roman-65"/>
      <use x="225.927734375" xlink:href="#BitstreamVeraSans-Roman-20"/>
      <use x="257.71484375" xlink:href="#BitstreamVeraSans-Roman-28"/>
      <use x="296.728515625" xlink:href="#BitstreamVeraSans-Roman-6d"/>
      <use x="394.140625" xlink:href="#BitstreamVeraSans-Roman-73"/>
      <use x="446.240234375" xlink:href="#BitstreamVeraSans-Roman-29"/>
     </g>
    </g>
   </g>
   <g id="matplotlib.axis_2">
    <g id="ytick_1">
     <g id="line2d_14">
      <defs>
       <path d="
M0 0
L4 0" id="m728421d6d4" style="stroke:#000000;stroke-width:0.5;"/>
      </defs>
      <g>
       <use style="stroke:#000000;stroke-width:0.5;" x="72.0" xlink:href="#m728421d6d4" y="388.8"/>
      </g>
     </g>
     <g id="line2d_15">
      <defs>
       <path d="
M0 0
L-4 0" id="mcb0005524f" style="stroke:#000000;stroke-width:0.5;"/>
      </defs>
      <g>
       <use style="stroke:#000000;stroke-width:0.5;" x="518.4" xlink:href="#mcb0005524f" y="388.8"/>
      </g>
     </g>
     <g id="text_8">
      <!-- 2 -->
      <g transform="translate(62.44625 392.11125)scale(0.12 -0.12)">
       <use xlink:href="#BitstreamVeraSans-Roman-32"/>
      </g>
     </g>
    </g>
    <g id="ytick_2">
     <g id="line2d_16">
      <g>
       <use style="stroke:#000000;stroke-width:0.5;" x="72.0" xlink:href="#m728421d6d4" y="319.68"/>
      </g>
     </g>
     <g id="line2d_17">
      <g>
       <use style="stroke:#000000;stroke-width:0.5;" x="518.4" xlink:href="#mcb0005524f" y="319.68"/>
      </g>
     </g>
     <g id="text_9">
      <!-- 4 -->
      <g transform="translate(61.625 322.99125)scale(0.12 -0.12)">
       <use xlink:href="#BitstreamVeraSans-Roman-34"/>
      </g>
     </g>
    </g>
    <g id="ytick_3">
     <g id="line2d_18">
      <g>
       <use style="stroke:#000000;stroke-width:0.5;" x="72.0" xlink:href="#m728421d6d4" y="250.56"/>
      </g>
     </g>
     <g id="line2d_19">
      <g>
       <use style="stroke:#000000;stroke-width:0.5;" x="518.4" xlink:href="#mcb0005524f" y="250.56"/>
      </g>
     </g>
     <g id="text_10">
      <!-- 6 -->
      <g transform="translate(61.95875 253.87125)scale(0.12 -0.12)">
       <use xlink:href="#BitstreamVeraSans-Roman-36"/>
      </g>
     </g>
    </g>
    <g id="ytick_4">
     <g id="line2d_20">
      <g>
       <use style="stroke:#000000;stroke-width:0.5;" x="72.0" xlink:href="#m728421d6d4" y="181.44"/>
      </g>
     </g>
     <g id="line2d_21">
      <g>
       <use style="stroke:#000000;stroke-width:0.5;" x="518.4" xlink:href="#mcb0005524f" y="181.44"/>
      </g>
     </g>
     <g id="text_11">
      <!-- 8 -->
      <g transform="translate(62.0 184.75125)scale(0.12 -0.12)">
       <use xlink:href="#BitstreamVeraSans-Roman-38"/>
      </g>
     </g>
    </g>
    <g id="ytick_5">
     <g id="line2d_22">
      <g>
       <use style="stroke:#000000;stroke-width:0.5;" x="72.0" xlink:href="#m728421d6d4" y="112.32"/>
      </g>
     </g>
     <g id="line2d_23">
      <g>
       <use style="stroke:#000000;stroke-width:0.5;" x="518.4" xlink:href="#mcb0005524f" y="112.32"/>
      </g>
     </g>
     <g id="text_12">
      <!-- 10 -->
      <g transform="translate(54.845 115.63125)scale(0.12 -0.12)">
       <use xlink:href="#BitstreamVeraSans-Roman-31"/>
       <use x="63.623046875" xlink:href="#BitstreamVeraSans-Roman-30"/>
      </g>
     </g>
    </g>
    <g id="ytick_6">
     <g id="line2d_24">
      <g>
       <use style="stroke:#000000;stroke-width:0.5;" x="72.0" xlink:href="#m728421d6d4" y="43.2"/>
      </g>
     </g>
     <g id="line2d_25">
      <g>
       <use style="stroke:#000000;stroke-width:0.5;" x="518.4" xlink:href="#mcb0005524f" y="43.2"/>
      </g>
     </g>
     <g id="text_13">
      <!-- 12 -->
      <g transform="translate(55.25 46.51125)scale(0.12 -0.12)">
       <use xlink:href="#BitstreamVeraSans-Roman-31"/>
       <use x="63.623046875" xlink:href="#BitstreamVeraSans-Roman-32"/>
      </g>
     </g>
    </g>
    <g id="text_14">
     <!-- population rate (Hz) -->
     <defs>
      <path d="
M54.8906 33.0156
L54.8906 0
L45.9062 0
L45.9062 32.7188
Q45.9062 40.4844 42.875 44.3281
Q39.8438 48.1875 33.7969 48.1875
Q26.5156 48.1875 22.3125 43.5469
Q18.1094 38.9219 18.1094 30.9062
L18.1094 0
L9.07812 0
L9.07812 54.6875
L18.1094 54.6875
L18.1094 46.1875
Q21.3438 51.125 25.7031 53.5625
Q30.0781 56 35.7969 56
Q45.2188 56 50.0469 50.1719
Q54.8906 44.3438 54.8906 33.0156" id="BitstreamVeraSans-Roman-6e"/>
      <path d="
M41.1094 46.2969
Q39.5938 47.1719 37.8125 47.5781
Q36.0312 48 33.8906 48
Q26.2656 48 22.1875 43.0469
Q18.1094 38.0938 18.1094 28.8125
L18.1094 0
L9.07812 0
L9.07812 54.6875
L18.1094 54.6875
L18.1094 46.1875
Q20.9531 51.1719 25.4844 53.5781
Q30.0312 56 36.5312 56
Q37.4531 56 38.5781 55.875
Q39.7031 55.7656 41.0625 55.5156
z
" id="BitstreamVeraSans-Roman-72"/>
      <path d="
M30.6094 48.3906
Q23.3906 48.3906 19.1875 42.75
Q14.9844 37.1094 14.9844 27.2969
Q14.9844 17.4844 19.1562 11.8438
Q23.3438 6.20312 30.6094 6.20312
Q37.7969 6.20312 41.9844 11.8594
Q46.1875 17.5312 46.1875 27.2969
Q46.1875 37.0156 41.9844 42.7031
Q37.7969 48.3906 30.6094 48.3906
M30.6094 56
Q42.3281 56 49.0156 48.375
Q55.7188 40.7656 55.7188 27.2969
Q55.7188 13.875 49.0156 6.21875
Q42.3281 -1.42188 30.6094 -1.42188
Q18.8438 -1.42188 12.1719 6.21875
Q5.51562 13.875 5.51562 27.2969
Q5.51562 40.7656 12.1719 48.375
Q18.8438 56 30.6094 56" id="BitstreamVeraSans-Roman-6f"/>
      <path d="
M9.42188 75.9844
L18.4062 75.9844
L18.4062 0
L9.42188 0
z
" id="BitstreamVeraSans-Roman-6c"/>
      <path d="
M5.51562 54.6875
L48.1875 54.6875
L48.1875 46.4844
L14.4062 7.17188
L48.1875 7.17188
L48.1875 0
L4.29688 0
L4.29688 8.20312
L38.0938 47.5156
L5.51562 47.5156
z
" id="BitstreamVeraSans-Roman-7a"/>
      <path d="
M8.5 21.5781
L8.5 54.6875
L17.4844 54.6875
L17.4844 21.9219
Q17.4844 14.1562 20.5 10.2656
Q23.5312 6.39062 29.5938 6.39062
Q36.8594 6.39062 41.0781 11.0312
Q45.3125 15.6719 45.3125 23.6875
L45.3125 54.6875
L54.2969 54.6875
L54.2969 0
L45.3125 0
L45.3125 8.40625
Q42.0469 3.42188 37.7188 1
Q33.4062 -1.42188 27.6875 -1.42188
Q18.2656 -1.42188 13.375 4.4375
Q8.5 10.2969 8.5 21.5781" id="BitstreamVeraSans-Roman-75"/>
      <path d="
M34.2812 27.4844
Q23.3906 27.4844 19.1875 25
Q14.9844 22.5156 14.9844 16.5
Q14.9844 11.7188 18.1406 8.90625
Q21.2969 6.10938 26.7031 6.10938
Q34.1875 6.10938 38.7031 11.4062
Q43.2188 16.7031 43.2188 25.4844
L43.2188 27.4844
z

M52.2031 31.2031
L52.2031 0
L43.2188 0
L43.2188 8.29688
Q40.1406 3.32812 35.5469 0.953125
Q30.9531 -1.42188 24.3125 -1.42188
Q15.9219 -1.42188 10.9531 3.29688
Q6 8.01562 6 15.9219
Q6 25.1406 12.1719 29.8281
Q18.3594 34.5156 30.6094 34.5156
L43.2188 34.5156
L43.2188 35.4062
Q43.2188 41.6094 39.1406 45
Q35.0625 48.3906 27.6875 48.3906
Q23 48.3906 18.5469 47.2656
Q14.1094 46.1406 10.0156 43.8906
L10.0156 52.2031
Q14.9375 54.1094 19.5781 55.0469
Q24.2188 56 28.6094 56
Q40.4844 56 46.3438 49.8438
Q52.2031 43.7031 52.2031 31.2031" id="BitstreamVeraSans-Roman-61"/>
      <path d="
M18.1094 8.20312
L18.1094 -20.7969
L9.07812 -20.7969
L9.07812 54.6875
L18.1094 54.6875
L18.1094 46.3906
Q20.9531 51.2656 25.2656 53.625
Q29.5938 56 35.5938 56
Q45.5625 56 51.7812 48.0938
Q58.0156 40.1875 58.0156 27.2969
Q58.0156 14.4062 51.7812 6.48438
Q45.5625 -1.42188 35.5938 -1.42188
Q29.5938 -1.42188 25.2656 0.953125
Q20.9531 3.32812 18.1094 8.20312
M48.6875 27.2969
Q48.6875 37.2031 44.6094 42.8438
Q40.5312 48.4844 33.4062 48.4844
Q26.2656 48.4844 22.1875 42.8438
Q18.1094 37.2031 18.1094 27.2969
Q18.1094 17.3906 22.1875 11.75
Q26.2656 6.10938 33.4062 6.10938
Q40.5312 6.10938 44.6094 11.75
Q48.6875 17.3906 48.6875 27.2969" id="BitstreamVeraSans-Roman-70"/>
      <path d="
M9.8125 72.9062
L19.6719 72.9062
L19.6719 43.0156
L55.5156 43.0156
L55.5156 72.9062
L65.375 72.9062
L65.375 0
L55.5156 0
L55.5156 34.7188
L19.6719 34.7188
L19.6719 0
L9.8125 0
z
" id="BitstreamVeraSans-Roman-48"/>
     </defs>
     <g transform="translate(47.349375 275.7571875)rotate(-90.0)scale(0.12 -0.12)">
      <use xlink:href="#BitstreamVeraSans-Roman-70"/>
      <use x="63.4765625" xlink:href="#BitstreamVeraSans-Roman-6f"/>
      <use x="124.658203125" xlink:href="#BitstreamVeraSans-Roman-70"/>
      <use x="188.134765625" xlink:href="#BitstreamVeraSans-Roman-75"/>
      <use x="251.513671875" xlink:href="#BitstreamVeraSans-Roman-6c"/>
      <use x="279.296875" xlink:href="#BitstreamVeraSans-Roman-61"/>
      <use x="340.576171875" xlink:href="#BitstreamVeraSans-Roman-74"/>
      <use x="379.78515625" xlink:href="#BitstreamVeraSans-Roman-69"/>
      <use x="407.568359375" xlink:href="#BitstreamVeraSans-Roman-6f"/>
      <use x="468.75" xlink:href="#BitstreamVeraSans-Roman-6e"/>
      <use x="532.12890625" xlink:href="#BitstreamVeraSans-Roman-20"/>
      <use x="563.916015625" xlink:href="#BitstreamVeraSans-Roman-72"/>
      <use x="605.029296875" xlink:href="#BitstreamVeraSans-Roman-61"/>
      <use x="666.30859375" xlink:href="#BitstreamVeraSans-Roman-74"/>
      <use x="705.517578125" xlink:href="#BitstreamVeraSans-Roman-65"/>
      <use x="767.041015625" xlink:href="#BitstreamVeraSans-Roman-20"/>
      <use x="798.828125" xlink:href="#BitstreamVeraSans-Roman-28"/>
      <use x="837.841796875" xlink:href="#BitstreamVeraSans-Roman-48"/>
      <use x="913.037109375" xlink:href="#BitstreamVeraSans-Roman-7a"/>
      <use x="965.52734375" xlink:href="#BitstreamVeraSans-Roman-29"/>
     </g>
    </g>
   </g>
  </g>
 </g>
 <defs>
  <clipPath id="p7ff5b81e1d">
   <rect height="345.6" width="446.4" x="72.0" y="43.2"/>
  </clipPath>
 </defs>
</svg>
