<?xml version="1.0" encoding="utf-8" standalone="no"?>
<!DOCTYPE svg PUBLIC "-//W3C//DTD SVG 1.1//EN"
  "http://www.w3.org/Graphics/SVG/1.1/DTD/svg11.dtd">
<!-- Created with matplotlib (http://matplotlib.org/) -->
<svg height="432pt" version="1.1" viewBox="0 0 576 432" width="576pt" xmlns="http://www.w3.org/2000/svg" xmlns:xlink="http://www.w3.org/1999/xlink">
 <defs>
  <style type="text/css">
*{stroke-linecap:butt;stroke-linejoin:round;}
  </style>
 </defs>
 <g id="figure_1">
  <g id="patch_1">
   <path d="
M0 432
L576 432
L576 0
L0 0
z
" style="fill:#ffffff;"/>
  </g>
  <g id="axes_1">
   <g id="patch_2">
    <path d="
M122.4 388.8
L468 388.8
L468 43.2
L122.4 43.2
z
" style="fill:#ffffff;"/>
   </g>
   <g id="patch_3">
    <path clip-path="url(#p23ab9b749c)" d="
M293.904 221.615
C294.433 221.615 294.941 221.405 295.315 221.031
C295.689 220.657 295.899 220.149 295.899 219.62
C295.899 219.091 295.689 218.583 295.315 218.209
C294.941 217.835 294.433 217.625 293.904 217.625
C293.375 217.625 292.867 217.835 292.493 218.209
C292.119 218.583 291.909 219.091 291.909 219.62
C291.909 220.149 292.119 220.657 292.493 221.031
C292.867 221.405 293.375 221.615 293.904 221.615
z
" style="fill:#00008b;stroke:#00008b;stroke-linejoin:miter;"/>
   </g>
   <g id="line2d_1">
    <path clip-path="url(#p23ab9b749c)" d="
M291.909 219.62
L293.904 221.615
L295.899 219.62
L293.904 217.625" style="fill:none;opacity:0.0;stroke:#ffffff;stroke-linecap:square;"/>
   </g>
   <g id="line2d_2">
    <path clip-path="url(#p23ab9b749c)" d="
M293.904 219.62
L293.616 219.528
L293.04 219.557
L292.896 219.433
L292.608 219.528
L292.608 220.176" style="fill:none;stroke:#8b0000;stroke-linecap:square;stroke-width:2;"/>
   </g>
   <g id="line2d_3">
    <path clip-path="url(#p23ab9b749c)" d="
M292.608 220.176
L294.48 222.336
L294.048 224.784
L293.472 225.504" style="fill:none;stroke:#00008b;stroke-linecap:square;stroke-width:2;"/>
   </g>
   <g id="line2d_4">
    <path clip-path="url(#p23ab9b749c)" d="
M293.472 225.504
L294.624 225.072
L295.056 225.504" style="fill:none;stroke:#8b0000;stroke-linecap:square;stroke-width:2;"/>
   </g>
   <g id="line2d_5">
    <path clip-path="url(#p23ab9b749c)" d="
M295.056 225.504
L293.904 225.936
L294.336 226.944
L293.328 228.24
L294.048 229.392
L293.616 230.688
L294.48 232.128" style="fill:none;stroke:#00008b;stroke-linecap:square;stroke-width:2;"/>
   </g>
   <g id="line2d_6">
    <path clip-path="url(#p23ab9b749c)" d="
M294.48 232.128
L295.344 233.136
L295.344 233.136
L295.632 234.432
L295.776 235.728
L295.776 235.728
L294.624 237.168
L294.192 235.872
L294.192 235.872
L293.328 235.584
L293.328 235.584
L293.904 234.72
L293.904 234.72
L293.04 234.432
L293.04 234.432
L293.472 233.424
L293.472 233.424
L293.328 234.72
L293.328 234.72
L292.464 236.88
L290.736 237.456
L289.008 237.6
L288.432 238.608
L288.432 238.608
L288.432 239.472
L287.424 240.624" style="fill:none;stroke:#8b0000;stroke-linecap:square;stroke-width:2;"/>
   </g>
   <g id="line2d_7">
    <path clip-path="url(#p23ab9b749c)" d="
M294.48 232.128
L293.616 231.552
L293.472 230.544
L293.472 230.544
L294.336 228.528
L294.336 228.528
L293.616 227.232
L293.616 227.232
L293.76 225.072
L293.76 225.072
L294.624 224.784
L294.624 224.784
L295.344 223.92" style="fill:none;stroke:#8b0000;stroke-linecap:square;stroke-width:2;"/>
   </g>
   <g id="line2d_8">
    <path clip-path="url(#p23ab9b749c)" d="
M295.344 223.92
L295.92 223.2
L296.496 222.624
L297.792 223.056
L299.52 223.632" style="fill:none;stroke:#00008b;stroke-linecap:square;stroke-width:2;"/>
   </g>
   <g id="line2d_9">
    <path clip-path="url(#p23ab9b749c)" d="
M295.344 223.92
L294.768 222.624
L294.768 222.624
L295.2 221.76
L295.2 221.76
L294.48 221.04
L294.48 221.04
L293.328 219.888" style="fill:none;stroke:#00008b;stroke-linecap:square;stroke-width:2;"/>
   </g>
   <g id="line2d_10">
    <path clip-path="url(#p23ab9b749c)" d="
M295.056 225.504
L295.92 226.656
L297.072 226.944
L298.656 228.24
L298.656 229.392
L300.96 230.688
L301.68 231.984" style="fill:none;stroke:#00008b;stroke-linecap:square;stroke-width:2;"/>
   </g>
   <g id="line2d_11">
    <path clip-path="url(#p23ab9b749c)" d="
M301.68 231.984
L303.12 232.272
L303.84 233.28
L306.288 234.288
L307.152 234.864" style="fill:none;stroke:#8b0000;stroke-linecap:square;stroke-width:2;"/>
   </g>
   <g id="line2d_12">
    <path clip-path="url(#p23ab9b749c)" d="
M307.152 234.864
L308.304 235.008
L308.304 235.008
L309.6 235.296
L309.6 235.296
L309.6 234
L309.6 234
L309.6 233.136
L309.024 232.128
L309.024 232.128
L309.168 231.408
L308.88 230.4
L308.88 230.4
L309.456 229.824
L309.456 229.824
L311.616 229.68
L311.616 229.68
L312.048 230.688
L314.064 231.408
L314.064 232.416
L315.072 233.712
L316.944 234
L317.664 232.848
L317.664 231.552
L317.664 231.552
L317.232 230.4" style="fill:none;stroke:#00008b;stroke-linecap:square;stroke-width:2;"/>
   </g>
   <g id="line2d_13">
    <path clip-path="url(#p23ab9b749c)" d="
M307.152 234.864
L309.024 236.304
L310.32 237.312
L310.32 237.312
L311.904 238.176
L311.904 238.176
L313.632 238.896
L313.632 238.896
L315.504 239.904
L315.504 239.904
L316.944 240.768
L318.816 241.776
L318.816 241.776
L319.536 242.496
L319.536 242.496
L321.552 243.648
L323.136 244.224
L323.136 244.224
L324.576 245.232
L324.576 245.232
L325.872 245.808
L325.872 245.808
L327.744 246.384
L327.744 246.384
L329.04 247.68
L329.04 247.68
L330.624 247.248
L330.624 247.248
L333.216 248.832
L333.216 248.832
L333.936 250.128
L333.936 250.128
L336.096 250.992
L338.544 253.152
L338.544 253.152
L341.136 255.888" style="fill:none;stroke:#00008b;stroke-linecap:square;stroke-width:2;"/>
   </g>
   <g id="line2d_14">
    <path clip-path="url(#p23ab9b749c)" d="
M301.68 231.984
L302.688 232.848" style="fill:none;stroke:#8b0000;stroke-linecap:square;stroke-width:2;"/>
   </g>
   <g id="line2d_15">
    <path clip-path="url(#p23ab9b749c)" d="
M302.688 232.848
L303.984 235.728
L304.848 237.6
L304.848 237.6
L306.432 239.472
L306.432 239.472
L307.728 240.912
L307.728 240.912
L309.168 242.928
L309.168 242.928
L309.6 243.792
L309.6 243.792
L309.6 244.656
L310.32 245.376
L310.32 245.376
L310.032 247.536
L310.032 247.536
L311.616 248.4
L311.616 248.4
L311.76 249.408
L311.76 249.408
L313.056 249.984
L313.056 249.984
L314.496 251.568
L314.496 251.568
L314.928 252.864
L314.928 252.864
L314.928 254.304
L314.928 254.304
L314.352 256.032
L314.352 256.032
L312.624 256.176
L312.624 256.176
L311.76 256.32
L311.328 256.752
L311.904 257.76
L311.904 258.912
L312.336 259.776
L312.336 259.776
L312.624 260.496
L311.616 261.072" style="fill:none;stroke:#00008b;stroke-linecap:square;stroke-width:2;"/>
   </g>
   <g id="line2d_16">
    <path clip-path="url(#p23ab9b749c)" d="
M302.688 232.848
L303.408 233.712
L304.704 234.864
L304.704 234.864
L306.432 236.016
L306.432 236.016
L308.016 237.456
L310.176 239.328
L310.176 239.328
L311.472 240.192
L311.472 240.192
L312.48 241.056
L313.344 241.92
L314.496 243.216
L314.496 243.216
L315.648 244.368
L316.368 245.376
L316.368 245.376
L317.376 246.24
L317.376 246.24
L318.672 247.248
L318.672 247.248
L319.536 248.4
L320.544 249.264
L321.84 250.128
L323.136 251.28
L324 252.288
L325.152 253.584
L327.6 256.032
L328.896 256.464
L328.896 256.464
L329.904 258.48
L329.904 258.48
L331.344 259.488
L331.344 259.488
L332.64 260.64
L334.368 261.936
L335.808 263.664
L337.536 264.528
L338.544 265.824
L340.272 267.552
L342.864 269.856
L344.16 270.864
L344.16 270.864
L345.888 273.024
L345.888 273.024
L346.896 273.168
L349.056 276.336
L350.208 276.48
L350.208 276.48
L350.928 278.064
L350.928 278.064
L352.224 278.64
L352.224 279.504
L354.384 279.936
L354.384 281.232
L356.544 282.96
L356.688 283.968
L357.696 284.4
L358.704 284.976
L358.704 284.976
L360 286.416
L360 286.416
L360.432 287.28
L362.16 287.712
L362.448 289.008
L362.448 289.008
L364.032 290.016
L364.032 290.016
L364.752 291.312
L365.904 291.744
L365.904 291.744
L367.632 294.624
L367.632 294.624
L369.936 295.344
L369.936 295.344
L370.368 296.352
L371.952 298.224
L371.952 298.224
L373.392 300.384
L373.392 300.384
L375.12 301.824
L376.56 303.696
L376.56 303.696
L378.864 304.704
L378.864 304.704
L380.592 306.576
L380.592 306.576
L381.744 307.584
L381.744 307.584
L383.472 309.6
L383.472 309.6
L385.488 311.472
L387.216 313.056
L388.8 313.92
L390.816 315.936
L392.544 317.376
L395.136 318.816
L395.856 319.536
L395.856 319.536
L395.856 321.264
L396.432 322.272
L400.464 324.576
L404.208 327.312
L410.112 332.064
L414 335.376
L418.464 339.84
L419.616 339.84
L423.36 342.72
L424.8 343.296
L426.96 346.32
L429.408 348.048
L430.992 348.768
L432.72 350.64
L432.432 352.224
L435.168 353.664" style="fill:none;stroke:#00008b;stroke-linecap:square;stroke-width:2;"/>
   </g>
   <g id="line2d_17">
    <path clip-path="url(#p23ab9b749c)" d="
M293.472 225.504
L292.464 228.24
L291.744 229.248
L291.888 230.544" style="fill:none;stroke:#8b0000;stroke-linecap:square;stroke-width:2;"/>
   </g>
   <g id="line2d_18">
    <path clip-path="url(#p23ab9b749c)" d="
M291.888 230.544
L292.896 230.832" style="fill:none;stroke:#00008b;stroke-linecap:square;stroke-width:2;"/>
   </g>
   <g id="line2d_19">
    <path clip-path="url(#p23ab9b749c)" d="
M292.896 230.832
L293.328 231.984
L294.192 233.856
L296.496 236.304
L296.496 238.176
L296.64 238.752" style="fill:none;stroke:#8b0000;stroke-linecap:square;stroke-width:2;"/>
   </g>
   <g id="line2d_20">
    <path clip-path="url(#p23ab9b749c)" d="
M296.64 238.752
L295.776 239.328
L295.776 239.328
L295.056 239.328
L294.192 238.752
L294.192 238.752
L293.184 238.176
L292.464 237.744
L292.032 236.88
L291.456 236.304
L291.456 235.44
L291.024 234.288
L290.448 232.992
L290.448 232.992
L289.728 232.416
L289.728 232.416
L289.008 231.12
L288 230.256
L287.136 228.672
L287.136 228.672
L287.136 227.664
L285.984 227.088
L285.984 227.088
L285.264 226.8
L284.832 226.368" style="fill:none;stroke:#00008b;stroke-linecap:square;stroke-width:2;"/>
   </g>
   <g id="line2d_21">
    <path clip-path="url(#p23ab9b749c)" d="
M296.64 238.752
L297.504 239.328
L297.504 239.328
L298.368 239.328
L298.656 240.768
L298.656 240.768
L300.096 241.344
L300.096 241.344
L300.528 242.352
L300.528 242.352
L301.392 243.072
L301.392 243.072
L302.544 243.936
L302.544 243.936
L303.552 244.656
L303.552 244.656
L302.544 246.816
L300.528 246.96
L299.808 246.096
L297.36 247.248
L295.92 246.24
L290.304 243.792" style="fill:none;stroke:#00008b;stroke-linecap:square;stroke-width:2;"/>
   </g>
   <g id="line2d_22">
    <path clip-path="url(#p23ab9b749c)" d="
M292.896 230.832
L293.76 231.12
L293.76 231.12
L294.624 232.56
L294.624 232.56
L294.768 234.576
L294.768 234.576
L295.056 235.728
L296.928 237.6
L298.224 240.192
L298.8 240.768
L299.664 241.776
L299.664 241.776
L300.672 242.208
L300.672 242.208
L300.672 243.504
L301.68 244.368
L301.68 244.368
L302.688 245.664
L302.688 245.664
L303.696 246.384
L303.984 247.392
L303.984 247.392
L304.992 248.544
L304.992 248.544
L306 249.984
L306 249.984
L306.576 250.992
L306.576 250.992
L307.584 252.144
L307.584 252.144
L308.304 253.296
L308.304 253.296
L309.168 254.448
L309.744 255.456
L310.608 256.176
L310.608 256.176
L311.616 257.184
L311.616 257.184
L312.192 258.192
L312.192 258.192
L312.768 259.2
L312.768 259.2
L313.632 260.064
L313.632 260.064
L314.64 261.072
L316.224 262.656
L316.224 262.656
L316.512 264.24
L316.512 264.24
L317.376 265.392
L318.24 266.832
L318.24 268.128
L318.672 269.136
L318.672 269.136
L319.536 270
L319.968 270.72
L319.968 270.72
L320.832 272.016
L320.832 272.016
L322.272 272.736
L322.272 272.736
L322.848 273.888
L322.848 273.888
L323.856 274.032
L323.856 274.032
L324.288 274.896
L324.288 274.896
L324.864 275.76
L325.872 277.056" style="fill:none;stroke:#8b0000;stroke-linecap:square;stroke-width:2;"/>
   </g>
   <g id="line2d_23">
    <path clip-path="url(#p23ab9b749c)" d="
M291.888 230.544
L290.736 231.12
L289.728 231.12" style="fill:none;stroke:#00008b;stroke-linecap:square;stroke-width:2;"/>
   </g>
   <g id="line2d_24">
    <path clip-path="url(#p23ab9b749c)" d="
M289.728 231.12
L287.424 228.96
L287.424 228.96
L285.984 229.536
L285.984 229.536
L285.264 228.672
L285.264 228.672
L284.688 228.384" style="fill:none;stroke:#8b0000;stroke-linecap:square;stroke-width:2;"/>
   </g>
   <g id="line2d_25">
    <path clip-path="url(#p23ab9b749c)" d="
M284.688 228.384
L283.392 228.384
L282.816 227.52
L281.232 227.088
L279.792 226.656
L278.928 226.656
L278.496 227.52
L279.216 227.664
L279.792 228.528
L279.792 228.528
L279.504 229.392
L279.504 229.392
L280.656 229.392" style="fill:none;stroke:#00008b;stroke-linecap:square;stroke-width:2;"/>
   </g>
   <g id="line2d_26">
    <path clip-path="url(#p23ab9b749c)" d="
M284.688 228.384
L284.688 229.392
L284.112 230.4
L284.112 230.4
L283.248 230.688
L283.248 230.688
L282.816 228.24
L282.816 227.952
L282.384 227.088
L282.384 227.088
L281.52 225.792
L280.656 224.928
L280.656 223.776
L280.656 223.776
L279.36 223.344
L278.928 222.336
L278.928 222.336
L278.208 221.904
L278.208 221.904
L278.064 221.184
L276.336 221.04
L276.336 221.04
L276.192 219.888
L276.192 219.888
L275.472 218.88
L275.472 218.88
L275.472 217.584" style="fill:none;stroke:#00008b;stroke-linecap:square;stroke-width:2;"/>
   </g>
   <g id="line2d_27">
    <path clip-path="url(#p23ab9b749c)" d="
M275.472 217.584
L274.032 216.576
L274.032 216.576
L272.736 216.144
L271.152 216
L268.704 216.288
L267.12 216.864
L264.816 216.144
L263.376 214.416
L263.376 214.416
L262.8 212.976" style="fill:none;stroke:#8b0000;stroke-linecap:square;stroke-width:2;"/>
   </g>
   <g id="line2d_28">
    <path clip-path="url(#p23ab9b749c)" d="
M275.472 217.584
L276.192 216
L276.192 216
L275.328 214.704
L273.456 213.984
L272.16 212.688
L272.16 212.688
L271.44 211.68" style="fill:none;stroke:#8b0000;stroke-linecap:square;stroke-width:2;"/>
   </g>
   <g id="line2d_29">
    <path clip-path="url(#p23ab9b749c)" d="
M289.728 231.12
L287.28 233.28
L286.416 233.856" style="fill:none;stroke:#8b0000;stroke-linecap:square;stroke-width:2;"/>
   </g>
   <g id="line2d_30">
    <path clip-path="url(#p23ab9b749c)" d="
M286.416 233.856
L285.984 233.136
L285.984 233.136
L285.408 232.56
L285.408 232.56
L284.544 232.704
L283.536 231.984
L283.536 231.984
L283.104 232.56
L281.808 232.416
L281.808 232.416
L281.376 233.136
L281.376 233.136
L280.8 232.848
L280.8 233.712
L280.368 234.144
L279.936 233.568
L279.36 234
L278.784 234.72
L278.784 234.72
L277.92 235.44
L277.92 235.44
L277.488 236.304
L277.056 237.024
L276.048 237.744
L275.04 237.744
L273.744 237.888
L273.744 237.888
L272.304 238.032
L271.584 238.608
L270.72 238.608
L269.856 238.608
L268.992 238.464
L266.256 238.464
L266.256 238.464
L264.816 238.464
L264.816 238.464
L263.52 238.752
L263.52 238.752
L262.08 238.464
L262.08 238.464
L260.208 237.888
L260.208 237.888
L258.912 237.456
L258.912 237.456
L257.184 237.168
L255.312 237.024" style="fill:none;stroke:#00008b;stroke-linecap:square;stroke-width:2;"/>
   </g>
   <g id="line2d_31">
    <path clip-path="url(#p23ab9b749c)" d="
M286.416 233.856
L284.544 234.72
L283.968 235.296
L283.968 235.296
L283.248 236.304
L282.816 237.024
L282.528 237.744
L282.384 238.32
L281.808 238.752
L281.088 239.472
L281.088 239.472
L280.368 239.616
L279.504 240.048
L279.504 240.048
L278.784 240.912
L278.784 241.776
L278.784 242.64
L278.928 243.36" style="fill:none;stroke:#00008b;stroke-linecap:square;stroke-width:2;"/>
   </g>
   <g id="line2d_32">
    <path clip-path="url(#p23ab9b749c)" d="
M278.928 243.36
L280.08 244.08
L280.656 245.232
L281.376 245.808
L281.808 246.96
L281.52 248.256
L281.52 248.256
L281.808 249.12
L281.808 249.12
L282.528 250.128
L282.528 250.128
L281.952 251.28
L281.952 251.28
L281.952 252.432
L281.952 252.432
L281.952 253.296
L281.808 254.736
L281.808 254.736
L281.376 255.168" style="fill:none;stroke:#8b0000;stroke-linecap:square;stroke-width:2;"/>
   </g>
   <g id="line2d_33">
    <path clip-path="url(#p23ab9b749c)" d="
M281.376 255.168
L280.368 254.448
L278.496 253.44
L278.496 253.44
L277.2 252.72
L277.2 252.72
L275.616 252.288
L275.616 252.288
L272.736 250.992" style="fill:none;stroke:#00008b;stroke-linecap:square;stroke-width:2;"/>
   </g>
   <g id="line2d_34">
    <path clip-path="url(#p23ab9b749c)" d="
M281.376 255.168
L281.808 256.032
L281.808 256.032
L281.664 257.472
L281.664 257.472
L282.24 258.48
L282.24 258.48
L281.232 259.344
L281.232 259.344
L280.368 260.352
L280.368 260.352
L279.936 260.928
L280.656 261.792
L280.656 261.792
L280.944 263.088
L280.944 263.088
L280.224 264.672
L280.08 265.68
L280.08 265.68
L279.504 266.832
L279.504 266.832
L278.64 267.408
L278.64 267.408
L279.36 267.984
L279.36 267.984
L278.64 270.144
L278.64 270.144
L277.056 271.584
L277.056 271.584
L277.2 273.024
L277.2 273.024
L276.336 273.744
L276.336 273.744
L276.336 275.184
L276.336 275.184
L275.184 276.48
L275.184 276.48
L275.76 278.064
L275.328 280.368
L275.328 280.368
L274.896 282.384
L274.896 282.384
L275.76 283.536
L277.92 284.688
L279.072 286.992
L280.656 288.72
L281.088 291.312
L281.664 293.472
L281.952 294.912
L282.672 295.92
L283.248 298.08
L284.4 299.376
L284.4 299.376
L284.832 301.392
L284.832 301.392
L285.12 303.984
L285.12 303.984
L284.4 305.856" style="fill:none;stroke:#00008b;stroke-linecap:square;stroke-width:2;"/>
   </g>
   <g id="line2d_35">
    <path clip-path="url(#p23ab9b749c)" d="
M278.928 243.36
L278.496 243.936
L278.208 244.656
L278.064 245.664
L278.064 246.672
L278.64 247.68
L278.928 248.688
L278.64 249.552
L278.064 250.128
L277.2 251.136
L276.768 252.144
L276.624 253.008
L276.336 253.872
L276.336 254.448" style="fill:none;stroke:#8b0000;stroke-linecap:square;stroke-width:2;"/>
   </g>
   <g id="line2d_36">
    <path clip-path="url(#p23ab9b749c)" d="
M276.336 254.448
L275.328 254.016
L275.328 254.016
L274.176 254.304
L273.024 254.304
L273.024 254.304
L271.872 254.16
L271.872 254.16
L270.432 254.16
L268.704 254.16
L267.12 253.872
L267.12 253.872
L265.536 253.728
L265.536 253.728
L264.672 254.16
L264.672 254.16
L263.376 255.168
L262.368 255.312
L261.504 256.176
L261.504 256.176
L260.352 255.888
L260.352 255.888
L259.776 256.32
L258.336 255.888
L257.76 256.608
L257.76 256.608
L256.752 256.176
L256.752 256.176
L256.032 257.76
L255.312 257.328
L254.592 257.76
L253.584 257.616
L253.584 257.616
L252.576 257.616
L251.856 257.616
L250.848 257.904
L250.848 257.904
L250.272 258.624
L250.272 258.624
L249.264 258.192
L249.264 258.192
L247.68 258.768
L246.24 258.768
L246.096 258.768" style="fill:none;stroke:#00008b;stroke-linecap:square;stroke-width:2;"/>
   </g>
   <g id="line2d_37">
    <path clip-path="url(#p23ab9b749c)" d="
M276.336 254.448
L276.48 255.168
L276.48 256.32
L276.48 256.32
L276.192 257.616
L275.616 258.912
L275.04 260.064
L274.752 261.504
L274.752 261.504
L274.608 262.944
L274.608 262.944
L274.176 264.24
L274.176 265.824
L274.176 265.824
L274.464 268.128
L274.464 268.128
L275.472 269.136
L275.472 269.136
L276.336 270.432
L276.48 270.576
L276.912 271.872
L276.912 271.872
L277.344 273.168
L277.344 273.168
L278.064 274.896
L278.064 274.896
L277.92 275.328" style="fill:none;stroke:#00008b;stroke-linecap:square;stroke-width:2;"/>
   </g>
   <g id="line2d_38">
    <path clip-path="url(#p23ab9b749c)" d="
M277.92 275.328
L277.344 276.336
L278.064 279.216
L278.064 279.216
L277.92 280.224
L277.776 281.52
L277.776 282.528
L277.2 283.824
L277.2 283.824
L277.2 284.976
L277.2 284.976
L276.48 286.128
L275.76 286.992
L275.76 288.432
L275.184 289.296
L275.76 290.448
L275.76 290.448
L275.04 291.6
L274.608 292.608
L274.608 292.608
L274.176 293.904
L274.176 293.904
L274.464 295.344
L274.464 295.344
L275.184 296.064
L275.184 296.064
L276.192 297.072
L277.632 298.08
L278.64 298.8
L278.64 298.8
L279.792 299.376
L281.088 299.952
L281.808 301.536
L282.096 302.688
L282.096 302.688
L283.248 302.976
L284.544 303.84
L284.544 303.84
L285.984 304.704
L287.28 306
L287.568 306.432" style="fill:none;stroke:#8b0000;stroke-linecap:square;stroke-width:2;"/>
   </g>
   <g id="line2d_39">
    <path clip-path="url(#p23ab9b749c)" d="
M287.568 306.432
L290.016 309.024
L290.592 310.176
L291.312 310.752
L290.88 312.048
L291.888 311.904
L294.336 313.92
L295.344 316.08
L295.776 317.232
L295.632 318.672
L296.928 318.672
L298.08 319.248
L300.096 319.968" style="fill:none;stroke:#00008b;stroke-linecap:square;stroke-width:2;"/>
   </g>
   <g id="line2d_40">
    <path clip-path="url(#p23ab9b749c)" d="
M287.568 306.432
L289.296 306.144
L291.744 306.432
L293.328 306.432
L294.912 307.152
L297.504 307.872" style="fill:none;stroke:#00008b;stroke-linecap:square;stroke-width:2;"/>
   </g>
   <g id="line2d_41">
    <path clip-path="url(#p23ab9b749c)" d="
M277.92 275.328
L278.352 276.192
L278.496 277.632
L279.216 278.352
L280.368 278.928
L279.648 279.936
L280.08 280.944
L280.08 280.944
L279.504 282.096
L279.936 282.96
L279.936 282.96
L279.792 284.256
L279.792 284.256
L279.792 285.264
L280.08 286.272
L280.944 286.992
L280.944 286.992
L281.52 288
L281.52 288
L282.384 289.008
L282.384 289.008
L283.104 290.16
L283.104 290.16
L283.824 291.168
L283.824 291.168
L284.544 292.176
L284.544 292.176
L285.408 293.184
L285.408 293.184
L286.272 294.192
L286.272 294.192
L287.136 295.056
L287.136 295.056
L288.144 295.632
L288.144 295.632
L289.152 296.64
L289.152 296.64
L289.728 297.936" style="fill:none;stroke:#8b0000;stroke-linecap:square;stroke-width:2;"/>
   </g>
   <g id="line2d_42">
    <path clip-path="url(#p23ab9b749c)" d="
M292.608 220.176
L292.464 220.608
L291.744 220.464" style="fill:none;stroke:#00008b;stroke-linecap:square;stroke-width:2;"/>
   </g>
   <g id="line2d_43">
    <path clip-path="url(#p23ab9b749c)" d="
M291.744 220.464
L291.312 219.744
L290.592 219.312
L291.312 218.16
L289.728 218.304
L288.144 217.728
L288.144 217.296" style="fill:none;stroke:#8b0000;stroke-linecap:square;stroke-width:2;"/>
   </g>
   <g id="line2d_44">
    <path clip-path="url(#p23ab9b749c)" d="
M288.144 217.296
L288.72 216.864
L288.432 216.144
L287.568 215.712
L287.568 215.712
L288.288 214.992
L288.288 214.992
L287.712 214.128
L287.856 213.12
L288.288 212.256
L288.288 212.256
L286.992 211.104
L287.424 209.952
L287.424 209.952
L286.704 209.952
L287.136 209.232
L287.136 209.232
L285.408 209.376
L284.976 207.792
L283.68 206.784
L282.672 205.056
L282.672 205.056
L280.656 203.904
L280.656 203.904
L279.216 202.752
L279.216 202.752
L278.064 201.744
L278.064 201.744
L276.48 201.6
L276.48 201.6
L275.184 200.88
L273.888 200.016
L272.16 199.584
L271.152 198.432
L270.144 197.28
L269.28 195.552
L269.28 195.552
L268.56 193.248
L268.56 192.24" style="fill:none;stroke:#00008b;stroke-linecap:square;stroke-width:2;"/>
   </g>
   <g id="line2d_45">
    <path clip-path="url(#p23ab9b749c)" d="
M288.144 217.296
L287.424 217.008
L287.136 216.288
L286.416 217.728" style="fill:none;stroke:#00008b;stroke-linecap:square;stroke-width:2;"/>
   </g>
   <g id="line2d_46">
    <path clip-path="url(#p23ab9b749c)" d="
M291.744 220.464
L291.024 220.176" style="fill:none;stroke:#8b0000;stroke-linecap:square;stroke-width:2;"/>
   </g>
   <g id="line2d_47">
    <path clip-path="url(#p23ab9b749c)" d="
M291.024 220.176
L288.864 220.464
L286.848 220.032
L285.696 219.744
L282.528 220.608
L282.528 220.608
L281.232 221.184
L281.52 221.76" style="fill:none;stroke:#00008b;stroke-linecap:square;stroke-width:2;"/>
   </g>
   <g id="line2d_48">
    <path clip-path="url(#p23ab9b749c)" d="
M291.024 220.176
L290.16 219.6" style="fill:none;stroke:#00008b;stroke-linecap:square;stroke-width:2;"/>
   </g>
   <g id="line2d_49">
    <path clip-path="url(#p23ab9b749c)" d="
M290.16 219.6
L287.856 218.16
L286.848 217.44
L284.256 215.568
L281.52 214.272
L280.8 213.696
L280.8 213.84
L279.648 213.84
L278.784 213.12
L278.064 213.552
L276.336 212.976
L276.336 212.976
L275.76 214.416
L275.76 214.416
L275.76 215.856
L275.76 215.856
L275.184 217.008
L275.184 217.008
L275.184 218.592" style="fill:none;stroke:#8b0000;stroke-linecap:square;stroke-width:2;"/>
   </g>
   <g id="line2d_50">
    <path clip-path="url(#p23ab9b749c)" d="
M290.16 219.6
L288.72 219.456
L288 218.736
L286.992 218.592
L284.544 215.568
L283.536 214.128
L282.672 209.664
L282.384 207.504
L281.664 207.072
L282.384 206.208
L283.104 205.776
L282.528 204.048
L283.536 203.472
L283.536 203.472
L282.816 202.896
L282.816 202.896
L282.816 202.176
L281.808 202.032
L282.528 201.168
L282.528 200.304
L282.096 199.584
L282.384 198.288
L282.384 198.288
L282.672 197.28
L282.528 196.704
L283.392 196.272
L283.392 196.272
L283.68 195.552
L283.68 194.112
L283.824 192.96
L283.824 192.96
L283.68 191.664
L283.68 191.664
L283.824 190.512
L283.824 190.512
L283.68 189.216
L283.68 189.216
L282.816 188.064
L282.24 187.632
L281.088 187.2" style="fill:none;stroke:#8b0000;stroke-linecap:square;stroke-width:2;"/>
   </g>
   <g id="line2d_51">
    <path clip-path="url(#p23ab9b749c)" d="
M292.608 220.176
L293.184 218.448
L291.888 218.16
L289.152 216.576" style="fill:none;stroke:#00008b;stroke-linecap:square;stroke-width:2;"/>
   </g>
   <g id="line2d_52">
    <path clip-path="url(#p23ab9b749c)" d="
M289.152 216.576
L286.992 214.704
L283.536 211.248
L281.232 208.8
L280.512 207.936" style="fill:none;stroke:#8b0000;stroke-linecap:square;stroke-width:2;"/>
   </g>
   <g id="line2d_53">
    <path clip-path="url(#p23ab9b749c)" d="
M280.512 207.936
L281.808 207.072
L282.384 207.648
L283.392 206.928
L283.536 207.936
L285.264 207.36
L285.264 207.36
L285.984 208.08
L286.992 207.504
L287.856 206.784
L288.864 206.064
L289.872 205.344
L290.448 204.48
L290.448 204.48
L289.872 202.896
L289.872 202.896
L289.44 201.888
L287.856 201.168
L286.56 199.872
L286.56 199.872
L284.832 199.44
L284.832 199.44
L282.816 198.432" style="fill:none;stroke:#00008b;stroke-linecap:square;stroke-width:2;"/>
   </g>
   <g id="line2d_54">
    <path clip-path="url(#p23ab9b749c)" d="
M280.512 207.936
L278.784 206.496" style="fill:none;stroke:#00008b;stroke-linecap:square;stroke-width:2;"/>
   </g>
   <g id="line2d_55">
    <path clip-path="url(#p23ab9b749c)" d="
M278.784 206.496
L279.36 205.2
L278.928 204.048
L278.928 204.048
L278.208 203.328
L277.92 202.608
L276.336 201.312
L276.336 201.312
L275.184 199.872" style="fill:none;stroke:#8b0000;stroke-linecap:square;stroke-width:2;"/>
   </g>
   <g id="line2d_56">
    <path clip-path="url(#p23ab9b749c)" d="
M275.184 199.872
L273.744 199.872
L271.296 198
L270.576 196.416
L269.136 195.408
L267.84 194.4
L266.688 194.112
L265.68 193.392
L265.68 193.392
L265.104 193.68
L264.528 193.104
L264.528 193.104
L263.808 192.528" style="fill:none;stroke:#00008b;stroke-linecap:square;stroke-width:2;"/>
   </g>
   <g id="line2d_57">
    <path clip-path="url(#p23ab9b749c)" d="
M275.184 199.872
L274.464 197.28
L273.024 196.56" style="fill:none;stroke:#00008b;stroke-linecap:square;stroke-width:2;"/>
   </g>
   <g id="line2d_58">
    <path clip-path="url(#p23ab9b749c)" d="
M278.784 206.496
L277.2 203.328
L276.48 202.896
L277.056 201.744
L276.192 201.168
L275.616 198.72
L275.904 197.568
L275.904 196.704
L276.048 195.408
L275.616 194.544
L275.616 194.544
L276.336 194.4
L276.048 193.536
L276.048 193.536
L276.336 192.816
L275.76 192.24
L275.76 191.952
L275.184 191.808
L275.328 190.512
L276.192 189.792
L276.48 188.64
L276.48 188.64
L276.912 187.488
L276.912 187.488
L277.2 186.192
L277.2 186.192
L276.336 185.472
L276.336 185.472
L275.472 184.752
L275.472 184.032
L274.752 183.744
L273.744 183.744" style="fill:none;stroke:#8b0000;stroke-linecap:square;stroke-width:2;"/>
   </g>
   <g id="line2d_59">
    <path clip-path="url(#p23ab9b749c)" d="
M289.152 216.576
L287.712 216.432
L286.992 216.288" style="fill:none;stroke:#8b0000;stroke-linecap:square;stroke-width:2;"/>
   </g>
   <g id="line2d_60">
    <path clip-path="url(#p23ab9b749c)" d="
M286.992 216.288
L284.832 219.024
L283.68 220.608
L283.392 222.48
L282.672 223.2
L281.952 222.336
L281.952 223.776
L281.952 223.776
L281.376 223.344
L280.8 223.92
L280.368 223.056
L280.368 223.056
L279.504 224.352
L279.792 225.36
L280.8 225.072
L280.8 226.512
L280.512 226.944
L279.648 227.232
L279.648 227.232
L279.936 228.096
L279.936 228.096
L279.504 228.672
L278.64 227.952
L278.64 227.952
L277.632 228.528
L278.064 229.68
L277.92 230.976
L278.352 232.128
L278.352 233.424
L278.928 234.576
L278.928 235.584
L279.072 236.736
L279.072 236.736
L279.216 238.032
L279.216 238.032
L279.216 238.896
L277.92 238.896
L277.92 238.896
L278.064 239.616
L276.624 239.76
L276.624 239.76
L275.328 241.056
L274.752 242.208
L274.176 243.504
L272.16 243.936
L270.72 243.504
L269.28 242.784
L269.28 242.784
L267.984 240.768" style="fill:none;stroke:#00008b;stroke-linecap:square;stroke-width:2;"/>
   </g>
   <g id="line2d_61">
    <path clip-path="url(#p23ab9b749c)" d="
M286.992 216.288
L286.272 216.288" style="fill:none;stroke:#00008b;stroke-linecap:square;stroke-width:2;"/>
   </g>
   <g id="line2d_62">
    <path clip-path="url(#p23ab9b749c)" d="
M286.272 216.288
L286.272 215.856" style="fill:none;stroke:#8b0000;stroke-linecap:square;stroke-width:2;"/>
   </g>
   <g id="line2d_63">
    <path clip-path="url(#p23ab9b749c)" d="
M286.272 215.856
L285.264 213.84
L283.824 212.544
L281.952 211.68" style="fill:none;stroke:#00008b;stroke-linecap:square;stroke-width:2;"/>
   </g>
   <g id="line2d_64">
    <path clip-path="url(#p23ab9b749c)" d="
M281.952 211.68
L281.664 210.672
L278.496 206.784
L277.488 205.488
L276.912 204.336
L276.912 204.336
L275.328 204.192
L275.328 204.192
L275.904 203.616
L275.04 203.04
L274.32 203.04
L274.32 202.032
L272.736 202.464
L272.736 202.464
L272.448 201.312
L271.44 200.88
L270.432 198.864
L270.432 198.864
L269.424 198.144
L269.424 198.144
L268.704 197.136
L268.704 197.136
L267.552 197.28
L267.552 197.28
L266.4 196.704
L266.4 196.704
L265.68 196.992
L265.392 196.128
L265.392 196.128
L264.816 196.272
L263.808 196.272
L261.648 195.984" style="fill:none;stroke:#8b0000;stroke-linecap:square;stroke-width:2;"/>
   </g>
   <g id="line2d_65">
    <path clip-path="url(#p23ab9b749c)" d="
M281.952 211.68
L282.96 210.096
L280.944 211.104
L281.088 210.096
L281.088 210.096
L280.368 209.952
L280.8 209.088
L280.8 209.088
L280.08 208.8
L279.648 207.936
L279.648 207.936
L278.64 207.504
L278.64 207.504
L277.776 208.08
L277.776 208.08
L277.2 208.656
L277.2 208.656
L277.056 209.232
L277.488 210.24
L277.488 210.24
L278.064 211.392
L277.92 212.112" style="fill:none;stroke:#8b0000;stroke-linecap:square;stroke-width:2;"/>
   </g>
   <g id="line2d_66">
    <path clip-path="url(#p23ab9b749c)" d="
M286.272 215.856
L285.408 214.848
L283.68 214.272
L281.52 212.256
L277.92 210.96
L276.048 209.376
L274.896 208.512
L274.32 207.648
L272.448 206.928
L271.872 205.92
L271.872 205.92
L270.72 205.344
L270.72 205.344
L270.72 204.336
L270 204.048
L268.848 203.76
L268.848 202.752
L267.264 202.176
L267.264 202.176
L267.264 201.6
L265.248 201.456
L265.248 201.456
L263.232 200.16
L263.376 199.44
L262.512 198.72
L262.368 197.568
L261.648 197.568
L261.648 196.704
L260.64 196.704
L258.912 196.128
L257.76 195.552
L257.04 194.832
L256.032 194.112
L256.32 192.24
L255.6 190.944
L255.168 189.792
L255.168 189.792
L254.736 188.208" style="fill:none;stroke:#00008b;stroke-linecap:square;stroke-width:2;"/>
   </g>
   <g id="line2d_67">
    <path clip-path="url(#p23ab9b749c)" d="
M286.272 216.288
L282.384 217.152" style="fill:none;stroke:#8b0000;stroke-linecap:square;stroke-width:2;"/>
   </g>
   <g id="line2d_68">
    <path clip-path="url(#p23ab9b749c)" d="
M282.384 217.152
L280.8 216.72
L280.08 216.144
L280.08 216.144
L276.624 214.848
L275.328 213.696
L274.464 212.688
L274.464 212.688
L273.456 211.968
L273.456 211.968
L272.16 211.104
L271.44 210.672
L270.864 209.664
L270 209.376
L269.424 208.512
L269.424 208.512
L268.56 207.792
L268.56 207.792
L267.696 207.072
L266.112 206.64
L264.816 206.208
L264.096 205.2
L264.096 205.2
L264.384 203.76
L264.384 203.76
L263.808 203.616
L264.24 202.896
L264.24 202.896
L263.808 202.752
L263.52 201.888
L262.368 201.312
L261.072 199.728
L260.496 199.008
L258.912 196.992
L258.336 195.552
L258.624 193.536" style="fill:none;stroke:#00008b;stroke-linecap:square;stroke-width:2;"/>
   </g>
   <g id="line2d_69">
    <path clip-path="url(#p23ab9b749c)" d="
M282.384 217.152
L280.656 217.872
L278.784 218.016
L278.784 218.016
L277.92 218.592
L277.92 218.592
L277.2 219.024
L275.328 219.168
L274.176 219.456
L273.312 219.6
L271.872 219.6
L270.72 219.456
L270 219.312
L269.424 219.456
L268.56 220.032
L267.552 220.608
L267.552 220.608
L266.4 221.04
L265.824 221.904
L265.248 221.904
L264.384 222.336
L263.664 222.48
L263.088 223.056
L262.224 222.768
L261.36 222.912
L260.928 223.2
L260.064 223.2
L259.056 223.344
L259.056 223.344
L258.048 223.632
L256.752 223.776
L255.888 223.776
L255.168 223.632
L254.304 223.776
L253.44 223.632
L252.432 223.632
L251.568 223.632
L250.416 223.632
L250.416 223.632
L249.696 223.632
L248.4 223.632
L246.528 223.2
L246.528 223.2
L245.232 222.768
L243.936 222.624
L242.064 222.624
L242.064 222.624
L240.336 222.912
L240.336 222.912
L238.752 222.912
L237.168 222.768
L237.168 222.768
L235.872 222.768
L235.872 222.768
L234.576 222.624
L234.576 222.624
L233.568 222.624
L232.416 222.624
L231.12 222.048
L231.12 222.048
L229.536 222.192
L229.536 222.192
L227.808 222.624
L227.808 222.624
L227.088 223.2
L227.088 223.2
L225.792 223.632
L225.792 223.632
L224.496 223.776
L223.632 224.208
L223.488 223.344
L222.48 223.344
L221.616 224.496
L221.616 224.496
L220.608 225.792
L220.608 225.792
L219.456 226.08
L219.456 226.08
L217.728 226.368
L216.288 227.088
L216.288 227.088
L214.704 227.808
L214.704 227.808
L213.696 228.816
L213.696 228.816
L211.536 228.96
L209.376 229.248
L206.928 229.536
L204.48 229.68
L204.48 229.68
L203.184 230.688
L203.184 230.688
L200.736 231.264
L197.712 231.984
L195.984 233.568
L193.536 232.992
L193.536 232.992
L191.52 233.28
L191.52 233.28
L189.936 233.712
L188.64 234.72
L188.64 234.72
L186.48 235.296
L184.032 234.864
L183.024 234.144
L181.008 234.432
L181.008 234.432
L179.28 234.288
L179.28 234.288
L177.84 233.856
L176.112 233.424
L174.384 233.712
L174.384 233.712
L172.08 233.568" style="fill:none;stroke:#00008b;stroke-linecap:square;stroke-width:2;"/>
   </g>
   <g id="line2d_70">
    <path clip-path="url(#p23ab9b749c)" d="
M292.608 220.176
L295.776 218.592
L297.072 218.304
L298.08 217.296
L299.232 217.296" style="fill:none;stroke:#00008b;stroke-linecap:square;stroke-width:2;"/>
   </g>
   <g id="line2d_71">
    <path clip-path="url(#p23ab9b749c)" d="
M299.232 217.296
L298.656 218.88
L299.664 218.592" style="fill:none;stroke:#8b0000;stroke-linecap:square;stroke-width:2;"/>
   </g>
   <g id="line2d_72">
    <path clip-path="url(#p23ab9b749c)" d="
M299.232 217.296
L299.376 219.888" style="fill:none;stroke:#8b0000;stroke-linecap:square;stroke-width:2;"/>
   </g>
   <g id="line2d_73">
    <path clip-path="url(#p23ab9b749c)" d="
M299.376 219.888
L299.232 220.896
L299.232 222.48
L299.952 223.056
L299.664 223.92
L300.096 224.928
L300.672 225.504
L302.832 227.808
L303.552 228.384
L304.272 229.104
L304.272 229.104
L304.992 229.68
L305.712 229.968
L306.432 230.976
L307.296 231.264
L307.296 231.264
L308.016 231.552
L308.592 232.128
L308.592 232.128
L309.312 232.704
L310.032 233.424
L310.752 234.144
L311.472 235.008
L311.904 235.584
L312.336 236.304
L313.2 237.312
L314.208 238.176
L314.208 238.176
L315.648 239.184
L315.648 239.184
L317.232 239.904
L318.528 240.624
L318.528 240.624
L319.824 241.632
L319.824 241.632
L319.824 242.784" style="fill:none;stroke:#00008b;stroke-linecap:square;stroke-width:2;"/>
   </g>
   <g id="line2d_74">
    <path clip-path="url(#p23ab9b749c)" d="
M299.376 219.888
L298.656 218.592
L295.2 216.72
L292.032 215.568
L291.6 214.56
L291.6 214.56
L290.304 215.136
L289.152 214.992
L289.152 214.992
L287.712 215.856
L287.712 215.856
L285.264 215.568
L285.264 215.568
L282.096 215.568
L282.096 215.568
L280.512 216.432
L280.512 216.432
L279.36 217.152
L279.36 217.152
L278.352 217.152
L278.496 218.16
L278.496 218.16
L278.496 219.456
L278.496 219.456
L277.632 220.32
L277.632 220.32
L276.912 218.736" style="fill:none;stroke:#00008b;stroke-linecap:square;stroke-width:2;"/>
   </g>
   <g id="line2d_75">
    <path clip-path="url(#p23ab9b749c)" d="
M292.608 220.176
L295.344 218.304
L296.784 216.864
L296.928 214.56" style="fill:none;stroke:#00008b;stroke-linecap:square;stroke-width:2;"/>
   </g>
   <g id="line2d_76">
    <path clip-path="url(#p23ab9b749c)" d="
M296.928 214.56
L297.36 212.976" style="fill:none;stroke:#8b0000;stroke-linecap:square;stroke-width:2;"/>
   </g>
   <g id="line2d_77">
    <path clip-path="url(#p23ab9b749c)" d="
M297.36 212.976
L296.928 211.68" style="fill:none;stroke:#00008b;stroke-linecap:square;stroke-width:2;"/>
   </g>
   <g id="line2d_78">
    <path clip-path="url(#p23ab9b749c)" d="
M296.928 211.68
L297.792 211.248
L298.512 209.376
L299.088 208.944
L299.808 208.224
L299.808 208.224
L300.096 207.648
L300.24 206.496
L300.24 206.496
L300.96 205.632
L300.96 205.632
L301.248 205.056
L302.112 204.048
L302.976 201.744
L302.976 201.744
L303.552 201.456
L303.696 200.16
L303.696 200.16
L303.552 199.296
L303.84 198.576
L303.84 197.712
L304.272 196.848
L304.272 196.848
L303.696 196.272
L304.416 194.832
L304.416 193.968
L304.272 192.816
L304.272 190.944
L303.984 190.656
L303.84 190.224
L304.272 190.08
L304.416 189.792
L304.416 189.36
L304.704 188.928
L304.704 188.496
L304.56 187.92
L305.424 186.48
L305.424 186.48
L305.424 185.76
L306.288 185.04
L306.72 184.176
L308.016 183.168
L308.016 182.16
L309.024 181.296
L309.024 180.144
L309.024 180.144
L310.032 179.856
L310.032 179.856
L310.464 178.704
L310.464 178.704
L310.896 178.128
L311.184 177.552
L311.184 176.976
L312.048 176.832
L312.768 176.256
L313.344 174.816
L313.632 174.528
L314.208 172.656
L314.784 171.936
L314.784 170.352
L315.36 169.92
L315.936 169.344
L316.08 168.624
L316.656 167.76
L317.52 167.04
L317.664 166.176
L317.664 165.312
L318.384 165.312
L318.672 164.448
L320.112 162.864
L320.112 161.856
L321.12 161.712
L321.696 160.848
L321.696 160.848
L321.696 159.984
L321.84 159.408
L322.416 159.552
L323.712 158.832
L323.712 158.832
L324.144 158.112
L324.432 157.248
L325.872 155.664
L325.728 155.088
L325.728 154.368
L325.872 153.36
L325.872 153.36
L326.304 152.784
L326.88 151.776
L326.88 151.776
L327.024 151.056
L328.608 149.76
L328.896 149.04
L328.896 147.744
L329.76 147.6
L330.192 146.736
L330.192 146.736
L330.192 145.584
L331.2 144.864
L331.2 144.864
L331.2 144
L331.056 142.992
L331.056 142.992
L331.2 142.272
L331.776 141.552
L332.208 140.688
L332.928 140.256
L332.928 139.392
L333.36 138.672
L333.36 138.096
L333.792 137.376
L334.656 136.368
L334.08 135.792
L333.36 134.784
L333.36 134.784
L333.936 134.208
L333.936 134.208
L334.08 133.488
L334.8 132.624
L334.224 131.904
L334.8 131.328
L334.944 130.176
L334.224 129.744
L334.512 128.592
L334.512 128.592
L333.936 127.728
L333.936 127.728
L334.512 126.72
L334.512 126.72
L334.656 125.712
L334.512 124.848
L334.512 122.256
L334.368 121.536
L334.8 120.96
L334.656 120.24
L335.232 118.944
L335.232 118.224
L335.808 117.504
L336.096 116.64
L336.096 116.64
L337.104 116.64
L337.104 115.344
L337.68 114.624
L339.264 111.456
L339.408 110.592
L339.84 109.872
L339.984 108.288
L340.272 107.28
L340.416 106.128
L340.848 104.688
L340.848 104.688
L341.28 101.088
L341.28 101.088
L341.712 99.936
L341.712 99.936
L342.288 98.784
L342.288 98.784
L343.44 94.896
L343.584 93.6
L343.584 93.6
L343.44 92.592
L343.872 91.728
L343.872 90.72
L344.448 89.568
L345.456 87.984
L346.32 87.408
L346.32 86.4
L346.896 85.68
L346.752 84.528
L347.616 83.952
L348.048 83.088
L348.336 82.08
L348.912 81.792
L349.056 80.928
L349.632 80.208
L349.632 80.208
L349.776 79.776
L350.496 79.776
L350.496 78.768
L351.216 77.904
L351.216 77.184
L351.936 76.896
L351.792 76.32
L352.944 75.6
L353.952 73.296
L354.816 72.144
L355.248 70.848
L356.112 69.696
L356.832 68.112
L357.552 66.816
L357.84 65.52
L358.56 64.368
L358.56 64.368
L359.568 60.768
L360.288 58.896
L361.728 56.16
L361.728 56.16" style="fill:none;stroke:#8b0000;stroke-linecap:square;stroke-width:2;"/>
   </g>
   <g id="line2d_79">
    <path clip-path="url(#p23ab9b749c)" d="
M296.928 211.68
L295.92 210.672
L295.344 209.952
L295.2 209.232" style="fill:none;stroke:#8b0000;stroke-linecap:square;stroke-width:2;"/>
   </g>
   <g id="line2d_80">
    <path clip-path="url(#p23ab9b749c)" d="
M295.2 209.232
L295.2 208.656
L294.624 208.08
L294.624 208.08
L294.192 207.504
L293.76 207.072
L293.04 206.64
L292.608 205.776
L292.608 205.776
L291.888 205.2
L291.888 205.2
L291.456 204.48
L290.88 203.904
L289.728 203.472
L289.728 203.472
L288.72 202.752
L288.72 202.752
L288 201.744
L286.704 200.592
L286.704 200.592
L286.56 200.016
L285.84 198.864
L285.84 198.864
L284.976 198.144
L284.976 198.144
L284.832 197.568
L284.112 196.704
L284.112 196.704
L283.248 195.552
L283.248 195.552
L282.24 194.688
L281.376 194.112
L281.376 194.112
L280.656 193.248
L279.648 192.528
L279.648 192.528
L278.784 191.952
L278.064 190.944
L278.064 190.944
L277.632 190.224
L277.632 190.224
L277.632 190.224
L277.056 189.936
L276.912 189.36
L275.616 188.352
L275.616 188.352
L274.608 188.064
L274.608 188.064
L273.6 187.344
L273.312 186.336
L273.312 186.336
L272.16 185.472
L271.584 184.608
L271.584 184.608
L270.288 183.456
L270.288 183.456
L270.576 182.592
L269.712 181.728
L268.704 180.72
L268.704 180.72
L268.704 180
L268.272 179.136
L268.128 178.272
L267.696 176.544
L267.696 176.544
L266.544 175.68
L266.544 175.68
L266.256 174.816
L266.256 174.816
L266.4 173.52
L266.688 173.088" style="fill:none;stroke:#00008b;stroke-linecap:square;stroke-width:2;"/>
   </g>
   <g id="line2d_81">
    <path clip-path="url(#p23ab9b749c)" d="
M295.2 209.232
L294.048 208.8
L293.472 208.08
L291.6 206.928
L291.6 206.928
L290.88 206.208
L290.88 206.208
L290.16 206.208
L290.448 207.216
L290.448 207.216
L291.024 207.36
L291.312 208.08
L290.88 208.512
L292.032 208.944
L292.032 208.944
L292.176 209.664
L293.184 210.096
L293.184 210.096
L293.76 210.096
L294.192 210.096
L295.776 209.376
L295.776 209.376
L296.64 209.664
L297.36 208.8
L297.36 208.8
L297.936 209.808
L297.936 209.808
L298.944 209.808
L299.376 211.392
L299.376 211.392
L300.816 212.976
L300.816 212.976
L302.256 213.12
L302.256 213.12
L302.976 213.84" style="fill:none;stroke:#00008b;stroke-linecap:square;stroke-width:2;"/>
   </g>
   <g id="line2d_82">
    <path clip-path="url(#p23ab9b749c)" d="
M297.36 212.976
L298.512 212.832
L299.376 212.832
L300.24 213.12
L301.104 213.552
L301.968 214.128
L301.968 214.128
L302.976 214.272
L303.408 214.416
L304.128 214.704
L304.416 214.848
L304.992 215.136
L305.568 215.136
L306.144 215.424
L307.008 215.568
L308.016 215.712
L308.88 216
L309.744 215.856
L310.608 216
L311.184 216
L311.76 216.288
L312.48 216.288
L313.056 216.576
L313.056 216.576
L313.632 216.72
L314.208 216.864
L314.64 217.152
L314.928 217.296
L315.504 217.584
L315.936 217.872
L316.368 218.16
L316.944 218.592
L317.376 218.736
L318.096 219.024
L318.528 219.168
L319.104 219.168
L319.536 218.88
L320.112 219.024
L320.688 219.024
L320.976 218.592
L321.12 218.448
L321.696 218.304
L321.984 218.016
L322.56 217.728
L323.136 217.584
L323.712 217.584
L324.144 217.44
L324.288 217.008
L324.864 217.008
L324.864 216.432
L325.008 216
L325.152 215.424
L325.44 214.848
L325.44 214.56
L325.872 214.128
L326.304 213.84
L326.736 213.552
L327.168 213.264
L326.736 212.688
L326.016 212.832
L326.16 212.4
L325.44 211.968
L325.44 211.968
L326.016 211.392
L326.016 211.392
L327.024 211.248
L327.024 211.248
L327.456 210.96
L328.176 210.816" style="fill:none;stroke:#00008b;stroke-linecap:square;stroke-width:2;"/>
   </g>
   <g id="line2d_83">
    <path clip-path="url(#p23ab9b749c)" d="
M296.928 214.56
L298.368 214.128" style="fill:none;stroke:#8b0000;stroke-linecap:square;stroke-width:2;"/>
   </g>
   <g id="line2d_84">
    <path clip-path="url(#p23ab9b749c)" d="
M298.368 214.128
L297.792 212.688
L297.36 211.824
L297.792 211.104
L297.792 211.104
L298.08 210.384
L297.504 210.096
L297.36 210.672
L298.368 210.384
L298.368 210.384
L298.656 209.808
L297.936 209.664
L297.504 209.664" style="fill:none;stroke:#00008b;stroke-linecap:square;stroke-width:2;"/>
   </g>
   <g id="line2d_85">
    <path clip-path="url(#p23ab9b749c)" d="
M298.368 214.128
L299.52 213.984
L300.384 214.992
L300.816 214.848
L301.68 215.136
L301.68 215.712
L302.4 216
L302.688 215.424
L303.12 215.424
L303.984 215.568
L303.984 215.568
L304.416 216
L305.136 216.144
L306.432 216.144
L307.296 216.864" style="fill:none;stroke:#00008b;stroke-linecap:square;stroke-width:2;"/>
   </g>
   <g id="line2d_86">
    <path clip-path="url(#p23ab9b749c)" d="
M307.296 216.864
L307.872 217.296
L309.312 217.44
L310.32 218.304
L310.32 218.304
L311.04 217.872
L311.04 217.872
L311.76 219.024
L311.76 219.024
L314.064 219.024
L314.064 219.024
L314.928 219.888
L314.928 219.888
L316.08 219.312
L316.08 219.312
L317.088 219.456
L317.088 219.456
L317.52 220.32
L317.52 220.32
L318.816 220.608
L318.816 220.608
L319.392 221.04
L320.256 220.896
L320.832 221.04
L320.832 221.04
L320.832 221.04" style="fill:none;stroke:#8b0000;stroke-linecap:square;stroke-width:2;"/>
   </g>
   <g id="line2d_87">
    <path clip-path="url(#p23ab9b749c)" d="
M307.296 216.864
L308.88 217.296
L310.752 216.72
L310.752 216.72
L312.192 216.72
L312.768 215.856
L313.056 214.848
L313.632 213.696
L314.496 212.4
L314.496 212.4
L314.64 211.392
L314.64 211.392
L316.368 211.392
L317.952 212.4
L317.952 212.4
L319.248 213.264
L319.248 213.264
L320.4 214.416
L320.4 214.416
L322.128 215.28" style="fill:none;stroke:#8b0000;stroke-linecap:square;stroke-width:2;"/>
   </g>
   <g id="line2d_88">
    <path clip-path="url(#p23ab9b749c)" d="
M293.904 219.62
L294.624 219.712
L295.2 219.937
L295.488 219.937
L295.488 219.937
L296.064 220.369
L296.352 220.176" style="fill:none;stroke:#8b0000;stroke-linecap:square;stroke-width:2;"/>
   </g>
   <g id="patch_4">
    <path d="
M122.4 43.2
L468 43.2" style="fill:none;stroke:#000000;stroke-linecap:square;stroke-linejoin:miter;"/>
   </g>
   <g id="patch_5">
    <path d="
M468 388.8
L468 43.2" style="fill:none;stroke:#000000;stroke-linecap:square;stroke-linejoin:miter;"/>
   </g>
   <g id="patch_6">
    <path d="
M122.4 388.8
L468 388.8" style="fill:none;stroke:#000000;stroke-linecap:square;stroke-linejoin:miter;"/>
   </g>
   <g id="patch_7">
    <path d="
M122.4 388.8
L122.4 43.2" style="fill:none;stroke:#000000;stroke-linecap:square;stroke-linejoin:miter;"/>
   </g>
   <g id="matplotlib.axis_1">
    <g id="xtick_1">
     <g id="line2d_89">
      <defs>
       <path d="
M0 0
L0 -4" id="m93b0483c22" style="stroke:#000000;stroke-width:0.5;"/>
      </defs>
      <g>
       <use style="stroke:#000000;stroke-width:0.5;" x="122.4" xlink:href="#m93b0483c22" y="388.8"/>
      </g>
     </g>
     <g id="line2d_90">
      <defs>
       <path d="
M0 0
L0 4" id="m741efc42ff" style="stroke:#000000;stroke-width:0.5;"/>
      </defs>
      <g>
       <use style="stroke:#000000;stroke-width:0.5;" x="122.4" xlink:href="#m741efc42ff" y="43.2"/>
      </g>
     </g>
     <g id="text_1">
      <!-- −600 -->
      <defs>
       <path d="
M10.5938 35.5
L73.1875 35.5
L73.1875 27.2031
L10.5938 27.2031
z
" id="BitstreamVeraSans-Roman-2212"/>
       <path d="
M31.7812 66.4062
Q24.1719 66.4062 20.3281 58.9062
Q16.5 51.4219 16.5 36.375
Q16.5 21.3906 20.3281 13.8906
Q24.1719 6.39062 31.7812 6.39062
Q39.4531 6.39062 43.2812 13.8906
Q47.125 21.3906 47.125 36.375
Q47.125 51.4219 43.2812 58.9062
Q39.4531 66.4062 31.7812 66.4062
M31.7812 74.2188
Q44.0469 74.2188 50.5156 64.5156
Q56.9844 54.8281 56.9844 36.375
Q56.9844 17.9688 50.5156 8.26562
Q44.0469 -1.42188 31.7812 -1.42188
Q19.5312 -1.42188 13.0625 8.26562
Q6.59375 17.9688 6.59375 36.375
Q6.59375 54.8281 13.0625 64.5156
Q19.5312 74.2188 31.7812 74.2188" id="BitstreamVeraSans-Roman-30"/>
       <path d="
M33.0156 40.375
Q26.375 40.375 22.4844 35.8281
Q18.6094 31.2969 18.6094 23.3906
Q18.6094 15.5312 22.4844 10.9531
Q26.375 6.39062 33.0156 6.39062
Q39.6562 6.39062 43.5312 10.9531
Q47.4062 15.5312 47.4062 23.3906
Q47.4062 31.2969 43.5312 35.8281
Q39.6562 40.375 33.0156 40.375
M52.5938 71.2969
L52.5938 62.3125
Q48.875 64.0625 45.0938 64.9844
Q41.3125 65.9219 37.5938 65.9219
Q27.8281 65.9219 22.6719 59.3281
Q17.5312 52.7344 16.7969 39.4062
Q19.6719 43.6562 24.0156 45.9219
Q28.375 48.1875 33.5938 48.1875
Q44.5781 48.1875 50.9531 41.5156
Q57.3281 34.8594 57.3281 23.3906
Q57.3281 12.1562 50.6875 5.35938
Q44.0469 -1.42188 33.0156 -1.42188
Q20.3594 -1.42188 13.6719 8.26562
Q6.98438 17.9688 6.98438 36.375
Q6.98438 53.6562 15.1875 63.9375
Q23.3906 74.2188 37.2031 74.2188
Q40.9219 74.2188 44.7031 73.4844
Q48.4844 72.75 52.5938 71.2969" id="BitstreamVeraSans-Roman-36"/>
      </defs>
      <g transform="translate(106.95375 401.918125)scale(0.12 -0.12)">
       <use xlink:href="#BitstreamVeraSans-Roman-2212"/>
       <use x="83.7890625" xlink:href="#BitstreamVeraSans-Roman-36"/>
       <use x="147.412109375" xlink:href="#BitstreamVeraSans-Roman-30"/>
       <use x="211.03515625" xlink:href="#BitstreamVeraSans-Roman-30"/>
      </g>
     </g>
    </g>
    <g id="xtick_2">
     <g id="line2d_91">
      <g>
       <use style="stroke:#000000;stroke-width:0.5;" x="180.0" xlink:href="#m93b0483c22" y="388.8"/>
      </g>
     </g>
     <g id="line2d_92">
      <g>
       <use style="stroke:#000000;stroke-width:0.5;" x="180.0" xlink:href="#m741efc42ff" y="43.2"/>
      </g>
     </g>
     <g id="text_2">
      <!-- −400 -->
      <defs>
       <path d="
M37.7969 64.3125
L12.8906 25.3906
L37.7969 25.3906
z

M35.2031 72.9062
L47.6094 72.9062
L47.6094 25.3906
L58.0156 25.3906
L58.0156 17.1875
L47.6094 17.1875
L47.6094 0
L37.7969 0
L37.7969 17.1875
L4.89062 17.1875
L4.89062 26.7031
z
" id="BitstreamVeraSans-Roman-34"/>
      </defs>
      <g transform="translate(164.55375 401.918125)scale(0.12 -0.12)">
       <use xlink:href="#BitstreamVeraSans-Roman-2212"/>
       <use x="83.7890625" xlink:href="#BitstreamVeraSans-Roman-34"/>
       <use x="147.412109375" xlink:href="#BitstreamVeraSans-Roman-30"/>
       <use x="211.03515625" xlink:href="#BitstreamVeraSans-Roman-30"/>
      </g>
     </g>
    </g>
    <g id="xtick_3">
     <g id="line2d_93">
      <g>
       <use style="stroke:#000000;stroke-width:0.5;" x="237.6" xlink:href="#m93b0483c22" y="388.8"/>
      </g>
     </g>
     <g id="line2d_94">
      <g>
       <use style="stroke:#000000;stroke-width:0.5;" x="237.6" xlink:href="#m741efc42ff" y="43.2"/>
      </g>
     </g>
     <g id="text_3">
      <!-- −200 -->
      <defs>
       <path d="
M19.1875 8.29688
L53.6094 8.29688
L53.6094 0
L7.32812 0
L7.32812 8.29688
Q12.9375 14.1094 22.625 23.8906
Q32.3281 33.6875 34.8125 36.5312
Q39.5469 41.8438 41.4219 45.5312
Q43.3125 49.2188 43.3125 52.7812
Q43.3125 58.5938 39.2344 62.25
Q35.1562 65.9219 28.6094 65.9219
Q23.9688 65.9219 18.8125 64.3125
Q13.6719 62.7031 7.8125 59.4219
L7.8125 69.3906
Q13.7656 71.7812 18.9375 73
Q24.125 74.2188 28.4219 74.2188
Q39.75 74.2188 46.4844 68.5469
Q53.2188 62.8906 53.2188 53.4219
Q53.2188 48.9219 51.5312 44.8906
Q49.8594 40.875 45.4062 35.4062
Q44.1875 33.9844 37.6406 27.2188
Q31.1094 20.4531 19.1875 8.29688" id="BitstreamVeraSans-Roman-32"/>
      </defs>
      <g transform="translate(222.15375 401.918125)scale(0.12 -0.12)">
       <use xlink:href="#BitstreamVeraSans-Roman-2212"/>
       <use x="83.7890625" xlink:href="#BitstreamVeraSans-Roman-32"/>
       <use x="147.412109375" xlink:href="#BitstreamVeraSans-Roman-30"/>
       <use x="211.03515625" xlink:href="#BitstreamVeraSans-Roman-30"/>
      </g>
     </g>
    </g>
    <g id="xtick_4">
     <g id="line2d_95">
      <g>
       <use style="stroke:#000000;stroke-width:0.5;" x="295.2" xlink:href="#m93b0483c22" y="388.8"/>
      </g>
     </g>
     <g id="line2d_96">
      <g>
       <use style="stroke:#000000;stroke-width:0.5;" x="295.2" xlink:href="#m741efc42ff" y="43.2"/>
      </g>
     </g>
     <g id="text_4">
      <!-- 0 -->
      <g transform="translate(292.1765625 401.918125)scale(0.12 -0.12)">
       <use xlink:href="#BitstreamVeraSans-Roman-30"/>
      </g>
     </g>
    </g>
    <g id="xtick_5">
     <g id="line2d_97">
      <g>
       <use style="stroke:#000000;stroke-width:0.5;" x="352.8" xlink:href="#m93b0483c22" y="388.8"/>
      </g>
     </g>
     <g id="line2d_98">
      <g>
       <use style="stroke:#000000;stroke-width:0.5;" x="352.8" xlink:href="#m741efc42ff" y="43.2"/>
      </g>
     </g>
     <g id="text_5">
      <!-- 200 -->
      <g transform="translate(342.185625 401.918125)scale(0.12 -0.12)">
       <use xlink:href="#BitstreamVeraSans-Roman-32"/>
       <use x="63.623046875" xlink:href="#BitstreamVeraSans-Roman-30"/>
       <use x="127.24609375" xlink:href="#BitstreamVeraSans-Roman-30"/>
      </g>
     </g>
    </g>
    <g id="xtick_6">
     <g id="line2d_99">
      <g>
       <use style="stroke:#000000;stroke-width:0.5;" x="410.4" xlink:href="#m93b0483c22" y="388.8"/>
      </g>
     </g>
     <g id="line2d_100">
      <g>
       <use style="stroke:#000000;stroke-width:0.5;" x="410.4" xlink:href="#m741efc42ff" y="43.2"/>
      </g>
     </g>
     <g id="text_6">
      <!-- 400 -->
      <g transform="translate(399.639375 401.918125)scale(0.12 -0.12)">
       <use xlink:href="#BitstreamVeraSans-Roman-34"/>
       <use x="63.623046875" xlink:href="#BitstreamVeraSans-Roman-30"/>
       <use x="127.24609375" xlink:href="#BitstreamVeraSans-Roman-30"/>
      </g>
     </g>
    </g>
    <g id="xtick_7">
     <g id="line2d_101">
      <g>
       <use style="stroke:#000000;stroke-width:0.5;" x="468.0" xlink:href="#m93b0483c22" y="388.8"/>
      </g>
     </g>
     <g id="line2d_102">
      <g>
       <use style="stroke:#000000;stroke-width:0.5;" x="468.0" xlink:href="#m741efc42ff" y="43.2"/>
      </g>
     </g>
     <g id="text_7">
      <!-- 600 -->
      <g transform="translate(457.365 401.918125)scale(0.12 -0.12)">
       <use xlink:href="#BitstreamVeraSans-Roman-36"/>
       <use x="63.623046875" xlink:href="#BitstreamVeraSans-Roman-30"/>
       <use x="127.24609375" xlink:href="#BitstreamVeraSans-Roman-30"/>
      </g>
     </g>
    </g>
    <g id="text_8">
     <!-- x (um) -->
     <defs>
      <path id="BitstreamVeraSans-Roman-20"/>
      <path d="
M8.01562 75.875
L15.8281 75.875
Q23.1406 64.3594 26.7812 53.3125
Q30.4219 42.2812 30.4219 31.3906
Q30.4219 20.4531 26.7812 9.375
Q23.1406 -1.70312 15.8281 -13.1875
L8.01562 -13.1875
Q14.5 -2 17.7031 9.0625
Q20.9062 20.125 20.9062 31.3906
Q20.9062 42.6719 17.7031 53.6562
Q14.5 64.6562 8.01562 75.875" id="BitstreamVeraSans-Roman-29"/>
      <path d="
M52 44.1875
Q55.375 50.25 60.0625 53.125
Q64.75 56 71.0938 56
Q79.6406 56 84.2812 50.0156
Q88.9219 44.0469 88.9219 33.0156
L88.9219 0
L79.8906 0
L79.8906 32.7188
Q79.8906 40.5781 77.0938 44.375
Q74.3125 48.1875 68.6094 48.1875
Q61.625 48.1875 57.5625 43.5469
Q53.5156 38.9219 53.5156 30.9062
L53.5156 0
L44.4844 0
L44.4844 32.7188
Q44.4844 40.625 41.7031 44.4062
Q38.9219 48.1875 33.1094 48.1875
Q26.2188 48.1875 22.1562 43.5312
Q18.1094 38.875 18.1094 30.9062
L18.1094 0
L9.07812 0
L9.07812 54.6875
L18.1094 54.6875
L18.1094 46.1875
Q21.1875 51.2188 25.4844 53.6094
Q29.7812 56 35.6875 56
Q41.6562 56 45.8281 52.9688
Q50 49.9531 52 44.1875" id="BitstreamVeraSans-Roman-6d"/>
      <path d="
M54.8906 54.6875
L35.1094 28.0781
L55.9062 0
L45.3125 0
L29.3906 21.4844
L13.4844 0
L2.875 0
L24.125 28.6094
L4.6875 54.6875
L15.2812 54.6875
L29.7812 35.2031
L44.2812 54.6875
z
" id="BitstreamVeraSans-Roman-78"/>
      <path d="
M31 75.875
Q24.4688 64.6562 21.2812 53.6562
Q18.1094 42.6719 18.1094 31.3906
Q18.1094 20.125 21.3125 9.0625
Q24.5156 -2 31 -13.1875
L23.1875 -13.1875
Q15.875 -1.70312 12.2344 9.375
Q8.59375 20.4531 8.59375 31.3906
Q8.59375 42.2812 12.2031 53.3125
Q15.8281 64.3594 23.1875 75.875
z
" id="BitstreamVeraSans-Roman-28"/>
      <path d="
M8.5 21.5781
L8.5 54.6875
L17.4844 54.6875
L17.4844 21.9219
Q17.4844 14.1562 20.5 10.2656
Q23.5312 6.39062 29.5938 6.39062
Q36.8594 6.39062 41.0781 11.0312
Q45.3125 15.6719 45.3125 23.6875
L45.3125 54.6875
L54.2969 54.6875
L54.2969 0
L45.3125 0
L45.3125 8.40625
Q42.0469 3.42188 37.7188 1
Q33.4062 -1.42188 27.6875 -1.42188
Q18.2656 -1.42188 13.375 4.4375
Q8.5 10.2969 8.5 21.5781" id="BitstreamVeraSans-Roman-75"/>
     </defs>
     <g transform="translate(275.92875 418.531875)scale(0.12 -0.12)">
      <use xlink:href="#BitstreamVeraSans-Roman-78"/>
      <use x="59.1796875" xlink:href="#BitstreamVeraSans-Roman-20"/>
      <use x="90.966796875" xlink:href="#BitstreamVeraSans-Roman-28"/>
      <use x="129.98046875" xlink:href="#BitstreamVeraSans-Roman-75"/>
      <use x="193.359375" xlink:href="#BitstreamVeraSans-Roman-6d"/>
      <use x="290.771484375" xlink:href="#BitstreamVeraSans-Roman-29"/>
     </g>
    </g>
   </g>
   <g id="matplotlib.axis_2">
    <g id="ytick_1">
     <g id="line2d_103">
      <defs>
       <path d="
M0 0
L4 0" id="m728421d6d4" style="stroke:#000000;stroke-width:0.5;"/>
      </defs>
      <g>
       <use style="stroke:#000000;stroke-width:0.5;" x="122.4" xlink:href="#m728421d6d4" y="388.8"/>
      </g>
     </g>
     <g id="line2d_104">
      <defs>
       <path d="
M0 0
L-4 0" id="mcb0005524f" style="stroke:#000000;stroke-width:0.5;"/>
      </defs>
      <g>
       <use style="stroke:#000000;stroke-width:0.5;" x="468.0" xlink:href="#mcb0005524f" y="388.8"/>
      </g>
     </g>
     <g id="text_9">
      <!-- −600 -->
      <g transform="translate(87.5075 392.11125)scale(0.12 -0.12)">
       <use xlink:href="#BitstreamVeraSans-Roman-2212"/>
       <use x="83.7890625" xlink:href="#BitstreamVeraSans-Roman-36"/>
       <use x="147.412109375" xlink:href="#BitstreamVeraSans-Roman-30"/>
       <use x="211.03515625" xlink:href="#BitstreamVeraSans-Roman-30"/>
      </g>
     </g>
    </g>
    <g id="ytick_2">
     <g id="line2d_105">
      <g>
       <use style="stroke:#000000;stroke-width:0.5;" x="122.4" xlink:href="#m728421d6d4" y="331.2"/>
      </g>
     </g>
     <g id="line2d_106">
      <g>
       <use style="stroke:#000000;stroke-width:0.5;" x="468.0" xlink:href="#mcb0005524f" y="331.2"/>
      </g>
     </g>
     <g id="text_10">
      <!-- −400 -->
      <g transform="translate(87.5075 334.51125)scale(0.12 -0.12)">
       <use xlink:href="#BitstreamVeraSans-Roman-2212"/>
       <use x="83.7890625" xlink:href="#BitstreamVeraSans-Roman-34"/>
       <use x="147.412109375" xlink:href="#BitstreamVeraSans-Roman-30"/>
       <use x="211.03515625" xlink:href="#BitstreamVeraSans-Roman-30"/>
      </g>
     </g>
    </g>
    <g id="ytick_3">
     <g id="line2d_107">
      <g>
       <use style="stroke:#000000;stroke-width:0.5;" x="122.4" xlink:href="#m728421d6d4" y="273.6"/>
      </g>
     </g>
     <g id="line2d_108">
      <g>
       <use style="stroke:#000000;stroke-width:0.5;" x="468.0" xlink:href="#mcb0005524f" y="273.6"/>
      </g>
     </g>
     <g id="text_11">
      <!-- −200 -->
      <g transform="translate(87.5075 276.91125)scale(0.12 -0.12)">
       <use xlink:href="#BitstreamVeraSans-Roman-2212"/>
       <use x="83.7890625" xlink:href="#BitstreamVeraSans-Roman-32"/>
       <use x="147.412109375" xlink:href="#BitstreamVeraSans-Roman-30"/>
       <use x="211.03515625" xlink:href="#BitstreamVeraSans-Roman-30"/>
      </g>
     </g>
    </g>
    <g id="ytick_4">
     <g id="line2d_109">
      <g>
       <use style="stroke:#000000;stroke-width:0.5;" x="122.4" xlink:href="#m728421d6d4" y="216.0"/>
      </g>
     </g>
     <g id="line2d_110">
      <g>
       <use style="stroke:#000000;stroke-width:0.5;" x="468.0" xlink:href="#mcb0005524f" y="216.0"/>
      </g>
     </g>
     <g id="text_12">
      <!-- 0 -->
      <g transform="translate(112.353125 219.31125)scale(0.12 -0.12)">
       <use xlink:href="#BitstreamVeraSans-Roman-30"/>
      </g>
     </g>
    </g>
    <g id="ytick_5">
     <g id="line2d_111">
      <g>
       <use style="stroke:#000000;stroke-width:0.5;" x="122.4" xlink:href="#m728421d6d4" y="158.4"/>
      </g>
     </g>
     <g id="line2d_112">
      <g>
       <use style="stroke:#000000;stroke-width:0.5;" x="468.0" xlink:href="#mcb0005524f" y="158.4"/>
      </g>
     </g>
     <g id="text_13">
      <!-- 200 -->
      <g transform="translate(97.17125 161.71125)scale(0.12 -0.12)">
       <use xlink:href="#BitstreamVeraSans-Roman-32"/>
       <use x="63.623046875" xlink:href="#BitstreamVeraSans-Roman-30"/>
       <use x="127.24609375" xlink:href="#BitstreamVeraSans-Roman-30"/>
      </g>
     </g>
    </g>
    <g id="ytick_6">
     <g id="line2d_113">
      <g>
       <use style="stroke:#000000;stroke-width:0.5;" x="122.4" xlink:href="#m728421d6d4" y="100.8"/>
      </g>
     </g>
     <g id="line2d_114">
      <g>
       <use style="stroke:#000000;stroke-width:0.5;" x="468.0" xlink:href="#mcb0005524f" y="100.8"/>
      </g>
     </g>
     <g id="text_14">
      <!-- 400 -->
      <g transform="translate(96.87875 104.11125)scale(0.12 -0.12)">
       <use xlink:href="#BitstreamVeraSans-Roman-34"/>
       <use x="63.623046875" xlink:href="#BitstreamVeraSans-Roman-30"/>
       <use x="127.24609375" xlink:href="#BitstreamVeraSans-Roman-30"/>
      </g>
     </g>
    </g>
    <g id="ytick_7">
     <g id="line2d_115">
      <g>
       <use style="stroke:#000000;stroke-width:0.5;" x="122.4" xlink:href="#m728421d6d4" y="43.2"/>
      </g>
     </g>
     <g id="line2d_116">
      <g>
       <use style="stroke:#000000;stroke-width:0.5;" x="468.0" xlink:href="#mcb0005524f" y="43.2"/>
      </g>
     </g>
     <g id="text_15">
      <!-- 600 -->
      <g transform="translate(97.13 46.51125)scale(0.12 -0.12)">
       <use xlink:href="#BitstreamVeraSans-Roman-36"/>
       <use x="63.623046875" xlink:href="#BitstreamVeraSans-Roman-30"/>
       <use x="127.24609375" xlink:href="#BitstreamVeraSans-Roman-30"/>
      </g>
     </g>
    </g>
    <g id="text_16">
     <!-- y (um) -->
     <defs>
      <path d="
M32.1719 -5.07812
Q28.375 -14.8438 24.75 -17.8125
Q21.1406 -20.7969 15.0938 -20.7969
L7.90625 -20.7969
L7.90625 -13.2812
L13.1875 -13.2812
Q16.8906 -13.2812 18.9375 -11.5156
Q21 -9.76562 23.4844 -3.21875
L25.0938 0.875
L2.98438 54.6875
L12.5 54.6875
L29.5938 11.9219
L46.6875 54.6875
L56.2031 54.6875
z
" id="BitstreamVeraSans-Roman-79"/>
     </defs>
     <g transform="translate(80.011875 235.27125)rotate(-90.0)scale(0.12 -0.12)">
      <use xlink:href="#BitstreamVeraSans-Roman-79"/>
      <use x="59.1796875" xlink:href="#BitstreamVeraSans-Roman-20"/>
      <use x="90.966796875" xlink:href="#BitstreamVeraSans-Roman-28"/>
      <use x="129.98046875" xlink:href="#BitstreamVeraSans-Roman-75"/>
      <use x="193.359375" xlink:href="#BitstreamVeraSans-Roman-6d"/>
      <use x="290.771484375" xlink:href="#BitstreamVeraSans-Roman-29"/>
     </g>
    </g>
   </g>
  </g>
 </g>
 <defs>
  <clipPath id="p23ab9b749c">
   <rect height="345.6" width="345.6" x="122.4" y="43.2"/>
  </clipPath>
 </defs>
</svg>
