<?xml version="1.0" encoding="utf-8" standalone="no"?>
<!DOCTYPE svg PUBLIC "-//W3C//DTD SVG 1.1//EN"
  "http://www.w3.org/Graphics/SVG/1.1/DTD/svg11.dtd">
<svg xmlns:xlink="http://www.w3.org/1999/xlink" width="460.8pt" height="345.6pt" viewBox="0 0 460.8 345.6" xmlns="http://www.w3.org/2000/svg" version="1.1">
 <metadata>
  <rdf:RDF xmlns:dc="http://purl.org/dc/elements/1.1/" xmlns:cc="http://creativecommons.org/ns#" xmlns:rdf="http://www.w3.org/1999/02/22-rdf-syntax-ns#">
   <cc:Work>
    <dc:type rdf:resource="http://purl.org/dc/dcmitype/StillImage"/>
    <dc:date>2026-03-27T12:49:53.629811</dc:date>
    <dc:format>image/svg+xml</dc:format>
    <dc:creator>
     <cc:Agent>
      <dc:title>Matplotlib v3.10.8, https://matplotlib.org/</dc:title>
     </cc:Agent>
    </dc:creator>
   </cc:Work>
  </rdf:RDF>
 </metadata>
 <defs>
  <style type="text/css">*{stroke-linejoin: round; stroke-linecap: butt}</style>
 </defs>
 <g id="figure_1">
  <g id="patch_1">
   <path d="M 0 345.6 
L 460.8 345.6 
L 460.8 0 
L 0 0 
z
" style="fill: #ffffff"/>
  </g>
  <g id="axes_1">
   <g id="patch_2">
    <path d="M 57.6 307.584 
L 414.72 307.584 
L 414.72 41.472 
L 57.6 41.472 
z
" style="fill: #ffffff"/>
   </g>
   <g id="matplotlib.axis_1"/>
   <g id="matplotlib.axis_2">
    <g id="ytick_1">
     <g id="line2d_1">
      <defs>
       <path id="mb99552575c" d="M 0 0 
L -3.5 0 
" style="stroke: #000000; stroke-width: 0.8"/>
      </defs>
      <g>
       <use xlink:href="#mb99552575c" x="57.6" y="295.488" style="stroke: #000000; stroke-width: 0.8"/>
      </g>
     </g>
     <g id="text_1">
      <!-- 0 -->
      <g transform="translate(44.2375 299.287219) scale(0.1 -0.1)">
       <defs>
        <path id="DejaVuSans-30" d="M 2034 4250 
Q 1547 4250 1301 3770 
Q 1056 3291 1056 2328 
Q 1056 1369 1301 889 
Q 1547 409 2034 409 
Q 2525 409 2770 889 
Q 3016 1369 3016 2328 
Q 3016 3291 2770 3770 
Q 2525 4250 2034 4250 
z
M 2034 4750 
Q 2819 4750 3233 4129 
Q 3647 3509 3647 2328 
Q 3647 1150 3233 529 
Q 2819 -91 2034 -91 
Q 1250 -91 836 529 
Q 422 1150 422 2328 
Q 422 3509 836 4129 
Q 1250 4750 2034 4750 
z
" transform="scale(0.015625)"/>
       </defs>
       <use xlink:href="#DejaVuSans-30"/>
      </g>
     </g>
    </g>
    <g id="ytick_2">
     <g id="line2d_2">
      <g>
       <use xlink:href="#mb99552575c" x="57.6" y="264.325509" style="stroke: #000000; stroke-width: 0.8"/>
      </g>
     </g>
     <g id="text_2">
      <!-- 100 -->
      <g transform="translate(31.5125 268.124728) scale(0.1 -0.1)">
       <defs>
        <path id="DejaVuSans-31" d="M 794 531 
L 1825 531 
L 1825 4091 
L 703 3866 
L 703 4441 
L 1819 4666 
L 2450 4666 
L 2450 531 
L 3481 531 
L 3481 0 
L 794 0 
L 794 531 
z
" transform="scale(0.015625)"/>
       </defs>
       <use xlink:href="#DejaVuSans-31"/>
       <use xlink:href="#DejaVuSans-30" transform="translate(63.623047 0)"/>
       <use xlink:href="#DejaVuSans-30" transform="translate(127.246094 0)"/>
      </g>
     </g>
    </g>
    <g id="ytick_3">
     <g id="line2d_3">
      <g>
       <use xlink:href="#mb99552575c" x="57.6" y="233.163018" style="stroke: #000000; stroke-width: 0.8"/>
      </g>
     </g>
     <g id="text_3">
      <!-- 200 -->
      <g transform="translate(31.5125 236.962237) scale(0.1 -0.1)">
       <defs>
        <path id="DejaVuSans-32" d="M 1228 531 
L 3431 531 
L 3431 0 
L 469 0 
L 469 531 
Q 828 903 1448 1529 
Q 2069 2156 2228 2338 
Q 2531 2678 2651 2914 
Q 2772 3150 2772 3378 
Q 2772 3750 2511 3984 
Q 2250 4219 1831 4219 
Q 1534 4219 1204 4116 
Q 875 4013 500 3803 
L 500 4441 
Q 881 4594 1212 4672 
Q 1544 4750 1819 4750 
Q 2544 4750 2975 4387 
Q 3406 4025 3406 3419 
Q 3406 3131 3298 2873 
Q 3191 2616 2906 2266 
Q 2828 2175 2409 1742 
Q 1991 1309 1228 531 
z
" transform="scale(0.015625)"/>
       </defs>
       <use xlink:href="#DejaVuSans-32"/>
       <use xlink:href="#DejaVuSans-30" transform="translate(63.623047 0)"/>
       <use xlink:href="#DejaVuSans-30" transform="translate(127.246094 0)"/>
      </g>
     </g>
    </g>
    <g id="ytick_4">
     <g id="line2d_4">
      <g>
       <use xlink:href="#mb99552575c" x="57.6" y="202.000527" style="stroke: #000000; stroke-width: 0.8"/>
      </g>
     </g>
     <g id="text_4">
      <!-- 300 -->
      <g transform="translate(31.5125 205.799746) scale(0.1 -0.1)">
       <defs>
        <path id="DejaVuSans-33" d="M 2597 2516 
Q 3050 2419 3304 2112 
Q 3559 1806 3559 1356 
Q 3559 666 3084 287 
Q 2609 -91 1734 -91 
Q 1441 -91 1130 -33 
Q 819 25 488 141 
L 488 750 
Q 750 597 1062 519 
Q 1375 441 1716 441 
Q 2309 441 2620 675 
Q 2931 909 2931 1356 
Q 2931 1769 2642 2001 
Q 2353 2234 1838 2234 
L 1294 2234 
L 1294 2753 
L 1863 2753 
Q 2328 2753 2575 2939 
Q 2822 3125 2822 3475 
Q 2822 3834 2567 4026 
Q 2313 4219 1838 4219 
Q 1578 4219 1281 4162 
Q 984 4106 628 3988 
L 628 4550 
Q 988 4650 1302 4700 
Q 1616 4750 1894 4750 
Q 2613 4750 3031 4423 
Q 3450 4097 3450 3541 
Q 3450 3153 3228 2886 
Q 3006 2619 2597 2516 
z
" transform="scale(0.015625)"/>
       </defs>
       <use xlink:href="#DejaVuSans-33"/>
       <use xlink:href="#DejaVuSans-30" transform="translate(63.623047 0)"/>
       <use xlink:href="#DejaVuSans-30" transform="translate(127.246094 0)"/>
      </g>
     </g>
    </g>
    <g id="ytick_5">
     <g id="line2d_5">
      <g>
       <use xlink:href="#mb99552575c" x="57.6" y="170.838036" style="stroke: #000000; stroke-width: 0.8"/>
      </g>
     </g>
     <g id="text_5">
      <!-- 400 -->
      <g transform="translate(31.5125 174.637255) scale(0.1 -0.1)">
       <defs>
        <path id="DejaVuSans-34" d="M 2419 4116 
L 825 1625 
L 2419 1625 
L 2419 4116 
z
M 2253 4666 
L 3047 4666 
L 3047 1625 
L 3713 1625 
L 3713 1100 
L 3047 1100 
L 3047 0 
L 2419 0 
L 2419 1100 
L 313 1100 
L 313 1709 
L 2253 4666 
z
" transform="scale(0.015625)"/>
       </defs>
       <use xlink:href="#DejaVuSans-34"/>
       <use xlink:href="#DejaVuSans-30" transform="translate(63.623047 0)"/>
       <use xlink:href="#DejaVuSans-30" transform="translate(127.246094 0)"/>
      </g>
     </g>
    </g>
    <g id="ytick_6">
     <g id="line2d_6">
      <g>
       <use xlink:href="#mb99552575c" x="57.6" y="139.675545" style="stroke: #000000; stroke-width: 0.8"/>
      </g>
     </g>
     <g id="text_6">
      <!-- 500 -->
      <g transform="translate(31.5125 143.474764) scale(0.1 -0.1)">
       <defs>
        <path id="DejaVuSans-35" d="M 691 4666 
L 3169 4666 
L 3169 4134 
L 1269 4134 
L 1269 2991 
Q 1406 3038 1543 3061 
Q 1681 3084 1819 3084 
Q 2600 3084 3056 2656 
Q 3513 2228 3513 1497 
Q 3513 744 3044 326 
Q 2575 -91 1722 -91 
Q 1428 -91 1123 -41 
Q 819 9 494 109 
L 494 744 
Q 775 591 1075 516 
Q 1375 441 1709 441 
Q 2250 441 2565 725 
Q 2881 1009 2881 1497 
Q 2881 1984 2565 2268 
Q 2250 2553 1709 2553 
Q 1456 2553 1204 2497 
Q 953 2441 691 2322 
L 691 4666 
z
" transform="scale(0.015625)"/>
       </defs>
       <use xlink:href="#DejaVuSans-35"/>
       <use xlink:href="#DejaVuSans-30" transform="translate(63.623047 0)"/>
       <use xlink:href="#DejaVuSans-30" transform="translate(127.246094 0)"/>
      </g>
     </g>
    </g>
    <g id="ytick_7">
     <g id="line2d_7">
      <g>
       <use xlink:href="#mb99552575c" x="57.6" y="108.513054" style="stroke: #000000; stroke-width: 0.8"/>
      </g>
     </g>
     <g id="text_7">
      <!-- 600 -->
      <g transform="translate(31.5125 112.312273) scale(0.1 -0.1)">
       <defs>
        <path id="DejaVuSans-36" d="M 2113 2584 
Q 1688 2584 1439 2293 
Q 1191 2003 1191 1497 
Q 1191 994 1439 701 
Q 1688 409 2113 409 
Q 2538 409 2786 701 
Q 3034 994 3034 1497 
Q 3034 2003 2786 2293 
Q 2538 2584 2113 2584 
z
M 3366 4563 
L 3366 3988 
Q 3128 4100 2886 4159 
Q 2644 4219 2406 4219 
Q 1781 4219 1451 3797 
Q 1122 3375 1075 2522 
Q 1259 2794 1537 2939 
Q 1816 3084 2150 3084 
Q 2853 3084 3261 2657 
Q 3669 2231 3669 1497 
Q 3669 778 3244 343 
Q 2819 -91 2113 -91 
Q 1303 -91 875 529 
Q 447 1150 447 2328 
Q 447 3434 972 4092 
Q 1497 4750 2381 4750 
Q 2619 4750 2861 4703 
Q 3103 4656 3366 4563 
z
" transform="scale(0.015625)"/>
       </defs>
       <use xlink:href="#DejaVuSans-36"/>
       <use xlink:href="#DejaVuSans-30" transform="translate(63.623047 0)"/>
       <use xlink:href="#DejaVuSans-30" transform="translate(127.246094 0)"/>
      </g>
     </g>
    </g>
    <g id="ytick_8">
     <g id="line2d_8">
      <g>
       <use xlink:href="#mb99552575c" x="57.6" y="77.350563" style="stroke: #000000; stroke-width: 0.8"/>
      </g>
     </g>
     <g id="text_8">
      <!-- 700 -->
      <g transform="translate(31.5125 81.149782) scale(0.1 -0.1)">
       <defs>
        <path id="DejaVuSans-37" d="M 525 4666 
L 3525 4666 
L 3525 4397 
L 1831 0 
L 1172 0 
L 2766 4134 
L 525 4134 
L 525 4666 
z
" transform="scale(0.015625)"/>
       </defs>
       <use xlink:href="#DejaVuSans-37"/>
       <use xlink:href="#DejaVuSans-30" transform="translate(63.623047 0)"/>
       <use xlink:href="#DejaVuSans-30" transform="translate(127.246094 0)"/>
      </g>
     </g>
    </g>
    <g id="ytick_9">
     <g id="line2d_9">
      <g>
       <use xlink:href="#mb99552575c" x="57.6" y="46.188072" style="stroke: #000000; stroke-width: 0.8"/>
      </g>
     </g>
     <g id="text_9">
      <!-- 800 -->
      <g transform="translate(31.5125 49.987291) scale(0.1 -0.1)">
       <defs>
        <path id="DejaVuSans-38" d="M 2034 2216 
Q 1584 2216 1326 1975 
Q 1069 1734 1069 1313 
Q 1069 891 1326 650 
Q 1584 409 2034 409 
Q 2484 409 2743 651 
Q 3003 894 3003 1313 
Q 3003 1734 2745 1975 
Q 2488 2216 2034 2216 
z
M 1403 2484 
Q 997 2584 770 2862 
Q 544 3141 544 3541 
Q 544 4100 942 4425 
Q 1341 4750 2034 4750 
Q 2731 4750 3128 4425 
Q 3525 4100 3525 3541 
Q 3525 3141 3298 2862 
Q 3072 2584 2669 2484 
Q 3125 2378 3379 2068 
Q 3634 1759 3634 1313 
Q 3634 634 3220 271 
Q 2806 -91 2034 -91 
Q 1263 -91 848 271 
Q 434 634 434 1313 
Q 434 1759 690 2068 
Q 947 2378 1403 2484 
z
M 1172 3481 
Q 1172 3119 1398 2916 
Q 1625 2713 2034 2713 
Q 2441 2713 2670 2916 
Q 2900 3119 2900 3481 
Q 2900 3844 2670 4047 
Q 2441 4250 2034 4250 
Q 1625 4250 1398 4047 
Q 1172 3844 1172 3481 
z
" transform="scale(0.015625)"/>
       </defs>
       <use xlink:href="#DejaVuSans-38"/>
       <use xlink:href="#DejaVuSans-30" transform="translate(63.623047 0)"/>
       <use xlink:href="#DejaVuSans-30" transform="translate(127.246094 0)"/>
      </g>
     </g>
    </g>
    <g id="text_10">
     <!-- distance from root (um) -->
     <g transform="translate(25.432812 234.077219) rotate(-90) scale(0.1 -0.1)">
      <defs>
       <path id="DejaVuSans-64" d="M 2906 2969 
L 2906 4863 
L 3481 4863 
L 3481 0 
L 2906 0 
L 2906 525 
Q 2725 213 2448 61 
Q 2172 -91 1784 -91 
Q 1150 -91 751 415 
Q 353 922 353 1747 
Q 353 2572 751 3078 
Q 1150 3584 1784 3584 
Q 2172 3584 2448 3432 
Q 2725 3281 2906 2969 
z
M 947 1747 
Q 947 1113 1208 752 
Q 1469 391 1925 391 
Q 2381 391 2643 752 
Q 2906 1113 2906 1747 
Q 2906 2381 2643 2742 
Q 2381 3103 1925 3103 
Q 1469 3103 1208 2742 
Q 947 2381 947 1747 
z
" transform="scale(0.015625)"/>
       <path id="DejaVuSans-69" d="M 603 3500 
L 1178 3500 
L 1178 0 
L 603 0 
L 603 3500 
z
M 603 4863 
L 1178 4863 
L 1178 4134 
L 603 4134 
L 603 4863 
z
" transform="scale(0.015625)"/>
       <path id="DejaVuSans-73" d="M 2834 3397 
L 2834 2853 
Q 2591 2978 2328 3040 
Q 2066 3103 1784 3103 
Q 1356 3103 1142 2972 
Q 928 2841 928 2578 
Q 928 2378 1081 2264 
Q 1234 2150 1697 2047 
L 1894 2003 
Q 2506 1872 2764 1633 
Q 3022 1394 3022 966 
Q 3022 478 2636 193 
Q 2250 -91 1575 -91 
Q 1294 -91 989 -36 
Q 684 19 347 128 
L 347 722 
Q 666 556 975 473 
Q 1284 391 1588 391 
Q 1994 391 2212 530 
Q 2431 669 2431 922 
Q 2431 1156 2273 1281 
Q 2116 1406 1581 1522 
L 1381 1569 
Q 847 1681 609 1914 
Q 372 2147 372 2553 
Q 372 3047 722 3315 
Q 1072 3584 1716 3584 
Q 2034 3584 2315 3537 
Q 2597 3491 2834 3397 
z
" transform="scale(0.015625)"/>
       <path id="DejaVuSans-74" d="M 1172 4494 
L 1172 3500 
L 2356 3500 
L 2356 3053 
L 1172 3053 
L 1172 1153 
Q 1172 725 1289 603 
Q 1406 481 1766 481 
L 2356 481 
L 2356 0 
L 1766 0 
Q 1100 0 847 248 
Q 594 497 594 1153 
L 594 3053 
L 172 3053 
L 172 3500 
L 594 3500 
L 594 4494 
L 1172 4494 
z
" transform="scale(0.015625)"/>
       <path id="DejaVuSans-61" d="M 2194 1759 
Q 1497 1759 1228 1600 
Q 959 1441 959 1056 
Q 959 750 1161 570 
Q 1363 391 1709 391 
Q 2188 391 2477 730 
Q 2766 1069 2766 1631 
L 2766 1759 
L 2194 1759 
z
M 3341 1997 
L 3341 0 
L 2766 0 
L 2766 531 
Q 2569 213 2275 61 
Q 1981 -91 1556 -91 
Q 1019 -91 701 211 
Q 384 513 384 1019 
Q 384 1609 779 1909 
Q 1175 2209 1959 2209 
L 2766 2209 
L 2766 2266 
Q 2766 2663 2505 2880 
Q 2244 3097 1772 3097 
Q 1472 3097 1187 3025 
Q 903 2953 641 2809 
L 641 3341 
Q 956 3463 1253 3523 
Q 1550 3584 1831 3584 
Q 2591 3584 2966 3190 
Q 3341 2797 3341 1997 
z
" transform="scale(0.015625)"/>
       <path id="DejaVuSans-6e" d="M 3513 2113 
L 3513 0 
L 2938 0 
L 2938 2094 
Q 2938 2591 2744 2837 
Q 2550 3084 2163 3084 
Q 1697 3084 1428 2787 
Q 1159 2491 1159 1978 
L 1159 0 
L 581 0 
L 581 3500 
L 1159 3500 
L 1159 2956 
Q 1366 3272 1645 3428 
Q 1925 3584 2291 3584 
Q 2894 3584 3203 3211 
Q 3513 2838 3513 2113 
z
" transform="scale(0.015625)"/>
       <path id="DejaVuSans-63" d="M 3122 3366 
L 3122 2828 
Q 2878 2963 2633 3030 
Q 2388 3097 2138 3097 
Q 1578 3097 1268 2742 
Q 959 2388 959 1747 
Q 959 1106 1268 751 
Q 1578 397 2138 397 
Q 2388 397 2633 464 
Q 2878 531 3122 666 
L 3122 134 
Q 2881 22 2623 -34 
Q 2366 -91 2075 -91 
Q 1284 -91 818 406 
Q 353 903 353 1747 
Q 353 2603 823 3093 
Q 1294 3584 2113 3584 
Q 2378 3584 2631 3529 
Q 2884 3475 3122 3366 
z
" transform="scale(0.015625)"/>
       <path id="DejaVuSans-65" d="M 3597 1894 
L 3597 1613 
L 953 1613 
Q 991 1019 1311 708 
Q 1631 397 2203 397 
Q 2534 397 2845 478 
Q 3156 559 3463 722 
L 3463 178 
Q 3153 47 2828 -22 
Q 2503 -91 2169 -91 
Q 1331 -91 842 396 
Q 353 884 353 1716 
Q 353 2575 817 3079 
Q 1281 3584 2069 3584 
Q 2775 3584 3186 3129 
Q 3597 2675 3597 1894 
z
M 3022 2063 
Q 3016 2534 2758 2815 
Q 2500 3097 2075 3097 
Q 1594 3097 1305 2825 
Q 1016 2553 972 2059 
L 3022 2063 
z
" transform="scale(0.015625)"/>
       <path id="DejaVuSans-20" transform="scale(0.015625)"/>
       <path id="DejaVuSans-66" d="M 2375 4863 
L 2375 4384 
L 1825 4384 
Q 1516 4384 1395 4259 
Q 1275 4134 1275 3809 
L 1275 3500 
L 2222 3500 
L 2222 3053 
L 1275 3053 
L 1275 0 
L 697 0 
L 697 3053 
L 147 3053 
L 147 3500 
L 697 3500 
L 697 3744 
Q 697 4328 969 4595 
Q 1241 4863 1831 4863 
L 2375 4863 
z
" transform="scale(0.015625)"/>
       <path id="DejaVuSans-72" d="M 2631 2963 
Q 2534 3019 2420 3045 
Q 2306 3072 2169 3072 
Q 1681 3072 1420 2755 
Q 1159 2438 1159 1844 
L 1159 0 
L 581 0 
L 581 3500 
L 1159 3500 
L 1159 2956 
Q 1341 3275 1631 3429 
Q 1922 3584 2338 3584 
Q 2397 3584 2469 3576 
Q 2541 3569 2628 3553 
L 2631 2963 
z
" transform="scale(0.015625)"/>
       <path id="DejaVuSans-6f" d="M 1959 3097 
Q 1497 3097 1228 2736 
Q 959 2375 959 1747 
Q 959 1119 1226 758 
Q 1494 397 1959 397 
Q 2419 397 2687 759 
Q 2956 1122 2956 1747 
Q 2956 2369 2687 2733 
Q 2419 3097 1959 3097 
z
M 1959 3584 
Q 2709 3584 3137 3096 
Q 3566 2609 3566 1747 
Q 3566 888 3137 398 
Q 2709 -91 1959 -91 
Q 1206 -91 779 398 
Q 353 888 353 1747 
Q 353 2609 779 3096 
Q 1206 3584 1959 3584 
z
" transform="scale(0.015625)"/>
       <path id="DejaVuSans-6d" d="M 3328 2828 
Q 3544 3216 3844 3400 
Q 4144 3584 4550 3584 
Q 5097 3584 5394 3201 
Q 5691 2819 5691 2113 
L 5691 0 
L 5113 0 
L 5113 2094 
Q 5113 2597 4934 2840 
Q 4756 3084 4391 3084 
Q 3944 3084 3684 2787 
Q 3425 2491 3425 1978 
L 3425 0 
L 2847 0 
L 2847 2094 
Q 2847 2600 2669 2842 
Q 2491 3084 2119 3084 
Q 1678 3084 1418 2786 
Q 1159 2488 1159 1978 
L 1159 0 
L 581 0 
L 581 3500 
L 1159 3500 
L 1159 2956 
Q 1356 3278 1631 3431 
Q 1906 3584 2284 3584 
Q 2666 3584 2933 3390 
Q 3200 3197 3328 2828 
z
" transform="scale(0.015625)"/>
       <path id="DejaVuSans-28" d="M 1984 4856 
Q 1566 4138 1362 3434 
Q 1159 2731 1159 2009 
Q 1159 1288 1364 580 
Q 1569 -128 1984 -844 
L 1484 -844 
Q 1016 -109 783 600 
Q 550 1309 550 2009 
Q 550 2706 781 3412 
Q 1013 4119 1484 4856 
L 1984 4856 
z
" transform="scale(0.015625)"/>
       <path id="DejaVuSans-75" d="M 544 1381 
L 544 3500 
L 1119 3500 
L 1119 1403 
Q 1119 906 1312 657 
Q 1506 409 1894 409 
Q 2359 409 2629 706 
Q 2900 1003 2900 1516 
L 2900 3500 
L 3475 3500 
L 3475 0 
L 2900 0 
L 2900 538 
Q 2691 219 2414 64 
Q 2138 -91 1772 -91 
Q 1169 -91 856 284 
Q 544 659 544 1381 
z
M 1991 3584 
L 1991 3584 
z
" transform="scale(0.015625)"/>
       <path id="DejaVuSans-29" d="M 513 4856 
L 1013 4856 
Q 1481 4119 1714 3412 
Q 1947 2706 1947 2009 
Q 1947 1309 1714 600 
Q 1481 -109 1013 -844 
L 513 -844 
Q 928 -128 1133 580 
Q 1338 1288 1338 2009 
Q 1338 2731 1133 3434 
Q 928 4138 513 4856 
z
" transform="scale(0.015625)"/>
      </defs>
      <use xlink:href="#DejaVuSans-64"/>
      <use xlink:href="#DejaVuSans-69" transform="translate(63.476562 0)"/>
      <use xlink:href="#DejaVuSans-73" transform="translate(91.259766 0)"/>
      <use xlink:href="#DejaVuSans-74" transform="translate(143.359375 0)"/>
      <use xlink:href="#DejaVuSans-61" transform="translate(182.568359 0)"/>
      <use xlink:href="#DejaVuSans-6e" transform="translate(243.847656 0)"/>
      <use xlink:href="#DejaVuSans-63" transform="translate(307.226562 0)"/>
      <use xlink:href="#DejaVuSans-65" transform="translate(362.207031 0)"/>
      <use xlink:href="#DejaVuSans-20" transform="translate(423.730469 0)"/>
      <use xlink:href="#DejaVuSans-66" transform="translate(455.517578 0)"/>
      <use xlink:href="#DejaVuSans-72" transform="translate(490.722656 0)"/>
      <use xlink:href="#DejaVuSans-6f" transform="translate(529.585938 0)"/>
      <use xlink:href="#DejaVuSans-6d" transform="translate(590.767578 0)"/>
      <use xlink:href="#DejaVuSans-20" transform="translate(688.179688 0)"/>
      <use xlink:href="#DejaVuSans-72" transform="translate(719.966797 0)"/>
      <use xlink:href="#DejaVuSans-6f" transform="translate(758.830078 0)"/>
      <use xlink:href="#DejaVuSans-6f" transform="translate(820.011719 0)"/>
      <use xlink:href="#DejaVuSans-74" transform="translate(881.193359 0)"/>
      <use xlink:href="#DejaVuSans-20" transform="translate(920.402344 0)"/>
      <use xlink:href="#DejaVuSans-28" transform="translate(952.189453 0)"/>
      <use xlink:href="#DejaVuSans-75" transform="translate(991.203125 0)"/>
      <use xlink:href="#DejaVuSans-6d" transform="translate(1054.582031 0)"/>
      <use xlink:href="#DejaVuSans-29" transform="translate(1151.994141 0)"/>
     </g>
    </g>
   </g>
   <g id="line2d_10">
    <path d="M 236.16 295.488 
" style="fill: none; stroke: #ff0000; stroke-opacity: 0.7; stroke-width: 1.5; stroke-linecap: square"/>
    <defs>
     <path id="mb7d21125bf" d="M 0 3 
C 0.795609 3 1.55874 2.683901 2.12132 2.12132 
C 2.683901 1.55874 3 0.795609 3 0 
C 3 -0.795609 2.683901 -1.55874 2.12132 -2.12132 
C 1.55874 -2.683901 0.795609 -3 0 -3 
C -0.795609 -3 -1.55874 -2.683901 -2.12132 -2.12132 
C -2.683901 -1.55874 -3 -0.795609 -3 0 
C -3 0.795609 -2.683901 1.55874 -2.12132 2.12132 
C -1.55874 2.683901 -0.795609 3 0 3 
z
" style="stroke: #ff0000; stroke-opacity: 0.7"/>
    </defs>
    <g>
     <use xlink:href="#mb7d21125bf" x="236.16" y="295.488" style="fill: #ff0000; fill-opacity: 0.7; stroke: #ff0000; stroke-opacity: 0.7"/>
    </g>
   </g>
   <g id="LineCollection_1">
    <path d="M 232.360851 295.488 
L 232.360851 293.301963 
" style="fill: none; stroke: #ff0000; stroke-opacity: 0.7; stroke-width: 2"/>
    <path d="M 407.121702 295.488 
L 407.121702 292.214861 
" style="fill: none; stroke: #ff0000; stroke-opacity: 0.7; stroke-width: 2"/>
   </g>
   <g id="LineCollection_2">
    <path d="M 232.360851 295.488 
L 407.121702 295.488 
" clip-path="url(#p7c07993ce7)" style="fill: none; stroke: #ff0000; stroke-opacity: 0.7; stroke-width: 2"/>
   </g>
   <g id="LineCollection_3">
    <path d="M 175.373617 293.301963 
L 175.373617 286.176975 
" style="fill: none; stroke: #ff0000; stroke-opacity: 0.7; stroke-width: 2"/>
    <path d="M 80.394894 293.301963 
L 80.394894 288.132833 
" style="fill: none; stroke: #ff0000; stroke-opacity: 0.7; stroke-width: 2"/>
    <path d="M 289.348085 293.301963 
L 289.348085 285.574018 
" style="fill: none; stroke: #ff0000; stroke-opacity: 0.7; stroke-width: 2"/>
    <path d="M 391.925106 293.301963 
L 391.925106 279.411914 
" style="fill: none; stroke: #ff0000; stroke-opacity: 0.7; stroke-width: 2"/>
    <path d="M 353.933617 293.301963 
L 353.933617 280.658047 
" style="fill: none; stroke: #ff0000; stroke-opacity: 0.7; stroke-width: 2"/>
   </g>
   <g id="LineCollection_4">
    <path d="M 80.394894 293.301963 
L 391.925106 293.301963 
" clip-path="url(#p7c07993ce7)" style="fill: none; stroke: #ff0000; stroke-opacity: 0.7; stroke-width: 2"/>
   </g>
   <g id="LineCollection_5">
    <path d="M 125.984681 286.176975 
L 125.984681 283.489528 
" style="fill: none; stroke: #ff0000; stroke-opacity: 0.7; stroke-width: 2"/>
    <path d="M 201.96766 286.176975 
L 201.96766 280.249274 
" style="fill: none; stroke: #ff0000; stroke-opacity: 0.7; stroke-width: 2"/>
   </g>
   <g id="LineCollection_6">
    <path d="M 125.984681 286.176975 
L 201.96766 286.176975 
" clip-path="url(#p7c07993ce7)" style="fill: none; stroke: #ff0000; stroke-opacity: 0.7; stroke-width: 2"/>
   </g>
   <g id="LineCollection_7">
    <path d="M 141.181277 283.489528 
L 141.181277 265.294757 
" style="fill: none; stroke: #ff0000; stroke-opacity: 0.7; stroke-width: 2"/>
    <path d="M 114.587234 283.489528 
L 114.587234 272.470388 
" style="fill: none; stroke: #ff0000; stroke-opacity: 0.7; stroke-width: 2"/>
   </g>
   <g id="LineCollection_8">
    <path d="M 114.587234 283.489528 
L 141.181277 283.489528 
" clip-path="url(#p7c07993ce7)" style="fill: none; stroke: #ff0000; stroke-opacity: 0.7; stroke-width: 2"/>
   </g>
   <g id="LineCollection_9">
    <path d="M 148.779574 265.294757 
L 148.779574 230.739181 
" style="fill: none; stroke: #ff0000; stroke-opacity: 0.7; stroke-width: 2"/>
    <path d="M 137.382128 265.294757 
L 137.382128 251.580768 
" style="fill: none; stroke: #ff0000; stroke-opacity: 0.7; stroke-width: 2"/>
   </g>
   <g id="LineCollection_10">
    <path d="M 137.382128 265.294757 
L 148.779574 265.294757 
" clip-path="url(#p7c07993ce7)" style="fill: none; stroke: #ff0000; stroke-opacity: 0.7; stroke-width: 2"/>
   </g>
   <g id="LineCollection_11">
    <path d="M 133.582979 251.580768 
L 133.582979 246.252617 
" style="fill: none; stroke: #ff0000; stroke-opacity: 0.7; stroke-width: 2"/>
    <path d="M 141.181277 251.580768 
L 141.181277 241.862495 
" style="fill: none; stroke: #ff0000; stroke-opacity: 0.7; stroke-width: 2"/>
   </g>
   <g id="LineCollection_12">
    <path d="M 133.582979 251.580768 
L 141.181277 251.580768 
" clip-path="url(#p7c07993ce7)" style="fill: none; stroke: #ff0000; stroke-opacity: 0.7; stroke-width: 2"/>
   </g>
   <g id="LineCollection_13">
    <path d="M 122.185532 272.470388 
L 122.185532 263.915212 
" style="fill: none; stroke: #ff0000; stroke-opacity: 0.7; stroke-width: 2"/>
    <path d="M 106.988936 272.470388 
L 106.988936 270.234059 
" style="fill: none; stroke: #ff0000; stroke-opacity: 0.7; stroke-width: 2"/>
   </g>
   <g id="LineCollection_14">
    <path d="M 106.988936 272.470388 
L 122.185532 272.470388 
" clip-path="url(#p7c07993ce7)" style="fill: none; stroke: #ff0000; stroke-opacity: 0.7; stroke-width: 2"/>
   </g>
   <g id="LineCollection_15">
    <path d="M 118.386383 263.915212 
L 118.386383 235.691491 
" style="fill: none; stroke: #ff0000; stroke-opacity: 0.7; stroke-width: 2"/>
    <path d="M 125.984681 263.915212 
L 125.984681 213.974812 
" style="fill: none; stroke: #ff0000; stroke-opacity: 0.7; stroke-width: 2"/>
   </g>
   <g id="LineCollection_16">
    <path d="M 118.386383 263.915212 
L 125.984681 263.915212 
" clip-path="url(#p7c07993ce7)" style="fill: none; stroke: #ff0000; stroke-opacity: 0.7; stroke-width: 2"/>
   </g>
   <g id="LineCollection_17">
    <path d="M 103.189787 270.234059 
L 103.189787 223.064746 
" style="fill: none; stroke: #ff0000; stroke-opacity: 0.7; stroke-width: 2"/>
    <path d="M 110.788085 270.234059 
L 110.788085 53.568 
" style="fill: none; stroke: #ff0000; stroke-opacity: 0.7; stroke-width: 2"/>
   </g>
   <g id="LineCollection_18">
    <path d="M 103.189787 270.234059 
L 110.788085 270.234059 
" clip-path="url(#p7c07993ce7)" style="fill: none; stroke: #ff0000; stroke-opacity: 0.7; stroke-width: 2"/>
   </g>
   <g id="LineCollection_19">
    <path d="M 163.97617 280.249274 
L 163.97617 278.193967 
" style="fill: none; stroke: #ff0000; stroke-opacity: 0.7; stroke-width: 2"/>
    <path d="M 213.365106 280.249274 
L 213.365106 275.092641 
" style="fill: none; stroke: #ff0000; stroke-opacity: 0.7; stroke-width: 2"/>
   </g>
   <g id="LineCollection_20">
    <path d="M 163.97617 280.249274 
L 213.365106 280.249274 
" clip-path="url(#p7c07993ce7)" style="fill: none; stroke: #ff0000; stroke-opacity: 0.7; stroke-width: 2"/>
   </g>
   <g id="LineCollection_21">
    <path d="M 160.177021 278.193967 
L 160.177021 267.203529 
" style="fill: none; stroke: #ff0000; stroke-opacity: 0.7; stroke-width: 2"/>
    <path d="M 171.574468 278.193967 
L 171.574468 203.529755 
" style="fill: none; stroke: #ff0000; stroke-opacity: 0.7; stroke-width: 2"/>
   </g>
   <g id="LineCollection_22">
    <path d="M 160.177021 278.193967 
L 171.574468 278.193967 
" clip-path="url(#p7c07993ce7)" style="fill: none; stroke: #ff0000; stroke-opacity: 0.7; stroke-width: 2"/>
   </g>
   <g id="LineCollection_23">
    <path d="M 156.377872 267.203529 
L 156.377872 243.098215 
" style="fill: none; stroke: #ff0000; stroke-opacity: 0.7; stroke-width: 2"/>
    <path d="M 163.97617 267.203529 
L 163.97617 231.945101 
" style="fill: none; stroke: #ff0000; stroke-opacity: 0.7; stroke-width: 2"/>
   </g>
   <g id="LineCollection_24">
    <path d="M 156.377872 267.203529 
L 163.97617 267.203529 
" clip-path="url(#p7c07993ce7)" style="fill: none; stroke: #ff0000; stroke-opacity: 0.7; stroke-width: 2"/>
   </g>
   <g id="LineCollection_25">
    <path d="M 239.959149 275.092641 
L 239.959149 266.065274 
" style="fill: none; stroke: #ff0000; stroke-opacity: 0.7; stroke-width: 2"/>
    <path d="M 201.96766 275.092641 
L 201.96766 269.603027 
" style="fill: none; stroke: #ff0000; stroke-opacity: 0.7; stroke-width: 2"/>
   </g>
   <g id="LineCollection_26">
    <path d="M 201.96766 275.092641 
L 239.959149 275.092641 
" clip-path="url(#p7c07993ce7)" style="fill: none; stroke: #ff0000; stroke-opacity: 0.7; stroke-width: 2"/>
   </g>
   <g id="LineCollection_27">
    <path d="M 232.360851 266.065274 
L 232.360851 251.849279 
" style="fill: none; stroke: #ff0000; stroke-opacity: 0.7; stroke-width: 2"/>
    <path d="M 243.758298 266.065274 
L 243.758298 236.664342 
" style="fill: none; stroke: #ff0000; stroke-opacity: 0.7; stroke-width: 2"/>
   </g>
   <g id="LineCollection_28">
    <path d="M 232.360851 266.065274 
L 243.758298 266.065274 
" clip-path="url(#p7c07993ce7)" style="fill: none; stroke: #ff0000; stroke-opacity: 0.7; stroke-width: 2"/>
   </g>
   <g id="LineCollection_29">
    <path d="M 247.557447 236.664342 
L 247.557447 218.692628 
" style="fill: none; stroke: #ff0000; stroke-opacity: 0.7; stroke-width: 2"/>
    <path d="M 239.959149 236.664342 
L 239.959149 224.392665 
" style="fill: none; stroke: #ff0000; stroke-opacity: 0.7; stroke-width: 2"/>
   </g>
   <g id="LineCollection_30">
    <path d="M 239.959149 236.664342 
L 247.557447 236.664342 
" clip-path="url(#p7c07993ce7)" style="fill: none; stroke: #ff0000; stroke-opacity: 0.7; stroke-width: 2"/>
   </g>
   <g id="LineCollection_31">
    <path d="M 224.762553 269.603027 
L 224.762553 215.595942 
" style="fill: none; stroke: #ff0000; stroke-opacity: 0.7; stroke-width: 2"/>
    <path d="M 198.168511 269.603027 
L 198.168511 254.080982 
" style="fill: none; stroke: #ff0000; stroke-opacity: 0.7; stroke-width: 2"/>
   </g>
   <g id="LineCollection_32">
    <path d="M 198.168511 269.603027 
L 224.762553 269.603027 
" clip-path="url(#p7c07993ce7)" style="fill: none; stroke: #ff0000; stroke-opacity: 0.7; stroke-width: 2"/>
   </g>
   <g id="LineCollection_33">
    <path d="M 213.365106 254.080982 
L 213.365106 236.226683 
" style="fill: none; stroke: #ff0000; stroke-opacity: 0.7; stroke-width: 2"/>
    <path d="M 190.570213 254.080982 
L 190.570213 240.833395 
" style="fill: none; stroke: #ff0000; stroke-opacity: 0.7; stroke-width: 2"/>
   </g>
   <g id="LineCollection_34">
    <path d="M 190.570213 254.080982 
L 213.365106 254.080982 
" clip-path="url(#p7c07993ce7)" style="fill: none; stroke: #ff0000; stroke-opacity: 0.7; stroke-width: 2"/>
   </g>
   <g id="LineCollection_35">
    <path d="M 209.565957 236.226683 
L 209.565957 224.990442 
" style="fill: none; stroke: #ff0000; stroke-opacity: 0.7; stroke-width: 2"/>
    <path d="M 217.164255 236.226683 
L 217.164255 156.866451 
" style="fill: none; stroke: #ff0000; stroke-opacity: 0.7; stroke-width: 2"/>
   </g>
   <g id="LineCollection_36">
    <path d="M 209.565957 236.226683 
L 217.164255 236.226683 
" clip-path="url(#p7c07993ce7)" style="fill: none; stroke: #ff0000; stroke-opacity: 0.7; stroke-width: 2"/>
   </g>
   <g id="LineCollection_37">
    <path d="M 201.96766 240.833395 
L 201.96766 197.110482 
" style="fill: none; stroke: #ff0000; stroke-opacity: 0.7; stroke-width: 2"/>
    <path d="M 186.771064 240.833395 
L 186.771064 209.509931 
" style="fill: none; stroke: #ff0000; stroke-opacity: 0.7; stroke-width: 2"/>
   </g>
   <g id="LineCollection_38">
    <path d="M 186.771064 240.833395 
L 201.96766 240.833395 
" clip-path="url(#p7c07993ce7)" style="fill: none; stroke: #ff0000; stroke-opacity: 0.7; stroke-width: 2"/>
   </g>
   <g id="LineCollection_39">
    <path d="M 190.570213 209.509931 
L 190.570213 162.99297 
" style="fill: none; stroke: #ff0000; stroke-opacity: 0.7; stroke-width: 2"/>
    <path d="M 179.172766 209.509931 
L 179.172766 169.057407 
" style="fill: none; stroke: #ff0000; stroke-opacity: 0.7; stroke-width: 2"/>
   </g>
   <g id="LineCollection_40">
    <path d="M 179.172766 209.509931 
L 190.570213 209.509931 
" clip-path="url(#p7c07993ce7)" style="fill: none; stroke: #ff0000; stroke-opacity: 0.7; stroke-width: 2"/>
   </g>
   <g id="LineCollection_41">
    <path d="M 194.369362 162.99297 
L 194.369362 140.001456 
" style="fill: none; stroke: #ff0000; stroke-opacity: 0.7; stroke-width: 2"/>
    <path d="M 186.771064 162.99297 
L 186.771064 151.831438 
" style="fill: none; stroke: #ff0000; stroke-opacity: 0.7; stroke-width: 2"/>
   </g>
   <g id="LineCollection_42">
    <path d="M 186.771064 162.99297 
L 194.369362 162.99297 
" clip-path="url(#p7c07993ce7)" style="fill: none; stroke: #ff0000; stroke-opacity: 0.7; stroke-width: 2"/>
   </g>
   <g id="LineCollection_43">
    <path d="M 91.79234 288.132833 
L 91.79234 277.161117 
" style="fill: none; stroke: #ff0000; stroke-opacity: 0.7; stroke-width: 2"/>
    <path d="M 72.796596 288.132833 
L 72.796596 287.087611 
" style="fill: none; stroke: #ff0000; stroke-opacity: 0.7; stroke-width: 2"/>
   </g>
   <g id="LineCollection_44">
    <path d="M 72.796596 288.132833 
L 91.79234 288.132833 
" clip-path="url(#p7c07993ce7)" style="fill: none; stroke: #ff0000; stroke-opacity: 0.7; stroke-width: 2"/>
   </g>
   <g id="LineCollection_45">
    <path d="M 95.591489 277.161117 
L 95.591489 229.468233 
" style="fill: none; stroke: #ff0000; stroke-opacity: 0.7; stroke-width: 2"/>
    <path d="M 87.993191 277.161117 
L 87.993191 273.221512 
" style="fill: none; stroke: #ff0000; stroke-opacity: 0.7; stroke-width: 2"/>
   </g>
   <g id="LineCollection_46">
    <path d="M 87.993191 277.161117 
L 95.591489 277.161117 
" clip-path="url(#p7c07993ce7)" style="fill: none; stroke: #ff0000; stroke-opacity: 0.7; stroke-width: 2"/>
   </g>
   <g id="LineCollection_47">
    <path d="M 80.394894 287.087611 
L 80.394894 273.01285 
" style="fill: none; stroke: #ff0000; stroke-opacity: 0.7; stroke-width: 2"/>
    <path d="M 68.997447 287.087611 
L 68.997447 285.802749 
" style="fill: none; stroke: #ff0000; stroke-opacity: 0.7; stroke-width: 2"/>
   </g>
   <g id="LineCollection_48">
    <path d="M 68.997447 287.087611 
L 80.394894 287.087611 
" clip-path="url(#p7c07993ce7)" style="fill: none; stroke: #ff0000; stroke-opacity: 0.7; stroke-width: 2"/>
   </g>
   <g id="LineCollection_49">
    <path d="M 65.198298 285.802749 
L 65.198298 257.694584 
" style="fill: none; stroke: #ff0000; stroke-opacity: 0.7; stroke-width: 2"/>
    <path d="M 72.796596 285.802749 
L 72.796596 234.569469 
" style="fill: none; stroke: #ff0000; stroke-opacity: 0.7; stroke-width: 2"/>
   </g>
   <g id="LineCollection_50">
    <path d="M 65.198298 285.802749 
L 72.796596 285.802749 
" clip-path="url(#p7c07993ce7)" style="fill: none; stroke: #ff0000; stroke-opacity: 0.7; stroke-width: 2"/>
   </g>
   <g id="LineCollection_51">
    <path d="M 312.142979 285.574018 
L 312.142979 270.862656 
" style="fill: none; stroke: #ff0000; stroke-opacity: 0.7; stroke-width: 2"/>
    <path d="M 274.151489 285.574018 
L 274.151489 283.14697 
" style="fill: none; stroke: #ff0000; stroke-opacity: 0.7; stroke-width: 2"/>
   </g>
   <g id="LineCollection_52">
    <path d="M 274.151489 285.574018 
L 312.142979 285.574018 
" clip-path="url(#p7c07993ce7)" style="fill: none; stroke: #ff0000; stroke-opacity: 0.7; stroke-width: 2"/>
   </g>
   <g id="LineCollection_53">
    <path d="M 323.540426 270.862656 
L 323.540426 242.063131 
" style="fill: none; stroke: #ff0000; stroke-opacity: 0.7; stroke-width: 2"/>
    <path d="M 308.34383 270.862656 
L 308.34383 267.885863 
" style="fill: none; stroke: #ff0000; stroke-opacity: 0.7; stroke-width: 2"/>
   </g>
   <g id="LineCollection_54">
    <path d="M 308.34383 270.862656 
L 323.540426 270.862656 
" clip-path="url(#p7c07993ce7)" style="fill: none; stroke: #ff0000; stroke-opacity: 0.7; stroke-width: 2"/>
   </g>
   <g id="LineCollection_55">
    <path d="M 304.544681 267.885863 
L 304.544681 255.736044 
" style="fill: none; stroke: #ff0000; stroke-opacity: 0.7; stroke-width: 2"/>
    <path d="M 315.942128 267.885863 
L 315.942128 232.967064 
" style="fill: none; stroke: #ff0000; stroke-opacity: 0.7; stroke-width: 2"/>
   </g>
   <g id="LineCollection_56">
    <path d="M 304.544681 267.885863 
L 315.942128 267.885863 
" clip-path="url(#p7c07993ce7)" style="fill: none; stroke: #ff0000; stroke-opacity: 0.7; stroke-width: 2"/>
   </g>
   <g id="LineCollection_57">
    <path d="M 308.34383 255.736044 
L 308.34383 230.344892 
" style="fill: none; stroke: #ff0000; stroke-opacity: 0.7; stroke-width: 2"/>
    <path d="M 300.745532 255.736044 
L 300.745532 242.995336 
" style="fill: none; stroke: #ff0000; stroke-opacity: 0.7; stroke-width: 2"/>
   </g>
   <g id="LineCollection_58">
    <path d="M 300.745532 255.736044 
L 308.34383 255.736044 
" clip-path="url(#p7c07993ce7)" style="fill: none; stroke: #ff0000; stroke-opacity: 0.7; stroke-width: 2"/>
   </g>
   <g id="LineCollection_59">
    <path d="M 293.147234 283.14697 
L 293.147234 214.184881 
" style="fill: none; stroke: #ff0000; stroke-opacity: 0.7; stroke-width: 2"/>
    <path d="M 270.35234 283.14697 
L 270.35234 282.367908 
" style="fill: none; stroke: #ff0000; stroke-opacity: 0.7; stroke-width: 2"/>
   </g>
   <g id="LineCollection_60">
    <path d="M 270.35234 283.14697 
L 293.147234 283.14697 
" clip-path="url(#p7c07993ce7)" style="fill: none; stroke: #ff0000; stroke-opacity: 0.7; stroke-width: 2"/>
   </g>
   <g id="LineCollection_61">
    <path d="M 262.754043 282.367908 
L 262.754043 279.524597 
" style="fill: none; stroke: #ff0000; stroke-opacity: 0.7; stroke-width: 2"/>
    <path d="M 281.749787 282.367908 
L 281.749787 276.123734 
" style="fill: none; stroke: #ff0000; stroke-opacity: 0.7; stroke-width: 2"/>
   </g>
   <g id="LineCollection_62">
    <path d="M 262.754043 282.367908 
L 281.749787 282.367908 
" clip-path="url(#p7c07993ce7)" style="fill: none; stroke: #ff0000; stroke-opacity: 0.7; stroke-width: 2"/>
   </g>
   <g id="LineCollection_63">
    <path d="M 258.954894 279.524597 
L 258.954894 272.193133 
" style="fill: none; stroke: #ff0000; stroke-opacity: 0.7; stroke-width: 2"/>
    <path d="M 270.35234 279.524597 
L 270.35234 223.92473 
" style="fill: none; stroke: #ff0000; stroke-opacity: 0.7; stroke-width: 2"/>
   </g>
   <g id="LineCollection_64">
    <path d="M 258.954894 279.524597 
L 270.35234 279.524597 
" clip-path="url(#p7c07993ce7)" style="fill: none; stroke: #ff0000; stroke-opacity: 0.7; stroke-width: 2"/>
   </g>
   <g id="LineCollection_65">
    <path d="M 262.754043 272.193133 
L 262.754043 230.316097 
" style="fill: none; stroke: #ff0000; stroke-opacity: 0.7; stroke-width: 2"/>
    <path d="M 255.155745 272.193133 
L 255.155745 239.111322 
" style="fill: none; stroke: #ff0000; stroke-opacity: 0.7; stroke-width: 2"/>
   </g>
   <g id="LineCollection_66">
    <path d="M 255.155745 272.193133 
L 262.754043 272.193133 
" clip-path="url(#p7c07993ce7)" style="fill: none; stroke: #ff0000; stroke-opacity: 0.7; stroke-width: 2"/>
   </g>
   <g id="LineCollection_67">
    <path d="M 277.950638 276.123734 
L 277.950638 229.222932 
" style="fill: none; stroke: #ff0000; stroke-opacity: 0.7; stroke-width: 2"/>
    <path d="M 285.548936 276.123734 
L 285.548936 132.103046 
" style="fill: none; stroke: #ff0000; stroke-opacity: 0.7; stroke-width: 2"/>
   </g>
   <g id="LineCollection_68">
    <path d="M 277.950638 276.123734 
L 285.548936 276.123734 
" clip-path="url(#p7c07993ce7)" style="fill: none; stroke: #ff0000; stroke-opacity: 0.7; stroke-width: 2"/>
   </g>
   <g id="LineCollection_69">
    <path d="M 399.523404 279.411914 
L 399.523404 276.060047 
" style="fill: none; stroke: #ff0000; stroke-opacity: 0.7; stroke-width: 2"/>
    <path d="M 388.125957 279.411914 
L 388.125957 276.121355 
" style="fill: none; stroke: #ff0000; stroke-opacity: 0.7; stroke-width: 2"/>
   </g>
   <g id="LineCollection_70">
    <path d="M 388.125957 279.411914 
L 399.523404 279.411914 
" clip-path="url(#p7c07993ce7)" style="fill: none; stroke: #ff0000; stroke-opacity: 0.7; stroke-width: 2"/>
   </g>
   <g id="LineCollection_71">
    <path d="M 384.326809 276.121355 
L 384.326809 236.473459 
" style="fill: none; stroke: #ff0000; stroke-opacity: 0.7; stroke-width: 2"/>
    <path d="M 391.925106 276.121355 
L 391.925106 228.921497 
" style="fill: none; stroke: #ff0000; stroke-opacity: 0.7; stroke-width: 2"/>
   </g>
   <g id="LineCollection_72">
    <path d="M 384.326809 276.121355 
L 391.925106 276.121355 
" clip-path="url(#p7c07993ce7)" style="fill: none; stroke: #ff0000; stroke-opacity: 0.7; stroke-width: 2"/>
   </g>
   <g id="LineCollection_73">
    <path d="M 365.331064 280.658047 
L 365.331064 277.84478 
" style="fill: none; stroke: #ff0000; stroke-opacity: 0.7; stroke-width: 2"/>
    <path d="M 338.737021 280.658047 
L 338.737021 277.936899 
" style="fill: none; stroke: #ff0000; stroke-opacity: 0.7; stroke-width: 2"/>
   </g>
   <g id="LineCollection_74">
    <path d="M 338.737021 280.658047 
L 365.331064 280.658047 
" clip-path="url(#p7c07993ce7)" style="fill: none; stroke: #ff0000; stroke-opacity: 0.7; stroke-width: 2"/>
   </g>
   <g id="LineCollection_75">
    <path d="M 361.531915 277.84478 
L 361.531915 275.209752 
" style="fill: none; stroke: #ff0000; stroke-opacity: 0.7; stroke-width: 2"/>
    <path d="M 376.728511 277.84478 
L 376.728511 229.815089 
" style="fill: none; stroke: #ff0000; stroke-opacity: 0.7; stroke-width: 2"/>
   </g>
   <g id="LineCollection_76">
    <path d="M 361.531915 277.84478 
L 376.728511 277.84478 
" clip-path="url(#p7c07993ce7)" style="fill: none; stroke: #ff0000; stroke-opacity: 0.7; stroke-width: 2"/>
   </g>
   <g id="LineCollection_77">
    <path d="M 369.130213 275.209752 
L 369.130213 57.506497 
" style="fill: none; stroke: #ff0000; stroke-opacity: 0.7; stroke-width: 2"/>
    <path d="M 357.732766 275.209752 
L 357.732766 271.816718 
" style="fill: none; stroke: #ff0000; stroke-opacity: 0.7; stroke-width: 2"/>
   </g>
   <g id="LineCollection_78">
    <path d="M 357.732766 275.209752 
L 369.130213 275.209752 
" clip-path="url(#p7c07993ce7)" style="fill: none; stroke: #ff0000; stroke-opacity: 0.7; stroke-width: 2"/>
   </g>
   <g id="LineCollection_79">
    <path d="M 361.531915 271.816718 
L 361.531915 210.716167 
" style="fill: none; stroke: #ff0000; stroke-opacity: 0.7; stroke-width: 2"/>
    <path d="M 353.933617 271.816718 
L 353.933617 232.954246 
" style="fill: none; stroke: #ff0000; stroke-opacity: 0.7; stroke-width: 2"/>
   </g>
   <g id="LineCollection_80">
    <path d="M 353.933617 271.816718 
L 361.531915 271.816718 
" clip-path="url(#p7c07993ce7)" style="fill: none; stroke: #ff0000; stroke-opacity: 0.7; stroke-width: 2"/>
   </g>
   <g id="LineCollection_81">
    <path d="M 331.138723 277.936899 
L 331.138723 261.672267 
" style="fill: none; stroke: #ff0000; stroke-opacity: 0.7; stroke-width: 2"/>
    <path d="M 342.53617 277.936899 
L 342.53617 258.575415 
" style="fill: none; stroke: #ff0000; stroke-opacity: 0.7; stroke-width: 2"/>
   </g>
   <g id="LineCollection_82">
    <path d="M 331.138723 277.936899 
L 342.53617 277.936899 
" clip-path="url(#p7c07993ce7)" style="fill: none; stroke: #ff0000; stroke-opacity: 0.7; stroke-width: 2"/>
   </g>
   <g id="LineCollection_83">
    <path d="M 346.335319 258.575415 
L 346.335319 234.305502 
" style="fill: none; stroke: #ff0000; stroke-opacity: 0.7; stroke-width: 2"/>
    <path d="M 338.737021 258.575415 
L 338.737021 235.26027 
" style="fill: none; stroke: #ff0000; stroke-opacity: 0.7; stroke-width: 2"/>
   </g>
   <g id="LineCollection_84">
    <path d="M 338.737021 258.575415 
L 346.335319 258.575415 
" clip-path="url(#p7c07993ce7)" style="fill: none; stroke: #ff0000; stroke-opacity: 0.7; stroke-width: 2"/>
   </g>
   <g id="patch_3">
    <path d="M 57.6 307.584 
L 57.6 41.472 
" style="fill: none; stroke: #000000; stroke-width: 0.8; stroke-linejoin: miter; stroke-linecap: square"/>
   </g>
   <g id="patch_4">
    <path d="M 414.72 307.584 
L 414.72 41.472 
" style="fill: none; stroke: #000000; stroke-width: 0.8; stroke-linejoin: miter; stroke-linecap: square"/>
   </g>
   <g id="patch_5">
    <path d="M 57.6 307.584 
L 414.72 307.584 
" style="fill: none; stroke: #000000; stroke-width: 0.8; stroke-linejoin: miter; stroke-linecap: square"/>
   </g>
   <g id="patch_6">
    <path d="M 57.6 41.472 
L 414.72 41.472 
" style="fill: none; stroke: #000000; stroke-width: 0.8; stroke-linejoin: miter; stroke-linecap: square"/>
   </g>
  </g>
 </g>
 <defs>
  <clipPath id="p7c07993ce7">
   <rect x="57.6" y="41.472" width="357.12" height="266.112"/>
  </clipPath>
 </defs>
</svg>
