<?xml version="1.0" encoding="utf-8" standalone="no"?>
<!DOCTYPE svg PUBLIC "-//W3C//DTD SVG 1.1//EN"
  "http://www.w3.org/Graphics/SVG/1.1/DTD/svg11.dtd">
<!-- Created with matplotlib (http://matplotlib.org/) -->
<svg height="432pt" version="1.1" viewBox="0 0 576 432" width="576pt" xmlns="http://www.w3.org/2000/svg" xmlns:xlink="http://www.w3.org/1999/xlink">
 <defs>
  <style type="text/css">
*{stroke-linecap:butt;stroke-linejoin:round;}
  </style>
 </defs>
 <g id="figure_1">
  <g id="patch_1">
   <path d="
M0 432
L576 432
L576 0
L0 0
z
" style="fill:#ffffff;"/>
  </g>
  <g id="axes_1">
   <g id="patch_2">
    <path d="
M72 388.8
L518.4 388.8
L518.4 43.2
L72 43.2
z
" style="fill:#ffffff;"/>
   </g>
   <g id="line2d_1">
    <path clip-path="url(#p7ff5b81e1d)" d="
M72 301.211
L72.9374 132.689
L73.5178 98.3328
L73.5624 98.0835
L73.741 93.5778
L74.1427 98.8646
L74.4998 106.965
L74.5445 107.175
L74.5891 106.554
L74.6338 106.576
L74.6784 107.649
L75.1248 87.8404
L75.348 82.7045
L75.3926 82.9699
L75.839 95.6238
L76.1962 117.402
L76.464 127.072
L76.8211 135.799
L76.955 138.214
L77.0443 140.142
L77.089 139.344
L77.1336 139.238
L77.2675 140.891
L77.3122 140.884
L77.3568 140.23
L77.4014 142.681
L77.4907 142.173
L78.071 159.482
L78.8746 211.444
L79.2317 238.245
L79.4549 250.88
L79.7674 264.665
L79.812 265.016
L79.9906 267.768
L80.0352 267.761
L80.0798 267.453
L81.2851 298.857
L81.4637 299.759
L81.5083 299.548
L81.5976 298.672
L82.3118 309.711
L82.4011 308.852
L82.4904 310.595
L82.535 310.339
L82.669 311.588
L82.7136 310.931
L82.8029 309.583
L82.8475 309.808
L82.9368 308.802
L83.0707 306.593
L83.1154 306.676
L83.16 306.476
L83.2046 306.685
L83.2493 306.745
L83.2939 306.306
L83.5171 308.405
L83.5618 307.437
L83.6064 308.321
L83.651 307.99
L83.6957 308.311
L83.9189 310.022
L84.3206 312.81
L84.3653 312.588
L84.4099 312.744
L84.4546 312.71
L84.7224 315.55
L85.0349 320.932
L85.2581 325.088
L85.5706 329.102
L85.7491 330.719
L85.883 329.709
L85.9277 330.015
L85.9277 330.015
L85.9277 330.015
L85.9723 329.68
L86.0616 331.707
L86.1062 331.007
L86.1509 330.718
L86.1509 330.718
L86.1509 330.718
L86.1955 331.112
L86.1955 331.112
L86.1955 331.112
L86.3294 330.21
L86.3741 330.593
L86.4187 330.214
L86.5973 327.201
L86.8651 320.951
L87.7133 284.947
L87.8918 281.929
L87.9365 282.575
L87.9811 282.367
L88.0258 282.549
L88.2936 286.388
L88.3382 285.538
L88.3829 285.416
L89.0971 293.165
L89.2757 290.429
L89.6774 282.777
L89.9006 273.787
L90.7934 232.061
L90.8827 229.373
L91.0166 227.828
L91.0613 228.214
L91.1059 227.069
L91.1506 227.237
L91.2398 228.99
L91.463 238.572
L91.9987 262.169
L92.0434 261.125
L92.1326 261.456
L92.3558 255.48
L94.2307 175.535
L94.3646 174.737
L94.5432 171.934
L94.5878 171.782
L94.7664 173.45
L94.811 173.033
L94.8557 173.352
L94.9003 173.496
L96.3734 224.79
L96.5074 224.429
L96.552 224.321
L96.6413 225.2
L96.6859 224.849
L96.8645 220.251
L97.5341 178.739
L97.7126 173.679
L97.7573 174.223
L97.9805 178.069
L98.5608 205.345
L98.6054 205.296
L98.9179 217.587
L99.0072 219.968
L99.409 229.637
L100.079 247.704
L101.016 285.406
L101.239 289.839
L101.462 287.698
L101.552 286.851
L101.953 278.78
L102.221 272.632
L102.489 270.544
L102.578 271.553
L102.802 278.521
L103.069 290.867
L103.337 299.596
L103.427 301.116
L103.471 300.803
L103.516 300.911
L103.605 301.88
L104.275 288.974
L104.319 289.648
L104.453 287.986
L104.632 290.9
L105.168 305.831
L105.614 321.192
L105.748 323.708
L106.105 329.52
L106.551 334.534
L106.596 334.106
L106.953 328.567
L107.891 288.795
L108.248 284.933
L108.292 285.548
L108.382 285.636
L108.471 286.694
L108.828 277.266
L109.364 242.725
L109.632 233.582
L109.721 232.101
L109.765 232.348
L109.944 237.232
L110.212 244.794
L110.435 247.924
L110.48 247.462
L110.569 248.614
L111.73 209.243
L111.819 208.121
L111.864 207.029
L111.908 207.621
L112.042 209.358
L112.087 208.93
L112.265 211.193
L112.31 211.227
L112.399 210.928
L112.578 213.531
L112.622 213.499
L112.667 213.692
L112.801 210.659
L112.846 211.217
L113.56 194.117
L113.604 194.418
L113.649 195.563
L113.649 195.563
L113.649 195.563
L113.783 192.647
L114.319 204.857
L114.363 204.575
L114.408 203.932
L114.542 206.954
L114.631 206.817
L115.033 186.739
L115.39 161.9
L115.658 147.51
L115.747 145.468
L115.792 145.55
L115.836 146.211
L116.283 165.663
L116.774 186.032
L116.863 189.588
L117.265 207.07
L117.801 247.775
L118.024 258.979
L118.292 263.639
L118.336 263.885
L118.649 261.524
L118.693 261.405
L119.006 266.515
L119.408 281.518
L119.452 283.163
L119.542 282.985
L119.586 283.525
L119.631 283.314
L119.676 282.914
L119.765 284.638
L119.809 284.302
L119.899 283.695
L119.988 282.709
L120.077 283.812
L120.122 283.427
L120.39 286.727
L120.658 295.336
L120.925 301.027
L120.97 300.965
L121.104 301.49
L121.952 274.993
L121.997 275.074
L122.175 273.461
L122.22 274.56
L122.309 274.383
L122.354 274.396
L122.577 277.486
L122.979 285.162
L123.291 291.707
L123.47 294.53
L123.559 295.748
L123.604 295.258
L123.693 296.303
L123.827 296.166
L123.872 296.079
L123.916 295.168
L123.961 295.609
L124.006 296.26
L124.273 290.975
L124.318 290.95
L124.497 289.453
L124.541 289.526
L124.675 288.452
L124.72 288.548
L124.764 288.841
L124.898 287.622
L124.943 287.823
L125.032 287.034
L125.523 273.277
L126.014 244.204
L126.818 204.722
L126.863 205.055
L127.711 232.75
L127.8 232.066
L127.979 234.139
L128.023 233.14
L128.112 233.532
L128.202 232.669
L128.336 232.841
L128.38 232.882
L128.871 240.114
L128.961 240.196
L129.05 238.301
L129.228 234.073
L129.943 211.913
L129.987 212.001
L130.032 212.004
L130.121 209.944
L130.166 210.49
L130.211 211.026
L131.237 179.365
L131.282 179.853
L131.416 178.956
L131.639 184.739
L132.889 239.335
L133.291 263.085
L133.648 268.374
L133.96 259.26
L134.496 240.991
L134.63 239.613
L134.987 245.453
L135.3 262.267
L135.924 299.566
L136.058 302.768
L136.192 302.193
L136.237 302.41
L136.594 294.908
L136.639 294.442
L136.728 294.637
L136.996 297.841
L137.487 306.744
L137.621 307.808
L138.112 292.441
L138.826 271.713
L138.871 271.419
L139.139 275.702
L139.362 280.198
L139.674 289.153
L139.853 291.116
L139.897 290.203
L139.987 290.02
L140.165 286.439
L140.388 279.236
L140.835 264.827
L141.237 260.464
L141.728 267.814
L142.219 277.546
L142.263 277.494
L142.799 261.959
L142.933 258.844
L143.156 254.887
L143.201 254.829
L143.469 263.507
L143.692 270.175
L143.87 272.603
L143.915 271.458
L143.96 271.336
L144.228 264.962
L144.719 237.675
L144.942 231.721
L144.986 232.159
L145.031 231.858
L145.076 230.819
L145.165 231.302
L145.388 234.085
L145.745 241.414
L145.79 241.173
L146.236 249.963
L146.281 250.554
L146.638 263.938
L146.995 273.094
L147.04 273.394
L147.084 273.119
L147.129 273.062
L147.218 271.425
L147.576 261.84
L147.62 261.902
L147.843 257.184
L147.888 257.218
L148.2 262.679
L148.379 266.327
L148.915 249.558
L149.272 231.827
L149.54 227.184
L149.629 228.879
L149.852 234.854
L150.388 252.237
L150.566 250.281
L150.611 250.643
L150.656 250.564
L150.7 250.417
L150.745 249.882
L150.79 251.152
L150.834 250.527
L151.013 247.434
L151.057 247.465
L151.147 246.359
L151.37 248.964
L151.415 248.876
L151.906 255.382
L151.95 255.257
L152.084 256.33
L152.129 256.274
L152.173 256.353
L152.218 255.88
L152.218 255.88
L152.218 255.88
L152.352 256.908
L152.486 256.12
L152.664 257.879
L152.888 263.151
L152.932 262.867
L153.022 263.298
L153.334 259.279
L153.691 246.527
L154.004 238.79
L154.048 238.329
L154.182 241.095
L154.272 240.995
L154.316 240.918
L154.316 240.918
L154.316 240.918
L154.405 241.129
L154.539 242.688
L154.584 242.674
L154.629 243.281
L154.852 239.012
L154.896 239.105
L154.941 240.055
L155.03 239.721
L155.164 240.232
L155.209 240.363
L155.254 240.038
L155.477 245.8
L155.923 264.658
L156.236 270.425
L156.459 273.222
L156.995 285.625
L157.262 294.431
L157.307 294.654
L157.664 299.132
L157.709 299.204
L158.066 297.394
L158.244 293.435
L158.557 286.641
L159.003 275.929
L159.316 271.38
L159.45 271.708
L159.494 271.373
L159.539 271.621
L159.628 273.412
L160.253 295.809
L160.476 299.02
L160.566 297.894
L160.61 297.979
L160.655 297.949
L160.7 298.186
L160.789 297.183
L160.834 297.654
L160.878 297.672
L160.923 298.734
L161.012 298.493
L161.235 301.536
L161.548 309.995
L161.771 313.213
L161.86 313.154
L161.905 313.682
L161.95 313.461
L162.396 298.66
L163.289 252.311
L163.467 250.517
L163.601 252.028
L163.735 251.417
L163.824 252.076
L164.092 256.595
L164.226 256.515
L164.271 256.4
L164.36 254.448
L164.405 254.459
L164.449 254.413
L165.119 245.537
L165.208 246.065
L165.298 245.547
L165.342 245.633
L165.432 246.461
L165.699 254.827
L165.967 266.686
L166.548 293.153
L166.637 294.804
L166.86 301.234
L167.039 300.446
L167.083 301.011
L167.128 300.456
L167.172 300.704
L167.664 285.889
L168.021 273.259
L168.244 269.63
L168.333 270.611
L168.78 276.748
L168.824 277.756
L168.869 277.34
L168.913 276.105
L169.003 276.173
L169.092 276.648
L169.628 269.264
L169.672 269.262
L169.717 269.435
L169.94 274.117
L170.253 280.783
L170.387 282.18
L170.52 283.433
L170.565 283.871
L170.61 283.606
L170.654 283.566
L170.699 283.079
L170.699 283.079
L170.699 283.079
L170.744 283.642
L170.967 279.874
L171.012 280.417
L171.279 274.032
L171.324 273.81
L171.77 254.733
L172.083 239.894
L172.128 240.081
L172.351 236.455
L172.395 237.113
L173.02 246.699
L173.065 245.986
L173.377 242.254
L173.422 242.822
L173.467 242.649
L173.601 240.522
L173.645 241.958
L173.735 241.881
L174.315 249.124
L174.36 249.471
L174.583 246.143
L174.627 246.558
L174.851 242.707
L174.895 243.394
L174.94 243.523
L175.029 243.08
L175.118 243.918
L175.163 243.575
L175.208 243.522
L175.252 242.475
L175.252 242.475
L175.252 242.475
L175.565 248.737
L175.654 248.393
L175.699 248.769
L175.743 248.673
L175.788 247.942
L175.877 248.057
L176.011 249.525
L176.056 249.087
L176.1 248.066
L176.145 248.682
L176.19 248.728
L176.279 247.806
L176.324 248.43
L176.368 248.377
L176.413 249.255
L176.502 249.197
L176.547 249.086
L176.636 250.114
L176.681 249.706
L176.859 246.464
L177.663 209.761
L177.752 208.318
L177.797 208.8
L177.841 208.791
L178.02 216.048
L178.288 228.528
L178.6 234.728
L178.645 234.888
L178.824 229.741
L179.181 219.324
L179.582 234.24
L180.252 278.801
L180.386 279.939
L180.52 280.782
L180.564 280.482
L180.609 281.204
L180.698 281.041
L180.743 281.139
L181.234 273.848
L181.413 276.538
L181.502 276.135
L181.547 276.394
L181.591 276.454
L181.904 283.181
L182.172 287.875
L182.216 287.994
L182.261 288.688
L182.305 288.318
L182.35 287.801
L182.395 288.811
L182.439 288.599
L183.511 264.113
L183.6 263.497
L183.645 263.794
L183.823 266.735
L183.868 266.59
L184.136 269.246
L184.18 268.971
L184.493 263.833
L184.671 259.839
L184.85 256.118
L185.609 242.307
L185.832 233.208
L186.323 212.022
L186.591 208.977
L186.636 208.844
L186.725 207.451
L186.769 207.631
L187.082 214.945
L187.127 213.786
L187.216 213.887
L187.26 213.876
L187.35 215.165
L187.394 214.705
L187.439 214.445
L187.484 215.403
L187.528 214.518
L187.573 214.499
L187.618 214.66
L187.841 211.825
L188.064 208.243
L188.109 209.241
L188.153 208.775
L188.51 202.152
L188.555 202.126
L188.644 200.352
L188.823 196.705
L188.912 196.145
L189.091 197.659
L189.18 195.807
L189.626 206.375
L189.894 209.171
L189.939 208.587
L190.742 191.065
L190.787 191.54
L191.546 174.937
L191.68 175.35
L191.858 180.535
L192.216 202.983
L192.617 227.38
L192.796 233.798
L192.885 231.594
L192.974 233.854
L193.019 232.897
L193.064 233.056
L193.153 234.397
L193.198 234.304
L193.332 234.048
L194.046 255.255
L194.09 255.198
L194.135 255.509
L194.314 253.953
L194.358 253.948
L194.626 250.657
L194.671 251.287
L194.849 248.5
L195.072 251.047
L195.519 265.203
L196.233 280.071
L196.501 285.359
L197.215 300.701
L197.26 300.551
L197.349 298.651
L197.394 298.812
L197.662 294.306
L198.197 274.171
L198.287 272.987
L198.331 273.657
L198.599 277.017
L198.822 280.19
L199.09 285.917
L199.358 288.717
L199.492 290.023
L199.983 308.934
L200.295 317.28
L200.385 316.955
L200.519 317.629
L200.563 317.298
L200.92 308.973
L201.054 307.599
L201.813 297.467
L202.081 293.659
L202.393 297.238
L203.197 324.731
L203.331 326.838
L203.376 326.443
L203.554 324.858
L203.599 324.919
L203.822 318.774
L203.911 317.648
L204.224 308.639
L204.447 304.293
L204.492 304.527
L204.67 302.557
L204.715 302.938
L204.893 301.953
L204.938 303.245
L205.027 302.839
L205.116 304.013
L205.161 303.267
L205.384 298.022
L206.322 242.526
L206.679 235.449
L206.724 235.883
L206.857 233.719
L206.902 233.592
L207.036 235.652
L207.125 235.098
L207.17 234.746
L207.215 233.382
L207.259 234.74
L207.304 235.365
L207.348 235.118
L207.661 231.453
L207.706 232.244
L207.706 232.244
L207.706 232.244
L207.75 231.376
L207.795 231.773
L207.84 231.932
L207.884 232.603
L207.929 232.228
L208.063 229.833
L208.375 233.609
L208.822 246.748
L209.045 252.89
L209.134 252.436
L209.58 238.987
L209.848 224.181
L210.429 201.699
L210.741 197.555
L210.83 198.634
L210.875 198.544
L210.92 197.702
L210.964 198.338
L211.277 202.522
L211.812 220.642
L211.902 219.977
L212.304 210.531
L212.884 179.701
L213.107 176.722
L213.152 176.481
L213.553 188.694
L214.312 228.922
L214.357 228.387
L214.491 230.553
L214.536 230.22
L214.58 230.061
L214.625 230.595
L215.071 217.96
L215.116 218.432
L215.16 218.375
L215.205 218.11
L215.25 218.918
L215.339 218.685
L215.428 220.327
L215.652 230.789
L216.009 263.213
L216.5 297.847
L216.544 299.585
L216.634 299.539
L216.678 299.98
L216.946 293.755
L217.526 273.333
L217.571 273.039
L217.705 270.937
L218.017 276.386
L218.553 292.131
L218.687 293.495
L218.821 297.44
L218.866 296.622
L218.91 295.778
L219 296.171
L219.089 296.815
L219.133 296.523
L219.178 296.366
L219.223 296.629
L219.267 296.405
L219.446 300.486
L219.758 307.287
L220.071 313.337
L220.116 313.527
L220.428 316.805
L220.473 316.873
L220.651 317.892
L220.696 317.928
L220.785 319.4
L220.83 319.091
L220.874 318.803
L221.098 320.575
L221.187 318.989
L221.232 319.769
L221.365 318.622
L222.035 310.948
L222.883 319.441
L222.928 318.985
L222.972 319.003
L223.062 316.791
L223.196 313.42
L223.642 294.861
L223.999 284.785
L224.088 285.394
L224.267 288.356
L224.49 292.589
L224.535 292.298
L224.624 293.515
L224.803 296.144
L224.847 295.401
L224.892 295.667
L224.981 294.594
L225.026 295.194
L225.204 291.89
L225.428 282.729
L226.008 259.597
L226.053 259.605
L226.32 255.763
L226.633 253.141
L226.722 254.706
L226.767 254.248
L227.035 249.162
L227.079 249.347
L227.124 249.62
L227.526 242.098
L227.615 242.411
L227.704 243.98
L227.749 243.452
L228.017 240.83
L228.061 241.265
L228.463 226.766
L228.954 194.598
L229.133 186.084
L229.49 173.423
L229.668 169.989
L229.936 161.111
L230.026 158.286
L230.16 152.037
L230.695 115.1
L231.008 98.9677
L231.097 96.0908
L231.186 97.0067
L231.276 98.2555
L232.213 144.604
L232.302 144.02
L232.347 144.336
L232.659 149.511
L233.24 188.216
L233.597 207.37
L233.775 212.179
L233.865 211.755
L233.909 211.989
L234.088 210.425
L234.132 210.421
L234.311 211.206
L234.891 227.022
L235.115 233.596
L235.159 233.559
L235.204 233.673
L235.472 236.562
L235.561 234.722
L235.784 229.515
L236.007 226.27
L236.052 226.531
L236.141 225.429
L236.186 224.38
L236.231 225.05
L236.275 225.884
L236.275 225.884
L236.275 225.884
L236.32 224.695
L236.364 225.179
L236.722 238.197
L237.168 262.543
L237.614 284.207
L237.838 290.568
L238.105 295.576
L238.195 296.899
L238.239 296.181
L238.373 295.835
L238.909 281.606
L239.177 273.146
L239.534 268.743
L239.579 268.914
L240.204 290.856
L240.695 320.918
L241.007 331.079
L241.096 330.735
L241.186 330.501
L241.23 330.535
L241.364 331.591
L241.453 331.359
L241.587 330.739
L241.632 330.831
L241.677 330.374
L241.721 330.599
L241.811 330.996
L241.855 330.718
L241.855 330.718
L241.855 330.718
L242.078 332.382
L242.123 332.221
L242.257 331.886
L242.346 332.469
L242.793 325.918
L244.087 299.994
L244.266 296.146
L244.31 296.411
L244.578 293.178
L244.668 293.306
L244.712 294.037
L244.712 294.037
L244.712 294.037
L244.891 291.964
L244.935 292.101
L244.935 292.101
L244.935 292.101
L244.98 291.922
L245.114 293.543
L245.159 293.471
L245.203 293.714
L245.471 287.472
L245.694 282.204
L245.739 282.044
L246.007 276.044
L246.319 271.232
L246.364 271.619
L246.408 271.226
L246.498 270.5
L246.542 269.692
L246.542 269.692
L246.542 269.692
L246.632 271.317
L246.676 270.534
L246.989 266.342
L247.033 266.631
L247.212 271.384
L247.257 271.369
L247.301 271.211
L248.016 287.725
L248.149 288.441
L248.194 288.261
L248.239 288.966
L248.596 281.456
L248.685 278.801
L249.355 239.089
L249.935 211.433
L250.024 209.486
L250.114 209.716
L250.381 214.202
L251.096 233.618
L251.185 232.976
L251.23 231.839
L251.274 232.546
L251.364 234.251
L251.408 233.546
L251.676 230.166
L251.855 227.788
L252.033 225.3
L252.078 225.539
L252.078 225.539
L252.078 225.539
L252.212 224.239
L253.015 205.824
L253.06 205.547
L253.194 201.002
L253.953 226.873
L254.354 240.809
L254.533 241.875
L254.667 243.159
L254.712 242.913
L254.801 240.644
L254.89 241.333
L254.935 241.52
L255.024 239.203
L255.203 236.875
L255.247 236.906
L255.381 234.895
L255.426 235.576
L255.515 235.846
L255.56 235.685
L255.604 235.647
L255.917 240.127
L256.185 245.961
L256.229 246.346
L256.452 251.835
L256.497 251.531
L256.586 251.604
L256.631 252.94
L256.676 252.927
L256.72 251.274
L256.81 251.877
L256.944 249.712
L257.122 246.965
L257.256 244.975
L257.345 245.206
L257.658 256.034
L257.836 268.217
L258.551 322.017
L258.595 321.164
L258.64 321.533
L258.684 322.507
L258.729 322.245
L258.908 318.181
L259.488 295.462
L259.756 292.34
L260.113 298.349
L260.47 311.383
L260.738 316.99
L260.916 319.373
L260.961 319.218
L261.184 315.838
L261.765 303.219
L261.988 300.44
L262.345 298.047
L262.613 302.081
L262.657 302.003
L263.193 313.281
L263.282 313.058
L263.372 313.665
L263.416 313.231
L263.416 313.231
L263.416 313.231
L263.461 313.815
L264.443 290.911
L264.577 292.264
L264.845 296.239
L265.023 299.019
L265.068 299.618
L265.113 299.292
L265.38 292.879
L266.184 258.881
L266.229 258.961
L266.586 267.195
L266.675 267.792
L266.764 269.9
L266.809 268.7
L266.854 268.503
L267.121 262.021
L267.746 233.014
L268.104 229.764
L268.282 232.512
L268.327 232.478
L268.371 232.233
L269.175 258.29
L269.398 266.335
L269.532 267.857
L269.666 269.095
L270.246 252.423
L270.559 236.748
L270.827 229.154
L270.96 225.435
L271.005 225.634
L271.094 226.166
L271.273 229.94
L271.719 252.519
L272.032 266.865
L272.255 272.872
L272.3 272.679
L272.344 273.055
L272.389 272.921
L272.434 272.576
L272.657 268.425
L272.746 267.725
L273.505 251.676
L273.684 248.858
L273.951 242.429
L273.996 242.21
L273.996 242.21
L273.996 242.21
L274.219 243.767
L274.487 254.114
L275.157 284.996
L275.246 286.682
L275.737 295.758
L275.782 295.905
L275.826 296.634
L275.871 296.389
L275.916 295.7
L275.96 296.126
L276.049 297.488
L277.121 270.188
L277.79 261.552
L278.326 248.648
L278.371 248.596
L278.415 248.267
L278.46 248.297
L278.549 248.836
L279.13 263.251
L279.264 264.919
L280.156 233.699
L280.201 233.702
L280.469 239.872
L280.826 253.033
L281.049 257.932
L281.094 258.088
L281.138 258.936
L281.183 258.747
L281.228 258.16
L281.272 258.431
L281.317 258.744
L281.629 255.768
L281.719 254.702
L281.763 255.083
L281.897 258.129
L282.388 271.155
L282.879 286.851
L283.192 294.139
L283.504 297.903
L283.549 297.854
L283.638 296.875
L283.683 296.933
L283.772 296.988
L283.906 297.944
L283.951 296.979
L284.04 297.384
L284.085 297.333
L284.219 295.291
L284.308 295.583
L284.352 296.071
L284.397 295.864
L284.442 295.645
L284.576 296.392
L285.156 285.454
L285.335 280.237
L285.379 280.402
L285.424 280.415
L285.513 280.176
L285.558 280.356
L285.602 280.497
L286.004 291.594
L286.272 298.967
L286.584 302.056
L286.674 301.144
L287.299 292.461
L287.611 285.072
L287.7 284.217
L287.745 284.914
L287.834 284.749
L287.879 284.716
L288.013 286.868
L288.459 298.038
L288.504 297.258
L288.816 289.445
L289.531 254.57
L289.575 254.736
L289.754 256.431
L289.888 258.332
L290.379 274.489
L290.825 284.816
L290.87 285.143
L291.182 292.146
L291.227 291.961
L291.316 293.237
L291.361 292.822
L291.45 293.472
L291.584 294.705
L291.718 294.846
L291.941 291.802
L292.656 261.981
L293.147 244.301
L293.191 244.704
L293.325 242.625
L293.37 242.936
L293.459 242.8
L293.593 241.18
L293.638 241.934
L293.905 244.708
L294.977 282.882
L295.334 277.804
L295.379 277.485
L295.825 261.479
L295.87 261.284
L296.137 254.602
L296.361 247.757
L296.673 241.033
L296.718 241.318
L296.762 241.182
L296.852 240.331
L296.896 240.455
L297.075 242.087
L297.611 262.306
L297.7 263.274
L297.834 266.231
L297.923 266.189
L297.968 266.637
L298.012 266.418
L298.057 265.536
L298.102 266.368
L298.191 265.15
L298.28 264.554
L298.459 261.428
L298.637 257.721
L298.682 258.273
L298.771 258.585
L298.816 257.608
L298.86 258.247
L298.905 258.28
L298.95 258.045
L298.95 258.045
L298.95 258.045
L299.173 260.083
L299.664 267.84
L299.887 270.629
L299.932 270.484
L300.244 274.862
L300.289 274.54
L300.334 274.658
L300.378 275.904
L300.468 275.749
L300.557 275.202
L300.691 273.463
L300.735 273.593
L300.914 270.494
L301.182 266.048
L301.316 266.532
L301.36 266.554
L301.494 265.263
L301.762 269.751
L301.851 269.552
L301.985 268.985
L302.03 269.42
L302.03 269.42
L302.03 269.42
L302.253 264.992
L302.789 241.796
L303.235 227.86
L303.548 224.907
L303.726 227.255
L303.771 228.102
L303.816 228.025
L303.994 225.528
L304.039 226.069
L304.128 225.08
L304.307 221.832
L304.351 221.458
L304.351 221.458
L304.351 221.458
L304.574 222.531
L304.619 222.594
L304.708 223.674
L305.512 253.662
L305.824 259.012
L305.869 258.456
L305.914 258.6
L306.092 262.024
L306.628 282.493
L306.851 287.838
L306.896 286.864
L306.94 286.811
L307.164 281.106
L307.387 274.14
L307.788 254.436
L308.056 247.487
L308.101 247.241
L308.146 248.586
L308.19 247.256
L308.235 247.832
L308.28 246.257
L308.324 246.931
L308.949 264.539
L309.351 280.859
L309.44 282.655
L309.574 285.541
L309.842 283.642
L309.887 283.58
L310.467 267.476
L310.735 272.046
L311.003 279.987
L311.226 286.037
L311.538 290.987
L311.583 290.222
L311.583 290.222
L311.583 290.222
L311.628 291.057
L311.672 290.724
L311.717 290.196
L311.717 290.196
L311.717 290.196
L312.029 294.68
L312.252 300.201
L312.52 303.695
L312.61 304.865
L312.744 306.973
L313.011 300.705
L313.056 300.538
L314.083 270.078
L314.127 270.243
L314.395 272.796
L315.154 289.677
L315.243 289.187
L315.824 282.187
L315.868 282.226
L315.913 282.999
L315.958 282.225
L316.002 282.109
L316.047 282.572
L316.181 280.358
L316.225 280.55
L316.672 271.214
L317.252 255.384
L317.297 255.685
L317.386 254.866
L317.431 255.026
L317.565 254.708
L318.502 275.452
L318.547 275.242
L318.859 278.52
L318.904 278.266
L319.038 279.188
L319.082 279.101
L319.127 279.103
L319.886 293.7
L320.109 299.324
L320.913 317.501
L320.957 317.688
L321.136 316.304
L321.359 313.55
L322.386 284.514
L322.788 278.684
L322.832 279.165
L322.877 279.28
L322.966 278.78
L323.323 281.671
L324.037 299.894
L324.127 300.2
L324.171 300.508
L324.216 300.348
L324.662 289.748
L324.886 281.701
L325.109 277.14
L325.153 277.152
L325.332 275.545
L325.421 275.174
L325.6 273.805
L325.644 273.983
L325.689 273.694
L326.18 254.354
L326.894 215.182
L327.118 212.076
L327.162 212.333
L327.252 211.186
L327.296 211.811
L327.341 212.686
L327.385 212.488
L327.475 211.089
L327.653 212.923
L327.787 214.201
L327.832 213.63
L327.921 213.378
L328.1 211.216
L328.144 211.83
L328.457 204.205
L328.501 204.385
L328.546 205.346
L328.725 201.417
L328.769 201.386
L328.814 201.528
L328.992 199.482
L329.617 213.796
L330.466 252.056
L330.51 252.155
L330.555 253.272
L330.6 252.965
L330.867 248.989
L331.448 222.258
L331.76 213.314
L331.805 213.554
L332.028 216.793
L332.385 226.489
L332.921 245.1
L332.965 244.827
L333.099 245.757
L333.144 245.442
L333.189 245.403
L333.233 245.555
L333.278 246.545
L333.323 245.773
L333.367 245.761
L333.501 244.416
L333.546 244.259
L333.814 239.015
L333.992 237.6
L334.037 236.863
L334.171 238.663
L334.215 238.38
L334.26 238.462
L334.751 249.779
L335.287 270.065
L335.331 269.851
L335.555 274.737
L335.599 274.21
L335.644 274.683
L335.688 274.65
L335.733 275.18
L336.001 269.395
L336.046 269.198
L336.269 265.212
L336.313 265.828
L336.358 265.533
L336.403 264.744
L336.447 265.12
L336.492 265.134
L336.671 270.136
L337.072 288.628
L337.429 307.471
L337.697 312.586
L337.742 312.756
L338.501 301.36
L338.769 302.852
L338.992 306.484
L339.036 306.064
L339.081 306.24
L339.394 312.248
L339.438 312.006
L339.929 319.994
L340.465 309.015
L340.599 303.037
L340.867 288.429
L341.402 273.545
L341.447 274.334
L341.536 274.114
L341.76 272.016
L341.804 273.516
L341.893 273.316
L341.938 272.943
L341.983 273.876
L342.027 273.152
L342.117 272.959
L342.161 272.08
L342.251 272.505
L342.295 272.216
L342.429 274.364
L342.474 275.812
L342.563 275.672
L342.742 274.564
L342.786 274.897
L342.786 274.897
L342.786 274.897
L342.831 274.458
L342.876 274.828
L342.92 275.163
L343.009 275.019
L343.367 268.306
L343.768 253.765
L344.215 235.064
L344.393 231.256
L344.438 231.705
L344.483 230.813
L344.483 230.813
L344.483 230.813
L344.527 231.789
L344.572 231.456
L344.616 231.273
L344.795 233.2
L344.84 233.14
L344.929 234.326
L344.974 234.226
L345.108 232.779
L345.42 222.424
L345.822 202.596
L345.956 198.616
L346 199.278
L346.179 203.172
L346.447 218.839
L346.893 244.339
L346.938 244.399
L347.027 246.154
L347.473 222.316
L348.009 176.071
L348.277 164.027
L348.322 163.751
L348.634 172.368
L349.393 209.767
L349.705 219.164
L349.75 218.96
L349.75 218.96
L349.75 218.96
L349.973 220.224
L350.063 223.097
L350.107 222.164
L350.464 214.599
L350.509 214.555
L350.866 211.193
L351.045 213.475
L351.089 213.499
L351.446 223.831
L351.759 233.89
L351.848 235.727
L351.893 235.565
L351.937 235.789
L351.982 235.632
L352.116 234.163
L352.161 234.367
L352.428 224.991
L352.741 219.896
L353.232 240.649
L353.544 258.159
L353.857 266.793
L353.902 266.355
L353.991 264.731
L354.036 265.877
L354.08 266.381
L354.259 264.152
L354.303 264.726
L354.303 264.726
L354.303 264.726
L354.348 264.143
L355.152 280.973
L355.196 280.699
L355.464 286.666
L355.509 286.545
L355.643 287.889
L355.687 287.791
L355.776 289.345
L355.955 291.117
L356 290.886
L356.044 290.947
L356.089 290.193
L356.134 290.275
L356.178 290.979
L356.357 286.881
L356.401 287.021
L356.446 287.053
L356.669 285.039
L356.714 284.696
L356.759 285.337
L357.026 279.321
L357.071 279.429
L357.473 270.107
L357.517 270.109
L357.83 263.733
L357.875 263.513
L357.919 264.246
L357.919 264.246
L357.919 264.246
L358.008 262.837
L358.053 263.145
L358.098 263.373
L358.991 242.049
L359.124 242.807
L359.169 242.664
L359.303 244.653
L359.973 264.178
L360.017 264.377
L360.107 263.161
L360.374 256.363
L360.865 233.999
L361.178 225.508
L361.267 225.134
L361.401 223.345
L361.446 223.929
L361.49 223.044
L361.669 225.427
L361.758 224.893
L361.892 226.106
L362.026 225.836
L362.071 225.938
L362.115 225.875
L362.16 225.447
L362.16 225.447
L362.16 225.447
L362.249 226.74
L362.339 223.793
L362.383 224.705
L362.74 230.758
L363.588 264.347
L363.722 262.666
L363.856 260.437
L364.303 247.909
L364.347 248.025
L364.481 246.567
L364.571 247.171
L364.615 246.653
L364.66 246.945
L364.928 251.124
L365.106 258.515
L365.597 279.042
L366.133 293.865
L366.579 300.923
L366.847 307.139
L367.026 308.639
L367.07 308.275
L367.16 308.365
L367.204 308.449
L367.383 306.46
L367.874 294.049
L367.919 294.461
L368.097 292.382
L368.142 292.63
L368.186 292.228
L368.231 293.095
L368.276 292.778
L368.856 285.403
L368.901 285.054
L369.258 277.385
L369.704 279.515
L369.749 279.71
L369.793 279.159
L369.793 279.159
L369.793 279.159
L369.927 280.091
L370.195 277.54
L370.329 275.717
L370.552 268.153
L370.776 265.204
L371.177 270.266
L371.713 285.856
L371.758 285.771
L371.892 288.444
L372.561 276.391
L372.829 270.957
L372.918 268.715
L373.275 262.086
L373.9 251.076
L373.945 251.132
L373.99 251.948
L374.034 251.608
L374.079 251.431
L374.079 251.431
L374.079 251.431
L374.168 252.384
L374.347 255.428
L374.525 260.275
L374.838 267.791
L375.016 269.803
L375.329 262.335
L376.043 228.235
L376.177 225.16
L376.222 225.193
L376.266 225.829
L376.311 225.738
L376.356 225.382
L376.757 230.138
L377.114 224.712
L377.516 210.81
L377.739 206.841
L378.096 214.316
L378.543 232.368
L378.588 232.179
L379.302 251.701
L379.659 269.367
L379.927 274.897
L380.105 272.634
L380.328 270.065
L380.596 262.296
L380.641 262.888
L380.686 262.816
L381.4 244.763
L381.623 234.676
L381.802 230.721
L381.846 230.787
L381.891 231.145
L381.936 230.835
L381.98 229.549
L382.025 229.864
L382.248 238.462
L382.605 257.208
L382.918 261.795
L383.007 259.485
L383.721 226.632
L384.123 220.376
L384.212 219.846
L384.48 226.256
L384.614 229.055
L384.703 228.613
L384.792 228.886
L384.837 228.559
L384.971 230.782
L385.06 229.152
L385.105 229.199
L385.15 229.178
L385.328 225.929
L385.373 226.24
L385.551 227.961
L385.596 227.789
L386.176 244.837
L386.355 247.405
L386.4 246.734
L386.801 239.742
L387.069 237.351
L387.337 241.718
L387.694 251.637
L387.739 252.505
L387.783 252.242
L387.828 251.755
L387.873 251.795
L387.917 252.025
L387.962 250.86
L388.007 250.993
L388.051 251.47
L388.096 250.998
L388.274 249.581
L388.364 249.08
L388.408 249.205
L388.721 253.974
L389.524 287.292
L389.569 287.022
L389.658 288.062
L390.105 274.214
L390.283 270.864
L390.328 270.952
L390.372 270.686
L390.417 271.249
L390.462 270.401
L390.506 271.235
L390.596 270.831
L390.685 272.11
L390.73 271.942
L390.997 275.701
L391.042 276.834
L391.131 276.409
L391.176 276.354
L391.265 278.48
L391.31 276.941
L391.355 276.779
L391.712 282.497
L392.292 301.264
L392.337 301.064
L392.515 302.839
L392.604 302.752
L393.051 293.514
L393.096 292.554
L393.185 292.738
L393.229 292.547
L393.274 292.893
L393.274 292.893
L393.274 292.893
L393.319 292.469
L393.363 292.796
L393.408 293.018
L393.899 304.301
L393.944 304.224
L393.988 304.483
L394.301 298.862
L394.836 275.799
L394.926 274.197
L395.328 263.463
L395.64 259.699
L395.908 266.112
L396.22 272.131
L396.622 279.316
L396.667 279.166
L396.845 277.703
L396.89 277.927
L396.979 275.518
L397.024 275.661
L397.247 278.106
L397.292 278.617
L397.292 278.617
L397.292 278.617
L397.336 277.897
L397.381 278.177
L397.47 279.893
L397.515 279.414
L397.56 279.547
L397.604 280.623
L397.604 280.623
L397.604 280.623
L397.738 278.161
L397.783 278.293
L397.827 279.042
L397.872 278.862
L398.14 272.729
L398.586 251.451
L399.033 239.365
L399.077 239.59
L399.211 240.663
L399.256 240.227
L399.256 240.227
L399.256 240.227
L399.434 243.185
L399.658 247.595
L399.792 248.386
L399.836 248.319
L400.015 250.268
L400.149 249.238
L400.64 237.134
L400.684 237.331
L400.729 237.182
L400.863 235.005
L400.997 233.721
L401.711 245.751
L401.845 244.708
L401.89 245.093
L401.934 244.371
L401.979 244.439
L402.024 245.052
L402.068 244.445
L402.113 244.53
L402.157 244.434
L402.202 244.189
L402.336 245.618
L402.381 245.569
L402.425 244.886
L402.693 253.774
L403.273 276.587
L403.452 277.938
L403.586 275.396
L403.898 267.708
L404.077 265.763
L404.389 272.337
L404.702 285.086
L405.059 294.364
L405.104 293.949
L405.238 292.299
L405.416 288.854
L405.505 287.424
L405.639 285.294
L405.684 285.414
L405.729 285.149
L405.729 285.149
L405.729 285.149
L405.773 285.544
L405.818 285.156
L405.952 285.464
L406.398 294.573
L406.711 291.253
L407.336 267.494
L407.559 263.81
L407.604 263.981
L407.827 268.305
L408.095 274.216
L408.452 281.766
L408.809 286.451
L408.853 286.187
L408.898 285.474
L408.898 285.474
L408.898 285.474
L409.211 289.062
L409.255 289.149
L409.3 288.61
L409.389 290.053
L409.434 289.626
L409.702 292.418
L409.925 295.12
L410.327 300.846
L410.46 298.658
L410.505 299.339
L410.55 298.856
L410.594 298.885
L410.818 294.445
L411.309 282.016
L411.353 281.947
L411.532 279.994
L411.621 281.367
L411.889 285.297
L412.291 297.86
L412.425 296.557
L412.469 296.759
L412.514 296.663
L412.871 282.604
L413.273 252.281
L413.585 241.914
L413.63 241.345
L413.719 241.597
L413.764 241.746
L414.166 250.775
L414.344 249.118
L414.523 243.755
L415.058 217.269
L415.505 194.334
L415.549 194.116
L415.728 191.136
L416.13 197.737
L416.621 212.541
L416.755 213.334
L417.29 195.491
L417.514 189.227
L417.692 191.197
L418.094 205.331
L419.522 275.858
L419.79 284.533
L419.969 288.028
L420.013 287.886
L420.058 287.412
L420.103 287.529
L420.147 288.141
L420.192 287.819
L420.237 287.343
L420.46 290.257
L420.504 289.176
L420.549 289.699
L421.129 309.499
L421.174 309.234
L421.353 311.362
L421.397 311.167
L421.62 305.322
L422.112 286.829
L422.156 287.047
L422.201 286.891
L422.245 286.704
L422.29 286.873
L422.513 294.215
L423.183 314.59
L423.406 309.524
L423.54 306.589
L423.897 294.598
L423.942 294.439
L424.299 284.82
L424.522 281.791
L424.567 281.697
L424.611 282.612
L424.611 282.612
L424.611 282.612
L424.745 281.393
L424.79 281.195
L424.835 280.117
L424.924 280.133
L424.968 280.099
L425.013 280.256
L425.147 284.457
L425.192 284.434
L425.504 294.125
L425.906 308.583
L426.218 314.388
L426.263 314.47
L426.442 311.908
L426.486 312.319
L426.531 312.082
L426.754 310.525
L426.888 308.277
L426.933 308.774
L427.379 312.659
L427.558 313.991
L427.87 318.178
L427.915 318.024
L427.959 317.583
L428.004 317.756
L428.45 322.192
L428.718 323.63
L429.566 313.929
L429.611 313.98
L429.745 311.089
L429.79 311.315
L430.102 303.323
L430.995 276.331
L431.04 276.424
L431.263 273.761
L431.352 273.135
L431.486 274.607
L431.531 274.245
L431.575 274.568
L431.62 274.048
L431.664 274.209
L431.709 274.354
L431.754 273.911
L432.022 278.384
L432.111 276.84
L432.156 277.24
L432.602 257.473
L433.004 214.718
L433.405 177.432
L433.763 164.876
L433.807 164.762
L434.209 173.338
L434.254 172.982
L434.343 171.724
L434.388 172.897
L434.388 172.897
L434.388 172.897
L434.432 171.667
L434.477 171.783
L434.521 172.705
L434.566 172.476
L434.789 166.325
L434.834 166.412
L434.879 166.585
L435.012 165.514
L435.057 165.842
L435.102 165.922
L435.28 170.398
L435.637 192.279
L435.905 201.916
L436.039 203.75
L436.084 204.786
L436.128 204.065
L437.155 161.541
L437.289 163.307
L437.78 201.288
L438.405 261.677
L438.628 270.918
L438.852 275.175
L439.298 278.528
L439.343 277.736
L439.476 275.729
L439.521 275.84
L439.566 275.814
L439.744 273.589
L439.789 273.639
L440.057 270.656
L440.146 271.106
L440.994 295.738
L441.039 295.999
L441.307 292.064
L441.753 276.953
L441.976 273.309
L442.021 273.402
L442.155 272.961
L442.378 277.123
L443.182 314.623
L443.405 319.844
L443.807 312.742
L444.164 300.336
L444.565 292.106
L444.655 291.007
L444.744 289.228
L444.789 289.322
L444.833 289.719
L445.056 286.895
L445.101 286.866
L445.28 284.985
L445.324 285.125
L445.369 286.199
L445.414 286.017
L445.592 284.187
L445.681 284.481
L445.726 285.995
L445.726 285.995
L445.726 285.995
L445.994 279.139
L446.128 276.821
L446.619 261.382
L446.664 260.763
L446.664 260.763
L446.664 260.763
L446.708 261.593
L446.797 259.68
L446.842 259.69
L447.065 263.685
L447.288 269.514
L447.601 273.739
L447.824 270.42
L447.958 266.208
L448.003 266.661
L448.36 262.878
L448.404 263.797
L449.119 280.845
L449.163 280.707
L449.387 278.761
L449.476 279.328
L449.61 274.087
L449.967 263.712
L450.056 262.822
L450.101 263.063
L450.145 262.879
L450.279 263.625
L450.369 264.004
L450.592 270.29
L450.636 270.32
L450.86 275.307
L450.904 275.059
L451.038 277.435
L451.083 276.653
L451.261 270.909
L451.529 262.213
L451.752 256.069
L451.976 257.041
L452.377 262.324
L452.422 262.168
L452.601 265.372
L452.645 264.879
L452.868 259.018
L453.181 256.066
L453.226 256.102
L453.315 255.465
L453.538 261.595
L454.163 277.571
L454.252 278.204
L454.431 274.046
L454.476 274.386
L454.877 269.026
L455.011 268.219
L455.056 268.467
L455.279 271.354
L455.368 271.108
L455.413 270.861
L455.547 272.467
L455.77 273.848
L455.993 270.36
L456.083 269.754
L456.172 270.801
L456.44 267.358
L456.841 275.902
L456.886 275.802
L456.975 273.882
L457.02 274.593
L457.199 277.75
L457.243 277.911
L457.422 274.46
L457.824 259.844
L458.627 224.428
L458.672 224.423
L459.118 229.865
L459.52 242.462
L459.609 244.06
L459.877 252.933
L459.922 252.88
L460.011 254.171
L460.457 261.114
L460.591 259.195
L460.636 259.961
L460.68 259.731
L460.904 255.466
L460.993 255.701
L461.038 256.348
L461.082 255.861
L461.305 255.107
L461.573 259.339
L461.663 258.468
L461.841 256.419
L462.02 248.913
L462.779 218.729
L462.868 219.419
L462.912 219.405
L463.582 231.808
L463.627 231.698
L463.627 231.698
L463.627 231.698
L463.716 232.4
L464.207 240.013
L464.475 247.532
L464.52 246.836
L465.144 257.3
L465.189 257.332
L465.68 268.835
L465.948 275.913
L466.528 261.935
L466.885 248.253
L467.064 245.606
L467.109 246.151
L467.287 249.4
L467.868 271.028
L467.912 270.597
L467.957 270.734
L468.001 270.485
L468.135 271.857
L469.162 248.832
L469.207 249.346
L469.251 249.933
L469.296 249.566
L469.519 246.075
L469.564 246.779
L469.608 247.16
L469.653 246.789
L469.698 246.731
L469.787 248.676
L469.876 248.442
L469.966 249.087
L470.814 276.854
L470.992 278.064
L471.082 276.875
L471.126 277.678
L471.216 277.668
L471.305 277.61
L471.439 276.557
L471.573 277.497
L471.617 277.522
L471.662 278.493
L471.751 276.021
L471.796 276.78
L471.885 275.52
L471.93 275.609
L471.974 275.56
L472.242 266.512
L472.733 248.157
L472.956 245.627
L473.671 274.047
L473.76 275.383
L473.805 274.646
L473.983 277.37
L474.072 276.663
L474.162 275.777
L474.206 276.084
L474.251 275.925
L474.296 275.939
L474.876 288.573
L474.921 288.209
L475.01 289.937
L475.055 289.449
L475.278 282.444
L476.171 219.244
L476.349 213.31
L476.394 213.578
L476.438 214.535
L476.528 214.413
L476.84 219.891
L477.331 234.278
L477.42 235.278
L477.51 237.048
L478.581 269.011
L478.76 267.379
L478.804 268.078
L478.849 268.038
L479.072 264.35
L479.608 254.845
L479.786 258.149
L479.876 258.667
L479.92 257.899
L480.01 257.914
L480.054 257.986
L480.144 259.057
L480.188 258.94
L480.322 256.452
L480.456 256.818
L480.59 254.454
L480.947 245.174
L480.992 245.241
L481.081 244.303
L481.304 239.562
L481.349 239.625
L481.393 239.591
L481.706 232.444
L481.751 232.283
L482.242 216.879
L482.42 211.979
L482.733 205.65
L483.09 196.979
L483.134 196.998
L483.313 192.543
L483.492 190.586
L483.893 201.913
L484.831 256.93
L484.875 256.346
L484.92 256.44
L484.965 255.808
L484.965 255.808
L484.965 255.808
L485.009 256.618
L485.188 251.828
L485.277 251.065
L485.5 247.814
L485.545 247.76
L485.59 247.255
L485.634 247.557
L485.947 252.228
L486.215 260.568
L486.482 265.467
L486.527 265.03
L486.706 266.655
L486.795 266.55
L486.84 266.701
L487.018 270.125
L487.063 269.969
L487.241 274.518
L488 309.568
L488.179 310.554
L488.223 310.001
L488.223 310.001
L488.223 310.001
L488.268 310.593
L488.268 310.593
L488.268 310.593
L488.491 308.413
L488.625 308.504
L488.759 307.027
L489.116 312.059
L489.964 332.96
L490.366 344.417
L490.545 348.699
L490.723 350.784
L490.812 351.812
L490.857 351.155
L491.348 339.757
L491.928 325.484
L492.018 324.61
L492.152 325.978
L492.241 325.279
L492.286 325.627
L492.33 325.716
L492.42 325.165
L492.464 326.066
L492.509 325.302
L492.553 325.005
L492.643 325.11
L492.687 325.866
L492.732 325.506
L492.911 322.803
L493.937 298.533
L493.982 298.71
L494.16 300.757
L494.562 306.606
L494.607 306.462
L494.741 308.617
L494.83 309.461
L494.875 309.404
L494.919 309.168
L494.964 308.198
L495.009 308.218
L495.053 309.184
L495.098 308.562
L495.276 308.006
L495.321 308.961
L495.41 308.627
L495.589 309.438
L495.634 309.418
L495.857 304.376
L496.169 295.75
L496.616 285.269
L496.75 286.865
L496.884 285.208
L496.973 285.85
L497.241 279.653
L497.508 271.426
L498 242.186
L498.223 233.817
L498.58 224.367
L498.624 224.841
L498.848 216.486
L499.249 204.916
L499.339 203.233
L499.383 203.938
L499.473 203.466
L499.517 203.663
L499.607 205.374
L500.365 222.095
L500.41 221.986
L500.589 218.561
L500.901 202.888
L501.258 183.209
L501.348 180.402
L501.481 177.452
L501.526 177.947
L501.571 178.336
L501.705 185.065
L501.972 204.764
L502.33 237.545
L502.642 255.477
L502.776 257.705
L502.865 258.875
L502.91 258.616
L502.999 257.899
L503.133 258
L503.356 260.357
L503.892 252.006
L504.16 245.421
L504.249 245.063
L504.338 241.285
L504.428 241.856
L504.562 243.873
L505.008 258.019
L505.187 264.592
L505.454 273.14
L505.499 273.3
L505.678 275.531
L505.767 276.435
L505.812 276.188
L506.035 271.661
L506.079 270.744
L506.124 271.581
L506.169 271.318
L506.436 262.768
L506.57 260.236
L506.615 260.383
L506.66 260.746
L506.794 259.06
L507.374 280.045
L507.642 289.749
L507.91 295.789
L507.954 295.558
L508.177 297.6
L508.356 295.215
L508.401 295.691
L508.49 294.611
L508.668 296.623
L508.802 297.856
L508.847 297.454
L508.892 297.312
L508.981 298.328
L509.026 298.275
L509.07 298.131
L509.115 298.228
L509.16 298.347
L509.204 298.3
L509.249 297.812
L509.293 298.205
L509.338 298.188
L509.383 297.5
L509.472 297.527
L509.517 297.952
L509.561 297.527
L509.606 296.892
L509.651 297.242
L509.695 297.754
L509.695 297.754
L509.695 297.754
L509.74 297.192
L509.74 297.192
L509.74 297.192
L509.918 298.69
L509.963 298.009
L510.008 298.533
L510.32 302.892
L510.365 302.735
L510.409 302.874
L510.454 303.656
L510.454 303.656
L510.454 303.656
L510.588 302.052
L510.633 302.081
L510.677 302.665
L510.677 302.665
L510.677 302.665
L510.945 299.716
L510.99 299.785
L511.034 300.624
L511.079 300.311
L511.168 299.2
L511.213 299.611
L511.302 300.415
L512.15 309.903
L512.195 310.858
L512.24 310.258
L512.284 309.253
L512.329 310.243
L512.418 311.113
L512.463 310.627
L512.82 304.594
L513.49 286.697
L513.534 286.629
L513.579 288.01
L513.668 287.696
L513.713 287.887
L514.695 306.365
L514.873 307.877
L515.186 301.587
L515.454 293.234
L516.614 254.471
L517.15 234.994
L517.463 229.632
L517.507 230.405
L517.596 231.283
L517.686 232.916
L517.909 242.048
L518.355 298.596
L518.355 298.596" style="fill:none;stroke:#0000ff;stroke-linecap:square;"/>
   </g>
   <g id="patch_3">
    <path d="
M72 43.2
L518.4 43.2" style="fill:none;stroke:#000000;stroke-linecap:square;stroke-linejoin:miter;"/>
   </g>
   <g id="patch_4">
    <path d="
M518.4 388.8
L518.4 43.2" style="fill:none;stroke:#000000;stroke-linecap:square;stroke-linejoin:miter;"/>
   </g>
   <g id="patch_5">
    <path d="
M72 388.8
L518.4 388.8" style="fill:none;stroke:#000000;stroke-linecap:square;stroke-linejoin:miter;"/>
   </g>
   <g id="patch_6">
    <path d="
M72 388.8
L72 43.2" style="fill:none;stroke:#000000;stroke-linecap:square;stroke-linejoin:miter;"/>
   </g>
   <g id="matplotlib.axis_1">
    <g id="xtick_1">
     <g id="line2d_2">
      <defs>
       <path d="
M0 0
L0 -4" id="m93b0483c22" style="stroke:#000000;stroke-width:0.5;"/>
      </defs>
      <g>
       <use style="stroke:#000000;stroke-width:0.5;" x="72.0" xlink:href="#m93b0483c22" y="388.8"/>
      </g>
     </g>
     <g id="line2d_3">
      <defs>
       <path d="
M0 0
L0 4" id="m741efc42ff" style="stroke:#000000;stroke-width:0.5;"/>
      </defs>
      <g>
       <use style="stroke:#000000;stroke-width:0.5;" x="72.0" xlink:href="#m741efc42ff" y="43.2"/>
      </g>
     </g>
     <g id="text_1">
      <!-- 0 -->
      <defs>
       <path d="
M31.7812 66.4062
Q24.1719 66.4062 20.3281 58.9062
Q16.5 51.4219 16.5 36.375
Q16.5 21.3906 20.3281 13.8906
Q24.1719 6.39062 31.7812 6.39062
Q39.4531 6.39062 43.2812 13.8906
Q47.125 21.3906 47.125 36.375
Q47.125 51.4219 43.2812 58.9062
Q39.4531 66.4062 31.7812 66.4062
M31.7812 74.2188
Q44.0469 74.2188 50.5156 64.5156
Q56.9844 54.8281 56.9844 36.375
Q56.9844 17.9688 50.5156 8.26562
Q44.0469 -1.42188 31.7812 -1.42188
Q19.5312 -1.42188 13.0625 8.26562
Q6.59375 17.9688 6.59375 36.375
Q6.59375 54.8281 13.0625 64.5156
Q19.5312 74.2188 31.7812 74.2188" id="BitstreamVeraSans-Roman-30"/>
      </defs>
      <g transform="translate(68.9765625 401.918125)scale(0.12 -0.12)">
       <use xlink:href="#BitstreamVeraSans-Roman-30"/>
      </g>
     </g>
    </g>
    <g id="xtick_2">
     <g id="line2d_4">
      <g>
       <use style="stroke:#000000;stroke-width:0.5;" x="161.28" xlink:href="#m93b0483c22" y="388.8"/>
      </g>
     </g>
     <g id="line2d_5">
      <g>
       <use style="stroke:#000000;stroke-width:0.5;" x="161.28" xlink:href="#m741efc42ff" y="43.2"/>
      </g>
     </g>
     <g id="text_2">
      <!-- 200 -->
      <defs>
       <path d="
M19.1875 8.29688
L53.6094 8.29688
L53.6094 0
L7.32812 0
L7.32812 8.29688
Q12.9375 14.1094 22.625 23.8906
Q32.3281 33.6875 34.8125 36.5312
Q39.5469 41.8438 41.4219 45.5312
Q43.3125 49.2188 43.3125 52.7812
Q43.3125 58.5938 39.2344 62.25
Q35.1562 65.9219 28.6094 65.9219
Q23.9688 65.9219 18.8125 64.3125
Q13.6719 62.7031 7.8125 59.4219
L7.8125 69.3906
Q13.7656 71.7812 18.9375 73
Q24.125 74.2188 28.4219 74.2188
Q39.75 74.2188 46.4844 68.5469
Q53.2188 62.8906 53.2188 53.4219
Q53.2188 48.9219 51.5312 44.8906
Q49.8594 40.875 45.4062 35.4062
Q44.1875 33.9844 37.6406 27.2188
Q31.1094 20.4531 19.1875 8.29688" id="BitstreamVeraSans-Roman-32"/>
      </defs>
      <g transform="translate(150.665625 401.918125)scale(0.12 -0.12)">
       <use xlink:href="#BitstreamVeraSans-Roman-32"/>
       <use x="63.623046875" xlink:href="#BitstreamVeraSans-Roman-30"/>
       <use x="127.24609375" xlink:href="#BitstreamVeraSans-Roman-30"/>
      </g>
     </g>
    </g>
    <g id="xtick_3">
     <g id="line2d_6">
      <g>
       <use style="stroke:#000000;stroke-width:0.5;" x="250.56" xlink:href="#m93b0483c22" y="388.8"/>
      </g>
     </g>
     <g id="line2d_7">
      <g>
       <use style="stroke:#000000;stroke-width:0.5;" x="250.56" xlink:href="#m741efc42ff" y="43.2"/>
      </g>
     </g>
     <g id="text_3">
      <!-- 400 -->
      <defs>
       <path d="
M37.7969 64.3125
L12.8906 25.3906
L37.7969 25.3906
z

M35.2031 72.9062
L47.6094 72.9062
L47.6094 25.3906
L58.0156 25.3906
L58.0156 17.1875
L47.6094 17.1875
L47.6094 0
L37.7969 0
L37.7969 17.1875
L4.89062 17.1875
L4.89062 26.7031
z
" id="BitstreamVeraSans-Roman-34"/>
      </defs>
      <g transform="translate(239.799375 401.918125)scale(0.12 -0.12)">
       <use xlink:href="#BitstreamVeraSans-Roman-34"/>
       <use x="63.623046875" xlink:href="#BitstreamVeraSans-Roman-30"/>
       <use x="127.24609375" xlink:href="#BitstreamVeraSans-Roman-30"/>
      </g>
     </g>
    </g>
    <g id="xtick_4">
     <g id="line2d_8">
      <g>
       <use style="stroke:#000000;stroke-width:0.5;" x="339.84" xlink:href="#m93b0483c22" y="388.8"/>
      </g>
     </g>
     <g id="line2d_9">
      <g>
       <use style="stroke:#000000;stroke-width:0.5;" x="339.84" xlink:href="#m741efc42ff" y="43.2"/>
      </g>
     </g>
     <g id="text_4">
      <!-- 600 -->
      <defs>
       <path d="
M33.0156 40.375
Q26.375 40.375 22.4844 35.8281
Q18.6094 31.2969 18.6094 23.3906
Q18.6094 15.5312 22.4844 10.9531
Q26.375 6.39062 33.0156 6.39062
Q39.6562 6.39062 43.5312 10.9531
Q47.4062 15.5312 47.4062 23.3906
Q47.4062 31.2969 43.5312 35.8281
Q39.6562 40.375 33.0156 40.375
M52.5938 71.2969
L52.5938 62.3125
Q48.875 64.0625 45.0938 64.9844
Q41.3125 65.9219 37.5938 65.9219
Q27.8281 65.9219 22.6719 59.3281
Q17.5312 52.7344 16.7969 39.4062
Q19.6719 43.6562 24.0156 45.9219
Q28.375 48.1875 33.5938 48.1875
Q44.5781 48.1875 50.9531 41.5156
Q57.3281 34.8594 57.3281 23.3906
Q57.3281 12.1562 50.6875 5.35938
Q44.0469 -1.42188 33.0156 -1.42188
Q20.3594 -1.42188 13.6719 8.26562
Q6.98438 17.9688 6.98438 36.375
Q6.98438 53.6562 15.1875 63.9375
Q23.3906 74.2188 37.2031 74.2188
Q40.9219 74.2188 44.7031 73.4844
Q48.4844 72.75 52.5938 71.2969" id="BitstreamVeraSans-Roman-36"/>
      </defs>
      <g transform="translate(329.205 401.918125)scale(0.12 -0.12)">
       <use xlink:href="#BitstreamVeraSans-Roman-36"/>
       <use x="63.623046875" xlink:href="#BitstreamVeraSans-Roman-30"/>
       <use x="127.24609375" xlink:href="#BitstreamVeraSans-Roman-30"/>
      </g>
     </g>
    </g>
    <g id="xtick_5">
     <g id="line2d_10">
      <g>
       <use style="stroke:#000000;stroke-width:0.5;" x="429.12" xlink:href="#m93b0483c22" y="388.8"/>
      </g>
     </g>
     <g id="line2d_11">
      <g>
       <use style="stroke:#000000;stroke-width:0.5;" x="429.12" xlink:href="#m741efc42ff" y="43.2"/>
      </g>
     </g>
     <g id="text_5">
      <!-- 800 -->
      <defs>
       <path d="
M31.7812 34.625
Q24.75 34.625 20.7188 30.8594
Q16.7031 27.0938 16.7031 20.5156
Q16.7031 13.9219 20.7188 10.1562
Q24.75 6.39062 31.7812 6.39062
Q38.8125 6.39062 42.8594 10.1719
Q46.9219 13.9688 46.9219 20.5156
Q46.9219 27.0938 42.8906 30.8594
Q38.875 34.625 31.7812 34.625
M21.9219 38.8125
Q15.5781 40.375 12.0312 44.7188
Q8.5 49.0781 8.5 55.3281
Q8.5 64.0625 14.7188 69.1406
Q20.9531 74.2188 31.7812 74.2188
Q42.6719 74.2188 48.875 69.1406
Q55.0781 64.0625 55.0781 55.3281
Q55.0781 49.0781 51.5312 44.7188
Q48 40.375 41.7031 38.8125
Q48.8281 37.1562 52.7969 32.3125
Q56.7812 27.4844 56.7812 20.5156
Q56.7812 9.90625 50.3125 4.23438
Q43.8438 -1.42188 31.7812 -1.42188
Q19.7344 -1.42188 13.25 4.23438
Q6.78125 9.90625 6.78125 20.5156
Q6.78125 27.4844 10.7812 32.3125
Q14.7969 37.1562 21.9219 38.8125
M18.3125 54.3906
Q18.3125 48.7344 21.8438 45.5625
Q25.3906 42.3906 31.7812 42.3906
Q38.1406 42.3906 41.7188 45.5625
Q45.3125 48.7344 45.3125 54.3906
Q45.3125 60.0625 41.7188 63.2344
Q38.1406 66.4062 31.7812 66.4062
Q25.3906 66.4062 21.8438 63.2344
Q18.3125 60.0625 18.3125 54.3906" id="BitstreamVeraSans-Roman-38"/>
      </defs>
      <g transform="translate(418.4728125 401.918125)scale(0.12 -0.12)">
       <use xlink:href="#BitstreamVeraSans-Roman-38"/>
       <use x="63.623046875" xlink:href="#BitstreamVeraSans-Roman-30"/>
       <use x="127.24609375" xlink:href="#BitstreamVeraSans-Roman-30"/>
      </g>
     </g>
    </g>
    <g id="xtick_6">
     <g id="line2d_12">
      <g>
       <use style="stroke:#000000;stroke-width:0.5;" x="518.4" xlink:href="#m93b0483c22" y="388.8"/>
      </g>
     </g>
     <g id="line2d_13">
      <g>
       <use style="stroke:#000000;stroke-width:0.5;" x="518.4" xlink:href="#m741efc42ff" y="43.2"/>
      </g>
     </g>
     <g id="text_6">
      <!-- 1000 -->
      <defs>
       <path d="
M12.4062 8.29688
L28.5156 8.29688
L28.5156 63.9219
L10.9844 60.4062
L10.9844 69.3906
L28.4219 72.9062
L38.2812 72.9062
L38.2812 8.29688
L54.3906 8.29688
L54.3906 0
L12.4062 0
z
" id="BitstreamVeraSans-Roman-31"/>
      </defs>
      <g transform="translate(504.1875 401.918125)scale(0.12 -0.12)">
       <use xlink:href="#BitstreamVeraSans-Roman-31"/>
       <use x="63.623046875" xlink:href="#BitstreamVeraSans-Roman-30"/>
       <use x="127.24609375" xlink:href="#BitstreamVeraSans-Roman-30"/>
       <use x="190.869140625" xlink:href="#BitstreamVeraSans-Roman-30"/>
      </g>
     </g>
    </g>
    <g id="text_7">
     <!-- time (ms) -->
     <defs>
      <path id="BitstreamVeraSans-Roman-20"/>
      <path d="
M8.01562 75.875
L15.8281 75.875
Q23.1406 64.3594 26.7812 53.3125
Q30.4219 42.2812 30.4219 31.3906
Q30.4219 20.4531 26.7812 9.375
Q23.1406 -1.70312 15.8281 -13.1875
L8.01562 -13.1875
Q14.5 -2 17.7031 9.0625
Q20.9062 20.125 20.9062 31.3906
Q20.9062 42.6719 17.7031 53.6562
Q14.5 64.6562 8.01562 75.875" id="BitstreamVeraSans-Roman-29"/>
      <path d="
M52 44.1875
Q55.375 50.25 60.0625 53.125
Q64.75 56 71.0938 56
Q79.6406 56 84.2812 50.0156
Q88.9219 44.0469 88.9219 33.0156
L88.9219 0
L79.8906 0
L79.8906 32.7188
Q79.8906 40.5781 77.0938 44.375
Q74.3125 48.1875 68.6094 48.1875
Q61.625 48.1875 57.5625 43.5469
Q53.5156 38.9219 53.5156 30.9062
L53.5156 0
L44.4844 0
L44.4844 32.7188
Q44.4844 40.625 41.7031 44.4062
Q38.9219 48.1875 33.1094 48.1875
Q26.2188 48.1875 22.1562 43.5312
Q18.1094 38.875 18.1094 30.9062
L18.1094 0
L9.07812 0
L9.07812 54.6875
L18.1094 54.6875
L18.1094 46.1875
Q21.1875 51.2188 25.4844 53.6094
Q29.7812 56 35.6875 56
Q41.6562 56 45.8281 52.9688
Q50 49.9531 52 44.1875" id="BitstreamVeraSans-Roman-6d"/>
      <path d="
M9.42188 54.6875
L18.4062 54.6875
L18.4062 0
L9.42188 0
z

M9.42188 75.9844
L18.4062 75.9844
L18.4062 64.5938
L9.42188 64.5938
z
" id="BitstreamVeraSans-Roman-69"/>
      <path d="
M31 75.875
Q24.4688 64.6562 21.2812 53.6562
Q18.1094 42.6719 18.1094 31.3906
Q18.1094 20.125 21.3125 9.0625
Q24.5156 -2 31 -13.1875
L23.1875 -13.1875
Q15.875 -1.70312 12.2344 9.375
Q8.59375 20.4531 8.59375 31.3906
Q8.59375 42.2812 12.2031 53.3125
Q15.8281 64.3594 23.1875 75.875
z
" id="BitstreamVeraSans-Roman-28"/>
      <path d="
M56.2031 29.5938
L56.2031 25.2031
L14.8906 25.2031
Q15.4844 15.9219 20.4844 11.0625
Q25.4844 6.20312 34.4219 6.20312
Q39.5938 6.20312 44.4531 7.46875
Q49.3125 8.73438 54.1094 11.2812
L54.1094 2.78125
Q49.2656 0.734375 44.1875 -0.34375
Q39.1094 -1.42188 33.8906 -1.42188
Q20.7969 -1.42188 13.1562 6.1875
Q5.51562 13.8125 5.51562 26.8125
Q5.51562 40.2344 12.7656 48.1094
Q20.0156 56 32.3281 56
Q43.3594 56 49.7812 48.8906
Q56.2031 41.7969 56.2031 29.5938
M47.2188 32.2344
Q47.125 39.5938 43.0938 43.9844
Q39.0625 48.3906 32.4219 48.3906
Q24.9062 48.3906 20.3906 44.1406
Q15.875 39.8906 15.1875 32.1719
z
" id="BitstreamVeraSans-Roman-65"/>
      <path d="
M18.3125 70.2188
L18.3125 54.6875
L36.8125 54.6875
L36.8125 47.7031
L18.3125 47.7031
L18.3125 18.0156
Q18.3125 11.3281 20.1406 9.42188
Q21.9688 7.51562 27.5938 7.51562
L36.8125 7.51562
L36.8125 0
L27.5938 0
Q17.1875 0 13.2344 3.875
Q9.28125 7.76562 9.28125 18.0156
L9.28125 47.7031
L2.6875 47.7031
L2.6875 54.6875
L9.28125 54.6875
L9.28125 70.2188
z
" id="BitstreamVeraSans-Roman-74"/>
      <path d="
M44.2812 53.0781
L44.2812 44.5781
Q40.4844 46.5312 36.375 47.5
Q32.2812 48.4844 27.875 48.4844
Q21.1875 48.4844 17.8438 46.4375
Q14.5 44.3906 14.5 40.2812
Q14.5 37.1562 16.8906 35.375
Q19.2812 33.5938 26.5156 31.9844
L29.5938 31.2969
Q39.1562 29.25 43.1875 25.5156
Q47.2188 21.7812 47.2188 15.0938
Q47.2188 7.46875 41.1875 3.01562
Q35.1562 -1.42188 24.6094 -1.42188
Q20.2188 -1.42188 15.4531 -0.5625
Q10.6875 0.296875 5.42188 2
L5.42188 11.2812
Q10.4062 8.6875 15.2344 7.39062
Q20.0625 6.10938 24.8125 6.10938
Q31.1562 6.10938 34.5625 8.28125
Q37.9844 10.4531 37.9844 14.4062
Q37.9844 18.0625 35.5156 20.0156
Q33.0625 21.9688 24.7031 23.7812
L21.5781 24.5156
Q13.2344 26.2656 9.51562 29.9062
Q5.8125 33.5469 5.8125 39.8906
Q5.8125 47.6094 11.2812 51.7969
Q16.75 56 26.8125 56
Q31.7812 56 36.1719 55.2656
Q40.5781 54.5469 44.2812 53.0781" id="BitstreamVeraSans-Roman-73"/>
     </defs>
     <g transform="translate(266.6015625 418.531875)scale(0.12 -0.12)">
      <use xlink:href="#BitstreamVeraSans-Roman-74"/>
      <use x="39.208984375" xlink:href="#BitstreamVeraSans-Roman-69"/>
      <use x="66.9921875" xlink:href="#BitstreamVeraSans-Roman-6d"/>
      <use x="164.404296875" xlink:href="#BitstreamVeraSans-Roman-65"/>
      <use x="225.927734375" xlink:href="#BitstreamVeraSans-Roman-20"/>
      <use x="257.71484375" xlink:href="#BitstreamVeraSans-Roman-28"/>
      <use x="296.728515625" xlink:href="#BitstreamVeraSans-Roman-6d"/>
      <use x="394.140625" xlink:href="#BitstreamVeraSans-Roman-73"/>
      <use x="446.240234375" xlink:href="#BitstreamVeraSans-Roman-29"/>
     </g>
    </g>
   </g>
   <g id="matplotlib.axis_2">
    <g id="ytick_1">
     <g id="line2d_14">
      <defs>
       <path d="
M0 0
L4 0" id="m728421d6d4" style="stroke:#000000;stroke-width:0.5;"/>
      </defs>
      <g>
       <use style="stroke:#000000;stroke-width:0.5;" x="72.0" xlink:href="#m728421d6d4" y="388.8"/>
      </g>
     </g>
     <g id="line2d_15">
      <defs>
       <path d="
M0 0
L-4 0" id="mcb0005524f" style="stroke:#000000;stroke-width:0.5;"/>
      </defs>
      <g>
       <use style="stroke:#000000;stroke-width:0.5;" x="518.4" xlink:href="#mcb0005524f" y="388.8"/>
      </g>
     </g>
     <g id="text_8">
      <!-- 0 -->
      <g transform="translate(61.953125 392.11125)scale(0.12 -0.12)">
       <use xlink:href="#BitstreamVeraSans-Roman-30"/>
      </g>
     </g>
    </g>
    <g id="ytick_2">
     <g id="line2d_16">
      <g>
       <use style="stroke:#000000;stroke-width:0.5;" x="72.0" xlink:href="#m728421d6d4" y="339.428571429"/>
      </g>
     </g>
     <g id="line2d_17">
      <g>
       <use style="stroke:#000000;stroke-width:0.5;" x="518.4" xlink:href="#mcb0005524f" y="339.428571429"/>
      </g>
     </g>
     <g id="text_9">
      <!-- 2 -->
      <g transform="translate(62.44625 342.739821429)scale(0.12 -0.12)">
       <use xlink:href="#BitstreamVeraSans-Roman-32"/>
      </g>
     </g>
    </g>
    <g id="ytick_3">
     <g id="line2d_18">
      <g>
       <use style="stroke:#000000;stroke-width:0.5;" x="72.0" xlink:href="#m728421d6d4" y="290.057142857"/>
      </g>
     </g>
     <g id="line2d_19">
      <g>
       <use style="stroke:#000000;stroke-width:0.5;" x="518.4" xlink:href="#mcb0005524f" y="290.057142857"/>
      </g>
     </g>
     <g id="text_10">
      <!-- 4 -->
      <g transform="translate(61.625 293.368392857)scale(0.12 -0.12)">
       <use xlink:href="#BitstreamVeraSans-Roman-34"/>
      </g>
     </g>
    </g>
    <g id="ytick_4">
     <g id="line2d_20">
      <g>
       <use style="stroke:#000000;stroke-width:0.5;" x="72.0" xlink:href="#m728421d6d4" y="240.685714286"/>
      </g>
     </g>
     <g id="line2d_21">
      <g>
       <use style="stroke:#000000;stroke-width:0.5;" x="518.4" xlink:href="#mcb0005524f" y="240.685714286"/>
      </g>
     </g>
     <g id="text_11">
      <!-- 6 -->
      <g transform="translate(61.95875 243.996964286)scale(0.12 -0.12)">
       <use xlink:href="#BitstreamVeraSans-Roman-36"/>
      </g>
     </g>
    </g>
    <g id="ytick_5">
     <g id="line2d_22">
      <g>
       <use style="stroke:#000000;stroke-width:0.5;" x="72.0" xlink:href="#m728421d6d4" y="191.314285714"/>
      </g>
     </g>
     <g id="line2d_23">
      <g>
       <use style="stroke:#000000;stroke-width:0.5;" x="518.4" xlink:href="#mcb0005524f" y="191.314285714"/>
      </g>
     </g>
     <g id="text_12">
      <!-- 8 -->
      <g transform="translate(62.0 194.625535714)scale(0.12 -0.12)">
       <use xlink:href="#BitstreamVeraSans-Roman-38"/>
      </g>
     </g>
    </g>
    <g id="ytick_6">
     <g id="line2d_24">
      <g>
       <use style="stroke:#000000;stroke-width:0.5;" x="72.0" xlink:href="#m728421d6d4" y="141.942857143"/>
      </g>
     </g>
     <g id="line2d_25">
      <g>
       <use style="stroke:#000000;stroke-width:0.5;" x="518.4" xlink:href="#mcb0005524f" y="141.942857143"/>
      </g>
     </g>
     <g id="text_13">
      <!-- 10 -->
      <g transform="translate(54.845 145.254107143)scale(0.12 -0.12)">
       <use xlink:href="#BitstreamVeraSans-Roman-31"/>
       <use x="63.623046875" xlink:href="#BitstreamVeraSans-Roman-30"/>
      </g>
     </g>
    </g>
    <g id="ytick_7">
     <g id="line2d_26">
      <g>
       <use style="stroke:#000000;stroke-width:0.5;" x="72.0" xlink:href="#m728421d6d4" y="92.5714285714"/>
      </g>
     </g>
     <g id="line2d_27">
      <g>
       <use style="stroke:#000000;stroke-width:0.5;" x="518.4" xlink:href="#mcb0005524f" y="92.5714285714"/>
      </g>
     </g>
     <g id="text_14">
      <!-- 12 -->
      <g transform="translate(55.25 95.8826785714)scale(0.12 -0.12)">
       <use xlink:href="#BitstreamVeraSans-Roman-31"/>
       <use x="63.623046875" xlink:href="#BitstreamVeraSans-Roman-32"/>
      </g>
     </g>
    </g>
    <g id="ytick_8">
     <g id="line2d_28">
      <g>
       <use style="stroke:#000000;stroke-width:0.5;" x="72.0" xlink:href="#m728421d6d4" y="43.2"/>
      </g>
     </g>
     <g id="line2d_29">
      <g>
       <use style="stroke:#000000;stroke-width:0.5;" x="518.4" xlink:href="#mcb0005524f" y="43.2"/>
      </g>
     </g>
     <g id="text_15">
      <!-- 14 -->
      <g transform="translate(54.72125 46.51125)scale(0.12 -0.12)">
       <use xlink:href="#BitstreamVeraSans-Roman-31"/>
       <use x="63.623046875" xlink:href="#BitstreamVeraSans-Roman-34"/>
      </g>
     </g>
    </g>
    <g id="text_16">
     <!-- population rate (Hz) -->
     <defs>
      <path d="
M54.8906 33.0156
L54.8906 0
L45.9062 0
L45.9062 32.7188
Q45.9062 40.4844 42.875 44.3281
Q39.8438 48.1875 33.7969 48.1875
Q26.5156 48.1875 22.3125 43.5469
Q18.1094 38.9219 18.1094 30.9062
L18.1094 0
L9.07812 0
L9.07812 54.6875
L18.1094 54.6875
L18.1094 46.1875
Q21.3438 51.125 25.7031 53.5625
Q30.0781 56 35.7969 56
Q45.2188 56 50.0469 50.1719
Q54.8906 44.3438 54.8906 33.0156" id="BitstreamVeraSans-Roman-6e"/>
      <path d="
M41.1094 46.2969
Q39.5938 47.1719 37.8125 47.5781
Q36.0312 48 33.8906 48
Q26.2656 48 22.1875 43.0469
Q18.1094 38.0938 18.1094 28.8125
L18.1094 0
L9.07812 0
L9.07812 54.6875
L18.1094 54.6875
L18.1094 46.1875
Q20.9531 51.1719 25.4844 53.5781
Q30.0312 56 36.5312 56
Q37.4531 56 38.5781 55.875
Q39.7031 55.7656 41.0625 55.5156
z
" id="BitstreamVeraSans-Roman-72"/>
      <path d="
M30.6094 48.3906
Q23.3906 48.3906 19.1875 42.75
Q14.9844 37.1094 14.9844 27.2969
Q14.9844 17.4844 19.1562 11.8438
Q23.3438 6.20312 30.6094 6.20312
Q37.7969 6.20312 41.9844 11.8594
Q46.1875 17.5312 46.1875 27.2969
Q46.1875 37.0156 41.9844 42.7031
Q37.7969 48.3906 30.6094 48.3906
M30.6094 56
Q42.3281 56 49.0156 48.375
Q55.7188 40.7656 55.7188 27.2969
Q55.7188 13.875 49.0156 6.21875
Q42.3281 -1.42188 30.6094 -1.42188
Q18.8438 -1.42188 12.1719 6.21875
Q5.51562 13.875 5.51562 27.2969
Q5.51562 40.7656 12.1719 48.375
Q18.8438 56 30.6094 56" id="BitstreamVeraSans-Roman-6f"/>
      <path d="
M9.42188 75.9844
L18.4062 75.9844
L18.4062 0
L9.42188 0
z
" id="BitstreamVeraSans-Roman-6c"/>
      <path d="
M5.51562 54.6875
L48.1875 54.6875
L48.1875 46.4844
L14.4062 7.17188
L48.1875 7.17188
L48.1875 0
L4.29688 0
L4.29688 8.20312
L38.0938 47.5156
L5.51562 47.5156
z
" id="BitstreamVeraSans-Roman-7a"/>
      <path d="
M8.5 21.5781
L8.5 54.6875
L17.4844 54.6875
L17.4844 21.9219
Q17.4844 14.1562 20.5 10.2656
Q23.5312 6.39062 29.5938 6.39062
Q36.8594 6.39062 41.0781 11.0312
Q45.3125 15.6719 45.3125 23.6875
L45.3125 54.6875
L54.2969 54.6875
L54.2969 0
L45.3125 0
L45.3125 8.40625
Q42.0469 3.42188 37.7188 1
Q33.4062 -1.42188 27.6875 -1.42188
Q18.2656 -1.42188 13.375 4.4375
Q8.5 10.2969 8.5 21.5781" id="BitstreamVeraSans-Roman-75"/>
      <path d="
M34.2812 27.4844
Q23.3906 27.4844 19.1875 25
Q14.9844 22.5156 14.9844 16.5
Q14.9844 11.7188 18.1406 8.90625
Q21.2969 6.10938 26.7031 6.10938
Q34.1875 6.10938 38.7031 11.4062
Q43.2188 16.7031 43.2188 25.4844
L43.2188 27.4844
z

M52.2031 31.2031
L52.2031 0
L43.2188 0
L43.2188 8.29688
Q40.1406 3.32812 35.5469 0.953125
Q30.9531 -1.42188 24.3125 -1.42188
Q15.9219 -1.42188 10.9531 3.29688
Q6 8.01562 6 15.9219
Q6 25.1406 12.1719 29.8281
Q18.3594 34.5156 30.6094 34.5156
L43.2188 34.5156
L43.2188 35.4062
Q43.2188 41.6094 39.1406 45
Q35.0625 48.3906 27.6875 48.3906
Q23 48.3906 18.5469 47.2656
Q14.1094 46.1406 10.0156 43.8906
L10.0156 52.2031
Q14.9375 54.1094 19.5781 55.0469
Q24.2188 56 28.6094 56
Q40.4844 56 46.3438 49.8438
Q52.2031 43.7031 52.2031 31.2031" id="BitstreamVeraSans-Roman-61"/>
      <path d="
M18.1094 8.20312
L18.1094 -20.7969
L9.07812 -20.7969
L9.07812 54.6875
L18.1094 54.6875
L18.1094 46.3906
Q20.9531 51.2656 25.2656 53.625
Q29.5938 56 35.5938 56
Q45.5625 56 51.7812 48.0938
Q58.0156 40.1875 58.0156 27.2969
Q58.0156 14.4062 51.7812 6.48438
Q45.5625 -1.42188 35.5938 -1.42188
Q29.5938 -1.42188 25.2656 0.953125
Q20.9531 3.32812 18.1094 8.20312
M48.6875 27.2969
Q48.6875 37.2031 44.6094 42.8438
Q40.5312 48.4844 33.4062 48.4844
Q26.2656 48.4844 22.1875 42.8438
Q18.1094 37.2031 18.1094 27.2969
Q18.1094 17.3906 22.1875 11.75
Q26.2656 6.10938 33.4062 6.10938
Q40.5312 6.10938 44.6094 11.75
Q48.6875 17.3906 48.6875 27.2969" id="BitstreamVeraSans-Roman-70"/>
      <path d="
M9.8125 72.9062
L19.6719 72.9062
L19.6719 43.0156
L55.5156 43.0156
L55.5156 72.9062
L65.375 72.9062
L65.375 0
L55.5156 0
L55.5156 34.7188
L19.6719 34.7188
L19.6719 0
L9.8125 0
z
" id="BitstreamVeraSans-Roman-48"/>
     </defs>
     <g transform="translate(47.225625 275.7571875)rotate(-90.0)scale(0.12 -0.12)">
      <use xlink:href="#BitstreamVeraSans-Roman-70"/>
      <use x="63.4765625" xlink:href="#BitstreamVeraSans-Roman-6f"/>
      <use x="124.658203125" xlink:href="#BitstreamVeraSans-Roman-70"/>
      <use x="188.134765625" xlink:href="#BitstreamVeraSans-Roman-75"/>
      <use x="251.513671875" xlink:href="#BitstreamVeraSans-Roman-6c"/>
      <use x="279.296875" xlink:href="#BitstreamVeraSans-Roman-61"/>
      <use x="340.576171875" xlink:href="#BitstreamVeraSans-Roman-74"/>
      <use x="379.78515625" xlink:href="#BitstreamVeraSans-Roman-69"/>
      <use x="407.568359375" xlink:href="#BitstreamVeraSans-Roman-6f"/>
      <use x="468.75" xlink:href="#BitstreamVeraSans-Roman-6e"/>
      <use x="532.12890625" xlink:href="#BitstreamVeraSans-Roman-20"/>
      <use x="563.916015625" xlink:href="#BitstreamVeraSans-Roman-72"/>
      <use x="605.029296875" xlink:href="#BitstreamVeraSans-Roman-61"/>
      <use x="666.30859375" xlink:href="#BitstreamVeraSans-Roman-74"/>
      <use x="705.517578125" xlink:href="#BitstreamVeraSans-Roman-65"/>
      <use x="767.041015625" xlink:href="#BitstreamVeraSans-Roman-20"/>
      <use x="798.828125" xlink:href="#BitstreamVeraSans-Roman-28"/>
      <use x="837.841796875" xlink:href="#BitstreamVeraSans-Roman-48"/>
      <use x="913.037109375" xlink:href="#BitstreamVeraSans-Roman-7a"/>
      <use x="965.52734375" xlink:href="#BitstreamVeraSans-Roman-29"/>
     </g>
    </g>
   </g>
  </g>
 </g>
 <defs>
  <clipPath id="p7ff5b81e1d">
   <rect height="345.6" width="446.4" x="72.0" y="43.2"/>
  </clipPath>
 </defs>
</svg>
